G04 #@! TF.GenerationSoftware,KiCad,Pcbnew,(5.1.10)-1*
G04 #@! TF.CreationDate,2021-09-17T19:57:58-07:00*
G04 #@! TF.ProjectId,PrinterExpansion,5072696e-7465-4724-9578-70616e73696f,rev?*
G04 #@! TF.SameCoordinates,Original*
G04 #@! TF.FileFunction,Copper,L1,Top*
G04 #@! TF.FilePolarity,Positive*
%FSLAX46Y46*%
G04 Gerber Fmt 4.6, Leading zero omitted, Abs format (unit mm)*
G04 Created by KiCad (PCBNEW (5.1.10)-1) date 2021-09-17 19:57:58*
%MOMM*%
%LPD*%
G01*
G04 APERTURE LIST*
G04 #@! TA.AperFunction,ComponentPad*
%ADD10O,1.905000X2.000000*%
G04 #@! TD*
G04 #@! TA.AperFunction,ComponentPad*
%ADD11R,1.905000X2.000000*%
G04 #@! TD*
G04 #@! TA.AperFunction,ComponentPad*
%ADD12C,1.600000*%
G04 #@! TD*
G04 #@! TA.AperFunction,ComponentPad*
%ADD13R,1.600000X1.600000*%
G04 #@! TD*
G04 #@! TA.AperFunction,ComponentPad*
%ADD14O,1.600000X1.600000*%
G04 #@! TD*
G04 #@! TA.AperFunction,ComponentPad*
%ADD15C,3.000000*%
G04 #@! TD*
G04 #@! TA.AperFunction,ComponentPad*
%ADD16R,3.000000X3.000000*%
G04 #@! TD*
G04 #@! TA.AperFunction,ComponentPad*
%ADD17O,1.700000X1.700000*%
G04 #@! TD*
G04 #@! TA.AperFunction,ComponentPad*
%ADD18R,1.700000X1.700000*%
G04 #@! TD*
G04 #@! TA.AperFunction,ComponentPad*
%ADD19R,1.500000X1.500000*%
G04 #@! TD*
G04 #@! TA.AperFunction,ComponentPad*
%ADD20C,1.500000*%
G04 #@! TD*
G04 #@! TA.AperFunction,ComponentPad*
%ADD21C,2.540000*%
G04 #@! TD*
G04 #@! TA.AperFunction,ComponentPad*
%ADD22R,2.540000X2.540000*%
G04 #@! TD*
G04 #@! TA.AperFunction,ComponentPad*
%ADD23O,2.190000X1.740000*%
G04 #@! TD*
G04 #@! TA.AperFunction,Conductor*
%ADD24C,1.000000*%
G04 #@! TD*
G04 #@! TA.AperFunction,Conductor*
%ADD25C,0.250000*%
G04 #@! TD*
G04 #@! TA.AperFunction,Conductor*
%ADD26C,0.254000*%
G04 #@! TD*
G04 #@! TA.AperFunction,Conductor*
%ADD27C,0.100000*%
G04 #@! TD*
G04 APERTURE END LIST*
D10*
X83820000Y-59055000D03*
X81280000Y-59055000D03*
D11*
X78740000Y-59055000D03*
D12*
X77510000Y-64135000D03*
D13*
X80010000Y-64135000D03*
D14*
X77470000Y-70485000D03*
D12*
X67310000Y-70485000D03*
D15*
X60325000Y-77470000D03*
D16*
X60325000Y-72390000D03*
D17*
X73660000Y-76835000D03*
X73660000Y-74295000D03*
X76200000Y-76835000D03*
X76200000Y-74295000D03*
X78740000Y-76835000D03*
X78740000Y-74295000D03*
X81280000Y-76835000D03*
D18*
X81280000Y-74295000D03*
D10*
X110490000Y-35560000D03*
X107950000Y-35560000D03*
D11*
X105410000Y-35560000D03*
D14*
X85090000Y-25400000D03*
X77470000Y-48260000D03*
X85090000Y-27940000D03*
X77470000Y-45720000D03*
X85090000Y-30480000D03*
X77470000Y-43180000D03*
X85090000Y-33020000D03*
X77470000Y-40640000D03*
X85090000Y-35560000D03*
X77470000Y-38100000D03*
X85090000Y-38100000D03*
X77470000Y-35560000D03*
X85090000Y-40640000D03*
X77470000Y-33020000D03*
X85090000Y-43180000D03*
X77470000Y-30480000D03*
X85090000Y-45720000D03*
X77470000Y-27940000D03*
X85090000Y-48260000D03*
D13*
X77470000Y-25400000D03*
D17*
X38100000Y-66040000D03*
X35560000Y-66040000D03*
X38100000Y-63500000D03*
X35560000Y-63500000D03*
X38100000Y-60960000D03*
X35560000Y-60960000D03*
X38100000Y-58420000D03*
X35560000Y-58420000D03*
X38100000Y-55880000D03*
X35560000Y-55880000D03*
X38100000Y-53340000D03*
D18*
X35560000Y-53340000D03*
D19*
X97790000Y-54610000D03*
D20*
X102870000Y-54610000D03*
X100330000Y-54610000D03*
D19*
X92710000Y-67310000D03*
D20*
X92710000Y-62230000D03*
X92710000Y-64770000D03*
D19*
X68580000Y-62230000D03*
D20*
X68580000Y-67310000D03*
X68580000Y-64770000D03*
D14*
X73660000Y-52070000D03*
D12*
X73660000Y-62230000D03*
D14*
X68580000Y-45720000D03*
D12*
X68580000Y-55880000D03*
D17*
X90805000Y-76835000D03*
X90805000Y-74295000D03*
X93345000Y-76835000D03*
X93345000Y-74295000D03*
X95885000Y-76835000D03*
X95885000Y-74295000D03*
X98425000Y-76835000D03*
X98425000Y-74295000D03*
X100965000Y-76835000D03*
X100965000Y-74295000D03*
X103505000Y-76835000D03*
D18*
X103505000Y-74295000D03*
D17*
X96520000Y-40640000D03*
X96520000Y-38100000D03*
X96520000Y-35560000D03*
X96520000Y-33020000D03*
X96520000Y-30480000D03*
X96520000Y-27940000D03*
D18*
X96520000Y-25400000D03*
D17*
X93980000Y-40640000D03*
X91440000Y-40640000D03*
X93980000Y-38100000D03*
X91440000Y-38100000D03*
X93980000Y-35560000D03*
X91440000Y-35560000D03*
X93980000Y-33020000D03*
X91440000Y-33020000D03*
X93980000Y-30480000D03*
X91440000Y-30480000D03*
X93980000Y-27940000D03*
X91440000Y-27940000D03*
X93980000Y-25400000D03*
D18*
X91440000Y-25400000D03*
D17*
X71120000Y-40640000D03*
X68580000Y-40640000D03*
X71120000Y-38100000D03*
X68580000Y-38100000D03*
X71120000Y-35560000D03*
X68580000Y-35560000D03*
X71120000Y-33020000D03*
X68580000Y-33020000D03*
X71120000Y-30480000D03*
X68580000Y-30480000D03*
X71120000Y-27940000D03*
X68580000Y-27940000D03*
X71120000Y-25400000D03*
D18*
X68580000Y-25400000D03*
D21*
X62230000Y-25400000D03*
X44450000Y-25400000D03*
X62230000Y-66040000D03*
D22*
X44450000Y-66040000D03*
D14*
X101600000Y-59055000D03*
D12*
X101600000Y-69215000D03*
D14*
X83820000Y-53340000D03*
D12*
X93980000Y-53340000D03*
D14*
X91440000Y-48260000D03*
D12*
X101600000Y-48260000D03*
X83820000Y-67230000D03*
X83820000Y-62230000D03*
X90090000Y-21590000D03*
X85090000Y-21590000D03*
D23*
X109220000Y-46990000D03*
X109220000Y-44450000D03*
G04 #@! TA.AperFunction,ComponentPad*
G36*
G01*
X108374999Y-41040000D02*
X110065001Y-41040000D01*
G75*
G02*
X110315000Y-41289999I0J-249999D01*
G01*
X110315000Y-42530001D01*
G75*
G02*
X110065001Y-42780000I-249999J0D01*
G01*
X108374999Y-42780000D01*
G75*
G02*
X108125000Y-42530001I0J249999D01*
G01*
X108125000Y-41289999D01*
G75*
G02*
X108374999Y-41040000I249999J0D01*
G01*
G37*
G04 #@! TD.AperFunction*
X109220000Y-69850000D03*
G04 #@! TA.AperFunction,ComponentPad*
G36*
G01*
X108374999Y-66440000D02*
X110065001Y-66440000D01*
G75*
G02*
X110315000Y-66689999I0J-249999D01*
G01*
X110315000Y-67930001D01*
G75*
G02*
X110065001Y-68180000I-249999J0D01*
G01*
X108374999Y-68180000D01*
G75*
G02*
X108125000Y-67930001I0J249999D01*
G01*
X108125000Y-66689999D01*
G75*
G02*
X108374999Y-66440000I249999J0D01*
G01*
G37*
G04 #@! TD.AperFunction*
X109220000Y-60960000D03*
X109220000Y-58420000D03*
X109220000Y-55880000D03*
G04 #@! TA.AperFunction,ComponentPad*
G36*
G01*
X108374999Y-52470000D02*
X110065001Y-52470000D01*
G75*
G02*
X110315000Y-52719999I0J-249999D01*
G01*
X110315000Y-53960001D01*
G75*
G02*
X110065001Y-54210000I-249999J0D01*
G01*
X108374999Y-54210000D01*
G75*
G02*
X108125000Y-53960001I0J249999D01*
G01*
X108125000Y-52719999D01*
G75*
G02*
X108374999Y-52470000I249999J0D01*
G01*
G37*
G04 #@! TD.AperFunction*
D24*
X84965998Y-25400000D02*
X85090000Y-25400000D01*
D25*
X89400010Y-35059990D02*
X91440000Y-33020000D01*
X89400010Y-41409990D02*
X89400010Y-35059990D01*
X85090000Y-45720000D02*
X89400010Y-41409990D01*
X91440000Y-30480000D02*
X87630000Y-34290000D01*
X87630000Y-34290000D02*
X87630000Y-38100000D01*
X87630000Y-38100000D02*
X85090000Y-40640000D01*
X85090000Y-35016998D02*
X88900000Y-31206998D01*
X85090000Y-35560000D02*
X85090000Y-35016998D01*
X88900000Y-31206998D02*
X88900000Y-29210000D01*
X90170000Y-27940000D02*
X91440000Y-27940000D01*
X88900000Y-29210000D02*
X90170000Y-27940000D01*
X86360000Y-30480000D02*
X91440000Y-25400000D01*
X85090000Y-30480000D02*
X86360000Y-30480000D01*
X71120000Y-33020000D02*
X74930000Y-36830000D01*
X74930000Y-40640000D02*
X77470000Y-43180000D01*
X74930000Y-36830000D02*
X74930000Y-40640000D01*
X102870000Y-54610000D02*
X106680000Y-58420000D01*
X106680000Y-58420000D02*
X109220000Y-58420000D01*
X106680000Y-64770000D02*
X109220000Y-67310000D01*
X106680000Y-58420000D02*
X106680000Y-64770000D01*
X71120000Y-30480000D02*
X73660000Y-33020000D01*
X73660000Y-34290000D02*
X77470000Y-38100000D01*
X73660000Y-33020000D02*
X73660000Y-34290000D01*
X71120000Y-27940000D02*
X76200000Y-33020000D01*
X76200000Y-33020000D02*
X77470000Y-33020000D01*
X71120000Y-25400000D02*
X72390000Y-25400000D01*
X74930000Y-27940000D02*
X77470000Y-27940000D01*
X72390000Y-25400000D02*
X74930000Y-27940000D01*
X73660000Y-62230000D02*
X73660000Y-58420000D01*
X78740000Y-53340000D02*
X83820000Y-53340000D01*
X73660000Y-58420000D02*
X78740000Y-53340000D01*
X106680000Y-69850000D02*
X109220000Y-69850000D01*
X85090000Y-48260000D02*
X106680000Y-69850000D01*
D26*
X116155001Y-81865000D02*
X32435000Y-81865000D01*
X32435000Y-77249872D01*
X35865000Y-77249872D01*
X35865000Y-77690128D01*
X35950890Y-78121925D01*
X36119369Y-78528669D01*
X36363962Y-78894729D01*
X36675271Y-79206038D01*
X37041331Y-79450631D01*
X37448075Y-79619110D01*
X37879872Y-79705000D01*
X38320128Y-79705000D01*
X38751925Y-79619110D01*
X39158669Y-79450631D01*
X39524729Y-79206038D01*
X39769114Y-78961653D01*
X59012952Y-78961653D01*
X59168962Y-79277214D01*
X59543745Y-79468020D01*
X59948551Y-79582044D01*
X60367824Y-79614902D01*
X60785451Y-79565334D01*
X61185383Y-79435243D01*
X61481038Y-79277214D01*
X61637048Y-78961653D01*
X60325000Y-77649605D01*
X59012952Y-78961653D01*
X39769114Y-78961653D01*
X39836038Y-78894729D01*
X40080631Y-78528669D01*
X40249110Y-78121925D01*
X40335000Y-77690128D01*
X40335000Y-77512824D01*
X58180098Y-77512824D01*
X58229666Y-77930451D01*
X58359757Y-78330383D01*
X58517786Y-78626038D01*
X58833347Y-78782048D01*
X60145395Y-77470000D01*
X60504605Y-77470000D01*
X61816653Y-78782048D01*
X62132214Y-78626038D01*
X62323020Y-78251255D01*
X62437044Y-77846449D01*
X62469902Y-77427176D01*
X62441977Y-77191891D01*
X72218519Y-77191891D01*
X72315843Y-77466252D01*
X72464822Y-77716355D01*
X72659731Y-77932588D01*
X72893080Y-78106641D01*
X73155901Y-78231825D01*
X73303110Y-78276476D01*
X73533000Y-78155155D01*
X73533000Y-76962000D01*
X73787000Y-76962000D01*
X73787000Y-78155155D01*
X74016890Y-78276476D01*
X74164099Y-78231825D01*
X74426920Y-78106641D01*
X74660269Y-77932588D01*
X74855178Y-77716355D01*
X74930000Y-77590745D01*
X75004822Y-77716355D01*
X75199731Y-77932588D01*
X75433080Y-78106641D01*
X75695901Y-78231825D01*
X75843110Y-78276476D01*
X76073000Y-78155155D01*
X76073000Y-76962000D01*
X76327000Y-76962000D01*
X76327000Y-78155155D01*
X76556890Y-78276476D01*
X76704099Y-78231825D01*
X76966920Y-78106641D01*
X77200269Y-77932588D01*
X77395178Y-77716355D01*
X77470000Y-77590745D01*
X77544822Y-77716355D01*
X77739731Y-77932588D01*
X77973080Y-78106641D01*
X78235901Y-78231825D01*
X78383110Y-78276476D01*
X78613000Y-78155155D01*
X78613000Y-76962000D01*
X78867000Y-76962000D01*
X78867000Y-78155155D01*
X79096890Y-78276476D01*
X79244099Y-78231825D01*
X79506920Y-78106641D01*
X79740269Y-77932588D01*
X79935178Y-77716355D01*
X80010000Y-77590745D01*
X80084822Y-77716355D01*
X80279731Y-77932588D01*
X80513080Y-78106641D01*
X80775901Y-78231825D01*
X80923110Y-78276476D01*
X81153000Y-78155155D01*
X81153000Y-76962000D01*
X81407000Y-76962000D01*
X81407000Y-78155155D01*
X81636890Y-78276476D01*
X81784099Y-78231825D01*
X82046920Y-78106641D01*
X82280269Y-77932588D01*
X82475178Y-77716355D01*
X82624157Y-77466252D01*
X82721481Y-77191891D01*
X89363519Y-77191891D01*
X89460843Y-77466252D01*
X89609822Y-77716355D01*
X89804731Y-77932588D01*
X90038080Y-78106641D01*
X90300901Y-78231825D01*
X90448110Y-78276476D01*
X90678000Y-78155155D01*
X90678000Y-76962000D01*
X90932000Y-76962000D01*
X90932000Y-78155155D01*
X91161890Y-78276476D01*
X91309099Y-78231825D01*
X91571920Y-78106641D01*
X91805269Y-77932588D01*
X92000178Y-77716355D01*
X92075000Y-77590745D01*
X92149822Y-77716355D01*
X92344731Y-77932588D01*
X92578080Y-78106641D01*
X92840901Y-78231825D01*
X92988110Y-78276476D01*
X93218000Y-78155155D01*
X93218000Y-76962000D01*
X93472000Y-76962000D01*
X93472000Y-78155155D01*
X93701890Y-78276476D01*
X93849099Y-78231825D01*
X94111920Y-78106641D01*
X94345269Y-77932588D01*
X94540178Y-77716355D01*
X94615000Y-77590745D01*
X94689822Y-77716355D01*
X94884731Y-77932588D01*
X95118080Y-78106641D01*
X95380901Y-78231825D01*
X95528110Y-78276476D01*
X95758000Y-78155155D01*
X95758000Y-76962000D01*
X96012000Y-76962000D01*
X96012000Y-78155155D01*
X96241890Y-78276476D01*
X96389099Y-78231825D01*
X96651920Y-78106641D01*
X96885269Y-77932588D01*
X97080178Y-77716355D01*
X97155000Y-77590745D01*
X97229822Y-77716355D01*
X97424731Y-77932588D01*
X97658080Y-78106641D01*
X97920901Y-78231825D01*
X98068110Y-78276476D01*
X98298000Y-78155155D01*
X98298000Y-76962000D01*
X98552000Y-76962000D01*
X98552000Y-78155155D01*
X98781890Y-78276476D01*
X98929099Y-78231825D01*
X99191920Y-78106641D01*
X99425269Y-77932588D01*
X99620178Y-77716355D01*
X99695000Y-77590745D01*
X99769822Y-77716355D01*
X99964731Y-77932588D01*
X100198080Y-78106641D01*
X100460901Y-78231825D01*
X100608110Y-78276476D01*
X100838000Y-78155155D01*
X100838000Y-76962000D01*
X101092000Y-76962000D01*
X101092000Y-78155155D01*
X101321890Y-78276476D01*
X101469099Y-78231825D01*
X101731920Y-78106641D01*
X101965269Y-77932588D01*
X102160178Y-77716355D01*
X102235000Y-77590745D01*
X102309822Y-77716355D01*
X102504731Y-77932588D01*
X102738080Y-78106641D01*
X103000901Y-78231825D01*
X103148110Y-78276476D01*
X103378000Y-78155155D01*
X103378000Y-76962000D01*
X103632000Y-76962000D01*
X103632000Y-78155155D01*
X103861890Y-78276476D01*
X104009099Y-78231825D01*
X104271920Y-78106641D01*
X104505269Y-77932588D01*
X104700178Y-77716355D01*
X104849157Y-77466252D01*
X104925913Y-77249872D01*
X108255000Y-77249872D01*
X108255000Y-77690128D01*
X108340890Y-78121925D01*
X108509369Y-78528669D01*
X108753962Y-78894729D01*
X109065271Y-79206038D01*
X109431331Y-79450631D01*
X109838075Y-79619110D01*
X110269872Y-79705000D01*
X110710128Y-79705000D01*
X111141925Y-79619110D01*
X111548669Y-79450631D01*
X111914729Y-79206038D01*
X112226038Y-78894729D01*
X112470631Y-78528669D01*
X112639110Y-78121925D01*
X112725000Y-77690128D01*
X112725000Y-77249872D01*
X112639110Y-76818075D01*
X112470631Y-76411331D01*
X112226038Y-76045271D01*
X111914729Y-75733962D01*
X111548669Y-75489369D01*
X111141925Y-75320890D01*
X110710128Y-75235000D01*
X110269872Y-75235000D01*
X109838075Y-75320890D01*
X109431331Y-75489369D01*
X109065271Y-75733962D01*
X108753962Y-76045271D01*
X108509369Y-76411331D01*
X108340890Y-76818075D01*
X108255000Y-77249872D01*
X104925913Y-77249872D01*
X104946481Y-77191891D01*
X104825814Y-76962000D01*
X103632000Y-76962000D01*
X103378000Y-76962000D01*
X101092000Y-76962000D01*
X100838000Y-76962000D01*
X98552000Y-76962000D01*
X98298000Y-76962000D01*
X96012000Y-76962000D01*
X95758000Y-76962000D01*
X93472000Y-76962000D01*
X93218000Y-76962000D01*
X90932000Y-76962000D01*
X90678000Y-76962000D01*
X89484186Y-76962000D01*
X89363519Y-77191891D01*
X82721481Y-77191891D01*
X82600814Y-76962000D01*
X81407000Y-76962000D01*
X81153000Y-76962000D01*
X78867000Y-76962000D01*
X78613000Y-76962000D01*
X76327000Y-76962000D01*
X76073000Y-76962000D01*
X73787000Y-76962000D01*
X73533000Y-76962000D01*
X72339186Y-76962000D01*
X72218519Y-77191891D01*
X62441977Y-77191891D01*
X62420334Y-77009549D01*
X62290243Y-76609617D01*
X62132214Y-76313962D01*
X61816653Y-76157952D01*
X60504605Y-77470000D01*
X60145395Y-77470000D01*
X58833347Y-76157952D01*
X58517786Y-76313962D01*
X58326980Y-76688745D01*
X58212956Y-77093551D01*
X58180098Y-77512824D01*
X40335000Y-77512824D01*
X40335000Y-77249872D01*
X40249110Y-76818075D01*
X40080631Y-76411331D01*
X39836038Y-76045271D01*
X39769114Y-75978347D01*
X59012952Y-75978347D01*
X60325000Y-77290395D01*
X61637048Y-75978347D01*
X61481038Y-75662786D01*
X61106255Y-75471980D01*
X60701449Y-75357956D01*
X60282176Y-75325098D01*
X59864549Y-75374666D01*
X59464617Y-75504757D01*
X59168962Y-75662786D01*
X59012952Y-75978347D01*
X39769114Y-75978347D01*
X39524729Y-75733962D01*
X39158669Y-75489369D01*
X38751925Y-75320890D01*
X38320128Y-75235000D01*
X37879872Y-75235000D01*
X37448075Y-75320890D01*
X37041331Y-75489369D01*
X36675271Y-75733962D01*
X36363962Y-76045271D01*
X36119369Y-76411331D01*
X35950890Y-76818075D01*
X35865000Y-77249872D01*
X32435000Y-77249872D01*
X32435000Y-70890000D01*
X58186928Y-70890000D01*
X58186928Y-73890000D01*
X58199188Y-74014482D01*
X58235498Y-74134180D01*
X58294463Y-74244494D01*
X58373815Y-74341185D01*
X58470506Y-74420537D01*
X58580820Y-74479502D01*
X58700518Y-74515812D01*
X58825000Y-74528072D01*
X61825000Y-74528072D01*
X61949482Y-74515812D01*
X62069180Y-74479502D01*
X62179494Y-74420537D01*
X62276185Y-74341185D01*
X62355537Y-74244494D01*
X62406719Y-74148740D01*
X72175000Y-74148740D01*
X72175000Y-74441260D01*
X72232068Y-74728158D01*
X72344010Y-74998411D01*
X72506525Y-75241632D01*
X72713368Y-75448475D01*
X72889406Y-75566100D01*
X72659731Y-75737412D01*
X72464822Y-75953645D01*
X72315843Y-76203748D01*
X72218519Y-76478109D01*
X72339186Y-76708000D01*
X73533000Y-76708000D01*
X73533000Y-76688000D01*
X73787000Y-76688000D01*
X73787000Y-76708000D01*
X76073000Y-76708000D01*
X76073000Y-76688000D01*
X76327000Y-76688000D01*
X76327000Y-76708000D01*
X78613000Y-76708000D01*
X78613000Y-76688000D01*
X78867000Y-76688000D01*
X78867000Y-76708000D01*
X81153000Y-76708000D01*
X81153000Y-76688000D01*
X81407000Y-76688000D01*
X81407000Y-76708000D01*
X82600814Y-76708000D01*
X82721481Y-76478109D01*
X82624157Y-76203748D01*
X82475178Y-75953645D01*
X82298374Y-75757498D01*
X82374180Y-75734502D01*
X82484494Y-75675537D01*
X82581185Y-75596185D01*
X82660537Y-75499494D01*
X82719502Y-75389180D01*
X82755812Y-75269482D01*
X82768072Y-75145000D01*
X82768072Y-74148740D01*
X89320000Y-74148740D01*
X89320000Y-74441260D01*
X89377068Y-74728158D01*
X89489010Y-74998411D01*
X89651525Y-75241632D01*
X89858368Y-75448475D01*
X90034406Y-75566100D01*
X89804731Y-75737412D01*
X89609822Y-75953645D01*
X89460843Y-76203748D01*
X89363519Y-76478109D01*
X89484186Y-76708000D01*
X90678000Y-76708000D01*
X90678000Y-76688000D01*
X90932000Y-76688000D01*
X90932000Y-76708000D01*
X93218000Y-76708000D01*
X93218000Y-76688000D01*
X93472000Y-76688000D01*
X93472000Y-76708000D01*
X95758000Y-76708000D01*
X95758000Y-76688000D01*
X96012000Y-76688000D01*
X96012000Y-76708000D01*
X98298000Y-76708000D01*
X98298000Y-76688000D01*
X98552000Y-76688000D01*
X98552000Y-76708000D01*
X100838000Y-76708000D01*
X100838000Y-76688000D01*
X101092000Y-76688000D01*
X101092000Y-76708000D01*
X103378000Y-76708000D01*
X103378000Y-76688000D01*
X103632000Y-76688000D01*
X103632000Y-76708000D01*
X104825814Y-76708000D01*
X104946481Y-76478109D01*
X104849157Y-76203748D01*
X104700178Y-75953645D01*
X104523374Y-75757498D01*
X104599180Y-75734502D01*
X104709494Y-75675537D01*
X104806185Y-75596185D01*
X104885537Y-75499494D01*
X104944502Y-75389180D01*
X104980812Y-75269482D01*
X104993072Y-75145000D01*
X104993072Y-73445000D01*
X104980812Y-73320518D01*
X104944502Y-73200820D01*
X104885537Y-73090506D01*
X104806185Y-72993815D01*
X104709494Y-72914463D01*
X104599180Y-72855498D01*
X104479482Y-72819188D01*
X104355000Y-72806928D01*
X102655000Y-72806928D01*
X102530518Y-72819188D01*
X102410820Y-72855498D01*
X102300506Y-72914463D01*
X102203815Y-72993815D01*
X102124463Y-73090506D01*
X102065498Y-73200820D01*
X102043487Y-73273380D01*
X101911632Y-73141525D01*
X101668411Y-72979010D01*
X101398158Y-72867068D01*
X101111260Y-72810000D01*
X100818740Y-72810000D01*
X100531842Y-72867068D01*
X100261589Y-72979010D01*
X100018368Y-73141525D01*
X99811525Y-73348368D01*
X99695000Y-73522760D01*
X99578475Y-73348368D01*
X99371632Y-73141525D01*
X99128411Y-72979010D01*
X98858158Y-72867068D01*
X98571260Y-72810000D01*
X98278740Y-72810000D01*
X97991842Y-72867068D01*
X97721589Y-72979010D01*
X97478368Y-73141525D01*
X97271525Y-73348368D01*
X97155000Y-73522760D01*
X97038475Y-73348368D01*
X96831632Y-73141525D01*
X96588411Y-72979010D01*
X96318158Y-72867068D01*
X96031260Y-72810000D01*
X95738740Y-72810000D01*
X95451842Y-72867068D01*
X95181589Y-72979010D01*
X94938368Y-73141525D01*
X94731525Y-73348368D01*
X94615000Y-73522760D01*
X94498475Y-73348368D01*
X94291632Y-73141525D01*
X94048411Y-72979010D01*
X93778158Y-72867068D01*
X93491260Y-72810000D01*
X93198740Y-72810000D01*
X92911842Y-72867068D01*
X92641589Y-72979010D01*
X92398368Y-73141525D01*
X92191525Y-73348368D01*
X92075000Y-73522760D01*
X91958475Y-73348368D01*
X91751632Y-73141525D01*
X91508411Y-72979010D01*
X91238158Y-72867068D01*
X90951260Y-72810000D01*
X90658740Y-72810000D01*
X90371842Y-72867068D01*
X90101589Y-72979010D01*
X89858368Y-73141525D01*
X89651525Y-73348368D01*
X89489010Y-73591589D01*
X89377068Y-73861842D01*
X89320000Y-74148740D01*
X82768072Y-74148740D01*
X82768072Y-73445000D01*
X82755812Y-73320518D01*
X82719502Y-73200820D01*
X82660537Y-73090506D01*
X82581185Y-72993815D01*
X82484494Y-72914463D01*
X82374180Y-72855498D01*
X82254482Y-72819188D01*
X82130000Y-72806928D01*
X80430000Y-72806928D01*
X80305518Y-72819188D01*
X80185820Y-72855498D01*
X80075506Y-72914463D01*
X79978815Y-72993815D01*
X79899463Y-73090506D01*
X79840498Y-73200820D01*
X79818487Y-73273380D01*
X79686632Y-73141525D01*
X79443411Y-72979010D01*
X79173158Y-72867068D01*
X78886260Y-72810000D01*
X78593740Y-72810000D01*
X78306842Y-72867068D01*
X78036589Y-72979010D01*
X77793368Y-73141525D01*
X77586525Y-73348368D01*
X77470000Y-73522760D01*
X77353475Y-73348368D01*
X77146632Y-73141525D01*
X76903411Y-72979010D01*
X76633158Y-72867068D01*
X76346260Y-72810000D01*
X76053740Y-72810000D01*
X75766842Y-72867068D01*
X75496589Y-72979010D01*
X75253368Y-73141525D01*
X75046525Y-73348368D01*
X74930000Y-73522760D01*
X74813475Y-73348368D01*
X74606632Y-73141525D01*
X74363411Y-72979010D01*
X74093158Y-72867068D01*
X73806260Y-72810000D01*
X73513740Y-72810000D01*
X73226842Y-72867068D01*
X72956589Y-72979010D01*
X72713368Y-73141525D01*
X72506525Y-73348368D01*
X72344010Y-73591589D01*
X72232068Y-73861842D01*
X72175000Y-74148740D01*
X62406719Y-74148740D01*
X62414502Y-74134180D01*
X62450812Y-74014482D01*
X62463072Y-73890000D01*
X62463072Y-71477702D01*
X66496903Y-71477702D01*
X66568486Y-71721671D01*
X66823996Y-71842571D01*
X67098184Y-71911300D01*
X67380512Y-71925217D01*
X67660130Y-71883787D01*
X67926292Y-71788603D01*
X68051514Y-71721671D01*
X68123097Y-71477702D01*
X67310000Y-70664605D01*
X66496903Y-71477702D01*
X62463072Y-71477702D01*
X62463072Y-70890000D01*
X62450812Y-70765518D01*
X62414502Y-70645820D01*
X62366231Y-70555512D01*
X65869783Y-70555512D01*
X65911213Y-70835130D01*
X66006397Y-71101292D01*
X66073329Y-71226514D01*
X66317298Y-71298097D01*
X67130395Y-70485000D01*
X67489605Y-70485000D01*
X68302702Y-71298097D01*
X68546671Y-71226514D01*
X68667571Y-70971004D01*
X68736300Y-70696816D01*
X68750217Y-70414488D01*
X68739724Y-70343665D01*
X76035000Y-70343665D01*
X76035000Y-70626335D01*
X76090147Y-70903574D01*
X76198320Y-71164727D01*
X76355363Y-71399759D01*
X76555241Y-71599637D01*
X76790273Y-71756680D01*
X77051426Y-71864853D01*
X77328665Y-71920000D01*
X77611335Y-71920000D01*
X77888574Y-71864853D01*
X78149727Y-71756680D01*
X78384759Y-71599637D01*
X78584637Y-71399759D01*
X78741680Y-71164727D01*
X78849853Y-70903574D01*
X78905000Y-70626335D01*
X78905000Y-70343665D01*
X78849853Y-70066426D01*
X78741680Y-69805273D01*
X78584637Y-69570241D01*
X78384759Y-69370363D01*
X78149727Y-69213320D01*
X77888574Y-69105147D01*
X77730306Y-69073665D01*
X100165000Y-69073665D01*
X100165000Y-69356335D01*
X100220147Y-69633574D01*
X100328320Y-69894727D01*
X100485363Y-70129759D01*
X100685241Y-70329637D01*
X100920273Y-70486680D01*
X101181426Y-70594853D01*
X101458665Y-70650000D01*
X101741335Y-70650000D01*
X102018574Y-70594853D01*
X102279727Y-70486680D01*
X102514759Y-70329637D01*
X102714637Y-70129759D01*
X102871680Y-69894727D01*
X102979853Y-69633574D01*
X103035000Y-69356335D01*
X103035000Y-69073665D01*
X102979853Y-68796426D01*
X102871680Y-68535273D01*
X102714637Y-68300241D01*
X102514759Y-68100363D01*
X102279727Y-67943320D01*
X102018574Y-67835147D01*
X101741335Y-67780000D01*
X101458665Y-67780000D01*
X101181426Y-67835147D01*
X100920273Y-67943320D01*
X100685241Y-68100363D01*
X100485363Y-68300241D01*
X100328320Y-68535273D01*
X100220147Y-68796426D01*
X100165000Y-69073665D01*
X77730306Y-69073665D01*
X77611335Y-69050000D01*
X77328665Y-69050000D01*
X77051426Y-69105147D01*
X76790273Y-69213320D01*
X76555241Y-69370363D01*
X76355363Y-69570241D01*
X76198320Y-69805273D01*
X76090147Y-70066426D01*
X76035000Y-70343665D01*
X68739724Y-70343665D01*
X68708787Y-70134870D01*
X68613603Y-69868708D01*
X68546671Y-69743486D01*
X68302702Y-69671903D01*
X67489605Y-70485000D01*
X67130395Y-70485000D01*
X66317298Y-69671903D01*
X66073329Y-69743486D01*
X65952429Y-69998996D01*
X65883700Y-70273184D01*
X65869783Y-70555512D01*
X62366231Y-70555512D01*
X62355537Y-70535506D01*
X62276185Y-70438815D01*
X62179494Y-70359463D01*
X62069180Y-70300498D01*
X61949482Y-70264188D01*
X61825000Y-70251928D01*
X58825000Y-70251928D01*
X58700518Y-70264188D01*
X58580820Y-70300498D01*
X58470506Y-70359463D01*
X58373815Y-70438815D01*
X58294463Y-70535506D01*
X58235498Y-70645820D01*
X58199188Y-70765518D01*
X58186928Y-70890000D01*
X32435000Y-70890000D01*
X32435000Y-69492298D01*
X66496903Y-69492298D01*
X67310000Y-70305395D01*
X68123097Y-69492298D01*
X68051514Y-69248329D01*
X67796004Y-69127429D01*
X67521816Y-69058700D01*
X67239488Y-69044783D01*
X66959870Y-69086213D01*
X66693708Y-69181397D01*
X66568486Y-69248329D01*
X66496903Y-69492298D01*
X32435000Y-69492298D01*
X32435000Y-52490000D01*
X34071928Y-52490000D01*
X34071928Y-54190000D01*
X34084188Y-54314482D01*
X34120498Y-54434180D01*
X34179463Y-54544494D01*
X34258815Y-54641185D01*
X34355506Y-54720537D01*
X34465820Y-54779502D01*
X34538380Y-54801513D01*
X34406525Y-54933368D01*
X34244010Y-55176589D01*
X34132068Y-55446842D01*
X34075000Y-55733740D01*
X34075000Y-56026260D01*
X34132068Y-56313158D01*
X34244010Y-56583411D01*
X34406525Y-56826632D01*
X34613368Y-57033475D01*
X34787760Y-57150000D01*
X34613368Y-57266525D01*
X34406525Y-57473368D01*
X34244010Y-57716589D01*
X34132068Y-57986842D01*
X34075000Y-58273740D01*
X34075000Y-58566260D01*
X34132068Y-58853158D01*
X34244010Y-59123411D01*
X34406525Y-59366632D01*
X34613368Y-59573475D01*
X34787760Y-59690000D01*
X34613368Y-59806525D01*
X34406525Y-60013368D01*
X34244010Y-60256589D01*
X34132068Y-60526842D01*
X34075000Y-60813740D01*
X34075000Y-61106260D01*
X34132068Y-61393158D01*
X34244010Y-61663411D01*
X34406525Y-61906632D01*
X34613368Y-62113475D01*
X34787760Y-62230000D01*
X34613368Y-62346525D01*
X34406525Y-62553368D01*
X34244010Y-62796589D01*
X34132068Y-63066842D01*
X34075000Y-63353740D01*
X34075000Y-63646260D01*
X34132068Y-63933158D01*
X34244010Y-64203411D01*
X34406525Y-64446632D01*
X34613368Y-64653475D01*
X34787760Y-64770000D01*
X34613368Y-64886525D01*
X34406525Y-65093368D01*
X34244010Y-65336589D01*
X34132068Y-65606842D01*
X34075000Y-65893740D01*
X34075000Y-66186260D01*
X34132068Y-66473158D01*
X34244010Y-66743411D01*
X34406525Y-66986632D01*
X34613368Y-67193475D01*
X34856589Y-67355990D01*
X35126842Y-67467932D01*
X35413740Y-67525000D01*
X35706260Y-67525000D01*
X35993158Y-67467932D01*
X36263411Y-67355990D01*
X36506632Y-67193475D01*
X36713475Y-66986632D01*
X36831100Y-66810594D01*
X37002412Y-67040269D01*
X37218645Y-67235178D01*
X37468748Y-67384157D01*
X37743109Y-67481481D01*
X37973000Y-67360814D01*
X37973000Y-66167000D01*
X38227000Y-66167000D01*
X38227000Y-67360814D01*
X38456891Y-67481481D01*
X38731252Y-67384157D01*
X38981355Y-67235178D01*
X39197588Y-67040269D01*
X39371641Y-66806920D01*
X39496825Y-66544099D01*
X39541476Y-66396890D01*
X39420155Y-66167000D01*
X38227000Y-66167000D01*
X37973000Y-66167000D01*
X37953000Y-66167000D01*
X37953000Y-65913000D01*
X37973000Y-65913000D01*
X37973000Y-63627000D01*
X38227000Y-63627000D01*
X38227000Y-65913000D01*
X39420155Y-65913000D01*
X39541476Y-65683110D01*
X39496825Y-65535901D01*
X39371641Y-65273080D01*
X39197588Y-65039731D01*
X38981355Y-64844822D01*
X38855745Y-64770000D01*
X42541928Y-64770000D01*
X42541928Y-67310000D01*
X42554188Y-67434482D01*
X42590498Y-67554180D01*
X42649463Y-67664494D01*
X42728815Y-67761185D01*
X42825506Y-67840537D01*
X42935820Y-67899502D01*
X43055518Y-67935812D01*
X43180000Y-67948072D01*
X45720000Y-67948072D01*
X45844482Y-67935812D01*
X45964180Y-67899502D01*
X46074494Y-67840537D01*
X46171185Y-67761185D01*
X46250537Y-67664494D01*
X46309502Y-67554180D01*
X46345812Y-67434482D01*
X46352374Y-67367852D01*
X61081753Y-67367852D01*
X61210076Y-67659871D01*
X61545695Y-67827723D01*
X61907611Y-67926874D01*
X62281916Y-67953514D01*
X62654227Y-67906618D01*
X63010235Y-67787988D01*
X63249924Y-67659871D01*
X63378247Y-67367852D01*
X62230000Y-66219605D01*
X61081753Y-67367852D01*
X46352374Y-67367852D01*
X46358072Y-67310000D01*
X46358072Y-66091916D01*
X60316486Y-66091916D01*
X60363382Y-66464227D01*
X60482012Y-66820235D01*
X60610129Y-67059924D01*
X60902148Y-67188247D01*
X62050395Y-66040000D01*
X62409605Y-66040000D01*
X63557852Y-67188247D01*
X63849871Y-67059924D01*
X64017723Y-66724305D01*
X64116874Y-66362389D01*
X64143514Y-65988084D01*
X64096618Y-65615773D01*
X63977988Y-65259765D01*
X63849871Y-65020076D01*
X63557852Y-64891753D01*
X62409605Y-66040000D01*
X62050395Y-66040000D01*
X60902148Y-64891753D01*
X60610129Y-65020076D01*
X60442277Y-65355695D01*
X60343126Y-65717611D01*
X60316486Y-66091916D01*
X46358072Y-66091916D01*
X46358072Y-64770000D01*
X46352375Y-64712148D01*
X61081753Y-64712148D01*
X62230000Y-65860395D01*
X63378247Y-64712148D01*
X63249924Y-64420129D01*
X62914305Y-64252277D01*
X62552389Y-64153126D01*
X62178084Y-64126486D01*
X61805773Y-64173382D01*
X61449765Y-64292012D01*
X61210076Y-64420129D01*
X61081753Y-64712148D01*
X46352375Y-64712148D01*
X46345812Y-64645518D01*
X46309502Y-64525820D01*
X46250537Y-64415506D01*
X46171185Y-64318815D01*
X46074494Y-64239463D01*
X45964180Y-64180498D01*
X45844482Y-64144188D01*
X45720000Y-64131928D01*
X43180000Y-64131928D01*
X43055518Y-64144188D01*
X42935820Y-64180498D01*
X42825506Y-64239463D01*
X42728815Y-64318815D01*
X42649463Y-64415506D01*
X42590498Y-64525820D01*
X42554188Y-64645518D01*
X42541928Y-64770000D01*
X38855745Y-64770000D01*
X38981355Y-64695178D01*
X39197588Y-64500269D01*
X39371641Y-64266920D01*
X39496825Y-64004099D01*
X39541476Y-63856890D01*
X39420155Y-63627000D01*
X38227000Y-63627000D01*
X37973000Y-63627000D01*
X37953000Y-63627000D01*
X37953000Y-63373000D01*
X37973000Y-63373000D01*
X37973000Y-61087000D01*
X38227000Y-61087000D01*
X38227000Y-63373000D01*
X39420155Y-63373000D01*
X39541476Y-63143110D01*
X39496825Y-62995901D01*
X39489252Y-62980000D01*
X67191928Y-62980000D01*
X67204188Y-63104482D01*
X67240498Y-63224180D01*
X67299463Y-63334494D01*
X67378815Y-63431185D01*
X67475506Y-63510537D01*
X67585820Y-63569502D01*
X67705518Y-63605812D01*
X67813483Y-63616445D01*
X67697114Y-63694201D01*
X67504201Y-63887114D01*
X67352629Y-64113957D01*
X67248225Y-64366011D01*
X67195000Y-64633589D01*
X67195000Y-64906411D01*
X67248225Y-65173989D01*
X67352629Y-65426043D01*
X67504201Y-65652886D01*
X67697114Y-65845799D01*
X67923957Y-65997371D01*
X68026873Y-66040000D01*
X67923957Y-66082629D01*
X67697114Y-66234201D01*
X67504201Y-66427114D01*
X67352629Y-66653957D01*
X67248225Y-66906011D01*
X67195000Y-67173589D01*
X67195000Y-67446411D01*
X67248225Y-67713989D01*
X67352629Y-67966043D01*
X67504201Y-68192886D01*
X67697114Y-68385799D01*
X67923957Y-68537371D01*
X68176011Y-68641775D01*
X68443589Y-68695000D01*
X68716411Y-68695000D01*
X68983989Y-68641775D01*
X69236043Y-68537371D01*
X69462886Y-68385799D01*
X69625983Y-68222702D01*
X83006903Y-68222702D01*
X83078486Y-68466671D01*
X83333996Y-68587571D01*
X83608184Y-68656300D01*
X83890512Y-68670217D01*
X84170130Y-68628787D01*
X84436292Y-68533603D01*
X84561514Y-68466671D01*
X84633097Y-68222702D01*
X84470395Y-68060000D01*
X91321928Y-68060000D01*
X91334188Y-68184482D01*
X91370498Y-68304180D01*
X91429463Y-68414494D01*
X91508815Y-68511185D01*
X91605506Y-68590537D01*
X91715820Y-68649502D01*
X91835518Y-68685812D01*
X91960000Y-68698072D01*
X92424250Y-68695000D01*
X92583000Y-68536250D01*
X92583000Y-67437000D01*
X92837000Y-67437000D01*
X92837000Y-68536250D01*
X92995750Y-68695000D01*
X93460000Y-68698072D01*
X93584482Y-68685812D01*
X93704180Y-68649502D01*
X93814494Y-68590537D01*
X93911185Y-68511185D01*
X93990537Y-68414494D01*
X94049502Y-68304180D01*
X94085812Y-68184482D01*
X94098072Y-68060000D01*
X94095000Y-67595750D01*
X93936250Y-67437000D01*
X92837000Y-67437000D01*
X92583000Y-67437000D01*
X91483750Y-67437000D01*
X91325000Y-67595750D01*
X91321928Y-68060000D01*
X84470395Y-68060000D01*
X83820000Y-67409605D01*
X83006903Y-68222702D01*
X69625983Y-68222702D01*
X69655799Y-68192886D01*
X69807371Y-67966043D01*
X69911775Y-67713989D01*
X69965000Y-67446411D01*
X69965000Y-67300512D01*
X82379783Y-67300512D01*
X82421213Y-67580130D01*
X82516397Y-67846292D01*
X82583329Y-67971514D01*
X82827298Y-68043097D01*
X83640395Y-67230000D01*
X83999605Y-67230000D01*
X84812702Y-68043097D01*
X85056671Y-67971514D01*
X85177571Y-67716004D01*
X85246300Y-67441816D01*
X85260217Y-67159488D01*
X85218787Y-66879870D01*
X85123603Y-66613708D01*
X85094896Y-66560000D01*
X91321928Y-66560000D01*
X91325000Y-67024250D01*
X91483750Y-67183000D01*
X92583000Y-67183000D01*
X92583000Y-67163000D01*
X92837000Y-67163000D01*
X92837000Y-67183000D01*
X93936250Y-67183000D01*
X94095000Y-67024250D01*
X94098072Y-66560000D01*
X94085812Y-66435518D01*
X94049502Y-66315820D01*
X93990537Y-66205506D01*
X93911185Y-66108815D01*
X93814494Y-66029463D01*
X93704180Y-65970498D01*
X93584482Y-65934188D01*
X93476517Y-65923555D01*
X93592886Y-65845799D01*
X93785799Y-65652886D01*
X93937371Y-65426043D01*
X94041775Y-65173989D01*
X94095000Y-64906411D01*
X94095000Y-64633589D01*
X94041775Y-64366011D01*
X93937371Y-64113957D01*
X93785799Y-63887114D01*
X93592886Y-63694201D01*
X93366043Y-63542629D01*
X93263127Y-63500000D01*
X93366043Y-63457371D01*
X93592886Y-63305799D01*
X93785799Y-63112886D01*
X93937371Y-62886043D01*
X94041775Y-62633989D01*
X94095000Y-62366411D01*
X94095000Y-62093589D01*
X94041775Y-61826011D01*
X93937371Y-61573957D01*
X93785799Y-61347114D01*
X93592886Y-61154201D01*
X93366043Y-61002629D01*
X93113989Y-60898225D01*
X92846411Y-60845000D01*
X92573589Y-60845000D01*
X92306011Y-60898225D01*
X92053957Y-61002629D01*
X91827114Y-61154201D01*
X91634201Y-61347114D01*
X91482629Y-61573957D01*
X91378225Y-61826011D01*
X91325000Y-62093589D01*
X91325000Y-62366411D01*
X91378225Y-62633989D01*
X91482629Y-62886043D01*
X91634201Y-63112886D01*
X91827114Y-63305799D01*
X92053957Y-63457371D01*
X92156873Y-63500000D01*
X92053957Y-63542629D01*
X91827114Y-63694201D01*
X91634201Y-63887114D01*
X91482629Y-64113957D01*
X91378225Y-64366011D01*
X91325000Y-64633589D01*
X91325000Y-64906411D01*
X91378225Y-65173989D01*
X91482629Y-65426043D01*
X91634201Y-65652886D01*
X91827114Y-65845799D01*
X91943483Y-65923555D01*
X91835518Y-65934188D01*
X91715820Y-65970498D01*
X91605506Y-66029463D01*
X91508815Y-66108815D01*
X91429463Y-66205506D01*
X91370498Y-66315820D01*
X91334188Y-66435518D01*
X91321928Y-66560000D01*
X85094896Y-66560000D01*
X85056671Y-66488486D01*
X84812702Y-66416903D01*
X83999605Y-67230000D01*
X83640395Y-67230000D01*
X82827298Y-66416903D01*
X82583329Y-66488486D01*
X82462429Y-66743996D01*
X82393700Y-67018184D01*
X82379783Y-67300512D01*
X69965000Y-67300512D01*
X69965000Y-67173589D01*
X69911775Y-66906011D01*
X69807371Y-66653957D01*
X69655799Y-66427114D01*
X69465983Y-66237298D01*
X83006903Y-66237298D01*
X83820000Y-67050395D01*
X84633097Y-66237298D01*
X84561514Y-65993329D01*
X84306004Y-65872429D01*
X84031816Y-65803700D01*
X83749488Y-65789783D01*
X83469870Y-65831213D01*
X83203708Y-65926397D01*
X83078486Y-65993329D01*
X83006903Y-66237298D01*
X69465983Y-66237298D01*
X69462886Y-66234201D01*
X69236043Y-66082629D01*
X69133127Y-66040000D01*
X69236043Y-65997371D01*
X69462886Y-65845799D01*
X69655799Y-65652886D01*
X69807371Y-65426043D01*
X69911775Y-65173989D01*
X69920982Y-65127702D01*
X76696903Y-65127702D01*
X76768486Y-65371671D01*
X77023996Y-65492571D01*
X77298184Y-65561300D01*
X77580512Y-65575217D01*
X77860130Y-65533787D01*
X78126292Y-65438603D01*
X78251514Y-65371671D01*
X78323097Y-65127702D01*
X77510000Y-64314605D01*
X76696903Y-65127702D01*
X69920982Y-65127702D01*
X69965000Y-64906411D01*
X69965000Y-64633589D01*
X69911775Y-64366011D01*
X69845295Y-64205512D01*
X76069783Y-64205512D01*
X76111213Y-64485130D01*
X76206397Y-64751292D01*
X76273329Y-64876514D01*
X76517298Y-64948097D01*
X77330395Y-64135000D01*
X77689605Y-64135000D01*
X78502702Y-64948097D01*
X78571928Y-64927785D01*
X78571928Y-64935000D01*
X78584188Y-65059482D01*
X78620498Y-65179180D01*
X78679463Y-65289494D01*
X78758815Y-65386185D01*
X78855506Y-65465537D01*
X78965820Y-65524502D01*
X79085518Y-65560812D01*
X79210000Y-65573072D01*
X80810000Y-65573072D01*
X80934482Y-65560812D01*
X81054180Y-65524502D01*
X81164494Y-65465537D01*
X81261185Y-65386185D01*
X81340537Y-65289494D01*
X81399502Y-65179180D01*
X81435812Y-65059482D01*
X81448072Y-64935000D01*
X81448072Y-63335000D01*
X81435812Y-63210518D01*
X81399502Y-63090820D01*
X81340537Y-62980506D01*
X81261185Y-62883815D01*
X81164494Y-62804463D01*
X81054180Y-62745498D01*
X80934482Y-62709188D01*
X80810000Y-62696928D01*
X79210000Y-62696928D01*
X79085518Y-62709188D01*
X78965820Y-62745498D01*
X78855506Y-62804463D01*
X78758815Y-62883815D01*
X78679463Y-62980506D01*
X78620498Y-63090820D01*
X78584188Y-63210518D01*
X78571928Y-63335000D01*
X78571928Y-63342215D01*
X78502702Y-63321903D01*
X77689605Y-64135000D01*
X77330395Y-64135000D01*
X76517298Y-63321903D01*
X76273329Y-63393486D01*
X76152429Y-63648996D01*
X76083700Y-63923184D01*
X76069783Y-64205512D01*
X69845295Y-64205512D01*
X69807371Y-64113957D01*
X69655799Y-63887114D01*
X69462886Y-63694201D01*
X69346517Y-63616445D01*
X69454482Y-63605812D01*
X69574180Y-63569502D01*
X69684494Y-63510537D01*
X69781185Y-63431185D01*
X69860537Y-63334494D01*
X69919502Y-63224180D01*
X69955812Y-63104482D01*
X69968072Y-62980000D01*
X69965000Y-62515750D01*
X69806250Y-62357000D01*
X68707000Y-62357000D01*
X68707000Y-62377000D01*
X68453000Y-62377000D01*
X68453000Y-62357000D01*
X67353750Y-62357000D01*
X67195000Y-62515750D01*
X67191928Y-62980000D01*
X39489252Y-62980000D01*
X39371641Y-62733080D01*
X39197588Y-62499731D01*
X38981355Y-62304822D01*
X38855745Y-62230000D01*
X38981355Y-62155178D01*
X39197588Y-61960269D01*
X39371641Y-61726920D01*
X39489251Y-61480000D01*
X67191928Y-61480000D01*
X67195000Y-61944250D01*
X67353750Y-62103000D01*
X68453000Y-62103000D01*
X68453000Y-61003750D01*
X68707000Y-61003750D01*
X68707000Y-62103000D01*
X69806250Y-62103000D01*
X69820585Y-62088665D01*
X72225000Y-62088665D01*
X72225000Y-62371335D01*
X72280147Y-62648574D01*
X72388320Y-62909727D01*
X72545363Y-63144759D01*
X72745241Y-63344637D01*
X72980273Y-63501680D01*
X73241426Y-63609853D01*
X73518665Y-63665000D01*
X73801335Y-63665000D01*
X74078574Y-63609853D01*
X74339727Y-63501680D01*
X74574759Y-63344637D01*
X74774637Y-63144759D01*
X74776281Y-63142298D01*
X76696903Y-63142298D01*
X77510000Y-63955395D01*
X78323097Y-63142298D01*
X78251514Y-62898329D01*
X77996004Y-62777429D01*
X77721816Y-62708700D01*
X77439488Y-62694783D01*
X77159870Y-62736213D01*
X76893708Y-62831397D01*
X76768486Y-62898329D01*
X76696903Y-63142298D01*
X74776281Y-63142298D01*
X74931680Y-62909727D01*
X75039853Y-62648574D01*
X75095000Y-62371335D01*
X75095000Y-62088665D01*
X82385000Y-62088665D01*
X82385000Y-62371335D01*
X82440147Y-62648574D01*
X82548320Y-62909727D01*
X82705363Y-63144759D01*
X82905241Y-63344637D01*
X83140273Y-63501680D01*
X83401426Y-63609853D01*
X83678665Y-63665000D01*
X83961335Y-63665000D01*
X84238574Y-63609853D01*
X84499727Y-63501680D01*
X84734759Y-63344637D01*
X84934637Y-63144759D01*
X85091680Y-62909727D01*
X85199853Y-62648574D01*
X85255000Y-62371335D01*
X85255000Y-62088665D01*
X85199853Y-61811426D01*
X85091680Y-61550273D01*
X84934637Y-61315241D01*
X84734759Y-61115363D01*
X84499727Y-60958320D01*
X84238574Y-60850147D01*
X83961335Y-60795000D01*
X83678665Y-60795000D01*
X83401426Y-60850147D01*
X83140273Y-60958320D01*
X82905241Y-61115363D01*
X82705363Y-61315241D01*
X82548320Y-61550273D01*
X82440147Y-61811426D01*
X82385000Y-62088665D01*
X75095000Y-62088665D01*
X75039853Y-61811426D01*
X74931680Y-61550273D01*
X74774637Y-61315241D01*
X74574759Y-61115363D01*
X74420000Y-61011957D01*
X74420000Y-60055000D01*
X77149428Y-60055000D01*
X77161688Y-60179482D01*
X77197998Y-60299180D01*
X77256963Y-60409494D01*
X77336315Y-60506185D01*
X77433006Y-60585537D01*
X77543320Y-60644502D01*
X77663018Y-60680812D01*
X77787500Y-60693072D01*
X78454250Y-60690000D01*
X78613000Y-60531250D01*
X78613000Y-59182000D01*
X77311250Y-59182000D01*
X77152500Y-59340750D01*
X77149428Y-60055000D01*
X74420000Y-60055000D01*
X74420000Y-58734801D01*
X75099801Y-58055000D01*
X77149428Y-58055000D01*
X77152500Y-58769250D01*
X77311250Y-58928000D01*
X78613000Y-58928000D01*
X78613000Y-57578750D01*
X78867000Y-57578750D01*
X78867000Y-58928000D01*
X78887000Y-58928000D01*
X78887000Y-59182000D01*
X78867000Y-59182000D01*
X78867000Y-60531250D01*
X79025750Y-60690000D01*
X79692500Y-60693072D01*
X79816982Y-60680812D01*
X79936680Y-60644502D01*
X80046994Y-60585537D01*
X80143685Y-60506185D01*
X80223037Y-60409494D01*
X80267905Y-60325553D01*
X80393766Y-60428845D01*
X80669552Y-60576255D01*
X80968797Y-60667030D01*
X81280000Y-60697681D01*
X81591204Y-60667030D01*
X81890449Y-60576255D01*
X82166235Y-60428845D01*
X82407963Y-60230463D01*
X82550000Y-60057391D01*
X82692037Y-60230463D01*
X82933766Y-60428845D01*
X83209552Y-60576255D01*
X83508797Y-60667030D01*
X83820000Y-60697681D01*
X84131204Y-60667030D01*
X84430449Y-60576255D01*
X84706235Y-60428845D01*
X84947963Y-60230463D01*
X85146345Y-59988734D01*
X85293755Y-59712948D01*
X85384530Y-59413703D01*
X85407500Y-59180485D01*
X85407500Y-58929514D01*
X85384530Y-58696296D01*
X85293755Y-58397051D01*
X85146345Y-58121265D01*
X84947963Y-57879537D01*
X84706234Y-57681155D01*
X84430448Y-57533745D01*
X84131203Y-57442970D01*
X83820000Y-57412319D01*
X83508796Y-57442970D01*
X83209551Y-57533745D01*
X82933765Y-57681155D01*
X82692037Y-57879537D01*
X82550000Y-58052609D01*
X82407963Y-57879537D01*
X82166234Y-57681155D01*
X81890448Y-57533745D01*
X81591203Y-57442970D01*
X81280000Y-57412319D01*
X80968796Y-57442970D01*
X80669551Y-57533745D01*
X80393765Y-57681155D01*
X80267905Y-57784446D01*
X80223037Y-57700506D01*
X80143685Y-57603815D01*
X80046994Y-57524463D01*
X79936680Y-57465498D01*
X79816982Y-57429188D01*
X79692500Y-57416928D01*
X79025750Y-57420000D01*
X78867000Y-57578750D01*
X78613000Y-57578750D01*
X78454250Y-57420000D01*
X77787500Y-57416928D01*
X77663018Y-57429188D01*
X77543320Y-57465498D01*
X77433006Y-57524463D01*
X77336315Y-57603815D01*
X77256963Y-57700506D01*
X77197998Y-57810820D01*
X77161688Y-57930518D01*
X77149428Y-58055000D01*
X75099801Y-58055000D01*
X79054802Y-54100000D01*
X82601957Y-54100000D01*
X82705363Y-54254759D01*
X82905241Y-54454637D01*
X83140273Y-54611680D01*
X83401426Y-54719853D01*
X83678665Y-54775000D01*
X83961335Y-54775000D01*
X84238574Y-54719853D01*
X84499727Y-54611680D01*
X84734759Y-54454637D01*
X84934637Y-54254759D01*
X85091680Y-54019727D01*
X85199853Y-53758574D01*
X85255000Y-53481335D01*
X85255000Y-53198665D01*
X85199853Y-52921426D01*
X85091680Y-52660273D01*
X84934637Y-52425241D01*
X84734759Y-52225363D01*
X84499727Y-52068320D01*
X84238574Y-51960147D01*
X83961335Y-51905000D01*
X83678665Y-51905000D01*
X83401426Y-51960147D01*
X83140273Y-52068320D01*
X82905241Y-52225363D01*
X82705363Y-52425241D01*
X82601957Y-52580000D01*
X78777323Y-52580000D01*
X78740000Y-52576324D01*
X78702677Y-52580000D01*
X78702667Y-52580000D01*
X78591014Y-52590997D01*
X78447753Y-52634454D01*
X78315723Y-52705026D01*
X78232083Y-52773668D01*
X78199999Y-52799999D01*
X78176201Y-52828997D01*
X73148998Y-57856201D01*
X73120000Y-57879999D01*
X73096202Y-57908997D01*
X73096201Y-57908998D01*
X73025026Y-57995724D01*
X72954454Y-58127754D01*
X72910998Y-58271015D01*
X72896324Y-58420000D01*
X72900001Y-58457332D01*
X72900000Y-61011956D01*
X72745241Y-61115363D01*
X72545363Y-61315241D01*
X72388320Y-61550273D01*
X72280147Y-61811426D01*
X72225000Y-62088665D01*
X69820585Y-62088665D01*
X69965000Y-61944250D01*
X69968072Y-61480000D01*
X69955812Y-61355518D01*
X69919502Y-61235820D01*
X69860537Y-61125506D01*
X69781185Y-61028815D01*
X69684494Y-60949463D01*
X69574180Y-60890498D01*
X69454482Y-60854188D01*
X69330000Y-60841928D01*
X68865750Y-60845000D01*
X68707000Y-61003750D01*
X68453000Y-61003750D01*
X68294250Y-60845000D01*
X67830000Y-60841928D01*
X67705518Y-60854188D01*
X67585820Y-60890498D01*
X67475506Y-60949463D01*
X67378815Y-61028815D01*
X67299463Y-61125506D01*
X67240498Y-61235820D01*
X67204188Y-61355518D01*
X67191928Y-61480000D01*
X39489251Y-61480000D01*
X39496825Y-61464099D01*
X39541476Y-61316890D01*
X39420155Y-61087000D01*
X38227000Y-61087000D01*
X37973000Y-61087000D01*
X37953000Y-61087000D01*
X37953000Y-60833000D01*
X37973000Y-60833000D01*
X37973000Y-58547000D01*
X38227000Y-58547000D01*
X38227000Y-60833000D01*
X39420155Y-60833000D01*
X39541476Y-60603110D01*
X39496825Y-60455901D01*
X39371641Y-60193080D01*
X39197588Y-59959731D01*
X38981355Y-59764822D01*
X38855745Y-59690000D01*
X38981355Y-59615178D01*
X39197588Y-59420269D01*
X39371641Y-59186920D01*
X39496825Y-58924099D01*
X39541476Y-58776890D01*
X39420155Y-58547000D01*
X38227000Y-58547000D01*
X37973000Y-58547000D01*
X37953000Y-58547000D01*
X37953000Y-58293000D01*
X37973000Y-58293000D01*
X37973000Y-56007000D01*
X38227000Y-56007000D01*
X38227000Y-58293000D01*
X39420155Y-58293000D01*
X39541476Y-58063110D01*
X39496825Y-57915901D01*
X39371641Y-57653080D01*
X39197588Y-57419731D01*
X38981355Y-57224822D01*
X38855745Y-57150000D01*
X38981355Y-57075178D01*
X39197588Y-56880269D01*
X39371641Y-56646920D01*
X39496825Y-56384099D01*
X39541476Y-56236890D01*
X39420155Y-56007000D01*
X38227000Y-56007000D01*
X37973000Y-56007000D01*
X37953000Y-56007000D01*
X37953000Y-55753000D01*
X37973000Y-55753000D01*
X37973000Y-53467000D01*
X38227000Y-53467000D01*
X38227000Y-55753000D01*
X39420155Y-55753000D01*
X39427720Y-55738665D01*
X67145000Y-55738665D01*
X67145000Y-56021335D01*
X67200147Y-56298574D01*
X67308320Y-56559727D01*
X67465363Y-56794759D01*
X67665241Y-56994637D01*
X67900273Y-57151680D01*
X68161426Y-57259853D01*
X68438665Y-57315000D01*
X68721335Y-57315000D01*
X68998574Y-57259853D01*
X69259727Y-57151680D01*
X69494759Y-56994637D01*
X69694637Y-56794759D01*
X69851680Y-56559727D01*
X69959853Y-56298574D01*
X70015000Y-56021335D01*
X70015000Y-55738665D01*
X69959853Y-55461426D01*
X69851680Y-55200273D01*
X69694637Y-54965241D01*
X69494759Y-54765363D01*
X69259727Y-54608320D01*
X68998574Y-54500147D01*
X68721335Y-54445000D01*
X68438665Y-54445000D01*
X68161426Y-54500147D01*
X67900273Y-54608320D01*
X67665241Y-54765363D01*
X67465363Y-54965241D01*
X67308320Y-55200273D01*
X67200147Y-55461426D01*
X67145000Y-55738665D01*
X39427720Y-55738665D01*
X39541476Y-55523110D01*
X39496825Y-55375901D01*
X39371641Y-55113080D01*
X39197588Y-54879731D01*
X38981355Y-54684822D01*
X38855745Y-54610000D01*
X38981355Y-54535178D01*
X39197588Y-54340269D01*
X39371641Y-54106920D01*
X39496825Y-53844099D01*
X39541476Y-53696890D01*
X39420155Y-53467000D01*
X38227000Y-53467000D01*
X37973000Y-53467000D01*
X37953000Y-53467000D01*
X37953000Y-53213000D01*
X37973000Y-53213000D01*
X37973000Y-52019186D01*
X38227000Y-52019186D01*
X38227000Y-53213000D01*
X39420155Y-53213000D01*
X39541476Y-52983110D01*
X39496825Y-52835901D01*
X39371641Y-52573080D01*
X39197588Y-52339731D01*
X38981355Y-52144822D01*
X38731252Y-51995843D01*
X38541875Y-51928665D01*
X72225000Y-51928665D01*
X72225000Y-52211335D01*
X72280147Y-52488574D01*
X72388320Y-52749727D01*
X72545363Y-52984759D01*
X72745241Y-53184637D01*
X72980273Y-53341680D01*
X73241426Y-53449853D01*
X73518665Y-53505000D01*
X73801335Y-53505000D01*
X74078574Y-53449853D01*
X74339727Y-53341680D01*
X74574759Y-53184637D01*
X74774637Y-52984759D01*
X74931680Y-52749727D01*
X75039853Y-52488574D01*
X75095000Y-52211335D01*
X75095000Y-51928665D01*
X75039853Y-51651426D01*
X74931680Y-51390273D01*
X74774637Y-51155241D01*
X74574759Y-50955363D01*
X74339727Y-50798320D01*
X74078574Y-50690147D01*
X73801335Y-50635000D01*
X73518665Y-50635000D01*
X73241426Y-50690147D01*
X72980273Y-50798320D01*
X72745241Y-50955363D01*
X72545363Y-51155241D01*
X72388320Y-51390273D01*
X72280147Y-51651426D01*
X72225000Y-51928665D01*
X38541875Y-51928665D01*
X38456891Y-51898519D01*
X38227000Y-52019186D01*
X37973000Y-52019186D01*
X37743109Y-51898519D01*
X37468748Y-51995843D01*
X37218645Y-52144822D01*
X37022498Y-52321626D01*
X36999502Y-52245820D01*
X36940537Y-52135506D01*
X36861185Y-52038815D01*
X36764494Y-51959463D01*
X36654180Y-51900498D01*
X36534482Y-51864188D01*
X36410000Y-51851928D01*
X34710000Y-51851928D01*
X34585518Y-51864188D01*
X34465820Y-51900498D01*
X34355506Y-51959463D01*
X34258815Y-52038815D01*
X34179463Y-52135506D01*
X34120498Y-52245820D01*
X34084188Y-52365518D01*
X34071928Y-52490000D01*
X32435000Y-52490000D01*
X32435000Y-48609039D01*
X76078096Y-48609039D01*
X76118754Y-48743087D01*
X76238963Y-48997420D01*
X76406481Y-49223414D01*
X76614869Y-49412385D01*
X76856119Y-49557070D01*
X77120960Y-49651909D01*
X77343000Y-49530624D01*
X77343000Y-48387000D01*
X77597000Y-48387000D01*
X77597000Y-49530624D01*
X77819040Y-49651909D01*
X78083881Y-49557070D01*
X78325131Y-49412385D01*
X78533519Y-49223414D01*
X78701037Y-48997420D01*
X78821246Y-48743087D01*
X78861904Y-48609039D01*
X78739915Y-48387000D01*
X77597000Y-48387000D01*
X77343000Y-48387000D01*
X76200085Y-48387000D01*
X76078096Y-48609039D01*
X32435000Y-48609039D01*
X32435000Y-45578665D01*
X67145000Y-45578665D01*
X67145000Y-45861335D01*
X67200147Y-46138574D01*
X67308320Y-46399727D01*
X67465363Y-46634759D01*
X67665241Y-46834637D01*
X67900273Y-46991680D01*
X68161426Y-47099853D01*
X68438665Y-47155000D01*
X68721335Y-47155000D01*
X68998574Y-47099853D01*
X69259727Y-46991680D01*
X69494759Y-46834637D01*
X69694637Y-46634759D01*
X69851680Y-46399727D01*
X69959853Y-46138574D01*
X70015000Y-45861335D01*
X70015000Y-45578665D01*
X69959853Y-45301426D01*
X69851680Y-45040273D01*
X69694637Y-44805241D01*
X69494759Y-44605363D01*
X69259727Y-44448320D01*
X68998574Y-44340147D01*
X68721335Y-44285000D01*
X68438665Y-44285000D01*
X68161426Y-44340147D01*
X67900273Y-44448320D01*
X67665241Y-44605363D01*
X67465363Y-44805241D01*
X67308320Y-45040273D01*
X67200147Y-45301426D01*
X67145000Y-45578665D01*
X32435000Y-45578665D01*
X32435000Y-40996890D01*
X67138524Y-40996890D01*
X67183175Y-41144099D01*
X67308359Y-41406920D01*
X67482412Y-41640269D01*
X67698645Y-41835178D01*
X67948748Y-41984157D01*
X68223109Y-42081481D01*
X68453000Y-41960814D01*
X68453000Y-40767000D01*
X67259845Y-40767000D01*
X67138524Y-40996890D01*
X32435000Y-40996890D01*
X32435000Y-38456890D01*
X67138524Y-38456890D01*
X67183175Y-38604099D01*
X67308359Y-38866920D01*
X67482412Y-39100269D01*
X67698645Y-39295178D01*
X67824255Y-39370000D01*
X67698645Y-39444822D01*
X67482412Y-39639731D01*
X67308359Y-39873080D01*
X67183175Y-40135901D01*
X67138524Y-40283110D01*
X67259845Y-40513000D01*
X68453000Y-40513000D01*
X68453000Y-38227000D01*
X67259845Y-38227000D01*
X67138524Y-38456890D01*
X32435000Y-38456890D01*
X32435000Y-35916890D01*
X67138524Y-35916890D01*
X67183175Y-36064099D01*
X67308359Y-36326920D01*
X67482412Y-36560269D01*
X67698645Y-36755178D01*
X67824255Y-36830000D01*
X67698645Y-36904822D01*
X67482412Y-37099731D01*
X67308359Y-37333080D01*
X67183175Y-37595901D01*
X67138524Y-37743110D01*
X67259845Y-37973000D01*
X68453000Y-37973000D01*
X68453000Y-35687000D01*
X67259845Y-35687000D01*
X67138524Y-35916890D01*
X32435000Y-35916890D01*
X32435000Y-33376890D01*
X67138524Y-33376890D01*
X67183175Y-33524099D01*
X67308359Y-33786920D01*
X67482412Y-34020269D01*
X67698645Y-34215178D01*
X67824255Y-34290000D01*
X67698645Y-34364822D01*
X67482412Y-34559731D01*
X67308359Y-34793080D01*
X67183175Y-35055901D01*
X67138524Y-35203110D01*
X67259845Y-35433000D01*
X68453000Y-35433000D01*
X68453000Y-33147000D01*
X67259845Y-33147000D01*
X67138524Y-33376890D01*
X32435000Y-33376890D01*
X32435000Y-30836890D01*
X67138524Y-30836890D01*
X67183175Y-30984099D01*
X67308359Y-31246920D01*
X67482412Y-31480269D01*
X67698645Y-31675178D01*
X67824255Y-31750000D01*
X67698645Y-31824822D01*
X67482412Y-32019731D01*
X67308359Y-32253080D01*
X67183175Y-32515901D01*
X67138524Y-32663110D01*
X67259845Y-32893000D01*
X68453000Y-32893000D01*
X68453000Y-30607000D01*
X67259845Y-30607000D01*
X67138524Y-30836890D01*
X32435000Y-30836890D01*
X32435000Y-28296890D01*
X67138524Y-28296890D01*
X67183175Y-28444099D01*
X67308359Y-28706920D01*
X67482412Y-28940269D01*
X67698645Y-29135178D01*
X67824255Y-29210000D01*
X67698645Y-29284822D01*
X67482412Y-29479731D01*
X67308359Y-29713080D01*
X67183175Y-29975901D01*
X67138524Y-30123110D01*
X67259845Y-30353000D01*
X68453000Y-30353000D01*
X68453000Y-28067000D01*
X67259845Y-28067000D01*
X67138524Y-28296890D01*
X32435000Y-28296890D01*
X32435000Y-23909872D01*
X35865000Y-23909872D01*
X35865000Y-24350128D01*
X35950890Y-24781925D01*
X36119369Y-25188669D01*
X36363962Y-25554729D01*
X36675271Y-25866038D01*
X37041331Y-26110631D01*
X37448075Y-26279110D01*
X37879872Y-26365000D01*
X38320128Y-26365000D01*
X38751925Y-26279110D01*
X39158669Y-26110631D01*
X39524729Y-25866038D01*
X39836038Y-25554729D01*
X40064791Y-25212374D01*
X42545000Y-25212374D01*
X42545000Y-25587626D01*
X42618209Y-25955668D01*
X42761811Y-26302356D01*
X42970290Y-26614366D01*
X43235634Y-26879710D01*
X43547644Y-27088189D01*
X43894332Y-27231791D01*
X44262374Y-27305000D01*
X44637626Y-27305000D01*
X45005668Y-27231791D01*
X45352356Y-27088189D01*
X45664366Y-26879710D01*
X45816224Y-26727852D01*
X61081753Y-26727852D01*
X61210076Y-27019871D01*
X61545695Y-27187723D01*
X61907611Y-27286874D01*
X62281916Y-27313514D01*
X62654227Y-27266618D01*
X63010235Y-27147988D01*
X63249924Y-27019871D01*
X63378247Y-26727852D01*
X62230000Y-25579605D01*
X61081753Y-26727852D01*
X45816224Y-26727852D01*
X45929710Y-26614366D01*
X46138189Y-26302356D01*
X46281791Y-25955668D01*
X46355000Y-25587626D01*
X46355000Y-25451916D01*
X60316486Y-25451916D01*
X60363382Y-25824227D01*
X60482012Y-26180235D01*
X60610129Y-26419924D01*
X60902148Y-26548247D01*
X62050395Y-25400000D01*
X62409605Y-25400000D01*
X63557852Y-26548247D01*
X63849871Y-26419924D01*
X63934854Y-26250000D01*
X67091928Y-26250000D01*
X67104188Y-26374482D01*
X67140498Y-26494180D01*
X67199463Y-26604494D01*
X67278815Y-26701185D01*
X67375506Y-26780537D01*
X67485820Y-26839502D01*
X67566466Y-26863966D01*
X67482412Y-26939731D01*
X67308359Y-27173080D01*
X67183175Y-27435901D01*
X67138524Y-27583110D01*
X67259845Y-27813000D01*
X68453000Y-27813000D01*
X68453000Y-25527000D01*
X67253750Y-25527000D01*
X67095000Y-25685750D01*
X67091928Y-26250000D01*
X63934854Y-26250000D01*
X64017723Y-26084305D01*
X64116874Y-25722389D01*
X64143514Y-25348084D01*
X64096618Y-24975773D01*
X63977988Y-24619765D01*
X63940698Y-24550000D01*
X67091928Y-24550000D01*
X67095000Y-25114250D01*
X67253750Y-25273000D01*
X68453000Y-25273000D01*
X68453000Y-24073750D01*
X68707000Y-24073750D01*
X68707000Y-25273000D01*
X68727000Y-25273000D01*
X68727000Y-25527000D01*
X68707000Y-25527000D01*
X68707000Y-27813000D01*
X68727000Y-27813000D01*
X68727000Y-28067000D01*
X68707000Y-28067000D01*
X68707000Y-30353000D01*
X68727000Y-30353000D01*
X68727000Y-30607000D01*
X68707000Y-30607000D01*
X68707000Y-32893000D01*
X68727000Y-32893000D01*
X68727000Y-33147000D01*
X68707000Y-33147000D01*
X68707000Y-35433000D01*
X68727000Y-35433000D01*
X68727000Y-35687000D01*
X68707000Y-35687000D01*
X68707000Y-37973000D01*
X68727000Y-37973000D01*
X68727000Y-38227000D01*
X68707000Y-38227000D01*
X68707000Y-40513000D01*
X68727000Y-40513000D01*
X68727000Y-40767000D01*
X68707000Y-40767000D01*
X68707000Y-41960814D01*
X68936891Y-42081481D01*
X69211252Y-41984157D01*
X69461355Y-41835178D01*
X69677588Y-41640269D01*
X69848900Y-41410594D01*
X69966525Y-41586632D01*
X70173368Y-41793475D01*
X70416589Y-41955990D01*
X70686842Y-42067932D01*
X70973740Y-42125000D01*
X71266260Y-42125000D01*
X71553158Y-42067932D01*
X71823411Y-41955990D01*
X72066632Y-41793475D01*
X72273475Y-41586632D01*
X72435990Y-41343411D01*
X72547932Y-41073158D01*
X72605000Y-40786260D01*
X72605000Y-40493740D01*
X72547932Y-40206842D01*
X72435990Y-39936589D01*
X72273475Y-39693368D01*
X72066632Y-39486525D01*
X71892240Y-39370000D01*
X72066632Y-39253475D01*
X72273475Y-39046632D01*
X72435990Y-38803411D01*
X72547932Y-38533158D01*
X72605000Y-38246260D01*
X72605000Y-37953740D01*
X72547932Y-37666842D01*
X72435990Y-37396589D01*
X72273475Y-37153368D01*
X72066632Y-36946525D01*
X71892240Y-36830000D01*
X72066632Y-36713475D01*
X72273475Y-36506632D01*
X72435990Y-36263411D01*
X72547932Y-35993158D01*
X72605000Y-35706260D01*
X72605000Y-35579802D01*
X74170000Y-37144802D01*
X74170001Y-40602668D01*
X74166324Y-40640000D01*
X74170001Y-40677333D01*
X74180245Y-40781335D01*
X74180998Y-40788985D01*
X74224454Y-40932246D01*
X74295026Y-41064276D01*
X74338087Y-41116745D01*
X74390000Y-41180001D01*
X74418998Y-41203799D01*
X76071312Y-42856114D01*
X76035000Y-43038665D01*
X76035000Y-43321335D01*
X76090147Y-43598574D01*
X76198320Y-43859727D01*
X76355363Y-44094759D01*
X76555241Y-44294637D01*
X76787759Y-44450000D01*
X76555241Y-44605363D01*
X76355363Y-44805241D01*
X76198320Y-45040273D01*
X76090147Y-45301426D01*
X76035000Y-45578665D01*
X76035000Y-45861335D01*
X76090147Y-46138574D01*
X76198320Y-46399727D01*
X76355363Y-46634759D01*
X76555241Y-46834637D01*
X76790273Y-46991680D01*
X76800865Y-46996067D01*
X76614869Y-47107615D01*
X76406481Y-47296586D01*
X76238963Y-47522580D01*
X76118754Y-47776913D01*
X76078096Y-47910961D01*
X76200085Y-48133000D01*
X77343000Y-48133000D01*
X77343000Y-48113000D01*
X77597000Y-48113000D01*
X77597000Y-48133000D01*
X78739915Y-48133000D01*
X78861904Y-47910961D01*
X78821246Y-47776913D01*
X78701037Y-47522580D01*
X78533519Y-47296586D01*
X78325131Y-47107615D01*
X78139135Y-46996067D01*
X78149727Y-46991680D01*
X78384759Y-46834637D01*
X78584637Y-46634759D01*
X78741680Y-46399727D01*
X78849853Y-46138574D01*
X78905000Y-45861335D01*
X78905000Y-45578665D01*
X78849853Y-45301426D01*
X78741680Y-45040273D01*
X78584637Y-44805241D01*
X78384759Y-44605363D01*
X78152241Y-44450000D01*
X78384759Y-44294637D01*
X78584637Y-44094759D01*
X78741680Y-43859727D01*
X78849853Y-43598574D01*
X78905000Y-43321335D01*
X78905000Y-43038665D01*
X78849853Y-42761426D01*
X78741680Y-42500273D01*
X78584637Y-42265241D01*
X78384759Y-42065363D01*
X78152241Y-41910000D01*
X78384759Y-41754637D01*
X78584637Y-41554759D01*
X78741680Y-41319727D01*
X78849853Y-41058574D01*
X78905000Y-40781335D01*
X78905000Y-40498665D01*
X78849853Y-40221426D01*
X78741680Y-39960273D01*
X78584637Y-39725241D01*
X78384759Y-39525363D01*
X78152241Y-39370000D01*
X78384759Y-39214637D01*
X78584637Y-39014759D01*
X78741680Y-38779727D01*
X78849853Y-38518574D01*
X78905000Y-38241335D01*
X78905000Y-37958665D01*
X78849853Y-37681426D01*
X78741680Y-37420273D01*
X78584637Y-37185241D01*
X78384759Y-36985363D01*
X78152241Y-36830000D01*
X78384759Y-36674637D01*
X78584637Y-36474759D01*
X78741680Y-36239727D01*
X78849853Y-35978574D01*
X78905000Y-35701335D01*
X78905000Y-35418665D01*
X78849853Y-35141426D01*
X78741680Y-34880273D01*
X78584637Y-34645241D01*
X78384759Y-34445363D01*
X78152241Y-34290000D01*
X78384759Y-34134637D01*
X78584637Y-33934759D01*
X78741680Y-33699727D01*
X78849853Y-33438574D01*
X78905000Y-33161335D01*
X78905000Y-32878665D01*
X78849853Y-32601426D01*
X78741680Y-32340273D01*
X78584637Y-32105241D01*
X78384759Y-31905363D01*
X78152241Y-31750000D01*
X78384759Y-31594637D01*
X78584637Y-31394759D01*
X78741680Y-31159727D01*
X78849853Y-30898574D01*
X78905000Y-30621335D01*
X78905000Y-30338665D01*
X83655000Y-30338665D01*
X83655000Y-30621335D01*
X83710147Y-30898574D01*
X83818320Y-31159727D01*
X83975363Y-31394759D01*
X84175241Y-31594637D01*
X84407759Y-31750000D01*
X84175241Y-31905363D01*
X83975363Y-32105241D01*
X83818320Y-32340273D01*
X83710147Y-32601426D01*
X83655000Y-32878665D01*
X83655000Y-33161335D01*
X83710147Y-33438574D01*
X83818320Y-33699727D01*
X83975363Y-33934759D01*
X84175241Y-34134637D01*
X84407759Y-34290000D01*
X84175241Y-34445363D01*
X83975363Y-34645241D01*
X83818320Y-34880273D01*
X83710147Y-35141426D01*
X83655000Y-35418665D01*
X83655000Y-35701335D01*
X83710147Y-35978574D01*
X83818320Y-36239727D01*
X83975363Y-36474759D01*
X84175241Y-36674637D01*
X84407759Y-36830000D01*
X84175241Y-36985363D01*
X83975363Y-37185241D01*
X83818320Y-37420273D01*
X83710147Y-37681426D01*
X83655000Y-37958665D01*
X83655000Y-38241335D01*
X83710147Y-38518574D01*
X83818320Y-38779727D01*
X83975363Y-39014759D01*
X84175241Y-39214637D01*
X84407759Y-39370000D01*
X84175241Y-39525363D01*
X83975363Y-39725241D01*
X83818320Y-39960273D01*
X83710147Y-40221426D01*
X83655000Y-40498665D01*
X83655000Y-40781335D01*
X83710147Y-41058574D01*
X83818320Y-41319727D01*
X83975363Y-41554759D01*
X84175241Y-41754637D01*
X84407759Y-41910000D01*
X84175241Y-42065363D01*
X83975363Y-42265241D01*
X83818320Y-42500273D01*
X83710147Y-42761426D01*
X83655000Y-43038665D01*
X83655000Y-43321335D01*
X83710147Y-43598574D01*
X83818320Y-43859727D01*
X83975363Y-44094759D01*
X84175241Y-44294637D01*
X84407759Y-44450000D01*
X84175241Y-44605363D01*
X83975363Y-44805241D01*
X83818320Y-45040273D01*
X83710147Y-45301426D01*
X83655000Y-45578665D01*
X83655000Y-45861335D01*
X83710147Y-46138574D01*
X83818320Y-46399727D01*
X83975363Y-46634759D01*
X84175241Y-46834637D01*
X84407759Y-46990000D01*
X84175241Y-47145363D01*
X83975363Y-47345241D01*
X83818320Y-47580273D01*
X83710147Y-47841426D01*
X83655000Y-48118665D01*
X83655000Y-48401335D01*
X83710147Y-48678574D01*
X83818320Y-48939727D01*
X83975363Y-49174759D01*
X84175241Y-49374637D01*
X84410273Y-49531680D01*
X84671426Y-49639853D01*
X84948665Y-49695000D01*
X85231335Y-49695000D01*
X85413887Y-49658688D01*
X106116201Y-70361003D01*
X106139999Y-70390001D01*
X106255724Y-70484974D01*
X106387753Y-70555546D01*
X106531014Y-70599003D01*
X106642667Y-70610000D01*
X106642677Y-70610000D01*
X106680000Y-70613676D01*
X106717323Y-70610000D01*
X107694727Y-70610000D01*
X107737583Y-70690179D01*
X107925655Y-70919345D01*
X108154821Y-71107417D01*
X108416275Y-71247166D01*
X108699968Y-71333224D01*
X108921064Y-71355000D01*
X109518936Y-71355000D01*
X109740032Y-71333224D01*
X110023725Y-71247166D01*
X110285179Y-71107417D01*
X110514345Y-70919345D01*
X110702417Y-70690179D01*
X110842166Y-70428725D01*
X110928224Y-70145032D01*
X110957282Y-69850000D01*
X110928224Y-69554968D01*
X110842166Y-69271275D01*
X110702417Y-69009821D01*
X110514345Y-68780655D01*
X110448886Y-68726934D01*
X110558387Y-68668405D01*
X110692962Y-68557962D01*
X110803405Y-68423387D01*
X110885472Y-68269851D01*
X110936008Y-68103255D01*
X110953072Y-67930001D01*
X110953072Y-66689999D01*
X110936008Y-66516745D01*
X110885472Y-66350149D01*
X110803405Y-66196613D01*
X110692962Y-66062038D01*
X110558387Y-65951595D01*
X110404851Y-65869528D01*
X110238255Y-65818992D01*
X110065001Y-65801928D01*
X108786730Y-65801928D01*
X107440000Y-64455199D01*
X107440000Y-61320031D01*
X107533698Y-61320031D01*
X107550449Y-61407591D01*
X107665526Y-61680809D01*
X107831694Y-61926326D01*
X108042567Y-62134708D01*
X108290042Y-62297947D01*
X108564608Y-62409769D01*
X108855714Y-62465877D01*
X109093000Y-62310376D01*
X109093000Y-61087000D01*
X109347000Y-61087000D01*
X109347000Y-62310376D01*
X109584286Y-62465877D01*
X109875392Y-62409769D01*
X110149958Y-62297947D01*
X110397433Y-62134708D01*
X110608306Y-61926326D01*
X110774474Y-61680809D01*
X110889551Y-61407591D01*
X110906302Y-61320031D01*
X110785246Y-61087000D01*
X109347000Y-61087000D01*
X109093000Y-61087000D01*
X107654754Y-61087000D01*
X107533698Y-61320031D01*
X107440000Y-61320031D01*
X107440000Y-59180000D01*
X107694727Y-59180000D01*
X107737583Y-59260179D01*
X107925655Y-59489345D01*
X108154821Y-59677417D01*
X108183152Y-59692560D01*
X108042567Y-59785292D01*
X107831694Y-59993674D01*
X107665526Y-60239191D01*
X107550449Y-60512409D01*
X107533698Y-60599969D01*
X107654754Y-60833000D01*
X109093000Y-60833000D01*
X109093000Y-60813000D01*
X109347000Y-60813000D01*
X109347000Y-60833000D01*
X110785246Y-60833000D01*
X110906302Y-60599969D01*
X110889551Y-60512409D01*
X110774474Y-60239191D01*
X110608306Y-59993674D01*
X110397433Y-59785292D01*
X110256848Y-59692560D01*
X110285179Y-59677417D01*
X110514345Y-59489345D01*
X110702417Y-59260179D01*
X110842166Y-58998725D01*
X110928224Y-58715032D01*
X110957282Y-58420000D01*
X110928224Y-58124968D01*
X110842166Y-57841275D01*
X110702417Y-57579821D01*
X110514345Y-57350655D01*
X110285179Y-57162583D01*
X110261638Y-57150000D01*
X110285179Y-57137417D01*
X110514345Y-56949345D01*
X110702417Y-56720179D01*
X110842166Y-56458725D01*
X110928224Y-56175032D01*
X110957282Y-55880000D01*
X110928224Y-55584968D01*
X110842166Y-55301275D01*
X110702417Y-55039821D01*
X110514345Y-54810655D01*
X110448886Y-54756934D01*
X110558387Y-54698405D01*
X110692962Y-54587962D01*
X110803405Y-54453387D01*
X110885472Y-54299851D01*
X110936008Y-54133255D01*
X110953072Y-53960001D01*
X110953072Y-52719999D01*
X110936008Y-52546745D01*
X110885472Y-52380149D01*
X110803405Y-52226613D01*
X110692962Y-52092038D01*
X110558387Y-51981595D01*
X110404851Y-51899528D01*
X110238255Y-51848992D01*
X110065001Y-51831928D01*
X108374999Y-51831928D01*
X108201745Y-51848992D01*
X108035149Y-51899528D01*
X107881613Y-51981595D01*
X107747038Y-52092038D01*
X107636595Y-52226613D01*
X107554528Y-52380149D01*
X107503992Y-52546745D01*
X107486928Y-52719999D01*
X107486928Y-53960001D01*
X107503992Y-54133255D01*
X107554528Y-54299851D01*
X107636595Y-54453387D01*
X107747038Y-54587962D01*
X107881613Y-54698405D01*
X107991114Y-54756934D01*
X107925655Y-54810655D01*
X107737583Y-55039821D01*
X107597834Y-55301275D01*
X107511776Y-55584968D01*
X107482718Y-55880000D01*
X107511776Y-56175032D01*
X107597834Y-56458725D01*
X107737583Y-56720179D01*
X107925655Y-56949345D01*
X108154821Y-57137417D01*
X108178362Y-57150000D01*
X108154821Y-57162583D01*
X107925655Y-57350655D01*
X107737583Y-57579821D01*
X107694727Y-57660000D01*
X106994802Y-57660000D01*
X104226167Y-54891365D01*
X104255000Y-54746411D01*
X104255000Y-54473589D01*
X104201775Y-54206011D01*
X104097371Y-53953957D01*
X103945799Y-53727114D01*
X103752886Y-53534201D01*
X103526043Y-53382629D01*
X103273989Y-53278225D01*
X103006411Y-53225000D01*
X102733589Y-53225000D01*
X102466011Y-53278225D01*
X102213957Y-53382629D01*
X101987114Y-53534201D01*
X101794201Y-53727114D01*
X101642629Y-53953957D01*
X101600000Y-54056873D01*
X101557371Y-53953957D01*
X101405799Y-53727114D01*
X101212886Y-53534201D01*
X100986043Y-53382629D01*
X100733989Y-53278225D01*
X100466411Y-53225000D01*
X100193589Y-53225000D01*
X99926011Y-53278225D01*
X99673957Y-53382629D01*
X99447114Y-53534201D01*
X99254201Y-53727114D01*
X99176445Y-53843483D01*
X99165812Y-53735518D01*
X99129502Y-53615820D01*
X99070537Y-53505506D01*
X98991185Y-53408815D01*
X98894494Y-53329463D01*
X98784180Y-53270498D01*
X98664482Y-53234188D01*
X98540000Y-53221928D01*
X98075750Y-53225000D01*
X97917000Y-53383750D01*
X97917000Y-54483000D01*
X97937000Y-54483000D01*
X97937000Y-54737000D01*
X97917000Y-54737000D01*
X97917000Y-55836250D01*
X98075750Y-55995000D01*
X98540000Y-55998072D01*
X98664482Y-55985812D01*
X98784180Y-55949502D01*
X98894494Y-55890537D01*
X98991185Y-55811185D01*
X99070537Y-55714494D01*
X99129502Y-55604180D01*
X99165812Y-55484482D01*
X99176445Y-55376517D01*
X99254201Y-55492886D01*
X99447114Y-55685799D01*
X99673957Y-55837371D01*
X99926011Y-55941775D01*
X100193589Y-55995000D01*
X100466411Y-55995000D01*
X100733989Y-55941775D01*
X100986043Y-55837371D01*
X101212886Y-55685799D01*
X101405799Y-55492886D01*
X101557371Y-55266043D01*
X101600000Y-55163127D01*
X101642629Y-55266043D01*
X101794201Y-55492886D01*
X101987114Y-55685799D01*
X102213957Y-55837371D01*
X102466011Y-55941775D01*
X102733589Y-55995000D01*
X103006411Y-55995000D01*
X103151365Y-55966167D01*
X105920000Y-58734802D01*
X105920001Y-64732668D01*
X105916324Y-64770000D01*
X105920001Y-64807333D01*
X105929760Y-64906411D01*
X105930998Y-64918985D01*
X105974454Y-65062246D01*
X106045026Y-65194276D01*
X106098772Y-65259765D01*
X106140000Y-65310001D01*
X106168998Y-65333799D01*
X107490359Y-66655161D01*
X107486928Y-66689999D01*
X107486928Y-67930001D01*
X107503992Y-68103255D01*
X107554528Y-68269851D01*
X107636595Y-68423387D01*
X107747038Y-68557962D01*
X107881613Y-68668405D01*
X107991114Y-68726934D01*
X107925655Y-68780655D01*
X107737583Y-69009821D01*
X107694727Y-69090000D01*
X106994802Y-69090000D01*
X96818467Y-58913665D01*
X100165000Y-58913665D01*
X100165000Y-59196335D01*
X100220147Y-59473574D01*
X100328320Y-59734727D01*
X100485363Y-59969759D01*
X100685241Y-60169637D01*
X100920273Y-60326680D01*
X101181426Y-60434853D01*
X101458665Y-60490000D01*
X101741335Y-60490000D01*
X102018574Y-60434853D01*
X102279727Y-60326680D01*
X102514759Y-60169637D01*
X102714637Y-59969759D01*
X102871680Y-59734727D01*
X102979853Y-59473574D01*
X103035000Y-59196335D01*
X103035000Y-58913665D01*
X102979853Y-58636426D01*
X102871680Y-58375273D01*
X102714637Y-58140241D01*
X102514759Y-57940363D01*
X102279727Y-57783320D01*
X102018574Y-57675147D01*
X101741335Y-57620000D01*
X101458665Y-57620000D01*
X101181426Y-57675147D01*
X100920273Y-57783320D01*
X100685241Y-57940363D01*
X100485363Y-58140241D01*
X100328320Y-58375273D01*
X100220147Y-58636426D01*
X100165000Y-58913665D01*
X96818467Y-58913665D01*
X93264802Y-55360000D01*
X96401928Y-55360000D01*
X96414188Y-55484482D01*
X96450498Y-55604180D01*
X96509463Y-55714494D01*
X96588815Y-55811185D01*
X96685506Y-55890537D01*
X96795820Y-55949502D01*
X96915518Y-55985812D01*
X97040000Y-55998072D01*
X97504250Y-55995000D01*
X97663000Y-55836250D01*
X97663000Y-54737000D01*
X96563750Y-54737000D01*
X96405000Y-54895750D01*
X96401928Y-55360000D01*
X93264802Y-55360000D01*
X91103467Y-53198665D01*
X92545000Y-53198665D01*
X92545000Y-53481335D01*
X92600147Y-53758574D01*
X92708320Y-54019727D01*
X92865363Y-54254759D01*
X93065241Y-54454637D01*
X93300273Y-54611680D01*
X93561426Y-54719853D01*
X93838665Y-54775000D01*
X94121335Y-54775000D01*
X94398574Y-54719853D01*
X94659727Y-54611680D01*
X94894759Y-54454637D01*
X95094637Y-54254759D01*
X95251680Y-54019727D01*
X95317841Y-53860000D01*
X96401928Y-53860000D01*
X96405000Y-54324250D01*
X96563750Y-54483000D01*
X97663000Y-54483000D01*
X97663000Y-53383750D01*
X97504250Y-53225000D01*
X97040000Y-53221928D01*
X96915518Y-53234188D01*
X96795820Y-53270498D01*
X96685506Y-53329463D01*
X96588815Y-53408815D01*
X96509463Y-53505506D01*
X96450498Y-53615820D01*
X96414188Y-53735518D01*
X96401928Y-53860000D01*
X95317841Y-53860000D01*
X95359853Y-53758574D01*
X95415000Y-53481335D01*
X95415000Y-53198665D01*
X95359853Y-52921426D01*
X95251680Y-52660273D01*
X95094637Y-52425241D01*
X94894759Y-52225363D01*
X94659727Y-52068320D01*
X94398574Y-51960147D01*
X94121335Y-51905000D01*
X93838665Y-51905000D01*
X93561426Y-51960147D01*
X93300273Y-52068320D01*
X93065241Y-52225363D01*
X92865363Y-52425241D01*
X92708320Y-52660273D01*
X92600147Y-52921426D01*
X92545000Y-53198665D01*
X91103467Y-53198665D01*
X86488688Y-48583887D01*
X86525000Y-48401335D01*
X86525000Y-48118665D01*
X90005000Y-48118665D01*
X90005000Y-48401335D01*
X90060147Y-48678574D01*
X90168320Y-48939727D01*
X90325363Y-49174759D01*
X90525241Y-49374637D01*
X90760273Y-49531680D01*
X91021426Y-49639853D01*
X91298665Y-49695000D01*
X91581335Y-49695000D01*
X91858574Y-49639853D01*
X92119727Y-49531680D01*
X92354759Y-49374637D01*
X92554637Y-49174759D01*
X92711680Y-48939727D01*
X92819853Y-48678574D01*
X92875000Y-48401335D01*
X92875000Y-48118665D01*
X100165000Y-48118665D01*
X100165000Y-48401335D01*
X100220147Y-48678574D01*
X100328320Y-48939727D01*
X100485363Y-49174759D01*
X100685241Y-49374637D01*
X100920273Y-49531680D01*
X101181426Y-49639853D01*
X101458665Y-49695000D01*
X101741335Y-49695000D01*
X102018574Y-49639853D01*
X102279727Y-49531680D01*
X102514759Y-49374637D01*
X102714637Y-49174759D01*
X102871680Y-48939727D01*
X102979853Y-48678574D01*
X103035000Y-48401335D01*
X103035000Y-48118665D01*
X102979853Y-47841426D01*
X102871680Y-47580273D01*
X102714637Y-47345241D01*
X102514759Y-47145363D01*
X102279727Y-46988320D01*
X102018574Y-46880147D01*
X101741335Y-46825000D01*
X101458665Y-46825000D01*
X101181426Y-46880147D01*
X100920273Y-46988320D01*
X100685241Y-47145363D01*
X100485363Y-47345241D01*
X100328320Y-47580273D01*
X100220147Y-47841426D01*
X100165000Y-48118665D01*
X92875000Y-48118665D01*
X92819853Y-47841426D01*
X92711680Y-47580273D01*
X92554637Y-47345241D01*
X92354759Y-47145363D01*
X92119727Y-46988320D01*
X91858574Y-46880147D01*
X91581335Y-46825000D01*
X91298665Y-46825000D01*
X91021426Y-46880147D01*
X90760273Y-46988320D01*
X90525241Y-47145363D01*
X90325363Y-47345241D01*
X90168320Y-47580273D01*
X90060147Y-47841426D01*
X90005000Y-48118665D01*
X86525000Y-48118665D01*
X86469853Y-47841426D01*
X86361680Y-47580273D01*
X86204637Y-47345241D01*
X86004759Y-47145363D01*
X85772241Y-46990000D01*
X86004759Y-46834637D01*
X86204637Y-46634759D01*
X86361680Y-46399727D01*
X86469853Y-46138574D01*
X86525000Y-45861335D01*
X86525000Y-45578665D01*
X86488688Y-45396113D01*
X87434801Y-44450000D01*
X107482718Y-44450000D01*
X107511776Y-44745032D01*
X107597834Y-45028725D01*
X107737583Y-45290179D01*
X107925655Y-45519345D01*
X108154821Y-45707417D01*
X108178362Y-45720000D01*
X108154821Y-45732583D01*
X107925655Y-45920655D01*
X107737583Y-46149821D01*
X107597834Y-46411275D01*
X107511776Y-46694968D01*
X107482718Y-46990000D01*
X107511776Y-47285032D01*
X107597834Y-47568725D01*
X107737583Y-47830179D01*
X107925655Y-48059345D01*
X108154821Y-48247417D01*
X108416275Y-48387166D01*
X108699968Y-48473224D01*
X108921064Y-48495000D01*
X109518936Y-48495000D01*
X109740032Y-48473224D01*
X110023725Y-48387166D01*
X110285179Y-48247417D01*
X110514345Y-48059345D01*
X110702417Y-47830179D01*
X110842166Y-47568725D01*
X110928224Y-47285032D01*
X110957282Y-46990000D01*
X110928224Y-46694968D01*
X110842166Y-46411275D01*
X110702417Y-46149821D01*
X110514345Y-45920655D01*
X110285179Y-45732583D01*
X110261638Y-45720000D01*
X110285179Y-45707417D01*
X110514345Y-45519345D01*
X110702417Y-45290179D01*
X110842166Y-45028725D01*
X110928224Y-44745032D01*
X110957282Y-44450000D01*
X110928224Y-44154968D01*
X110842166Y-43871275D01*
X110702417Y-43609821D01*
X110514345Y-43380655D01*
X110448886Y-43326934D01*
X110558387Y-43268405D01*
X110692962Y-43157962D01*
X110803405Y-43023387D01*
X110885472Y-42869851D01*
X110936008Y-42703255D01*
X110953072Y-42530001D01*
X110953072Y-41289999D01*
X110936008Y-41116745D01*
X110885472Y-40950149D01*
X110803405Y-40796613D01*
X110692962Y-40662038D01*
X110558387Y-40551595D01*
X110404851Y-40469528D01*
X110238255Y-40418992D01*
X110065001Y-40401928D01*
X108374999Y-40401928D01*
X108201745Y-40418992D01*
X108035149Y-40469528D01*
X107881613Y-40551595D01*
X107747038Y-40662038D01*
X107636595Y-40796613D01*
X107554528Y-40950149D01*
X107503992Y-41116745D01*
X107486928Y-41289999D01*
X107486928Y-42530001D01*
X107503992Y-42703255D01*
X107554528Y-42869851D01*
X107636595Y-43023387D01*
X107747038Y-43157962D01*
X107881613Y-43268405D01*
X107991114Y-43326934D01*
X107925655Y-43380655D01*
X107737583Y-43609821D01*
X107597834Y-43871275D01*
X107511776Y-44154968D01*
X107482718Y-44450000D01*
X87434801Y-44450000D01*
X89911014Y-41973788D01*
X89940011Y-41949991D01*
X90034984Y-41834266D01*
X90105556Y-41702237D01*
X90149013Y-41558976D01*
X90160010Y-41447323D01*
X90160010Y-41447322D01*
X90163687Y-41409990D01*
X90162855Y-41401547D01*
X90286525Y-41586632D01*
X90493368Y-41793475D01*
X90736589Y-41955990D01*
X91006842Y-42067932D01*
X91293740Y-42125000D01*
X91586260Y-42125000D01*
X91873158Y-42067932D01*
X92143411Y-41955990D01*
X92386632Y-41793475D01*
X92593475Y-41586632D01*
X92710000Y-41412240D01*
X92826525Y-41586632D01*
X93033368Y-41793475D01*
X93276589Y-41955990D01*
X93546842Y-42067932D01*
X93833740Y-42125000D01*
X94126260Y-42125000D01*
X94413158Y-42067932D01*
X94683411Y-41955990D01*
X94926632Y-41793475D01*
X95133475Y-41586632D01*
X95251100Y-41410594D01*
X95422412Y-41640269D01*
X95638645Y-41835178D01*
X95888748Y-41984157D01*
X96163109Y-42081481D01*
X96393000Y-41960814D01*
X96393000Y-40767000D01*
X96647000Y-40767000D01*
X96647000Y-41960814D01*
X96876891Y-42081481D01*
X97151252Y-41984157D01*
X97401355Y-41835178D01*
X97617588Y-41640269D01*
X97791641Y-41406920D01*
X97916825Y-41144099D01*
X97961476Y-40996890D01*
X97840155Y-40767000D01*
X96647000Y-40767000D01*
X96393000Y-40767000D01*
X96373000Y-40767000D01*
X96373000Y-40513000D01*
X96393000Y-40513000D01*
X96393000Y-38227000D01*
X96647000Y-38227000D01*
X96647000Y-40513000D01*
X97840155Y-40513000D01*
X97961476Y-40283110D01*
X97916825Y-40135901D01*
X97791641Y-39873080D01*
X97617588Y-39639731D01*
X97401355Y-39444822D01*
X97275745Y-39370000D01*
X97401355Y-39295178D01*
X97617588Y-39100269D01*
X97791641Y-38866920D01*
X97916825Y-38604099D01*
X97961476Y-38456890D01*
X97840155Y-38227000D01*
X96647000Y-38227000D01*
X96393000Y-38227000D01*
X96373000Y-38227000D01*
X96373000Y-37973000D01*
X96393000Y-37973000D01*
X96393000Y-35687000D01*
X96647000Y-35687000D01*
X96647000Y-37973000D01*
X97840155Y-37973000D01*
X97961476Y-37743110D01*
X97916825Y-37595901D01*
X97791641Y-37333080D01*
X97617588Y-37099731D01*
X97401355Y-36904822D01*
X97275745Y-36830000D01*
X97401355Y-36755178D01*
X97617588Y-36560269D01*
X97791641Y-36326920D01*
X97916825Y-36064099D01*
X97961476Y-35916890D01*
X97840155Y-35687000D01*
X96647000Y-35687000D01*
X96393000Y-35687000D01*
X96373000Y-35687000D01*
X96373000Y-35433000D01*
X96393000Y-35433000D01*
X96393000Y-33147000D01*
X96647000Y-33147000D01*
X96647000Y-35433000D01*
X97840155Y-35433000D01*
X97961476Y-35203110D01*
X97916825Y-35055901D01*
X97791641Y-34793080D01*
X97617789Y-34560000D01*
X103819428Y-34560000D01*
X103819428Y-36560000D01*
X103831688Y-36684482D01*
X103867998Y-36804180D01*
X103926963Y-36914494D01*
X104006315Y-37011185D01*
X104103006Y-37090537D01*
X104213320Y-37149502D01*
X104333018Y-37185812D01*
X104457500Y-37198072D01*
X106362500Y-37198072D01*
X106486982Y-37185812D01*
X106606680Y-37149502D01*
X106716994Y-37090537D01*
X106813685Y-37011185D01*
X106893037Y-36914494D01*
X106937905Y-36830553D01*
X107063766Y-36933845D01*
X107339552Y-37081255D01*
X107638797Y-37172030D01*
X107950000Y-37202681D01*
X108261204Y-37172030D01*
X108560449Y-37081255D01*
X108836235Y-36933845D01*
X109077963Y-36735463D01*
X109225162Y-36556100D01*
X109380563Y-36741315D01*
X109623077Y-36935969D01*
X109898906Y-37079571D01*
X110117020Y-37150563D01*
X110363000Y-37030594D01*
X110363000Y-35687000D01*
X110617000Y-35687000D01*
X110617000Y-37030594D01*
X110862980Y-37150563D01*
X111081094Y-37079571D01*
X111356923Y-36935969D01*
X111599437Y-36741315D01*
X111799316Y-36503089D01*
X111948879Y-36230446D01*
X112042378Y-35933863D01*
X111915570Y-35687000D01*
X110617000Y-35687000D01*
X110363000Y-35687000D01*
X110343000Y-35687000D01*
X110343000Y-35433000D01*
X110363000Y-35433000D01*
X110363000Y-34089406D01*
X110617000Y-34089406D01*
X110617000Y-35433000D01*
X111915570Y-35433000D01*
X112042378Y-35186137D01*
X111948879Y-34889554D01*
X111799316Y-34616911D01*
X111599437Y-34378685D01*
X111356923Y-34184031D01*
X111081094Y-34040429D01*
X110862980Y-33969437D01*
X110617000Y-34089406D01*
X110363000Y-34089406D01*
X110117020Y-33969437D01*
X109898906Y-34040429D01*
X109623077Y-34184031D01*
X109380563Y-34378685D01*
X109225163Y-34563899D01*
X109077963Y-34384537D01*
X108836234Y-34186155D01*
X108560448Y-34038745D01*
X108261203Y-33947970D01*
X107950000Y-33917319D01*
X107638796Y-33947970D01*
X107339551Y-34038745D01*
X107063765Y-34186155D01*
X106937905Y-34289446D01*
X106893037Y-34205506D01*
X106813685Y-34108815D01*
X106716994Y-34029463D01*
X106606680Y-33970498D01*
X106486982Y-33934188D01*
X106362500Y-33921928D01*
X104457500Y-33921928D01*
X104333018Y-33934188D01*
X104213320Y-33970498D01*
X104103006Y-34029463D01*
X104006315Y-34108815D01*
X103926963Y-34205506D01*
X103867998Y-34315820D01*
X103831688Y-34435518D01*
X103819428Y-34560000D01*
X97617789Y-34560000D01*
X97617588Y-34559731D01*
X97401355Y-34364822D01*
X97275745Y-34290000D01*
X97401355Y-34215178D01*
X97617588Y-34020269D01*
X97791641Y-33786920D01*
X97916825Y-33524099D01*
X97961476Y-33376890D01*
X97840155Y-33147000D01*
X96647000Y-33147000D01*
X96393000Y-33147000D01*
X96373000Y-33147000D01*
X96373000Y-32893000D01*
X96393000Y-32893000D01*
X96393000Y-30607000D01*
X96647000Y-30607000D01*
X96647000Y-32893000D01*
X97840155Y-32893000D01*
X97961476Y-32663110D01*
X97916825Y-32515901D01*
X97791641Y-32253080D01*
X97617588Y-32019731D01*
X97401355Y-31824822D01*
X97275745Y-31750000D01*
X97401355Y-31675178D01*
X97617588Y-31480269D01*
X97791641Y-31246920D01*
X97916825Y-30984099D01*
X97961476Y-30836890D01*
X97840155Y-30607000D01*
X96647000Y-30607000D01*
X96393000Y-30607000D01*
X96373000Y-30607000D01*
X96373000Y-30353000D01*
X96393000Y-30353000D01*
X96393000Y-28067000D01*
X96647000Y-28067000D01*
X96647000Y-30353000D01*
X97840155Y-30353000D01*
X97961476Y-30123110D01*
X97916825Y-29975901D01*
X97791641Y-29713080D01*
X97617588Y-29479731D01*
X97401355Y-29284822D01*
X97275745Y-29210000D01*
X97401355Y-29135178D01*
X97617588Y-28940269D01*
X97791641Y-28706920D01*
X97916825Y-28444099D01*
X97961476Y-28296890D01*
X97840155Y-28067000D01*
X96647000Y-28067000D01*
X96393000Y-28067000D01*
X96373000Y-28067000D01*
X96373000Y-27813000D01*
X96393000Y-27813000D01*
X96393000Y-25527000D01*
X96647000Y-25527000D01*
X96647000Y-27813000D01*
X97840155Y-27813000D01*
X97961476Y-27583110D01*
X97916825Y-27435901D01*
X97791641Y-27173080D01*
X97617588Y-26939731D01*
X97533534Y-26863966D01*
X97614180Y-26839502D01*
X97724494Y-26780537D01*
X97821185Y-26701185D01*
X97900537Y-26604494D01*
X97959502Y-26494180D01*
X97995812Y-26374482D01*
X98008072Y-26250000D01*
X98005000Y-25685750D01*
X97846250Y-25527000D01*
X96647000Y-25527000D01*
X96393000Y-25527000D01*
X96373000Y-25527000D01*
X96373000Y-25273000D01*
X96393000Y-25273000D01*
X96393000Y-24073750D01*
X96647000Y-24073750D01*
X96647000Y-25273000D01*
X97846250Y-25273000D01*
X98005000Y-25114250D01*
X98008072Y-24550000D01*
X97995812Y-24425518D01*
X97959502Y-24305820D01*
X97900537Y-24195506D01*
X97821185Y-24098815D01*
X97724494Y-24019463D01*
X97614180Y-23960498D01*
X97494482Y-23924188D01*
X97370000Y-23911928D01*
X96805750Y-23915000D01*
X96647000Y-24073750D01*
X96393000Y-24073750D01*
X96234250Y-23915000D01*
X95670000Y-23911928D01*
X95545518Y-23924188D01*
X95425820Y-23960498D01*
X95315506Y-24019463D01*
X95218815Y-24098815D01*
X95139463Y-24195506D01*
X95080498Y-24305820D01*
X95058487Y-24378380D01*
X94926632Y-24246525D01*
X94683411Y-24084010D01*
X94413158Y-23972068D01*
X94126260Y-23915000D01*
X93833740Y-23915000D01*
X93546842Y-23972068D01*
X93276589Y-24084010D01*
X93033368Y-24246525D01*
X92901513Y-24378380D01*
X92879502Y-24305820D01*
X92820537Y-24195506D01*
X92741185Y-24098815D01*
X92644494Y-24019463D01*
X92534180Y-23960498D01*
X92414482Y-23924188D01*
X92290000Y-23911928D01*
X90590000Y-23911928D01*
X90465518Y-23924188D01*
X90345820Y-23960498D01*
X90235506Y-24019463D01*
X90138815Y-24098815D01*
X90059463Y-24195506D01*
X90000498Y-24305820D01*
X89964188Y-24425518D01*
X89951928Y-24550000D01*
X89951928Y-25813270D01*
X86202297Y-29562901D01*
X86004759Y-29365363D01*
X85769727Y-29208320D01*
X85759135Y-29203933D01*
X85945131Y-29092385D01*
X86153519Y-28903414D01*
X86321037Y-28677420D01*
X86441246Y-28423087D01*
X86481904Y-28289039D01*
X86359915Y-28067000D01*
X85217000Y-28067000D01*
X85217000Y-28087000D01*
X84963000Y-28087000D01*
X84963000Y-28067000D01*
X83820085Y-28067000D01*
X83698096Y-28289039D01*
X83738754Y-28423087D01*
X83858963Y-28677420D01*
X84026481Y-28903414D01*
X84234869Y-29092385D01*
X84420865Y-29203933D01*
X84410273Y-29208320D01*
X84175241Y-29365363D01*
X83975363Y-29565241D01*
X83818320Y-29800273D01*
X83710147Y-30061426D01*
X83655000Y-30338665D01*
X78905000Y-30338665D01*
X78849853Y-30061426D01*
X78741680Y-29800273D01*
X78584637Y-29565241D01*
X78384759Y-29365363D01*
X78152241Y-29210000D01*
X78384759Y-29054637D01*
X78584637Y-28854759D01*
X78741680Y-28619727D01*
X78849853Y-28358574D01*
X78905000Y-28081335D01*
X78905000Y-27798665D01*
X78849853Y-27521426D01*
X78741680Y-27260273D01*
X78584637Y-27025241D01*
X78386039Y-26826643D01*
X78394482Y-26825812D01*
X78514180Y-26789502D01*
X78624494Y-26730537D01*
X78721185Y-26651185D01*
X78800537Y-26554494D01*
X78859502Y-26444180D01*
X78895812Y-26324482D01*
X78908072Y-26200000D01*
X78905000Y-25685750D01*
X78746250Y-25527000D01*
X77597000Y-25527000D01*
X77597000Y-25547000D01*
X77343000Y-25547000D01*
X77343000Y-25527000D01*
X76193750Y-25527000D01*
X76035000Y-25685750D01*
X76031928Y-26200000D01*
X76044188Y-26324482D01*
X76080498Y-26444180D01*
X76139463Y-26554494D01*
X76218815Y-26651185D01*
X76315506Y-26730537D01*
X76425820Y-26789502D01*
X76545518Y-26825812D01*
X76553961Y-26826643D01*
X76355363Y-27025241D01*
X76251957Y-27180000D01*
X75244803Y-27180000D01*
X72953804Y-24889003D01*
X72930001Y-24859999D01*
X72814276Y-24765026D01*
X72682247Y-24694454D01*
X72538986Y-24650997D01*
X72427333Y-24640000D01*
X72427322Y-24640000D01*
X72396125Y-24636927D01*
X72371452Y-24600000D01*
X76031928Y-24600000D01*
X76035000Y-25114250D01*
X76193750Y-25273000D01*
X77343000Y-25273000D01*
X77343000Y-24123750D01*
X77597000Y-24123750D01*
X77597000Y-25273000D01*
X78746250Y-25273000D01*
X78760585Y-25258665D01*
X83655000Y-25258665D01*
X83655000Y-25541335D01*
X83710147Y-25818574D01*
X83818320Y-26079727D01*
X83975363Y-26314759D01*
X84175241Y-26514637D01*
X84410273Y-26671680D01*
X84420865Y-26676067D01*
X84234869Y-26787615D01*
X84026481Y-26976586D01*
X83858963Y-27202580D01*
X83738754Y-27456913D01*
X83698096Y-27590961D01*
X83820085Y-27813000D01*
X84963000Y-27813000D01*
X84963000Y-27793000D01*
X85217000Y-27793000D01*
X85217000Y-27813000D01*
X86359915Y-27813000D01*
X86481904Y-27590961D01*
X86441246Y-27456913D01*
X86321037Y-27202580D01*
X86153519Y-26976586D01*
X85945131Y-26787615D01*
X85759135Y-26676067D01*
X85769727Y-26671680D01*
X86004759Y-26514637D01*
X86204637Y-26314759D01*
X86361680Y-26079727D01*
X86469853Y-25818574D01*
X86525000Y-25541335D01*
X86525000Y-25258665D01*
X86469853Y-24981426D01*
X86361680Y-24720273D01*
X86204637Y-24485241D01*
X86004759Y-24285363D01*
X85769727Y-24128320D01*
X85508574Y-24020147D01*
X85231335Y-23965000D01*
X84948665Y-23965000D01*
X84671426Y-24020147D01*
X84410273Y-24128320D01*
X84175241Y-24285363D01*
X83975363Y-24485241D01*
X83818320Y-24720273D01*
X83710147Y-24981426D01*
X83655000Y-25258665D01*
X78760585Y-25258665D01*
X78905000Y-25114250D01*
X78908072Y-24600000D01*
X78895812Y-24475518D01*
X78859502Y-24355820D01*
X78800537Y-24245506D01*
X78721185Y-24148815D01*
X78624494Y-24069463D01*
X78514180Y-24010498D01*
X78394482Y-23974188D01*
X78270000Y-23961928D01*
X77755750Y-23965000D01*
X77597000Y-24123750D01*
X77343000Y-24123750D01*
X77184250Y-23965000D01*
X76670000Y-23961928D01*
X76545518Y-23974188D01*
X76425820Y-24010498D01*
X76315506Y-24069463D01*
X76218815Y-24148815D01*
X76139463Y-24245506D01*
X76080498Y-24355820D01*
X76044188Y-24475518D01*
X76031928Y-24600000D01*
X72371452Y-24600000D01*
X72273475Y-24453368D01*
X72066632Y-24246525D01*
X71823411Y-24084010D01*
X71553158Y-23972068D01*
X71266260Y-23915000D01*
X70973740Y-23915000D01*
X70686842Y-23972068D01*
X70416589Y-24084010D01*
X70173368Y-24246525D01*
X70041513Y-24378380D01*
X70019502Y-24305820D01*
X69960537Y-24195506D01*
X69881185Y-24098815D01*
X69784494Y-24019463D01*
X69674180Y-23960498D01*
X69554482Y-23924188D01*
X69430000Y-23911928D01*
X68865750Y-23915000D01*
X68707000Y-24073750D01*
X68453000Y-24073750D01*
X68294250Y-23915000D01*
X67730000Y-23911928D01*
X67605518Y-23924188D01*
X67485820Y-23960498D01*
X67375506Y-24019463D01*
X67278815Y-24098815D01*
X67199463Y-24195506D01*
X67140498Y-24305820D01*
X67104188Y-24425518D01*
X67091928Y-24550000D01*
X63940698Y-24550000D01*
X63849871Y-24380076D01*
X63557852Y-24251753D01*
X62409605Y-25400000D01*
X62050395Y-25400000D01*
X60902148Y-24251753D01*
X60610129Y-24380076D01*
X60442277Y-24715695D01*
X60343126Y-25077611D01*
X60316486Y-25451916D01*
X46355000Y-25451916D01*
X46355000Y-25212374D01*
X46281791Y-24844332D01*
X46138189Y-24497644D01*
X45929710Y-24185634D01*
X45816224Y-24072148D01*
X61081753Y-24072148D01*
X62230000Y-25220395D01*
X63378247Y-24072148D01*
X63306938Y-23909872D01*
X108255000Y-23909872D01*
X108255000Y-24350128D01*
X108340890Y-24781925D01*
X108509369Y-25188669D01*
X108753962Y-25554729D01*
X109065271Y-25866038D01*
X109431331Y-26110631D01*
X109838075Y-26279110D01*
X110269872Y-26365000D01*
X110710128Y-26365000D01*
X111141925Y-26279110D01*
X111548669Y-26110631D01*
X111914729Y-25866038D01*
X112226038Y-25554729D01*
X112470631Y-25188669D01*
X112639110Y-24781925D01*
X112725000Y-24350128D01*
X112725000Y-23909872D01*
X112639110Y-23478075D01*
X112470631Y-23071331D01*
X112226038Y-22705271D01*
X111914729Y-22393962D01*
X111548669Y-22149369D01*
X111141925Y-21980890D01*
X110710128Y-21895000D01*
X110269872Y-21895000D01*
X109838075Y-21980890D01*
X109431331Y-22149369D01*
X109065271Y-22393962D01*
X108753962Y-22705271D01*
X108509369Y-23071331D01*
X108340890Y-23478075D01*
X108255000Y-23909872D01*
X63306938Y-23909872D01*
X63249924Y-23780129D01*
X62914305Y-23612277D01*
X62552389Y-23513126D01*
X62178084Y-23486486D01*
X61805773Y-23533382D01*
X61449765Y-23652012D01*
X61210076Y-23780129D01*
X61081753Y-24072148D01*
X45816224Y-24072148D01*
X45664366Y-23920290D01*
X45352356Y-23711811D01*
X45005668Y-23568209D01*
X44637626Y-23495000D01*
X44262374Y-23495000D01*
X43894332Y-23568209D01*
X43547644Y-23711811D01*
X43235634Y-23920290D01*
X42970290Y-24185634D01*
X42761811Y-24497644D01*
X42618209Y-24844332D01*
X42545000Y-25212374D01*
X40064791Y-25212374D01*
X40080631Y-25188669D01*
X40249110Y-24781925D01*
X40335000Y-24350128D01*
X40335000Y-23909872D01*
X40249110Y-23478075D01*
X40080631Y-23071331D01*
X39836038Y-22705271D01*
X39524729Y-22393962D01*
X39158669Y-22149369D01*
X38751925Y-21980890D01*
X38320128Y-21895000D01*
X37879872Y-21895000D01*
X37448075Y-21980890D01*
X37041331Y-22149369D01*
X36675271Y-22393962D01*
X36363962Y-22705271D01*
X36119369Y-23071331D01*
X35950890Y-23478075D01*
X35865000Y-23909872D01*
X32435000Y-23909872D01*
X32435000Y-21448665D01*
X83655000Y-21448665D01*
X83655000Y-21731335D01*
X83710147Y-22008574D01*
X83818320Y-22269727D01*
X83975363Y-22504759D01*
X84175241Y-22704637D01*
X84410273Y-22861680D01*
X84671426Y-22969853D01*
X84948665Y-23025000D01*
X85231335Y-23025000D01*
X85508574Y-22969853D01*
X85769727Y-22861680D01*
X86004759Y-22704637D01*
X86126694Y-22582702D01*
X89276903Y-22582702D01*
X89348486Y-22826671D01*
X89603996Y-22947571D01*
X89878184Y-23016300D01*
X90160512Y-23030217D01*
X90440130Y-22988787D01*
X90706292Y-22893603D01*
X90831514Y-22826671D01*
X90903097Y-22582702D01*
X90090000Y-21769605D01*
X89276903Y-22582702D01*
X86126694Y-22582702D01*
X86204637Y-22504759D01*
X86361680Y-22269727D01*
X86469853Y-22008574D01*
X86525000Y-21731335D01*
X86525000Y-21660512D01*
X88649783Y-21660512D01*
X88691213Y-21940130D01*
X88786397Y-22206292D01*
X88853329Y-22331514D01*
X89097298Y-22403097D01*
X89910395Y-21590000D01*
X90269605Y-21590000D01*
X91082702Y-22403097D01*
X91326671Y-22331514D01*
X91447571Y-22076004D01*
X91516300Y-21801816D01*
X91530217Y-21519488D01*
X91488787Y-21239870D01*
X91393603Y-20973708D01*
X91326671Y-20848486D01*
X91082702Y-20776903D01*
X90269605Y-21590000D01*
X89910395Y-21590000D01*
X89097298Y-20776903D01*
X88853329Y-20848486D01*
X88732429Y-21103996D01*
X88663700Y-21378184D01*
X88649783Y-21660512D01*
X86525000Y-21660512D01*
X86525000Y-21448665D01*
X86469853Y-21171426D01*
X86361680Y-20910273D01*
X86204637Y-20675241D01*
X86126694Y-20597298D01*
X89276903Y-20597298D01*
X90090000Y-21410395D01*
X90903097Y-20597298D01*
X90831514Y-20353329D01*
X90576004Y-20232429D01*
X90301816Y-20163700D01*
X90019488Y-20149783D01*
X89739870Y-20191213D01*
X89473708Y-20286397D01*
X89348486Y-20353329D01*
X89276903Y-20597298D01*
X86126694Y-20597298D01*
X86004759Y-20475363D01*
X85769727Y-20318320D01*
X85508574Y-20210147D01*
X85231335Y-20155000D01*
X84948665Y-20155000D01*
X84671426Y-20210147D01*
X84410273Y-20318320D01*
X84175241Y-20475363D01*
X83975363Y-20675241D01*
X83818320Y-20910273D01*
X83710147Y-21171426D01*
X83655000Y-21448665D01*
X32435000Y-21448665D01*
X32435000Y-18465000D01*
X116155000Y-18465000D01*
X116155001Y-81865000D01*
G04 #@! TA.AperFunction,Conductor*
D27*
G36*
X116155001Y-81865000D02*
G01*
X32435000Y-81865000D01*
X32435000Y-77249872D01*
X35865000Y-77249872D01*
X35865000Y-77690128D01*
X35950890Y-78121925D01*
X36119369Y-78528669D01*
X36363962Y-78894729D01*
X36675271Y-79206038D01*
X37041331Y-79450631D01*
X37448075Y-79619110D01*
X37879872Y-79705000D01*
X38320128Y-79705000D01*
X38751925Y-79619110D01*
X39158669Y-79450631D01*
X39524729Y-79206038D01*
X39769114Y-78961653D01*
X59012952Y-78961653D01*
X59168962Y-79277214D01*
X59543745Y-79468020D01*
X59948551Y-79582044D01*
X60367824Y-79614902D01*
X60785451Y-79565334D01*
X61185383Y-79435243D01*
X61481038Y-79277214D01*
X61637048Y-78961653D01*
X60325000Y-77649605D01*
X59012952Y-78961653D01*
X39769114Y-78961653D01*
X39836038Y-78894729D01*
X40080631Y-78528669D01*
X40249110Y-78121925D01*
X40335000Y-77690128D01*
X40335000Y-77512824D01*
X58180098Y-77512824D01*
X58229666Y-77930451D01*
X58359757Y-78330383D01*
X58517786Y-78626038D01*
X58833347Y-78782048D01*
X60145395Y-77470000D01*
X60504605Y-77470000D01*
X61816653Y-78782048D01*
X62132214Y-78626038D01*
X62323020Y-78251255D01*
X62437044Y-77846449D01*
X62469902Y-77427176D01*
X62441977Y-77191891D01*
X72218519Y-77191891D01*
X72315843Y-77466252D01*
X72464822Y-77716355D01*
X72659731Y-77932588D01*
X72893080Y-78106641D01*
X73155901Y-78231825D01*
X73303110Y-78276476D01*
X73533000Y-78155155D01*
X73533000Y-76962000D01*
X73787000Y-76962000D01*
X73787000Y-78155155D01*
X74016890Y-78276476D01*
X74164099Y-78231825D01*
X74426920Y-78106641D01*
X74660269Y-77932588D01*
X74855178Y-77716355D01*
X74930000Y-77590745D01*
X75004822Y-77716355D01*
X75199731Y-77932588D01*
X75433080Y-78106641D01*
X75695901Y-78231825D01*
X75843110Y-78276476D01*
X76073000Y-78155155D01*
X76073000Y-76962000D01*
X76327000Y-76962000D01*
X76327000Y-78155155D01*
X76556890Y-78276476D01*
X76704099Y-78231825D01*
X76966920Y-78106641D01*
X77200269Y-77932588D01*
X77395178Y-77716355D01*
X77470000Y-77590745D01*
X77544822Y-77716355D01*
X77739731Y-77932588D01*
X77973080Y-78106641D01*
X78235901Y-78231825D01*
X78383110Y-78276476D01*
X78613000Y-78155155D01*
X78613000Y-76962000D01*
X78867000Y-76962000D01*
X78867000Y-78155155D01*
X79096890Y-78276476D01*
X79244099Y-78231825D01*
X79506920Y-78106641D01*
X79740269Y-77932588D01*
X79935178Y-77716355D01*
X80010000Y-77590745D01*
X80084822Y-77716355D01*
X80279731Y-77932588D01*
X80513080Y-78106641D01*
X80775901Y-78231825D01*
X80923110Y-78276476D01*
X81153000Y-78155155D01*
X81153000Y-76962000D01*
X81407000Y-76962000D01*
X81407000Y-78155155D01*
X81636890Y-78276476D01*
X81784099Y-78231825D01*
X82046920Y-78106641D01*
X82280269Y-77932588D01*
X82475178Y-77716355D01*
X82624157Y-77466252D01*
X82721481Y-77191891D01*
X89363519Y-77191891D01*
X89460843Y-77466252D01*
X89609822Y-77716355D01*
X89804731Y-77932588D01*
X90038080Y-78106641D01*
X90300901Y-78231825D01*
X90448110Y-78276476D01*
X90678000Y-78155155D01*
X90678000Y-76962000D01*
X90932000Y-76962000D01*
X90932000Y-78155155D01*
X91161890Y-78276476D01*
X91309099Y-78231825D01*
X91571920Y-78106641D01*
X91805269Y-77932588D01*
X92000178Y-77716355D01*
X92075000Y-77590745D01*
X92149822Y-77716355D01*
X92344731Y-77932588D01*
X92578080Y-78106641D01*
X92840901Y-78231825D01*
X92988110Y-78276476D01*
X93218000Y-78155155D01*
X93218000Y-76962000D01*
X93472000Y-76962000D01*
X93472000Y-78155155D01*
X93701890Y-78276476D01*
X93849099Y-78231825D01*
X94111920Y-78106641D01*
X94345269Y-77932588D01*
X94540178Y-77716355D01*
X94615000Y-77590745D01*
X94689822Y-77716355D01*
X94884731Y-77932588D01*
X95118080Y-78106641D01*
X95380901Y-78231825D01*
X95528110Y-78276476D01*
X95758000Y-78155155D01*
X95758000Y-76962000D01*
X96012000Y-76962000D01*
X96012000Y-78155155D01*
X96241890Y-78276476D01*
X96389099Y-78231825D01*
X96651920Y-78106641D01*
X96885269Y-77932588D01*
X97080178Y-77716355D01*
X97155000Y-77590745D01*
X97229822Y-77716355D01*
X97424731Y-77932588D01*
X97658080Y-78106641D01*
X97920901Y-78231825D01*
X98068110Y-78276476D01*
X98298000Y-78155155D01*
X98298000Y-76962000D01*
X98552000Y-76962000D01*
X98552000Y-78155155D01*
X98781890Y-78276476D01*
X98929099Y-78231825D01*
X99191920Y-78106641D01*
X99425269Y-77932588D01*
X99620178Y-77716355D01*
X99695000Y-77590745D01*
X99769822Y-77716355D01*
X99964731Y-77932588D01*
X100198080Y-78106641D01*
X100460901Y-78231825D01*
X100608110Y-78276476D01*
X100838000Y-78155155D01*
X100838000Y-76962000D01*
X101092000Y-76962000D01*
X101092000Y-78155155D01*
X101321890Y-78276476D01*
X101469099Y-78231825D01*
X101731920Y-78106641D01*
X101965269Y-77932588D01*
X102160178Y-77716355D01*
X102235000Y-77590745D01*
X102309822Y-77716355D01*
X102504731Y-77932588D01*
X102738080Y-78106641D01*
X103000901Y-78231825D01*
X103148110Y-78276476D01*
X103378000Y-78155155D01*
X103378000Y-76962000D01*
X103632000Y-76962000D01*
X103632000Y-78155155D01*
X103861890Y-78276476D01*
X104009099Y-78231825D01*
X104271920Y-78106641D01*
X104505269Y-77932588D01*
X104700178Y-77716355D01*
X104849157Y-77466252D01*
X104925913Y-77249872D01*
X108255000Y-77249872D01*
X108255000Y-77690128D01*
X108340890Y-78121925D01*
X108509369Y-78528669D01*
X108753962Y-78894729D01*
X109065271Y-79206038D01*
X109431331Y-79450631D01*
X109838075Y-79619110D01*
X110269872Y-79705000D01*
X110710128Y-79705000D01*
X111141925Y-79619110D01*
X111548669Y-79450631D01*
X111914729Y-79206038D01*
X112226038Y-78894729D01*
X112470631Y-78528669D01*
X112639110Y-78121925D01*
X112725000Y-77690128D01*
X112725000Y-77249872D01*
X112639110Y-76818075D01*
X112470631Y-76411331D01*
X112226038Y-76045271D01*
X111914729Y-75733962D01*
X111548669Y-75489369D01*
X111141925Y-75320890D01*
X110710128Y-75235000D01*
X110269872Y-75235000D01*
X109838075Y-75320890D01*
X109431331Y-75489369D01*
X109065271Y-75733962D01*
X108753962Y-76045271D01*
X108509369Y-76411331D01*
X108340890Y-76818075D01*
X108255000Y-77249872D01*
X104925913Y-77249872D01*
X104946481Y-77191891D01*
X104825814Y-76962000D01*
X103632000Y-76962000D01*
X103378000Y-76962000D01*
X101092000Y-76962000D01*
X100838000Y-76962000D01*
X98552000Y-76962000D01*
X98298000Y-76962000D01*
X96012000Y-76962000D01*
X95758000Y-76962000D01*
X93472000Y-76962000D01*
X93218000Y-76962000D01*
X90932000Y-76962000D01*
X90678000Y-76962000D01*
X89484186Y-76962000D01*
X89363519Y-77191891D01*
X82721481Y-77191891D01*
X82600814Y-76962000D01*
X81407000Y-76962000D01*
X81153000Y-76962000D01*
X78867000Y-76962000D01*
X78613000Y-76962000D01*
X76327000Y-76962000D01*
X76073000Y-76962000D01*
X73787000Y-76962000D01*
X73533000Y-76962000D01*
X72339186Y-76962000D01*
X72218519Y-77191891D01*
X62441977Y-77191891D01*
X62420334Y-77009549D01*
X62290243Y-76609617D01*
X62132214Y-76313962D01*
X61816653Y-76157952D01*
X60504605Y-77470000D01*
X60145395Y-77470000D01*
X58833347Y-76157952D01*
X58517786Y-76313962D01*
X58326980Y-76688745D01*
X58212956Y-77093551D01*
X58180098Y-77512824D01*
X40335000Y-77512824D01*
X40335000Y-77249872D01*
X40249110Y-76818075D01*
X40080631Y-76411331D01*
X39836038Y-76045271D01*
X39769114Y-75978347D01*
X59012952Y-75978347D01*
X60325000Y-77290395D01*
X61637048Y-75978347D01*
X61481038Y-75662786D01*
X61106255Y-75471980D01*
X60701449Y-75357956D01*
X60282176Y-75325098D01*
X59864549Y-75374666D01*
X59464617Y-75504757D01*
X59168962Y-75662786D01*
X59012952Y-75978347D01*
X39769114Y-75978347D01*
X39524729Y-75733962D01*
X39158669Y-75489369D01*
X38751925Y-75320890D01*
X38320128Y-75235000D01*
X37879872Y-75235000D01*
X37448075Y-75320890D01*
X37041331Y-75489369D01*
X36675271Y-75733962D01*
X36363962Y-76045271D01*
X36119369Y-76411331D01*
X35950890Y-76818075D01*
X35865000Y-77249872D01*
X32435000Y-77249872D01*
X32435000Y-70890000D01*
X58186928Y-70890000D01*
X58186928Y-73890000D01*
X58199188Y-74014482D01*
X58235498Y-74134180D01*
X58294463Y-74244494D01*
X58373815Y-74341185D01*
X58470506Y-74420537D01*
X58580820Y-74479502D01*
X58700518Y-74515812D01*
X58825000Y-74528072D01*
X61825000Y-74528072D01*
X61949482Y-74515812D01*
X62069180Y-74479502D01*
X62179494Y-74420537D01*
X62276185Y-74341185D01*
X62355537Y-74244494D01*
X62406719Y-74148740D01*
X72175000Y-74148740D01*
X72175000Y-74441260D01*
X72232068Y-74728158D01*
X72344010Y-74998411D01*
X72506525Y-75241632D01*
X72713368Y-75448475D01*
X72889406Y-75566100D01*
X72659731Y-75737412D01*
X72464822Y-75953645D01*
X72315843Y-76203748D01*
X72218519Y-76478109D01*
X72339186Y-76708000D01*
X73533000Y-76708000D01*
X73533000Y-76688000D01*
X73787000Y-76688000D01*
X73787000Y-76708000D01*
X76073000Y-76708000D01*
X76073000Y-76688000D01*
X76327000Y-76688000D01*
X76327000Y-76708000D01*
X78613000Y-76708000D01*
X78613000Y-76688000D01*
X78867000Y-76688000D01*
X78867000Y-76708000D01*
X81153000Y-76708000D01*
X81153000Y-76688000D01*
X81407000Y-76688000D01*
X81407000Y-76708000D01*
X82600814Y-76708000D01*
X82721481Y-76478109D01*
X82624157Y-76203748D01*
X82475178Y-75953645D01*
X82298374Y-75757498D01*
X82374180Y-75734502D01*
X82484494Y-75675537D01*
X82581185Y-75596185D01*
X82660537Y-75499494D01*
X82719502Y-75389180D01*
X82755812Y-75269482D01*
X82768072Y-75145000D01*
X82768072Y-74148740D01*
X89320000Y-74148740D01*
X89320000Y-74441260D01*
X89377068Y-74728158D01*
X89489010Y-74998411D01*
X89651525Y-75241632D01*
X89858368Y-75448475D01*
X90034406Y-75566100D01*
X89804731Y-75737412D01*
X89609822Y-75953645D01*
X89460843Y-76203748D01*
X89363519Y-76478109D01*
X89484186Y-76708000D01*
X90678000Y-76708000D01*
X90678000Y-76688000D01*
X90932000Y-76688000D01*
X90932000Y-76708000D01*
X93218000Y-76708000D01*
X93218000Y-76688000D01*
X93472000Y-76688000D01*
X93472000Y-76708000D01*
X95758000Y-76708000D01*
X95758000Y-76688000D01*
X96012000Y-76688000D01*
X96012000Y-76708000D01*
X98298000Y-76708000D01*
X98298000Y-76688000D01*
X98552000Y-76688000D01*
X98552000Y-76708000D01*
X100838000Y-76708000D01*
X100838000Y-76688000D01*
X101092000Y-76688000D01*
X101092000Y-76708000D01*
X103378000Y-76708000D01*
X103378000Y-76688000D01*
X103632000Y-76688000D01*
X103632000Y-76708000D01*
X104825814Y-76708000D01*
X104946481Y-76478109D01*
X104849157Y-76203748D01*
X104700178Y-75953645D01*
X104523374Y-75757498D01*
X104599180Y-75734502D01*
X104709494Y-75675537D01*
X104806185Y-75596185D01*
X104885537Y-75499494D01*
X104944502Y-75389180D01*
X104980812Y-75269482D01*
X104993072Y-75145000D01*
X104993072Y-73445000D01*
X104980812Y-73320518D01*
X104944502Y-73200820D01*
X104885537Y-73090506D01*
X104806185Y-72993815D01*
X104709494Y-72914463D01*
X104599180Y-72855498D01*
X104479482Y-72819188D01*
X104355000Y-72806928D01*
X102655000Y-72806928D01*
X102530518Y-72819188D01*
X102410820Y-72855498D01*
X102300506Y-72914463D01*
X102203815Y-72993815D01*
X102124463Y-73090506D01*
X102065498Y-73200820D01*
X102043487Y-73273380D01*
X101911632Y-73141525D01*
X101668411Y-72979010D01*
X101398158Y-72867068D01*
X101111260Y-72810000D01*
X100818740Y-72810000D01*
X100531842Y-72867068D01*
X100261589Y-72979010D01*
X100018368Y-73141525D01*
X99811525Y-73348368D01*
X99695000Y-73522760D01*
X99578475Y-73348368D01*
X99371632Y-73141525D01*
X99128411Y-72979010D01*
X98858158Y-72867068D01*
X98571260Y-72810000D01*
X98278740Y-72810000D01*
X97991842Y-72867068D01*
X97721589Y-72979010D01*
X97478368Y-73141525D01*
X97271525Y-73348368D01*
X97155000Y-73522760D01*
X97038475Y-73348368D01*
X96831632Y-73141525D01*
X96588411Y-72979010D01*
X96318158Y-72867068D01*
X96031260Y-72810000D01*
X95738740Y-72810000D01*
X95451842Y-72867068D01*
X95181589Y-72979010D01*
X94938368Y-73141525D01*
X94731525Y-73348368D01*
X94615000Y-73522760D01*
X94498475Y-73348368D01*
X94291632Y-73141525D01*
X94048411Y-72979010D01*
X93778158Y-72867068D01*
X93491260Y-72810000D01*
X93198740Y-72810000D01*
X92911842Y-72867068D01*
X92641589Y-72979010D01*
X92398368Y-73141525D01*
X92191525Y-73348368D01*
X92075000Y-73522760D01*
X91958475Y-73348368D01*
X91751632Y-73141525D01*
X91508411Y-72979010D01*
X91238158Y-72867068D01*
X90951260Y-72810000D01*
X90658740Y-72810000D01*
X90371842Y-72867068D01*
X90101589Y-72979010D01*
X89858368Y-73141525D01*
X89651525Y-73348368D01*
X89489010Y-73591589D01*
X89377068Y-73861842D01*
X89320000Y-74148740D01*
X82768072Y-74148740D01*
X82768072Y-73445000D01*
X82755812Y-73320518D01*
X82719502Y-73200820D01*
X82660537Y-73090506D01*
X82581185Y-72993815D01*
X82484494Y-72914463D01*
X82374180Y-72855498D01*
X82254482Y-72819188D01*
X82130000Y-72806928D01*
X80430000Y-72806928D01*
X80305518Y-72819188D01*
X80185820Y-72855498D01*
X80075506Y-72914463D01*
X79978815Y-72993815D01*
X79899463Y-73090506D01*
X79840498Y-73200820D01*
X79818487Y-73273380D01*
X79686632Y-73141525D01*
X79443411Y-72979010D01*
X79173158Y-72867068D01*
X78886260Y-72810000D01*
X78593740Y-72810000D01*
X78306842Y-72867068D01*
X78036589Y-72979010D01*
X77793368Y-73141525D01*
X77586525Y-73348368D01*
X77470000Y-73522760D01*
X77353475Y-73348368D01*
X77146632Y-73141525D01*
X76903411Y-72979010D01*
X76633158Y-72867068D01*
X76346260Y-72810000D01*
X76053740Y-72810000D01*
X75766842Y-72867068D01*
X75496589Y-72979010D01*
X75253368Y-73141525D01*
X75046525Y-73348368D01*
X74930000Y-73522760D01*
X74813475Y-73348368D01*
X74606632Y-73141525D01*
X74363411Y-72979010D01*
X74093158Y-72867068D01*
X73806260Y-72810000D01*
X73513740Y-72810000D01*
X73226842Y-72867068D01*
X72956589Y-72979010D01*
X72713368Y-73141525D01*
X72506525Y-73348368D01*
X72344010Y-73591589D01*
X72232068Y-73861842D01*
X72175000Y-74148740D01*
X62406719Y-74148740D01*
X62414502Y-74134180D01*
X62450812Y-74014482D01*
X62463072Y-73890000D01*
X62463072Y-71477702D01*
X66496903Y-71477702D01*
X66568486Y-71721671D01*
X66823996Y-71842571D01*
X67098184Y-71911300D01*
X67380512Y-71925217D01*
X67660130Y-71883787D01*
X67926292Y-71788603D01*
X68051514Y-71721671D01*
X68123097Y-71477702D01*
X67310000Y-70664605D01*
X66496903Y-71477702D01*
X62463072Y-71477702D01*
X62463072Y-70890000D01*
X62450812Y-70765518D01*
X62414502Y-70645820D01*
X62366231Y-70555512D01*
X65869783Y-70555512D01*
X65911213Y-70835130D01*
X66006397Y-71101292D01*
X66073329Y-71226514D01*
X66317298Y-71298097D01*
X67130395Y-70485000D01*
X67489605Y-70485000D01*
X68302702Y-71298097D01*
X68546671Y-71226514D01*
X68667571Y-70971004D01*
X68736300Y-70696816D01*
X68750217Y-70414488D01*
X68739724Y-70343665D01*
X76035000Y-70343665D01*
X76035000Y-70626335D01*
X76090147Y-70903574D01*
X76198320Y-71164727D01*
X76355363Y-71399759D01*
X76555241Y-71599637D01*
X76790273Y-71756680D01*
X77051426Y-71864853D01*
X77328665Y-71920000D01*
X77611335Y-71920000D01*
X77888574Y-71864853D01*
X78149727Y-71756680D01*
X78384759Y-71599637D01*
X78584637Y-71399759D01*
X78741680Y-71164727D01*
X78849853Y-70903574D01*
X78905000Y-70626335D01*
X78905000Y-70343665D01*
X78849853Y-70066426D01*
X78741680Y-69805273D01*
X78584637Y-69570241D01*
X78384759Y-69370363D01*
X78149727Y-69213320D01*
X77888574Y-69105147D01*
X77730306Y-69073665D01*
X100165000Y-69073665D01*
X100165000Y-69356335D01*
X100220147Y-69633574D01*
X100328320Y-69894727D01*
X100485363Y-70129759D01*
X100685241Y-70329637D01*
X100920273Y-70486680D01*
X101181426Y-70594853D01*
X101458665Y-70650000D01*
X101741335Y-70650000D01*
X102018574Y-70594853D01*
X102279727Y-70486680D01*
X102514759Y-70329637D01*
X102714637Y-70129759D01*
X102871680Y-69894727D01*
X102979853Y-69633574D01*
X103035000Y-69356335D01*
X103035000Y-69073665D01*
X102979853Y-68796426D01*
X102871680Y-68535273D01*
X102714637Y-68300241D01*
X102514759Y-68100363D01*
X102279727Y-67943320D01*
X102018574Y-67835147D01*
X101741335Y-67780000D01*
X101458665Y-67780000D01*
X101181426Y-67835147D01*
X100920273Y-67943320D01*
X100685241Y-68100363D01*
X100485363Y-68300241D01*
X100328320Y-68535273D01*
X100220147Y-68796426D01*
X100165000Y-69073665D01*
X77730306Y-69073665D01*
X77611335Y-69050000D01*
X77328665Y-69050000D01*
X77051426Y-69105147D01*
X76790273Y-69213320D01*
X76555241Y-69370363D01*
X76355363Y-69570241D01*
X76198320Y-69805273D01*
X76090147Y-70066426D01*
X76035000Y-70343665D01*
X68739724Y-70343665D01*
X68708787Y-70134870D01*
X68613603Y-69868708D01*
X68546671Y-69743486D01*
X68302702Y-69671903D01*
X67489605Y-70485000D01*
X67130395Y-70485000D01*
X66317298Y-69671903D01*
X66073329Y-69743486D01*
X65952429Y-69998996D01*
X65883700Y-70273184D01*
X65869783Y-70555512D01*
X62366231Y-70555512D01*
X62355537Y-70535506D01*
X62276185Y-70438815D01*
X62179494Y-70359463D01*
X62069180Y-70300498D01*
X61949482Y-70264188D01*
X61825000Y-70251928D01*
X58825000Y-70251928D01*
X58700518Y-70264188D01*
X58580820Y-70300498D01*
X58470506Y-70359463D01*
X58373815Y-70438815D01*
X58294463Y-70535506D01*
X58235498Y-70645820D01*
X58199188Y-70765518D01*
X58186928Y-70890000D01*
X32435000Y-70890000D01*
X32435000Y-69492298D01*
X66496903Y-69492298D01*
X67310000Y-70305395D01*
X68123097Y-69492298D01*
X68051514Y-69248329D01*
X67796004Y-69127429D01*
X67521816Y-69058700D01*
X67239488Y-69044783D01*
X66959870Y-69086213D01*
X66693708Y-69181397D01*
X66568486Y-69248329D01*
X66496903Y-69492298D01*
X32435000Y-69492298D01*
X32435000Y-52490000D01*
X34071928Y-52490000D01*
X34071928Y-54190000D01*
X34084188Y-54314482D01*
X34120498Y-54434180D01*
X34179463Y-54544494D01*
X34258815Y-54641185D01*
X34355506Y-54720537D01*
X34465820Y-54779502D01*
X34538380Y-54801513D01*
X34406525Y-54933368D01*
X34244010Y-55176589D01*
X34132068Y-55446842D01*
X34075000Y-55733740D01*
X34075000Y-56026260D01*
X34132068Y-56313158D01*
X34244010Y-56583411D01*
X34406525Y-56826632D01*
X34613368Y-57033475D01*
X34787760Y-57150000D01*
X34613368Y-57266525D01*
X34406525Y-57473368D01*
X34244010Y-57716589D01*
X34132068Y-57986842D01*
X34075000Y-58273740D01*
X34075000Y-58566260D01*
X34132068Y-58853158D01*
X34244010Y-59123411D01*
X34406525Y-59366632D01*
X34613368Y-59573475D01*
X34787760Y-59690000D01*
X34613368Y-59806525D01*
X34406525Y-60013368D01*
X34244010Y-60256589D01*
X34132068Y-60526842D01*
X34075000Y-60813740D01*
X34075000Y-61106260D01*
X34132068Y-61393158D01*
X34244010Y-61663411D01*
X34406525Y-61906632D01*
X34613368Y-62113475D01*
X34787760Y-62230000D01*
X34613368Y-62346525D01*
X34406525Y-62553368D01*
X34244010Y-62796589D01*
X34132068Y-63066842D01*
X34075000Y-63353740D01*
X34075000Y-63646260D01*
X34132068Y-63933158D01*
X34244010Y-64203411D01*
X34406525Y-64446632D01*
X34613368Y-64653475D01*
X34787760Y-64770000D01*
X34613368Y-64886525D01*
X34406525Y-65093368D01*
X34244010Y-65336589D01*
X34132068Y-65606842D01*
X34075000Y-65893740D01*
X34075000Y-66186260D01*
X34132068Y-66473158D01*
X34244010Y-66743411D01*
X34406525Y-66986632D01*
X34613368Y-67193475D01*
X34856589Y-67355990D01*
X35126842Y-67467932D01*
X35413740Y-67525000D01*
X35706260Y-67525000D01*
X35993158Y-67467932D01*
X36263411Y-67355990D01*
X36506632Y-67193475D01*
X36713475Y-66986632D01*
X36831100Y-66810594D01*
X37002412Y-67040269D01*
X37218645Y-67235178D01*
X37468748Y-67384157D01*
X37743109Y-67481481D01*
X37973000Y-67360814D01*
X37973000Y-66167000D01*
X38227000Y-66167000D01*
X38227000Y-67360814D01*
X38456891Y-67481481D01*
X38731252Y-67384157D01*
X38981355Y-67235178D01*
X39197588Y-67040269D01*
X39371641Y-66806920D01*
X39496825Y-66544099D01*
X39541476Y-66396890D01*
X39420155Y-66167000D01*
X38227000Y-66167000D01*
X37973000Y-66167000D01*
X37953000Y-66167000D01*
X37953000Y-65913000D01*
X37973000Y-65913000D01*
X37973000Y-63627000D01*
X38227000Y-63627000D01*
X38227000Y-65913000D01*
X39420155Y-65913000D01*
X39541476Y-65683110D01*
X39496825Y-65535901D01*
X39371641Y-65273080D01*
X39197588Y-65039731D01*
X38981355Y-64844822D01*
X38855745Y-64770000D01*
X42541928Y-64770000D01*
X42541928Y-67310000D01*
X42554188Y-67434482D01*
X42590498Y-67554180D01*
X42649463Y-67664494D01*
X42728815Y-67761185D01*
X42825506Y-67840537D01*
X42935820Y-67899502D01*
X43055518Y-67935812D01*
X43180000Y-67948072D01*
X45720000Y-67948072D01*
X45844482Y-67935812D01*
X45964180Y-67899502D01*
X46074494Y-67840537D01*
X46171185Y-67761185D01*
X46250537Y-67664494D01*
X46309502Y-67554180D01*
X46345812Y-67434482D01*
X46352374Y-67367852D01*
X61081753Y-67367852D01*
X61210076Y-67659871D01*
X61545695Y-67827723D01*
X61907611Y-67926874D01*
X62281916Y-67953514D01*
X62654227Y-67906618D01*
X63010235Y-67787988D01*
X63249924Y-67659871D01*
X63378247Y-67367852D01*
X62230000Y-66219605D01*
X61081753Y-67367852D01*
X46352374Y-67367852D01*
X46358072Y-67310000D01*
X46358072Y-66091916D01*
X60316486Y-66091916D01*
X60363382Y-66464227D01*
X60482012Y-66820235D01*
X60610129Y-67059924D01*
X60902148Y-67188247D01*
X62050395Y-66040000D01*
X62409605Y-66040000D01*
X63557852Y-67188247D01*
X63849871Y-67059924D01*
X64017723Y-66724305D01*
X64116874Y-66362389D01*
X64143514Y-65988084D01*
X64096618Y-65615773D01*
X63977988Y-65259765D01*
X63849871Y-65020076D01*
X63557852Y-64891753D01*
X62409605Y-66040000D01*
X62050395Y-66040000D01*
X60902148Y-64891753D01*
X60610129Y-65020076D01*
X60442277Y-65355695D01*
X60343126Y-65717611D01*
X60316486Y-66091916D01*
X46358072Y-66091916D01*
X46358072Y-64770000D01*
X46352375Y-64712148D01*
X61081753Y-64712148D01*
X62230000Y-65860395D01*
X63378247Y-64712148D01*
X63249924Y-64420129D01*
X62914305Y-64252277D01*
X62552389Y-64153126D01*
X62178084Y-64126486D01*
X61805773Y-64173382D01*
X61449765Y-64292012D01*
X61210076Y-64420129D01*
X61081753Y-64712148D01*
X46352375Y-64712148D01*
X46345812Y-64645518D01*
X46309502Y-64525820D01*
X46250537Y-64415506D01*
X46171185Y-64318815D01*
X46074494Y-64239463D01*
X45964180Y-64180498D01*
X45844482Y-64144188D01*
X45720000Y-64131928D01*
X43180000Y-64131928D01*
X43055518Y-64144188D01*
X42935820Y-64180498D01*
X42825506Y-64239463D01*
X42728815Y-64318815D01*
X42649463Y-64415506D01*
X42590498Y-64525820D01*
X42554188Y-64645518D01*
X42541928Y-64770000D01*
X38855745Y-64770000D01*
X38981355Y-64695178D01*
X39197588Y-64500269D01*
X39371641Y-64266920D01*
X39496825Y-64004099D01*
X39541476Y-63856890D01*
X39420155Y-63627000D01*
X38227000Y-63627000D01*
X37973000Y-63627000D01*
X37953000Y-63627000D01*
X37953000Y-63373000D01*
X37973000Y-63373000D01*
X37973000Y-61087000D01*
X38227000Y-61087000D01*
X38227000Y-63373000D01*
X39420155Y-63373000D01*
X39541476Y-63143110D01*
X39496825Y-62995901D01*
X39489252Y-62980000D01*
X67191928Y-62980000D01*
X67204188Y-63104482D01*
X67240498Y-63224180D01*
X67299463Y-63334494D01*
X67378815Y-63431185D01*
X67475506Y-63510537D01*
X67585820Y-63569502D01*
X67705518Y-63605812D01*
X67813483Y-63616445D01*
X67697114Y-63694201D01*
X67504201Y-63887114D01*
X67352629Y-64113957D01*
X67248225Y-64366011D01*
X67195000Y-64633589D01*
X67195000Y-64906411D01*
X67248225Y-65173989D01*
X67352629Y-65426043D01*
X67504201Y-65652886D01*
X67697114Y-65845799D01*
X67923957Y-65997371D01*
X68026873Y-66040000D01*
X67923957Y-66082629D01*
X67697114Y-66234201D01*
X67504201Y-66427114D01*
X67352629Y-66653957D01*
X67248225Y-66906011D01*
X67195000Y-67173589D01*
X67195000Y-67446411D01*
X67248225Y-67713989D01*
X67352629Y-67966043D01*
X67504201Y-68192886D01*
X67697114Y-68385799D01*
X67923957Y-68537371D01*
X68176011Y-68641775D01*
X68443589Y-68695000D01*
X68716411Y-68695000D01*
X68983989Y-68641775D01*
X69236043Y-68537371D01*
X69462886Y-68385799D01*
X69625983Y-68222702D01*
X83006903Y-68222702D01*
X83078486Y-68466671D01*
X83333996Y-68587571D01*
X83608184Y-68656300D01*
X83890512Y-68670217D01*
X84170130Y-68628787D01*
X84436292Y-68533603D01*
X84561514Y-68466671D01*
X84633097Y-68222702D01*
X84470395Y-68060000D01*
X91321928Y-68060000D01*
X91334188Y-68184482D01*
X91370498Y-68304180D01*
X91429463Y-68414494D01*
X91508815Y-68511185D01*
X91605506Y-68590537D01*
X91715820Y-68649502D01*
X91835518Y-68685812D01*
X91960000Y-68698072D01*
X92424250Y-68695000D01*
X92583000Y-68536250D01*
X92583000Y-67437000D01*
X92837000Y-67437000D01*
X92837000Y-68536250D01*
X92995750Y-68695000D01*
X93460000Y-68698072D01*
X93584482Y-68685812D01*
X93704180Y-68649502D01*
X93814494Y-68590537D01*
X93911185Y-68511185D01*
X93990537Y-68414494D01*
X94049502Y-68304180D01*
X94085812Y-68184482D01*
X94098072Y-68060000D01*
X94095000Y-67595750D01*
X93936250Y-67437000D01*
X92837000Y-67437000D01*
X92583000Y-67437000D01*
X91483750Y-67437000D01*
X91325000Y-67595750D01*
X91321928Y-68060000D01*
X84470395Y-68060000D01*
X83820000Y-67409605D01*
X83006903Y-68222702D01*
X69625983Y-68222702D01*
X69655799Y-68192886D01*
X69807371Y-67966043D01*
X69911775Y-67713989D01*
X69965000Y-67446411D01*
X69965000Y-67300512D01*
X82379783Y-67300512D01*
X82421213Y-67580130D01*
X82516397Y-67846292D01*
X82583329Y-67971514D01*
X82827298Y-68043097D01*
X83640395Y-67230000D01*
X83999605Y-67230000D01*
X84812702Y-68043097D01*
X85056671Y-67971514D01*
X85177571Y-67716004D01*
X85246300Y-67441816D01*
X85260217Y-67159488D01*
X85218787Y-66879870D01*
X85123603Y-66613708D01*
X85094896Y-66560000D01*
X91321928Y-66560000D01*
X91325000Y-67024250D01*
X91483750Y-67183000D01*
X92583000Y-67183000D01*
X92583000Y-67163000D01*
X92837000Y-67163000D01*
X92837000Y-67183000D01*
X93936250Y-67183000D01*
X94095000Y-67024250D01*
X94098072Y-66560000D01*
X94085812Y-66435518D01*
X94049502Y-66315820D01*
X93990537Y-66205506D01*
X93911185Y-66108815D01*
X93814494Y-66029463D01*
X93704180Y-65970498D01*
X93584482Y-65934188D01*
X93476517Y-65923555D01*
X93592886Y-65845799D01*
X93785799Y-65652886D01*
X93937371Y-65426043D01*
X94041775Y-65173989D01*
X94095000Y-64906411D01*
X94095000Y-64633589D01*
X94041775Y-64366011D01*
X93937371Y-64113957D01*
X93785799Y-63887114D01*
X93592886Y-63694201D01*
X93366043Y-63542629D01*
X93263127Y-63500000D01*
X93366043Y-63457371D01*
X93592886Y-63305799D01*
X93785799Y-63112886D01*
X93937371Y-62886043D01*
X94041775Y-62633989D01*
X94095000Y-62366411D01*
X94095000Y-62093589D01*
X94041775Y-61826011D01*
X93937371Y-61573957D01*
X93785799Y-61347114D01*
X93592886Y-61154201D01*
X93366043Y-61002629D01*
X93113989Y-60898225D01*
X92846411Y-60845000D01*
X92573589Y-60845000D01*
X92306011Y-60898225D01*
X92053957Y-61002629D01*
X91827114Y-61154201D01*
X91634201Y-61347114D01*
X91482629Y-61573957D01*
X91378225Y-61826011D01*
X91325000Y-62093589D01*
X91325000Y-62366411D01*
X91378225Y-62633989D01*
X91482629Y-62886043D01*
X91634201Y-63112886D01*
X91827114Y-63305799D01*
X92053957Y-63457371D01*
X92156873Y-63500000D01*
X92053957Y-63542629D01*
X91827114Y-63694201D01*
X91634201Y-63887114D01*
X91482629Y-64113957D01*
X91378225Y-64366011D01*
X91325000Y-64633589D01*
X91325000Y-64906411D01*
X91378225Y-65173989D01*
X91482629Y-65426043D01*
X91634201Y-65652886D01*
X91827114Y-65845799D01*
X91943483Y-65923555D01*
X91835518Y-65934188D01*
X91715820Y-65970498D01*
X91605506Y-66029463D01*
X91508815Y-66108815D01*
X91429463Y-66205506D01*
X91370498Y-66315820D01*
X91334188Y-66435518D01*
X91321928Y-66560000D01*
X85094896Y-66560000D01*
X85056671Y-66488486D01*
X84812702Y-66416903D01*
X83999605Y-67230000D01*
X83640395Y-67230000D01*
X82827298Y-66416903D01*
X82583329Y-66488486D01*
X82462429Y-66743996D01*
X82393700Y-67018184D01*
X82379783Y-67300512D01*
X69965000Y-67300512D01*
X69965000Y-67173589D01*
X69911775Y-66906011D01*
X69807371Y-66653957D01*
X69655799Y-66427114D01*
X69465983Y-66237298D01*
X83006903Y-66237298D01*
X83820000Y-67050395D01*
X84633097Y-66237298D01*
X84561514Y-65993329D01*
X84306004Y-65872429D01*
X84031816Y-65803700D01*
X83749488Y-65789783D01*
X83469870Y-65831213D01*
X83203708Y-65926397D01*
X83078486Y-65993329D01*
X83006903Y-66237298D01*
X69465983Y-66237298D01*
X69462886Y-66234201D01*
X69236043Y-66082629D01*
X69133127Y-66040000D01*
X69236043Y-65997371D01*
X69462886Y-65845799D01*
X69655799Y-65652886D01*
X69807371Y-65426043D01*
X69911775Y-65173989D01*
X69920982Y-65127702D01*
X76696903Y-65127702D01*
X76768486Y-65371671D01*
X77023996Y-65492571D01*
X77298184Y-65561300D01*
X77580512Y-65575217D01*
X77860130Y-65533787D01*
X78126292Y-65438603D01*
X78251514Y-65371671D01*
X78323097Y-65127702D01*
X77510000Y-64314605D01*
X76696903Y-65127702D01*
X69920982Y-65127702D01*
X69965000Y-64906411D01*
X69965000Y-64633589D01*
X69911775Y-64366011D01*
X69845295Y-64205512D01*
X76069783Y-64205512D01*
X76111213Y-64485130D01*
X76206397Y-64751292D01*
X76273329Y-64876514D01*
X76517298Y-64948097D01*
X77330395Y-64135000D01*
X77689605Y-64135000D01*
X78502702Y-64948097D01*
X78571928Y-64927785D01*
X78571928Y-64935000D01*
X78584188Y-65059482D01*
X78620498Y-65179180D01*
X78679463Y-65289494D01*
X78758815Y-65386185D01*
X78855506Y-65465537D01*
X78965820Y-65524502D01*
X79085518Y-65560812D01*
X79210000Y-65573072D01*
X80810000Y-65573072D01*
X80934482Y-65560812D01*
X81054180Y-65524502D01*
X81164494Y-65465537D01*
X81261185Y-65386185D01*
X81340537Y-65289494D01*
X81399502Y-65179180D01*
X81435812Y-65059482D01*
X81448072Y-64935000D01*
X81448072Y-63335000D01*
X81435812Y-63210518D01*
X81399502Y-63090820D01*
X81340537Y-62980506D01*
X81261185Y-62883815D01*
X81164494Y-62804463D01*
X81054180Y-62745498D01*
X80934482Y-62709188D01*
X80810000Y-62696928D01*
X79210000Y-62696928D01*
X79085518Y-62709188D01*
X78965820Y-62745498D01*
X78855506Y-62804463D01*
X78758815Y-62883815D01*
X78679463Y-62980506D01*
X78620498Y-63090820D01*
X78584188Y-63210518D01*
X78571928Y-63335000D01*
X78571928Y-63342215D01*
X78502702Y-63321903D01*
X77689605Y-64135000D01*
X77330395Y-64135000D01*
X76517298Y-63321903D01*
X76273329Y-63393486D01*
X76152429Y-63648996D01*
X76083700Y-63923184D01*
X76069783Y-64205512D01*
X69845295Y-64205512D01*
X69807371Y-64113957D01*
X69655799Y-63887114D01*
X69462886Y-63694201D01*
X69346517Y-63616445D01*
X69454482Y-63605812D01*
X69574180Y-63569502D01*
X69684494Y-63510537D01*
X69781185Y-63431185D01*
X69860537Y-63334494D01*
X69919502Y-63224180D01*
X69955812Y-63104482D01*
X69968072Y-62980000D01*
X69965000Y-62515750D01*
X69806250Y-62357000D01*
X68707000Y-62357000D01*
X68707000Y-62377000D01*
X68453000Y-62377000D01*
X68453000Y-62357000D01*
X67353750Y-62357000D01*
X67195000Y-62515750D01*
X67191928Y-62980000D01*
X39489252Y-62980000D01*
X39371641Y-62733080D01*
X39197588Y-62499731D01*
X38981355Y-62304822D01*
X38855745Y-62230000D01*
X38981355Y-62155178D01*
X39197588Y-61960269D01*
X39371641Y-61726920D01*
X39489251Y-61480000D01*
X67191928Y-61480000D01*
X67195000Y-61944250D01*
X67353750Y-62103000D01*
X68453000Y-62103000D01*
X68453000Y-61003750D01*
X68707000Y-61003750D01*
X68707000Y-62103000D01*
X69806250Y-62103000D01*
X69820585Y-62088665D01*
X72225000Y-62088665D01*
X72225000Y-62371335D01*
X72280147Y-62648574D01*
X72388320Y-62909727D01*
X72545363Y-63144759D01*
X72745241Y-63344637D01*
X72980273Y-63501680D01*
X73241426Y-63609853D01*
X73518665Y-63665000D01*
X73801335Y-63665000D01*
X74078574Y-63609853D01*
X74339727Y-63501680D01*
X74574759Y-63344637D01*
X74774637Y-63144759D01*
X74776281Y-63142298D01*
X76696903Y-63142298D01*
X77510000Y-63955395D01*
X78323097Y-63142298D01*
X78251514Y-62898329D01*
X77996004Y-62777429D01*
X77721816Y-62708700D01*
X77439488Y-62694783D01*
X77159870Y-62736213D01*
X76893708Y-62831397D01*
X76768486Y-62898329D01*
X76696903Y-63142298D01*
X74776281Y-63142298D01*
X74931680Y-62909727D01*
X75039853Y-62648574D01*
X75095000Y-62371335D01*
X75095000Y-62088665D01*
X82385000Y-62088665D01*
X82385000Y-62371335D01*
X82440147Y-62648574D01*
X82548320Y-62909727D01*
X82705363Y-63144759D01*
X82905241Y-63344637D01*
X83140273Y-63501680D01*
X83401426Y-63609853D01*
X83678665Y-63665000D01*
X83961335Y-63665000D01*
X84238574Y-63609853D01*
X84499727Y-63501680D01*
X84734759Y-63344637D01*
X84934637Y-63144759D01*
X85091680Y-62909727D01*
X85199853Y-62648574D01*
X85255000Y-62371335D01*
X85255000Y-62088665D01*
X85199853Y-61811426D01*
X85091680Y-61550273D01*
X84934637Y-61315241D01*
X84734759Y-61115363D01*
X84499727Y-60958320D01*
X84238574Y-60850147D01*
X83961335Y-60795000D01*
X83678665Y-60795000D01*
X83401426Y-60850147D01*
X83140273Y-60958320D01*
X82905241Y-61115363D01*
X82705363Y-61315241D01*
X82548320Y-61550273D01*
X82440147Y-61811426D01*
X82385000Y-62088665D01*
X75095000Y-62088665D01*
X75039853Y-61811426D01*
X74931680Y-61550273D01*
X74774637Y-61315241D01*
X74574759Y-61115363D01*
X74420000Y-61011957D01*
X74420000Y-60055000D01*
X77149428Y-60055000D01*
X77161688Y-60179482D01*
X77197998Y-60299180D01*
X77256963Y-60409494D01*
X77336315Y-60506185D01*
X77433006Y-60585537D01*
X77543320Y-60644502D01*
X77663018Y-60680812D01*
X77787500Y-60693072D01*
X78454250Y-60690000D01*
X78613000Y-60531250D01*
X78613000Y-59182000D01*
X77311250Y-59182000D01*
X77152500Y-59340750D01*
X77149428Y-60055000D01*
X74420000Y-60055000D01*
X74420000Y-58734801D01*
X75099801Y-58055000D01*
X77149428Y-58055000D01*
X77152500Y-58769250D01*
X77311250Y-58928000D01*
X78613000Y-58928000D01*
X78613000Y-57578750D01*
X78867000Y-57578750D01*
X78867000Y-58928000D01*
X78887000Y-58928000D01*
X78887000Y-59182000D01*
X78867000Y-59182000D01*
X78867000Y-60531250D01*
X79025750Y-60690000D01*
X79692500Y-60693072D01*
X79816982Y-60680812D01*
X79936680Y-60644502D01*
X80046994Y-60585537D01*
X80143685Y-60506185D01*
X80223037Y-60409494D01*
X80267905Y-60325553D01*
X80393766Y-60428845D01*
X80669552Y-60576255D01*
X80968797Y-60667030D01*
X81280000Y-60697681D01*
X81591204Y-60667030D01*
X81890449Y-60576255D01*
X82166235Y-60428845D01*
X82407963Y-60230463D01*
X82550000Y-60057391D01*
X82692037Y-60230463D01*
X82933766Y-60428845D01*
X83209552Y-60576255D01*
X83508797Y-60667030D01*
X83820000Y-60697681D01*
X84131204Y-60667030D01*
X84430449Y-60576255D01*
X84706235Y-60428845D01*
X84947963Y-60230463D01*
X85146345Y-59988734D01*
X85293755Y-59712948D01*
X85384530Y-59413703D01*
X85407500Y-59180485D01*
X85407500Y-58929514D01*
X85384530Y-58696296D01*
X85293755Y-58397051D01*
X85146345Y-58121265D01*
X84947963Y-57879537D01*
X84706234Y-57681155D01*
X84430448Y-57533745D01*
X84131203Y-57442970D01*
X83820000Y-57412319D01*
X83508796Y-57442970D01*
X83209551Y-57533745D01*
X82933765Y-57681155D01*
X82692037Y-57879537D01*
X82550000Y-58052609D01*
X82407963Y-57879537D01*
X82166234Y-57681155D01*
X81890448Y-57533745D01*
X81591203Y-57442970D01*
X81280000Y-57412319D01*
X80968796Y-57442970D01*
X80669551Y-57533745D01*
X80393765Y-57681155D01*
X80267905Y-57784446D01*
X80223037Y-57700506D01*
X80143685Y-57603815D01*
X80046994Y-57524463D01*
X79936680Y-57465498D01*
X79816982Y-57429188D01*
X79692500Y-57416928D01*
X79025750Y-57420000D01*
X78867000Y-57578750D01*
X78613000Y-57578750D01*
X78454250Y-57420000D01*
X77787500Y-57416928D01*
X77663018Y-57429188D01*
X77543320Y-57465498D01*
X77433006Y-57524463D01*
X77336315Y-57603815D01*
X77256963Y-57700506D01*
X77197998Y-57810820D01*
X77161688Y-57930518D01*
X77149428Y-58055000D01*
X75099801Y-58055000D01*
X79054802Y-54100000D01*
X82601957Y-54100000D01*
X82705363Y-54254759D01*
X82905241Y-54454637D01*
X83140273Y-54611680D01*
X83401426Y-54719853D01*
X83678665Y-54775000D01*
X83961335Y-54775000D01*
X84238574Y-54719853D01*
X84499727Y-54611680D01*
X84734759Y-54454637D01*
X84934637Y-54254759D01*
X85091680Y-54019727D01*
X85199853Y-53758574D01*
X85255000Y-53481335D01*
X85255000Y-53198665D01*
X85199853Y-52921426D01*
X85091680Y-52660273D01*
X84934637Y-52425241D01*
X84734759Y-52225363D01*
X84499727Y-52068320D01*
X84238574Y-51960147D01*
X83961335Y-51905000D01*
X83678665Y-51905000D01*
X83401426Y-51960147D01*
X83140273Y-52068320D01*
X82905241Y-52225363D01*
X82705363Y-52425241D01*
X82601957Y-52580000D01*
X78777323Y-52580000D01*
X78740000Y-52576324D01*
X78702677Y-52580000D01*
X78702667Y-52580000D01*
X78591014Y-52590997D01*
X78447753Y-52634454D01*
X78315723Y-52705026D01*
X78232083Y-52773668D01*
X78199999Y-52799999D01*
X78176201Y-52828997D01*
X73148998Y-57856201D01*
X73120000Y-57879999D01*
X73096202Y-57908997D01*
X73096201Y-57908998D01*
X73025026Y-57995724D01*
X72954454Y-58127754D01*
X72910998Y-58271015D01*
X72896324Y-58420000D01*
X72900001Y-58457332D01*
X72900000Y-61011956D01*
X72745241Y-61115363D01*
X72545363Y-61315241D01*
X72388320Y-61550273D01*
X72280147Y-61811426D01*
X72225000Y-62088665D01*
X69820585Y-62088665D01*
X69965000Y-61944250D01*
X69968072Y-61480000D01*
X69955812Y-61355518D01*
X69919502Y-61235820D01*
X69860537Y-61125506D01*
X69781185Y-61028815D01*
X69684494Y-60949463D01*
X69574180Y-60890498D01*
X69454482Y-60854188D01*
X69330000Y-60841928D01*
X68865750Y-60845000D01*
X68707000Y-61003750D01*
X68453000Y-61003750D01*
X68294250Y-60845000D01*
X67830000Y-60841928D01*
X67705518Y-60854188D01*
X67585820Y-60890498D01*
X67475506Y-60949463D01*
X67378815Y-61028815D01*
X67299463Y-61125506D01*
X67240498Y-61235820D01*
X67204188Y-61355518D01*
X67191928Y-61480000D01*
X39489251Y-61480000D01*
X39496825Y-61464099D01*
X39541476Y-61316890D01*
X39420155Y-61087000D01*
X38227000Y-61087000D01*
X37973000Y-61087000D01*
X37953000Y-61087000D01*
X37953000Y-60833000D01*
X37973000Y-60833000D01*
X37973000Y-58547000D01*
X38227000Y-58547000D01*
X38227000Y-60833000D01*
X39420155Y-60833000D01*
X39541476Y-60603110D01*
X39496825Y-60455901D01*
X39371641Y-60193080D01*
X39197588Y-59959731D01*
X38981355Y-59764822D01*
X38855745Y-59690000D01*
X38981355Y-59615178D01*
X39197588Y-59420269D01*
X39371641Y-59186920D01*
X39496825Y-58924099D01*
X39541476Y-58776890D01*
X39420155Y-58547000D01*
X38227000Y-58547000D01*
X37973000Y-58547000D01*
X37953000Y-58547000D01*
X37953000Y-58293000D01*
X37973000Y-58293000D01*
X37973000Y-56007000D01*
X38227000Y-56007000D01*
X38227000Y-58293000D01*
X39420155Y-58293000D01*
X39541476Y-58063110D01*
X39496825Y-57915901D01*
X39371641Y-57653080D01*
X39197588Y-57419731D01*
X38981355Y-57224822D01*
X38855745Y-57150000D01*
X38981355Y-57075178D01*
X39197588Y-56880269D01*
X39371641Y-56646920D01*
X39496825Y-56384099D01*
X39541476Y-56236890D01*
X39420155Y-56007000D01*
X38227000Y-56007000D01*
X37973000Y-56007000D01*
X37953000Y-56007000D01*
X37953000Y-55753000D01*
X37973000Y-55753000D01*
X37973000Y-53467000D01*
X38227000Y-53467000D01*
X38227000Y-55753000D01*
X39420155Y-55753000D01*
X39427720Y-55738665D01*
X67145000Y-55738665D01*
X67145000Y-56021335D01*
X67200147Y-56298574D01*
X67308320Y-56559727D01*
X67465363Y-56794759D01*
X67665241Y-56994637D01*
X67900273Y-57151680D01*
X68161426Y-57259853D01*
X68438665Y-57315000D01*
X68721335Y-57315000D01*
X68998574Y-57259853D01*
X69259727Y-57151680D01*
X69494759Y-56994637D01*
X69694637Y-56794759D01*
X69851680Y-56559727D01*
X69959853Y-56298574D01*
X70015000Y-56021335D01*
X70015000Y-55738665D01*
X69959853Y-55461426D01*
X69851680Y-55200273D01*
X69694637Y-54965241D01*
X69494759Y-54765363D01*
X69259727Y-54608320D01*
X68998574Y-54500147D01*
X68721335Y-54445000D01*
X68438665Y-54445000D01*
X68161426Y-54500147D01*
X67900273Y-54608320D01*
X67665241Y-54765363D01*
X67465363Y-54965241D01*
X67308320Y-55200273D01*
X67200147Y-55461426D01*
X67145000Y-55738665D01*
X39427720Y-55738665D01*
X39541476Y-55523110D01*
X39496825Y-55375901D01*
X39371641Y-55113080D01*
X39197588Y-54879731D01*
X38981355Y-54684822D01*
X38855745Y-54610000D01*
X38981355Y-54535178D01*
X39197588Y-54340269D01*
X39371641Y-54106920D01*
X39496825Y-53844099D01*
X39541476Y-53696890D01*
X39420155Y-53467000D01*
X38227000Y-53467000D01*
X37973000Y-53467000D01*
X37953000Y-53467000D01*
X37953000Y-53213000D01*
X37973000Y-53213000D01*
X37973000Y-52019186D01*
X38227000Y-52019186D01*
X38227000Y-53213000D01*
X39420155Y-53213000D01*
X39541476Y-52983110D01*
X39496825Y-52835901D01*
X39371641Y-52573080D01*
X39197588Y-52339731D01*
X38981355Y-52144822D01*
X38731252Y-51995843D01*
X38541875Y-51928665D01*
X72225000Y-51928665D01*
X72225000Y-52211335D01*
X72280147Y-52488574D01*
X72388320Y-52749727D01*
X72545363Y-52984759D01*
X72745241Y-53184637D01*
X72980273Y-53341680D01*
X73241426Y-53449853D01*
X73518665Y-53505000D01*
X73801335Y-53505000D01*
X74078574Y-53449853D01*
X74339727Y-53341680D01*
X74574759Y-53184637D01*
X74774637Y-52984759D01*
X74931680Y-52749727D01*
X75039853Y-52488574D01*
X75095000Y-52211335D01*
X75095000Y-51928665D01*
X75039853Y-51651426D01*
X74931680Y-51390273D01*
X74774637Y-51155241D01*
X74574759Y-50955363D01*
X74339727Y-50798320D01*
X74078574Y-50690147D01*
X73801335Y-50635000D01*
X73518665Y-50635000D01*
X73241426Y-50690147D01*
X72980273Y-50798320D01*
X72745241Y-50955363D01*
X72545363Y-51155241D01*
X72388320Y-51390273D01*
X72280147Y-51651426D01*
X72225000Y-51928665D01*
X38541875Y-51928665D01*
X38456891Y-51898519D01*
X38227000Y-52019186D01*
X37973000Y-52019186D01*
X37743109Y-51898519D01*
X37468748Y-51995843D01*
X37218645Y-52144822D01*
X37022498Y-52321626D01*
X36999502Y-52245820D01*
X36940537Y-52135506D01*
X36861185Y-52038815D01*
X36764494Y-51959463D01*
X36654180Y-51900498D01*
X36534482Y-51864188D01*
X36410000Y-51851928D01*
X34710000Y-51851928D01*
X34585518Y-51864188D01*
X34465820Y-51900498D01*
X34355506Y-51959463D01*
X34258815Y-52038815D01*
X34179463Y-52135506D01*
X34120498Y-52245820D01*
X34084188Y-52365518D01*
X34071928Y-52490000D01*
X32435000Y-52490000D01*
X32435000Y-48609039D01*
X76078096Y-48609039D01*
X76118754Y-48743087D01*
X76238963Y-48997420D01*
X76406481Y-49223414D01*
X76614869Y-49412385D01*
X76856119Y-49557070D01*
X77120960Y-49651909D01*
X77343000Y-49530624D01*
X77343000Y-48387000D01*
X77597000Y-48387000D01*
X77597000Y-49530624D01*
X77819040Y-49651909D01*
X78083881Y-49557070D01*
X78325131Y-49412385D01*
X78533519Y-49223414D01*
X78701037Y-48997420D01*
X78821246Y-48743087D01*
X78861904Y-48609039D01*
X78739915Y-48387000D01*
X77597000Y-48387000D01*
X77343000Y-48387000D01*
X76200085Y-48387000D01*
X76078096Y-48609039D01*
X32435000Y-48609039D01*
X32435000Y-45578665D01*
X67145000Y-45578665D01*
X67145000Y-45861335D01*
X67200147Y-46138574D01*
X67308320Y-46399727D01*
X67465363Y-46634759D01*
X67665241Y-46834637D01*
X67900273Y-46991680D01*
X68161426Y-47099853D01*
X68438665Y-47155000D01*
X68721335Y-47155000D01*
X68998574Y-47099853D01*
X69259727Y-46991680D01*
X69494759Y-46834637D01*
X69694637Y-46634759D01*
X69851680Y-46399727D01*
X69959853Y-46138574D01*
X70015000Y-45861335D01*
X70015000Y-45578665D01*
X69959853Y-45301426D01*
X69851680Y-45040273D01*
X69694637Y-44805241D01*
X69494759Y-44605363D01*
X69259727Y-44448320D01*
X68998574Y-44340147D01*
X68721335Y-44285000D01*
X68438665Y-44285000D01*
X68161426Y-44340147D01*
X67900273Y-44448320D01*
X67665241Y-44605363D01*
X67465363Y-44805241D01*
X67308320Y-45040273D01*
X67200147Y-45301426D01*
X67145000Y-45578665D01*
X32435000Y-45578665D01*
X32435000Y-40996890D01*
X67138524Y-40996890D01*
X67183175Y-41144099D01*
X67308359Y-41406920D01*
X67482412Y-41640269D01*
X67698645Y-41835178D01*
X67948748Y-41984157D01*
X68223109Y-42081481D01*
X68453000Y-41960814D01*
X68453000Y-40767000D01*
X67259845Y-40767000D01*
X67138524Y-40996890D01*
X32435000Y-40996890D01*
X32435000Y-38456890D01*
X67138524Y-38456890D01*
X67183175Y-38604099D01*
X67308359Y-38866920D01*
X67482412Y-39100269D01*
X67698645Y-39295178D01*
X67824255Y-39370000D01*
X67698645Y-39444822D01*
X67482412Y-39639731D01*
X67308359Y-39873080D01*
X67183175Y-40135901D01*
X67138524Y-40283110D01*
X67259845Y-40513000D01*
X68453000Y-40513000D01*
X68453000Y-38227000D01*
X67259845Y-38227000D01*
X67138524Y-38456890D01*
X32435000Y-38456890D01*
X32435000Y-35916890D01*
X67138524Y-35916890D01*
X67183175Y-36064099D01*
X67308359Y-36326920D01*
X67482412Y-36560269D01*
X67698645Y-36755178D01*
X67824255Y-36830000D01*
X67698645Y-36904822D01*
X67482412Y-37099731D01*
X67308359Y-37333080D01*
X67183175Y-37595901D01*
X67138524Y-37743110D01*
X67259845Y-37973000D01*
X68453000Y-37973000D01*
X68453000Y-35687000D01*
X67259845Y-35687000D01*
X67138524Y-35916890D01*
X32435000Y-35916890D01*
X32435000Y-33376890D01*
X67138524Y-33376890D01*
X67183175Y-33524099D01*
X67308359Y-33786920D01*
X67482412Y-34020269D01*
X67698645Y-34215178D01*
X67824255Y-34290000D01*
X67698645Y-34364822D01*
X67482412Y-34559731D01*
X67308359Y-34793080D01*
X67183175Y-35055901D01*
X67138524Y-35203110D01*
X67259845Y-35433000D01*
X68453000Y-35433000D01*
X68453000Y-33147000D01*
X67259845Y-33147000D01*
X67138524Y-33376890D01*
X32435000Y-33376890D01*
X32435000Y-30836890D01*
X67138524Y-30836890D01*
X67183175Y-30984099D01*
X67308359Y-31246920D01*
X67482412Y-31480269D01*
X67698645Y-31675178D01*
X67824255Y-31750000D01*
X67698645Y-31824822D01*
X67482412Y-32019731D01*
X67308359Y-32253080D01*
X67183175Y-32515901D01*
X67138524Y-32663110D01*
X67259845Y-32893000D01*
X68453000Y-32893000D01*
X68453000Y-30607000D01*
X67259845Y-30607000D01*
X67138524Y-30836890D01*
X32435000Y-30836890D01*
X32435000Y-28296890D01*
X67138524Y-28296890D01*
X67183175Y-28444099D01*
X67308359Y-28706920D01*
X67482412Y-28940269D01*
X67698645Y-29135178D01*
X67824255Y-29210000D01*
X67698645Y-29284822D01*
X67482412Y-29479731D01*
X67308359Y-29713080D01*
X67183175Y-29975901D01*
X67138524Y-30123110D01*
X67259845Y-30353000D01*
X68453000Y-30353000D01*
X68453000Y-28067000D01*
X67259845Y-28067000D01*
X67138524Y-28296890D01*
X32435000Y-28296890D01*
X32435000Y-23909872D01*
X35865000Y-23909872D01*
X35865000Y-24350128D01*
X35950890Y-24781925D01*
X36119369Y-25188669D01*
X36363962Y-25554729D01*
X36675271Y-25866038D01*
X37041331Y-26110631D01*
X37448075Y-26279110D01*
X37879872Y-26365000D01*
X38320128Y-26365000D01*
X38751925Y-26279110D01*
X39158669Y-26110631D01*
X39524729Y-25866038D01*
X39836038Y-25554729D01*
X40064791Y-25212374D01*
X42545000Y-25212374D01*
X42545000Y-25587626D01*
X42618209Y-25955668D01*
X42761811Y-26302356D01*
X42970290Y-26614366D01*
X43235634Y-26879710D01*
X43547644Y-27088189D01*
X43894332Y-27231791D01*
X44262374Y-27305000D01*
X44637626Y-27305000D01*
X45005668Y-27231791D01*
X45352356Y-27088189D01*
X45664366Y-26879710D01*
X45816224Y-26727852D01*
X61081753Y-26727852D01*
X61210076Y-27019871D01*
X61545695Y-27187723D01*
X61907611Y-27286874D01*
X62281916Y-27313514D01*
X62654227Y-27266618D01*
X63010235Y-27147988D01*
X63249924Y-27019871D01*
X63378247Y-26727852D01*
X62230000Y-25579605D01*
X61081753Y-26727852D01*
X45816224Y-26727852D01*
X45929710Y-26614366D01*
X46138189Y-26302356D01*
X46281791Y-25955668D01*
X46355000Y-25587626D01*
X46355000Y-25451916D01*
X60316486Y-25451916D01*
X60363382Y-25824227D01*
X60482012Y-26180235D01*
X60610129Y-26419924D01*
X60902148Y-26548247D01*
X62050395Y-25400000D01*
X62409605Y-25400000D01*
X63557852Y-26548247D01*
X63849871Y-26419924D01*
X63934854Y-26250000D01*
X67091928Y-26250000D01*
X67104188Y-26374482D01*
X67140498Y-26494180D01*
X67199463Y-26604494D01*
X67278815Y-26701185D01*
X67375506Y-26780537D01*
X67485820Y-26839502D01*
X67566466Y-26863966D01*
X67482412Y-26939731D01*
X67308359Y-27173080D01*
X67183175Y-27435901D01*
X67138524Y-27583110D01*
X67259845Y-27813000D01*
X68453000Y-27813000D01*
X68453000Y-25527000D01*
X67253750Y-25527000D01*
X67095000Y-25685750D01*
X67091928Y-26250000D01*
X63934854Y-26250000D01*
X64017723Y-26084305D01*
X64116874Y-25722389D01*
X64143514Y-25348084D01*
X64096618Y-24975773D01*
X63977988Y-24619765D01*
X63940698Y-24550000D01*
X67091928Y-24550000D01*
X67095000Y-25114250D01*
X67253750Y-25273000D01*
X68453000Y-25273000D01*
X68453000Y-24073750D01*
X68707000Y-24073750D01*
X68707000Y-25273000D01*
X68727000Y-25273000D01*
X68727000Y-25527000D01*
X68707000Y-25527000D01*
X68707000Y-27813000D01*
X68727000Y-27813000D01*
X68727000Y-28067000D01*
X68707000Y-28067000D01*
X68707000Y-30353000D01*
X68727000Y-30353000D01*
X68727000Y-30607000D01*
X68707000Y-30607000D01*
X68707000Y-32893000D01*
X68727000Y-32893000D01*
X68727000Y-33147000D01*
X68707000Y-33147000D01*
X68707000Y-35433000D01*
X68727000Y-35433000D01*
X68727000Y-35687000D01*
X68707000Y-35687000D01*
X68707000Y-37973000D01*
X68727000Y-37973000D01*
X68727000Y-38227000D01*
X68707000Y-38227000D01*
X68707000Y-40513000D01*
X68727000Y-40513000D01*
X68727000Y-40767000D01*
X68707000Y-40767000D01*
X68707000Y-41960814D01*
X68936891Y-42081481D01*
X69211252Y-41984157D01*
X69461355Y-41835178D01*
X69677588Y-41640269D01*
X69848900Y-41410594D01*
X69966525Y-41586632D01*
X70173368Y-41793475D01*
X70416589Y-41955990D01*
X70686842Y-42067932D01*
X70973740Y-42125000D01*
X71266260Y-42125000D01*
X71553158Y-42067932D01*
X71823411Y-41955990D01*
X72066632Y-41793475D01*
X72273475Y-41586632D01*
X72435990Y-41343411D01*
X72547932Y-41073158D01*
X72605000Y-40786260D01*
X72605000Y-40493740D01*
X72547932Y-40206842D01*
X72435990Y-39936589D01*
X72273475Y-39693368D01*
X72066632Y-39486525D01*
X71892240Y-39370000D01*
X72066632Y-39253475D01*
X72273475Y-39046632D01*
X72435990Y-38803411D01*
X72547932Y-38533158D01*
X72605000Y-38246260D01*
X72605000Y-37953740D01*
X72547932Y-37666842D01*
X72435990Y-37396589D01*
X72273475Y-37153368D01*
X72066632Y-36946525D01*
X71892240Y-36830000D01*
X72066632Y-36713475D01*
X72273475Y-36506632D01*
X72435990Y-36263411D01*
X72547932Y-35993158D01*
X72605000Y-35706260D01*
X72605000Y-35579802D01*
X74170000Y-37144802D01*
X74170001Y-40602668D01*
X74166324Y-40640000D01*
X74170001Y-40677333D01*
X74180245Y-40781335D01*
X74180998Y-40788985D01*
X74224454Y-40932246D01*
X74295026Y-41064276D01*
X74338087Y-41116745D01*
X74390000Y-41180001D01*
X74418998Y-41203799D01*
X76071312Y-42856114D01*
X76035000Y-43038665D01*
X76035000Y-43321335D01*
X76090147Y-43598574D01*
X76198320Y-43859727D01*
X76355363Y-44094759D01*
X76555241Y-44294637D01*
X76787759Y-44450000D01*
X76555241Y-44605363D01*
X76355363Y-44805241D01*
X76198320Y-45040273D01*
X76090147Y-45301426D01*
X76035000Y-45578665D01*
X76035000Y-45861335D01*
X76090147Y-46138574D01*
X76198320Y-46399727D01*
X76355363Y-46634759D01*
X76555241Y-46834637D01*
X76790273Y-46991680D01*
X76800865Y-46996067D01*
X76614869Y-47107615D01*
X76406481Y-47296586D01*
X76238963Y-47522580D01*
X76118754Y-47776913D01*
X76078096Y-47910961D01*
X76200085Y-48133000D01*
X77343000Y-48133000D01*
X77343000Y-48113000D01*
X77597000Y-48113000D01*
X77597000Y-48133000D01*
X78739915Y-48133000D01*
X78861904Y-47910961D01*
X78821246Y-47776913D01*
X78701037Y-47522580D01*
X78533519Y-47296586D01*
X78325131Y-47107615D01*
X78139135Y-46996067D01*
X78149727Y-46991680D01*
X78384759Y-46834637D01*
X78584637Y-46634759D01*
X78741680Y-46399727D01*
X78849853Y-46138574D01*
X78905000Y-45861335D01*
X78905000Y-45578665D01*
X78849853Y-45301426D01*
X78741680Y-45040273D01*
X78584637Y-44805241D01*
X78384759Y-44605363D01*
X78152241Y-44450000D01*
X78384759Y-44294637D01*
X78584637Y-44094759D01*
X78741680Y-43859727D01*
X78849853Y-43598574D01*
X78905000Y-43321335D01*
X78905000Y-43038665D01*
X78849853Y-42761426D01*
X78741680Y-42500273D01*
X78584637Y-42265241D01*
X78384759Y-42065363D01*
X78152241Y-41910000D01*
X78384759Y-41754637D01*
X78584637Y-41554759D01*
X78741680Y-41319727D01*
X78849853Y-41058574D01*
X78905000Y-40781335D01*
X78905000Y-40498665D01*
X78849853Y-40221426D01*
X78741680Y-39960273D01*
X78584637Y-39725241D01*
X78384759Y-39525363D01*
X78152241Y-39370000D01*
X78384759Y-39214637D01*
X78584637Y-39014759D01*
X78741680Y-38779727D01*
X78849853Y-38518574D01*
X78905000Y-38241335D01*
X78905000Y-37958665D01*
X78849853Y-37681426D01*
X78741680Y-37420273D01*
X78584637Y-37185241D01*
X78384759Y-36985363D01*
X78152241Y-36830000D01*
X78384759Y-36674637D01*
X78584637Y-36474759D01*
X78741680Y-36239727D01*
X78849853Y-35978574D01*
X78905000Y-35701335D01*
X78905000Y-35418665D01*
X78849853Y-35141426D01*
X78741680Y-34880273D01*
X78584637Y-34645241D01*
X78384759Y-34445363D01*
X78152241Y-34290000D01*
X78384759Y-34134637D01*
X78584637Y-33934759D01*
X78741680Y-33699727D01*
X78849853Y-33438574D01*
X78905000Y-33161335D01*
X78905000Y-32878665D01*
X78849853Y-32601426D01*
X78741680Y-32340273D01*
X78584637Y-32105241D01*
X78384759Y-31905363D01*
X78152241Y-31750000D01*
X78384759Y-31594637D01*
X78584637Y-31394759D01*
X78741680Y-31159727D01*
X78849853Y-30898574D01*
X78905000Y-30621335D01*
X78905000Y-30338665D01*
X83655000Y-30338665D01*
X83655000Y-30621335D01*
X83710147Y-30898574D01*
X83818320Y-31159727D01*
X83975363Y-31394759D01*
X84175241Y-31594637D01*
X84407759Y-31750000D01*
X84175241Y-31905363D01*
X83975363Y-32105241D01*
X83818320Y-32340273D01*
X83710147Y-32601426D01*
X83655000Y-32878665D01*
X83655000Y-33161335D01*
X83710147Y-33438574D01*
X83818320Y-33699727D01*
X83975363Y-33934759D01*
X84175241Y-34134637D01*
X84407759Y-34290000D01*
X84175241Y-34445363D01*
X83975363Y-34645241D01*
X83818320Y-34880273D01*
X83710147Y-35141426D01*
X83655000Y-35418665D01*
X83655000Y-35701335D01*
X83710147Y-35978574D01*
X83818320Y-36239727D01*
X83975363Y-36474759D01*
X84175241Y-36674637D01*
X84407759Y-36830000D01*
X84175241Y-36985363D01*
X83975363Y-37185241D01*
X83818320Y-37420273D01*
X83710147Y-37681426D01*
X83655000Y-37958665D01*
X83655000Y-38241335D01*
X83710147Y-38518574D01*
X83818320Y-38779727D01*
X83975363Y-39014759D01*
X84175241Y-39214637D01*
X84407759Y-39370000D01*
X84175241Y-39525363D01*
X83975363Y-39725241D01*
X83818320Y-39960273D01*
X83710147Y-40221426D01*
X83655000Y-40498665D01*
X83655000Y-40781335D01*
X83710147Y-41058574D01*
X83818320Y-41319727D01*
X83975363Y-41554759D01*
X84175241Y-41754637D01*
X84407759Y-41910000D01*
X84175241Y-42065363D01*
X83975363Y-42265241D01*
X83818320Y-42500273D01*
X83710147Y-42761426D01*
X83655000Y-43038665D01*
X83655000Y-43321335D01*
X83710147Y-43598574D01*
X83818320Y-43859727D01*
X83975363Y-44094759D01*
X84175241Y-44294637D01*
X84407759Y-44450000D01*
X84175241Y-44605363D01*
X83975363Y-44805241D01*
X83818320Y-45040273D01*
X83710147Y-45301426D01*
X83655000Y-45578665D01*
X83655000Y-45861335D01*
X83710147Y-46138574D01*
X83818320Y-46399727D01*
X83975363Y-46634759D01*
X84175241Y-46834637D01*
X84407759Y-46990000D01*
X84175241Y-47145363D01*
X83975363Y-47345241D01*
X83818320Y-47580273D01*
X83710147Y-47841426D01*
X83655000Y-48118665D01*
X83655000Y-48401335D01*
X83710147Y-48678574D01*
X83818320Y-48939727D01*
X83975363Y-49174759D01*
X84175241Y-49374637D01*
X84410273Y-49531680D01*
X84671426Y-49639853D01*
X84948665Y-49695000D01*
X85231335Y-49695000D01*
X85413887Y-49658688D01*
X106116201Y-70361003D01*
X106139999Y-70390001D01*
X106255724Y-70484974D01*
X106387753Y-70555546D01*
X106531014Y-70599003D01*
X106642667Y-70610000D01*
X106642677Y-70610000D01*
X106680000Y-70613676D01*
X106717323Y-70610000D01*
X107694727Y-70610000D01*
X107737583Y-70690179D01*
X107925655Y-70919345D01*
X108154821Y-71107417D01*
X108416275Y-71247166D01*
X108699968Y-71333224D01*
X108921064Y-71355000D01*
X109518936Y-71355000D01*
X109740032Y-71333224D01*
X110023725Y-71247166D01*
X110285179Y-71107417D01*
X110514345Y-70919345D01*
X110702417Y-70690179D01*
X110842166Y-70428725D01*
X110928224Y-70145032D01*
X110957282Y-69850000D01*
X110928224Y-69554968D01*
X110842166Y-69271275D01*
X110702417Y-69009821D01*
X110514345Y-68780655D01*
X110448886Y-68726934D01*
X110558387Y-68668405D01*
X110692962Y-68557962D01*
X110803405Y-68423387D01*
X110885472Y-68269851D01*
X110936008Y-68103255D01*
X110953072Y-67930001D01*
X110953072Y-66689999D01*
X110936008Y-66516745D01*
X110885472Y-66350149D01*
X110803405Y-66196613D01*
X110692962Y-66062038D01*
X110558387Y-65951595D01*
X110404851Y-65869528D01*
X110238255Y-65818992D01*
X110065001Y-65801928D01*
X108786730Y-65801928D01*
X107440000Y-64455199D01*
X107440000Y-61320031D01*
X107533698Y-61320031D01*
X107550449Y-61407591D01*
X107665526Y-61680809D01*
X107831694Y-61926326D01*
X108042567Y-62134708D01*
X108290042Y-62297947D01*
X108564608Y-62409769D01*
X108855714Y-62465877D01*
X109093000Y-62310376D01*
X109093000Y-61087000D01*
X109347000Y-61087000D01*
X109347000Y-62310376D01*
X109584286Y-62465877D01*
X109875392Y-62409769D01*
X110149958Y-62297947D01*
X110397433Y-62134708D01*
X110608306Y-61926326D01*
X110774474Y-61680809D01*
X110889551Y-61407591D01*
X110906302Y-61320031D01*
X110785246Y-61087000D01*
X109347000Y-61087000D01*
X109093000Y-61087000D01*
X107654754Y-61087000D01*
X107533698Y-61320031D01*
X107440000Y-61320031D01*
X107440000Y-59180000D01*
X107694727Y-59180000D01*
X107737583Y-59260179D01*
X107925655Y-59489345D01*
X108154821Y-59677417D01*
X108183152Y-59692560D01*
X108042567Y-59785292D01*
X107831694Y-59993674D01*
X107665526Y-60239191D01*
X107550449Y-60512409D01*
X107533698Y-60599969D01*
X107654754Y-60833000D01*
X109093000Y-60833000D01*
X109093000Y-60813000D01*
X109347000Y-60813000D01*
X109347000Y-60833000D01*
X110785246Y-60833000D01*
X110906302Y-60599969D01*
X110889551Y-60512409D01*
X110774474Y-60239191D01*
X110608306Y-59993674D01*
X110397433Y-59785292D01*
X110256848Y-59692560D01*
X110285179Y-59677417D01*
X110514345Y-59489345D01*
X110702417Y-59260179D01*
X110842166Y-58998725D01*
X110928224Y-58715032D01*
X110957282Y-58420000D01*
X110928224Y-58124968D01*
X110842166Y-57841275D01*
X110702417Y-57579821D01*
X110514345Y-57350655D01*
X110285179Y-57162583D01*
X110261638Y-57150000D01*
X110285179Y-57137417D01*
X110514345Y-56949345D01*
X110702417Y-56720179D01*
X110842166Y-56458725D01*
X110928224Y-56175032D01*
X110957282Y-55880000D01*
X110928224Y-55584968D01*
X110842166Y-55301275D01*
X110702417Y-55039821D01*
X110514345Y-54810655D01*
X110448886Y-54756934D01*
X110558387Y-54698405D01*
X110692962Y-54587962D01*
X110803405Y-54453387D01*
X110885472Y-54299851D01*
X110936008Y-54133255D01*
X110953072Y-53960001D01*
X110953072Y-52719999D01*
X110936008Y-52546745D01*
X110885472Y-52380149D01*
X110803405Y-52226613D01*
X110692962Y-52092038D01*
X110558387Y-51981595D01*
X110404851Y-51899528D01*
X110238255Y-51848992D01*
X110065001Y-51831928D01*
X108374999Y-51831928D01*
X108201745Y-51848992D01*
X108035149Y-51899528D01*
X107881613Y-51981595D01*
X107747038Y-52092038D01*
X107636595Y-52226613D01*
X107554528Y-52380149D01*
X107503992Y-52546745D01*
X107486928Y-52719999D01*
X107486928Y-53960001D01*
X107503992Y-54133255D01*
X107554528Y-54299851D01*
X107636595Y-54453387D01*
X107747038Y-54587962D01*
X107881613Y-54698405D01*
X107991114Y-54756934D01*
X107925655Y-54810655D01*
X107737583Y-55039821D01*
X107597834Y-55301275D01*
X107511776Y-55584968D01*
X107482718Y-55880000D01*
X107511776Y-56175032D01*
X107597834Y-56458725D01*
X107737583Y-56720179D01*
X107925655Y-56949345D01*
X108154821Y-57137417D01*
X108178362Y-57150000D01*
X108154821Y-57162583D01*
X107925655Y-57350655D01*
X107737583Y-57579821D01*
X107694727Y-57660000D01*
X106994802Y-57660000D01*
X104226167Y-54891365D01*
X104255000Y-54746411D01*
X104255000Y-54473589D01*
X104201775Y-54206011D01*
X104097371Y-53953957D01*
X103945799Y-53727114D01*
X103752886Y-53534201D01*
X103526043Y-53382629D01*
X103273989Y-53278225D01*
X103006411Y-53225000D01*
X102733589Y-53225000D01*
X102466011Y-53278225D01*
X102213957Y-53382629D01*
X101987114Y-53534201D01*
X101794201Y-53727114D01*
X101642629Y-53953957D01*
X101600000Y-54056873D01*
X101557371Y-53953957D01*
X101405799Y-53727114D01*
X101212886Y-53534201D01*
X100986043Y-53382629D01*
X100733989Y-53278225D01*
X100466411Y-53225000D01*
X100193589Y-53225000D01*
X99926011Y-53278225D01*
X99673957Y-53382629D01*
X99447114Y-53534201D01*
X99254201Y-53727114D01*
X99176445Y-53843483D01*
X99165812Y-53735518D01*
X99129502Y-53615820D01*
X99070537Y-53505506D01*
X98991185Y-53408815D01*
X98894494Y-53329463D01*
X98784180Y-53270498D01*
X98664482Y-53234188D01*
X98540000Y-53221928D01*
X98075750Y-53225000D01*
X97917000Y-53383750D01*
X97917000Y-54483000D01*
X97937000Y-54483000D01*
X97937000Y-54737000D01*
X97917000Y-54737000D01*
X97917000Y-55836250D01*
X98075750Y-55995000D01*
X98540000Y-55998072D01*
X98664482Y-55985812D01*
X98784180Y-55949502D01*
X98894494Y-55890537D01*
X98991185Y-55811185D01*
X99070537Y-55714494D01*
X99129502Y-55604180D01*
X99165812Y-55484482D01*
X99176445Y-55376517D01*
X99254201Y-55492886D01*
X99447114Y-55685799D01*
X99673957Y-55837371D01*
X99926011Y-55941775D01*
X100193589Y-55995000D01*
X100466411Y-55995000D01*
X100733989Y-55941775D01*
X100986043Y-55837371D01*
X101212886Y-55685799D01*
X101405799Y-55492886D01*
X101557371Y-55266043D01*
X101600000Y-55163127D01*
X101642629Y-55266043D01*
X101794201Y-55492886D01*
X101987114Y-55685799D01*
X102213957Y-55837371D01*
X102466011Y-55941775D01*
X102733589Y-55995000D01*
X103006411Y-55995000D01*
X103151365Y-55966167D01*
X105920000Y-58734802D01*
X105920001Y-64732668D01*
X105916324Y-64770000D01*
X105920001Y-64807333D01*
X105929760Y-64906411D01*
X105930998Y-64918985D01*
X105974454Y-65062246D01*
X106045026Y-65194276D01*
X106098772Y-65259765D01*
X106140000Y-65310001D01*
X106168998Y-65333799D01*
X107490359Y-66655161D01*
X107486928Y-66689999D01*
X107486928Y-67930001D01*
X107503992Y-68103255D01*
X107554528Y-68269851D01*
X107636595Y-68423387D01*
X107747038Y-68557962D01*
X107881613Y-68668405D01*
X107991114Y-68726934D01*
X107925655Y-68780655D01*
X107737583Y-69009821D01*
X107694727Y-69090000D01*
X106994802Y-69090000D01*
X96818467Y-58913665D01*
X100165000Y-58913665D01*
X100165000Y-59196335D01*
X100220147Y-59473574D01*
X100328320Y-59734727D01*
X100485363Y-59969759D01*
X100685241Y-60169637D01*
X100920273Y-60326680D01*
X101181426Y-60434853D01*
X101458665Y-60490000D01*
X101741335Y-60490000D01*
X102018574Y-60434853D01*
X102279727Y-60326680D01*
X102514759Y-60169637D01*
X102714637Y-59969759D01*
X102871680Y-59734727D01*
X102979853Y-59473574D01*
X103035000Y-59196335D01*
X103035000Y-58913665D01*
X102979853Y-58636426D01*
X102871680Y-58375273D01*
X102714637Y-58140241D01*
X102514759Y-57940363D01*
X102279727Y-57783320D01*
X102018574Y-57675147D01*
X101741335Y-57620000D01*
X101458665Y-57620000D01*
X101181426Y-57675147D01*
X100920273Y-57783320D01*
X100685241Y-57940363D01*
X100485363Y-58140241D01*
X100328320Y-58375273D01*
X100220147Y-58636426D01*
X100165000Y-58913665D01*
X96818467Y-58913665D01*
X93264802Y-55360000D01*
X96401928Y-55360000D01*
X96414188Y-55484482D01*
X96450498Y-55604180D01*
X96509463Y-55714494D01*
X96588815Y-55811185D01*
X96685506Y-55890537D01*
X96795820Y-55949502D01*
X96915518Y-55985812D01*
X97040000Y-55998072D01*
X97504250Y-55995000D01*
X97663000Y-55836250D01*
X97663000Y-54737000D01*
X96563750Y-54737000D01*
X96405000Y-54895750D01*
X96401928Y-55360000D01*
X93264802Y-55360000D01*
X91103467Y-53198665D01*
X92545000Y-53198665D01*
X92545000Y-53481335D01*
X92600147Y-53758574D01*
X92708320Y-54019727D01*
X92865363Y-54254759D01*
X93065241Y-54454637D01*
X93300273Y-54611680D01*
X93561426Y-54719853D01*
X93838665Y-54775000D01*
X94121335Y-54775000D01*
X94398574Y-54719853D01*
X94659727Y-54611680D01*
X94894759Y-54454637D01*
X95094637Y-54254759D01*
X95251680Y-54019727D01*
X95317841Y-53860000D01*
X96401928Y-53860000D01*
X96405000Y-54324250D01*
X96563750Y-54483000D01*
X97663000Y-54483000D01*
X97663000Y-53383750D01*
X97504250Y-53225000D01*
X97040000Y-53221928D01*
X96915518Y-53234188D01*
X96795820Y-53270498D01*
X96685506Y-53329463D01*
X96588815Y-53408815D01*
X96509463Y-53505506D01*
X96450498Y-53615820D01*
X96414188Y-53735518D01*
X96401928Y-53860000D01*
X95317841Y-53860000D01*
X95359853Y-53758574D01*
X95415000Y-53481335D01*
X95415000Y-53198665D01*
X95359853Y-52921426D01*
X95251680Y-52660273D01*
X95094637Y-52425241D01*
X94894759Y-52225363D01*
X94659727Y-52068320D01*
X94398574Y-51960147D01*
X94121335Y-51905000D01*
X93838665Y-51905000D01*
X93561426Y-51960147D01*
X93300273Y-52068320D01*
X93065241Y-52225363D01*
X92865363Y-52425241D01*
X92708320Y-52660273D01*
X92600147Y-52921426D01*
X92545000Y-53198665D01*
X91103467Y-53198665D01*
X86488688Y-48583887D01*
X86525000Y-48401335D01*
X86525000Y-48118665D01*
X90005000Y-48118665D01*
X90005000Y-48401335D01*
X90060147Y-48678574D01*
X90168320Y-48939727D01*
X90325363Y-49174759D01*
X90525241Y-49374637D01*
X90760273Y-49531680D01*
X91021426Y-49639853D01*
X91298665Y-49695000D01*
X91581335Y-49695000D01*
X91858574Y-49639853D01*
X92119727Y-49531680D01*
X92354759Y-49374637D01*
X92554637Y-49174759D01*
X92711680Y-48939727D01*
X92819853Y-48678574D01*
X92875000Y-48401335D01*
X92875000Y-48118665D01*
X100165000Y-48118665D01*
X100165000Y-48401335D01*
X100220147Y-48678574D01*
X100328320Y-48939727D01*
X100485363Y-49174759D01*
X100685241Y-49374637D01*
X100920273Y-49531680D01*
X101181426Y-49639853D01*
X101458665Y-49695000D01*
X101741335Y-49695000D01*
X102018574Y-49639853D01*
X102279727Y-49531680D01*
X102514759Y-49374637D01*
X102714637Y-49174759D01*
X102871680Y-48939727D01*
X102979853Y-48678574D01*
X103035000Y-48401335D01*
X103035000Y-48118665D01*
X102979853Y-47841426D01*
X102871680Y-47580273D01*
X102714637Y-47345241D01*
X102514759Y-47145363D01*
X102279727Y-46988320D01*
X102018574Y-46880147D01*
X101741335Y-46825000D01*
X101458665Y-46825000D01*
X101181426Y-46880147D01*
X100920273Y-46988320D01*
X100685241Y-47145363D01*
X100485363Y-47345241D01*
X100328320Y-47580273D01*
X100220147Y-47841426D01*
X100165000Y-48118665D01*
X92875000Y-48118665D01*
X92819853Y-47841426D01*
X92711680Y-47580273D01*
X92554637Y-47345241D01*
X92354759Y-47145363D01*
X92119727Y-46988320D01*
X91858574Y-46880147D01*
X91581335Y-46825000D01*
X91298665Y-46825000D01*
X91021426Y-46880147D01*
X90760273Y-46988320D01*
X90525241Y-47145363D01*
X90325363Y-47345241D01*
X90168320Y-47580273D01*
X90060147Y-47841426D01*
X90005000Y-48118665D01*
X86525000Y-48118665D01*
X86469853Y-47841426D01*
X86361680Y-47580273D01*
X86204637Y-47345241D01*
X86004759Y-47145363D01*
X85772241Y-46990000D01*
X86004759Y-46834637D01*
X86204637Y-46634759D01*
X86361680Y-46399727D01*
X86469853Y-46138574D01*
X86525000Y-45861335D01*
X86525000Y-45578665D01*
X86488688Y-45396113D01*
X87434801Y-44450000D01*
X107482718Y-44450000D01*
X107511776Y-44745032D01*
X107597834Y-45028725D01*
X107737583Y-45290179D01*
X107925655Y-45519345D01*
X108154821Y-45707417D01*
X108178362Y-45720000D01*
X108154821Y-45732583D01*
X107925655Y-45920655D01*
X107737583Y-46149821D01*
X107597834Y-46411275D01*
X107511776Y-46694968D01*
X107482718Y-46990000D01*
X107511776Y-47285032D01*
X107597834Y-47568725D01*
X107737583Y-47830179D01*
X107925655Y-48059345D01*
X108154821Y-48247417D01*
X108416275Y-48387166D01*
X108699968Y-48473224D01*
X108921064Y-48495000D01*
X109518936Y-48495000D01*
X109740032Y-48473224D01*
X110023725Y-48387166D01*
X110285179Y-48247417D01*
X110514345Y-48059345D01*
X110702417Y-47830179D01*
X110842166Y-47568725D01*
X110928224Y-47285032D01*
X110957282Y-46990000D01*
X110928224Y-46694968D01*
X110842166Y-46411275D01*
X110702417Y-46149821D01*
X110514345Y-45920655D01*
X110285179Y-45732583D01*
X110261638Y-45720000D01*
X110285179Y-45707417D01*
X110514345Y-45519345D01*
X110702417Y-45290179D01*
X110842166Y-45028725D01*
X110928224Y-44745032D01*
X110957282Y-44450000D01*
X110928224Y-44154968D01*
X110842166Y-43871275D01*
X110702417Y-43609821D01*
X110514345Y-43380655D01*
X110448886Y-43326934D01*
X110558387Y-43268405D01*
X110692962Y-43157962D01*
X110803405Y-43023387D01*
X110885472Y-42869851D01*
X110936008Y-42703255D01*
X110953072Y-42530001D01*
X110953072Y-41289999D01*
X110936008Y-41116745D01*
X110885472Y-40950149D01*
X110803405Y-40796613D01*
X110692962Y-40662038D01*
X110558387Y-40551595D01*
X110404851Y-40469528D01*
X110238255Y-40418992D01*
X110065001Y-40401928D01*
X108374999Y-40401928D01*
X108201745Y-40418992D01*
X108035149Y-40469528D01*
X107881613Y-40551595D01*
X107747038Y-40662038D01*
X107636595Y-40796613D01*
X107554528Y-40950149D01*
X107503992Y-41116745D01*
X107486928Y-41289999D01*
X107486928Y-42530001D01*
X107503992Y-42703255D01*
X107554528Y-42869851D01*
X107636595Y-43023387D01*
X107747038Y-43157962D01*
X107881613Y-43268405D01*
X107991114Y-43326934D01*
X107925655Y-43380655D01*
X107737583Y-43609821D01*
X107597834Y-43871275D01*
X107511776Y-44154968D01*
X107482718Y-44450000D01*
X87434801Y-44450000D01*
X89911014Y-41973788D01*
X89940011Y-41949991D01*
X90034984Y-41834266D01*
X90105556Y-41702237D01*
X90149013Y-41558976D01*
X90160010Y-41447323D01*
X90160010Y-41447322D01*
X90163687Y-41409990D01*
X90162855Y-41401547D01*
X90286525Y-41586632D01*
X90493368Y-41793475D01*
X90736589Y-41955990D01*
X91006842Y-42067932D01*
X91293740Y-42125000D01*
X91586260Y-42125000D01*
X91873158Y-42067932D01*
X92143411Y-41955990D01*
X92386632Y-41793475D01*
X92593475Y-41586632D01*
X92710000Y-41412240D01*
X92826525Y-41586632D01*
X93033368Y-41793475D01*
X93276589Y-41955990D01*
X93546842Y-42067932D01*
X93833740Y-42125000D01*
X94126260Y-42125000D01*
X94413158Y-42067932D01*
X94683411Y-41955990D01*
X94926632Y-41793475D01*
X95133475Y-41586632D01*
X95251100Y-41410594D01*
X95422412Y-41640269D01*
X95638645Y-41835178D01*
X95888748Y-41984157D01*
X96163109Y-42081481D01*
X96393000Y-41960814D01*
X96393000Y-40767000D01*
X96647000Y-40767000D01*
X96647000Y-41960814D01*
X96876891Y-42081481D01*
X97151252Y-41984157D01*
X97401355Y-41835178D01*
X97617588Y-41640269D01*
X97791641Y-41406920D01*
X97916825Y-41144099D01*
X97961476Y-40996890D01*
X97840155Y-40767000D01*
X96647000Y-40767000D01*
X96393000Y-40767000D01*
X96373000Y-40767000D01*
X96373000Y-40513000D01*
X96393000Y-40513000D01*
X96393000Y-38227000D01*
X96647000Y-38227000D01*
X96647000Y-40513000D01*
X97840155Y-40513000D01*
X97961476Y-40283110D01*
X97916825Y-40135901D01*
X97791641Y-39873080D01*
X97617588Y-39639731D01*
X97401355Y-39444822D01*
X97275745Y-39370000D01*
X97401355Y-39295178D01*
X97617588Y-39100269D01*
X97791641Y-38866920D01*
X97916825Y-38604099D01*
X97961476Y-38456890D01*
X97840155Y-38227000D01*
X96647000Y-38227000D01*
X96393000Y-38227000D01*
X96373000Y-38227000D01*
X96373000Y-37973000D01*
X96393000Y-37973000D01*
X96393000Y-35687000D01*
X96647000Y-35687000D01*
X96647000Y-37973000D01*
X97840155Y-37973000D01*
X97961476Y-37743110D01*
X97916825Y-37595901D01*
X97791641Y-37333080D01*
X97617588Y-37099731D01*
X97401355Y-36904822D01*
X97275745Y-36830000D01*
X97401355Y-36755178D01*
X97617588Y-36560269D01*
X97791641Y-36326920D01*
X97916825Y-36064099D01*
X97961476Y-35916890D01*
X97840155Y-35687000D01*
X96647000Y-35687000D01*
X96393000Y-35687000D01*
X96373000Y-35687000D01*
X96373000Y-35433000D01*
X96393000Y-35433000D01*
X96393000Y-33147000D01*
X96647000Y-33147000D01*
X96647000Y-35433000D01*
X97840155Y-35433000D01*
X97961476Y-35203110D01*
X97916825Y-35055901D01*
X97791641Y-34793080D01*
X97617789Y-34560000D01*
X103819428Y-34560000D01*
X103819428Y-36560000D01*
X103831688Y-36684482D01*
X103867998Y-36804180D01*
X103926963Y-36914494D01*
X104006315Y-37011185D01*
X104103006Y-37090537D01*
X104213320Y-37149502D01*
X104333018Y-37185812D01*
X104457500Y-37198072D01*
X106362500Y-37198072D01*
X106486982Y-37185812D01*
X106606680Y-37149502D01*
X106716994Y-37090537D01*
X106813685Y-37011185D01*
X106893037Y-36914494D01*
X106937905Y-36830553D01*
X107063766Y-36933845D01*
X107339552Y-37081255D01*
X107638797Y-37172030D01*
X107950000Y-37202681D01*
X108261204Y-37172030D01*
X108560449Y-37081255D01*
X108836235Y-36933845D01*
X109077963Y-36735463D01*
X109225162Y-36556100D01*
X109380563Y-36741315D01*
X109623077Y-36935969D01*
X109898906Y-37079571D01*
X110117020Y-37150563D01*
X110363000Y-37030594D01*
X110363000Y-35687000D01*
X110617000Y-35687000D01*
X110617000Y-37030594D01*
X110862980Y-37150563D01*
X111081094Y-37079571D01*
X111356923Y-36935969D01*
X111599437Y-36741315D01*
X111799316Y-36503089D01*
X111948879Y-36230446D01*
X112042378Y-35933863D01*
X111915570Y-35687000D01*
X110617000Y-35687000D01*
X110363000Y-35687000D01*
X110343000Y-35687000D01*
X110343000Y-35433000D01*
X110363000Y-35433000D01*
X110363000Y-34089406D01*
X110617000Y-34089406D01*
X110617000Y-35433000D01*
X111915570Y-35433000D01*
X112042378Y-35186137D01*
X111948879Y-34889554D01*
X111799316Y-34616911D01*
X111599437Y-34378685D01*
X111356923Y-34184031D01*
X111081094Y-34040429D01*
X110862980Y-33969437D01*
X110617000Y-34089406D01*
X110363000Y-34089406D01*
X110117020Y-33969437D01*
X109898906Y-34040429D01*
X109623077Y-34184031D01*
X109380563Y-34378685D01*
X109225163Y-34563899D01*
X109077963Y-34384537D01*
X108836234Y-34186155D01*
X108560448Y-34038745D01*
X108261203Y-33947970D01*
X107950000Y-33917319D01*
X107638796Y-33947970D01*
X107339551Y-34038745D01*
X107063765Y-34186155D01*
X106937905Y-34289446D01*
X106893037Y-34205506D01*
X106813685Y-34108815D01*
X106716994Y-34029463D01*
X106606680Y-33970498D01*
X106486982Y-33934188D01*
X106362500Y-33921928D01*
X104457500Y-33921928D01*
X104333018Y-33934188D01*
X104213320Y-33970498D01*
X104103006Y-34029463D01*
X104006315Y-34108815D01*
X103926963Y-34205506D01*
X103867998Y-34315820D01*
X103831688Y-34435518D01*
X103819428Y-34560000D01*
X97617789Y-34560000D01*
X97617588Y-34559731D01*
X97401355Y-34364822D01*
X97275745Y-34290000D01*
X97401355Y-34215178D01*
X97617588Y-34020269D01*
X97791641Y-33786920D01*
X97916825Y-33524099D01*
X97961476Y-33376890D01*
X97840155Y-33147000D01*
X96647000Y-33147000D01*
X96393000Y-33147000D01*
X96373000Y-33147000D01*
X96373000Y-32893000D01*
X96393000Y-32893000D01*
X96393000Y-30607000D01*
X96647000Y-30607000D01*
X96647000Y-32893000D01*
X97840155Y-32893000D01*
X97961476Y-32663110D01*
X97916825Y-32515901D01*
X97791641Y-32253080D01*
X97617588Y-32019731D01*
X97401355Y-31824822D01*
X97275745Y-31750000D01*
X97401355Y-31675178D01*
X97617588Y-31480269D01*
X97791641Y-31246920D01*
X97916825Y-30984099D01*
X97961476Y-30836890D01*
X97840155Y-30607000D01*
X96647000Y-30607000D01*
X96393000Y-30607000D01*
X96373000Y-30607000D01*
X96373000Y-30353000D01*
X96393000Y-30353000D01*
X96393000Y-28067000D01*
X96647000Y-28067000D01*
X96647000Y-30353000D01*
X97840155Y-30353000D01*
X97961476Y-30123110D01*
X97916825Y-29975901D01*
X97791641Y-29713080D01*
X97617588Y-29479731D01*
X97401355Y-29284822D01*
X97275745Y-29210000D01*
X97401355Y-29135178D01*
X97617588Y-28940269D01*
X97791641Y-28706920D01*
X97916825Y-28444099D01*
X97961476Y-28296890D01*
X97840155Y-28067000D01*
X96647000Y-28067000D01*
X96393000Y-28067000D01*
X96373000Y-28067000D01*
X96373000Y-27813000D01*
X96393000Y-27813000D01*
X96393000Y-25527000D01*
X96647000Y-25527000D01*
X96647000Y-27813000D01*
X97840155Y-27813000D01*
X97961476Y-27583110D01*
X97916825Y-27435901D01*
X97791641Y-27173080D01*
X97617588Y-26939731D01*
X97533534Y-26863966D01*
X97614180Y-26839502D01*
X97724494Y-26780537D01*
X97821185Y-26701185D01*
X97900537Y-26604494D01*
X97959502Y-26494180D01*
X97995812Y-26374482D01*
X98008072Y-26250000D01*
X98005000Y-25685750D01*
X97846250Y-25527000D01*
X96647000Y-25527000D01*
X96393000Y-25527000D01*
X96373000Y-25527000D01*
X96373000Y-25273000D01*
X96393000Y-25273000D01*
X96393000Y-24073750D01*
X96647000Y-24073750D01*
X96647000Y-25273000D01*
X97846250Y-25273000D01*
X98005000Y-25114250D01*
X98008072Y-24550000D01*
X97995812Y-24425518D01*
X97959502Y-24305820D01*
X97900537Y-24195506D01*
X97821185Y-24098815D01*
X97724494Y-24019463D01*
X97614180Y-23960498D01*
X97494482Y-23924188D01*
X97370000Y-23911928D01*
X96805750Y-23915000D01*
X96647000Y-24073750D01*
X96393000Y-24073750D01*
X96234250Y-23915000D01*
X95670000Y-23911928D01*
X95545518Y-23924188D01*
X95425820Y-23960498D01*
X95315506Y-24019463D01*
X95218815Y-24098815D01*
X95139463Y-24195506D01*
X95080498Y-24305820D01*
X95058487Y-24378380D01*
X94926632Y-24246525D01*
X94683411Y-24084010D01*
X94413158Y-23972068D01*
X94126260Y-23915000D01*
X93833740Y-23915000D01*
X93546842Y-23972068D01*
X93276589Y-24084010D01*
X93033368Y-24246525D01*
X92901513Y-24378380D01*
X92879502Y-24305820D01*
X92820537Y-24195506D01*
X92741185Y-24098815D01*
X92644494Y-24019463D01*
X92534180Y-23960498D01*
X92414482Y-23924188D01*
X92290000Y-23911928D01*
X90590000Y-23911928D01*
X90465518Y-23924188D01*
X90345820Y-23960498D01*
X90235506Y-24019463D01*
X90138815Y-24098815D01*
X90059463Y-24195506D01*
X90000498Y-24305820D01*
X89964188Y-24425518D01*
X89951928Y-24550000D01*
X89951928Y-25813270D01*
X86202297Y-29562901D01*
X86004759Y-29365363D01*
X85769727Y-29208320D01*
X85759135Y-29203933D01*
X85945131Y-29092385D01*
X86153519Y-28903414D01*
X86321037Y-28677420D01*
X86441246Y-28423087D01*
X86481904Y-28289039D01*
X86359915Y-28067000D01*
X85217000Y-28067000D01*
X85217000Y-28087000D01*
X84963000Y-28087000D01*
X84963000Y-28067000D01*
X83820085Y-28067000D01*
X83698096Y-28289039D01*
X83738754Y-28423087D01*
X83858963Y-28677420D01*
X84026481Y-28903414D01*
X84234869Y-29092385D01*
X84420865Y-29203933D01*
X84410273Y-29208320D01*
X84175241Y-29365363D01*
X83975363Y-29565241D01*
X83818320Y-29800273D01*
X83710147Y-30061426D01*
X83655000Y-30338665D01*
X78905000Y-30338665D01*
X78849853Y-30061426D01*
X78741680Y-29800273D01*
X78584637Y-29565241D01*
X78384759Y-29365363D01*
X78152241Y-29210000D01*
X78384759Y-29054637D01*
X78584637Y-28854759D01*
X78741680Y-28619727D01*
X78849853Y-28358574D01*
X78905000Y-28081335D01*
X78905000Y-27798665D01*
X78849853Y-27521426D01*
X78741680Y-27260273D01*
X78584637Y-27025241D01*
X78386039Y-26826643D01*
X78394482Y-26825812D01*
X78514180Y-26789502D01*
X78624494Y-26730537D01*
X78721185Y-26651185D01*
X78800537Y-26554494D01*
X78859502Y-26444180D01*
X78895812Y-26324482D01*
X78908072Y-26200000D01*
X78905000Y-25685750D01*
X78746250Y-25527000D01*
X77597000Y-25527000D01*
X77597000Y-25547000D01*
X77343000Y-25547000D01*
X77343000Y-25527000D01*
X76193750Y-25527000D01*
X76035000Y-25685750D01*
X76031928Y-26200000D01*
X76044188Y-26324482D01*
X76080498Y-26444180D01*
X76139463Y-26554494D01*
X76218815Y-26651185D01*
X76315506Y-26730537D01*
X76425820Y-26789502D01*
X76545518Y-26825812D01*
X76553961Y-26826643D01*
X76355363Y-27025241D01*
X76251957Y-27180000D01*
X75244803Y-27180000D01*
X72953804Y-24889003D01*
X72930001Y-24859999D01*
X72814276Y-24765026D01*
X72682247Y-24694454D01*
X72538986Y-24650997D01*
X72427333Y-24640000D01*
X72427322Y-24640000D01*
X72396125Y-24636927D01*
X72371452Y-24600000D01*
X76031928Y-24600000D01*
X76035000Y-25114250D01*
X76193750Y-25273000D01*
X77343000Y-25273000D01*
X77343000Y-24123750D01*
X77597000Y-24123750D01*
X77597000Y-25273000D01*
X78746250Y-25273000D01*
X78760585Y-25258665D01*
X83655000Y-25258665D01*
X83655000Y-25541335D01*
X83710147Y-25818574D01*
X83818320Y-26079727D01*
X83975363Y-26314759D01*
X84175241Y-26514637D01*
X84410273Y-26671680D01*
X84420865Y-26676067D01*
X84234869Y-26787615D01*
X84026481Y-26976586D01*
X83858963Y-27202580D01*
X83738754Y-27456913D01*
X83698096Y-27590961D01*
X83820085Y-27813000D01*
X84963000Y-27813000D01*
X84963000Y-27793000D01*
X85217000Y-27793000D01*
X85217000Y-27813000D01*
X86359915Y-27813000D01*
X86481904Y-27590961D01*
X86441246Y-27456913D01*
X86321037Y-27202580D01*
X86153519Y-26976586D01*
X85945131Y-26787615D01*
X85759135Y-26676067D01*
X85769727Y-26671680D01*
X86004759Y-26514637D01*
X86204637Y-26314759D01*
X86361680Y-26079727D01*
X86469853Y-25818574D01*
X86525000Y-25541335D01*
X86525000Y-25258665D01*
X86469853Y-24981426D01*
X86361680Y-24720273D01*
X86204637Y-24485241D01*
X86004759Y-24285363D01*
X85769727Y-24128320D01*
X85508574Y-24020147D01*
X85231335Y-23965000D01*
X84948665Y-23965000D01*
X84671426Y-24020147D01*
X84410273Y-24128320D01*
X84175241Y-24285363D01*
X83975363Y-24485241D01*
X83818320Y-24720273D01*
X83710147Y-24981426D01*
X83655000Y-25258665D01*
X78760585Y-25258665D01*
X78905000Y-25114250D01*
X78908072Y-24600000D01*
X78895812Y-24475518D01*
X78859502Y-24355820D01*
X78800537Y-24245506D01*
X78721185Y-24148815D01*
X78624494Y-24069463D01*
X78514180Y-24010498D01*
X78394482Y-23974188D01*
X78270000Y-23961928D01*
X77755750Y-23965000D01*
X77597000Y-24123750D01*
X77343000Y-24123750D01*
X77184250Y-23965000D01*
X76670000Y-23961928D01*
X76545518Y-23974188D01*
X76425820Y-24010498D01*
X76315506Y-24069463D01*
X76218815Y-24148815D01*
X76139463Y-24245506D01*
X76080498Y-24355820D01*
X76044188Y-24475518D01*
X76031928Y-24600000D01*
X72371452Y-24600000D01*
X72273475Y-24453368D01*
X72066632Y-24246525D01*
X71823411Y-24084010D01*
X71553158Y-23972068D01*
X71266260Y-23915000D01*
X70973740Y-23915000D01*
X70686842Y-23972068D01*
X70416589Y-24084010D01*
X70173368Y-24246525D01*
X70041513Y-24378380D01*
X70019502Y-24305820D01*
X69960537Y-24195506D01*
X69881185Y-24098815D01*
X69784494Y-24019463D01*
X69674180Y-23960498D01*
X69554482Y-23924188D01*
X69430000Y-23911928D01*
X68865750Y-23915000D01*
X68707000Y-24073750D01*
X68453000Y-24073750D01*
X68294250Y-23915000D01*
X67730000Y-23911928D01*
X67605518Y-23924188D01*
X67485820Y-23960498D01*
X67375506Y-24019463D01*
X67278815Y-24098815D01*
X67199463Y-24195506D01*
X67140498Y-24305820D01*
X67104188Y-24425518D01*
X67091928Y-24550000D01*
X63940698Y-24550000D01*
X63849871Y-24380076D01*
X63557852Y-24251753D01*
X62409605Y-25400000D01*
X62050395Y-25400000D01*
X60902148Y-24251753D01*
X60610129Y-24380076D01*
X60442277Y-24715695D01*
X60343126Y-25077611D01*
X60316486Y-25451916D01*
X46355000Y-25451916D01*
X46355000Y-25212374D01*
X46281791Y-24844332D01*
X46138189Y-24497644D01*
X45929710Y-24185634D01*
X45816224Y-24072148D01*
X61081753Y-24072148D01*
X62230000Y-25220395D01*
X63378247Y-24072148D01*
X63306938Y-23909872D01*
X108255000Y-23909872D01*
X108255000Y-24350128D01*
X108340890Y-24781925D01*
X108509369Y-25188669D01*
X108753962Y-25554729D01*
X109065271Y-25866038D01*
X109431331Y-26110631D01*
X109838075Y-26279110D01*
X110269872Y-26365000D01*
X110710128Y-26365000D01*
X111141925Y-26279110D01*
X111548669Y-26110631D01*
X111914729Y-25866038D01*
X112226038Y-25554729D01*
X112470631Y-25188669D01*
X112639110Y-24781925D01*
X112725000Y-24350128D01*
X112725000Y-23909872D01*
X112639110Y-23478075D01*
X112470631Y-23071331D01*
X112226038Y-22705271D01*
X111914729Y-22393962D01*
X111548669Y-22149369D01*
X111141925Y-21980890D01*
X110710128Y-21895000D01*
X110269872Y-21895000D01*
X109838075Y-21980890D01*
X109431331Y-22149369D01*
X109065271Y-22393962D01*
X108753962Y-22705271D01*
X108509369Y-23071331D01*
X108340890Y-23478075D01*
X108255000Y-23909872D01*
X63306938Y-23909872D01*
X63249924Y-23780129D01*
X62914305Y-23612277D01*
X62552389Y-23513126D01*
X62178084Y-23486486D01*
X61805773Y-23533382D01*
X61449765Y-23652012D01*
X61210076Y-23780129D01*
X61081753Y-24072148D01*
X45816224Y-24072148D01*
X45664366Y-23920290D01*
X45352356Y-23711811D01*
X45005668Y-23568209D01*
X44637626Y-23495000D01*
X44262374Y-23495000D01*
X43894332Y-23568209D01*
X43547644Y-23711811D01*
X43235634Y-23920290D01*
X42970290Y-24185634D01*
X42761811Y-24497644D01*
X42618209Y-24844332D01*
X42545000Y-25212374D01*
X40064791Y-25212374D01*
X40080631Y-25188669D01*
X40249110Y-24781925D01*
X40335000Y-24350128D01*
X40335000Y-23909872D01*
X40249110Y-23478075D01*
X40080631Y-23071331D01*
X39836038Y-22705271D01*
X39524729Y-22393962D01*
X39158669Y-22149369D01*
X38751925Y-21980890D01*
X38320128Y-21895000D01*
X37879872Y-21895000D01*
X37448075Y-21980890D01*
X37041331Y-22149369D01*
X36675271Y-22393962D01*
X36363962Y-22705271D01*
X36119369Y-23071331D01*
X35950890Y-23478075D01*
X35865000Y-23909872D01*
X32435000Y-23909872D01*
X32435000Y-21448665D01*
X83655000Y-21448665D01*
X83655000Y-21731335D01*
X83710147Y-22008574D01*
X83818320Y-22269727D01*
X83975363Y-22504759D01*
X84175241Y-22704637D01*
X84410273Y-22861680D01*
X84671426Y-22969853D01*
X84948665Y-23025000D01*
X85231335Y-23025000D01*
X85508574Y-22969853D01*
X85769727Y-22861680D01*
X86004759Y-22704637D01*
X86126694Y-22582702D01*
X89276903Y-22582702D01*
X89348486Y-22826671D01*
X89603996Y-22947571D01*
X89878184Y-23016300D01*
X90160512Y-23030217D01*
X90440130Y-22988787D01*
X90706292Y-22893603D01*
X90831514Y-22826671D01*
X90903097Y-22582702D01*
X90090000Y-21769605D01*
X89276903Y-22582702D01*
X86126694Y-22582702D01*
X86204637Y-22504759D01*
X86361680Y-22269727D01*
X86469853Y-22008574D01*
X86525000Y-21731335D01*
X86525000Y-21660512D01*
X88649783Y-21660512D01*
X88691213Y-21940130D01*
X88786397Y-22206292D01*
X88853329Y-22331514D01*
X89097298Y-22403097D01*
X89910395Y-21590000D01*
X90269605Y-21590000D01*
X91082702Y-22403097D01*
X91326671Y-22331514D01*
X91447571Y-22076004D01*
X91516300Y-21801816D01*
X91530217Y-21519488D01*
X91488787Y-21239870D01*
X91393603Y-20973708D01*
X91326671Y-20848486D01*
X91082702Y-20776903D01*
X90269605Y-21590000D01*
X89910395Y-21590000D01*
X89097298Y-20776903D01*
X88853329Y-20848486D01*
X88732429Y-21103996D01*
X88663700Y-21378184D01*
X88649783Y-21660512D01*
X86525000Y-21660512D01*
X86525000Y-21448665D01*
X86469853Y-21171426D01*
X86361680Y-20910273D01*
X86204637Y-20675241D01*
X86126694Y-20597298D01*
X89276903Y-20597298D01*
X90090000Y-21410395D01*
X90903097Y-20597298D01*
X90831514Y-20353329D01*
X90576004Y-20232429D01*
X90301816Y-20163700D01*
X90019488Y-20149783D01*
X89739870Y-20191213D01*
X89473708Y-20286397D01*
X89348486Y-20353329D01*
X89276903Y-20597298D01*
X86126694Y-20597298D01*
X86004759Y-20475363D01*
X85769727Y-20318320D01*
X85508574Y-20210147D01*
X85231335Y-20155000D01*
X84948665Y-20155000D01*
X84671426Y-20210147D01*
X84410273Y-20318320D01*
X84175241Y-20475363D01*
X83975363Y-20675241D01*
X83818320Y-20910273D01*
X83710147Y-21171426D01*
X83655000Y-21448665D01*
X32435000Y-21448665D01*
X32435000Y-18465000D01*
X116155000Y-18465000D01*
X116155001Y-81865000D01*
G37*
G04 #@! TD.AperFunction*
M02*
