G04 #@! TF.GenerationSoftware,KiCad,Pcbnew,(5.1.10)-1*
G04 #@! TF.CreationDate,2021-09-17T19:57:58-07:00*
G04 #@! TF.ProjectId,PrinterExpansion,5072696e-7465-4724-9578-70616e73696f,rev?*
G04 #@! TF.SameCoordinates,Original*
G04 #@! TF.FileFunction,Copper,L2,Bot*
G04 #@! TF.FilePolarity,Positive*
%FSLAX46Y46*%
G04 Gerber Fmt 4.6, Leading zero omitted, Abs format (unit mm)*
G04 Created by KiCad (PCBNEW (5.1.10)-1) date 2021-09-17 19:57:58*
%MOMM*%
%LPD*%
G01*
G04 APERTURE LIST*
G04 #@! TA.AperFunction,ComponentPad*
%ADD10O,1.905000X2.000000*%
G04 #@! TD*
G04 #@! TA.AperFunction,ComponentPad*
%ADD11R,1.905000X2.000000*%
G04 #@! TD*
G04 #@! TA.AperFunction,ComponentPad*
%ADD12C,1.600000*%
G04 #@! TD*
G04 #@! TA.AperFunction,ComponentPad*
%ADD13R,1.600000X1.600000*%
G04 #@! TD*
G04 #@! TA.AperFunction,ComponentPad*
%ADD14O,1.600000X1.600000*%
G04 #@! TD*
G04 #@! TA.AperFunction,ComponentPad*
%ADD15C,3.000000*%
G04 #@! TD*
G04 #@! TA.AperFunction,ComponentPad*
%ADD16R,3.000000X3.000000*%
G04 #@! TD*
G04 #@! TA.AperFunction,ComponentPad*
%ADD17O,1.700000X1.700000*%
G04 #@! TD*
G04 #@! TA.AperFunction,ComponentPad*
%ADD18R,1.700000X1.700000*%
G04 #@! TD*
G04 #@! TA.AperFunction,ComponentPad*
%ADD19R,1.500000X1.500000*%
G04 #@! TD*
G04 #@! TA.AperFunction,ComponentPad*
%ADD20C,1.500000*%
G04 #@! TD*
G04 #@! TA.AperFunction,ComponentPad*
%ADD21C,2.540000*%
G04 #@! TD*
G04 #@! TA.AperFunction,ComponentPad*
%ADD22R,2.540000X2.540000*%
G04 #@! TD*
G04 #@! TA.AperFunction,ComponentPad*
%ADD23O,2.190000X1.740000*%
G04 #@! TD*
G04 #@! TA.AperFunction,Conductor*
%ADD24C,0.250000*%
G04 #@! TD*
G04 #@! TA.AperFunction,Conductor*
%ADD25C,1.000000*%
G04 #@! TD*
G04 #@! TA.AperFunction,Conductor*
%ADD26C,0.500000*%
G04 #@! TD*
G04 #@! TA.AperFunction,Conductor*
%ADD27C,2.000000*%
G04 #@! TD*
G04 APERTURE END LIST*
D10*
X83820000Y-59055000D03*
X81280000Y-59055000D03*
D11*
X78740000Y-59055000D03*
D12*
X77510000Y-64135000D03*
D13*
X80010000Y-64135000D03*
D14*
X77470000Y-70485000D03*
D12*
X67310000Y-70485000D03*
D15*
X60325000Y-77470000D03*
D16*
X60325000Y-72390000D03*
D17*
X73660000Y-76835000D03*
X73660000Y-74295000D03*
X76200000Y-76835000D03*
X76200000Y-74295000D03*
X78740000Y-76835000D03*
X78740000Y-74295000D03*
X81280000Y-76835000D03*
D18*
X81280000Y-74295000D03*
D10*
X110490000Y-35560000D03*
X107950000Y-35560000D03*
D11*
X105410000Y-35560000D03*
D14*
X85090000Y-25400000D03*
X77470000Y-48260000D03*
X85090000Y-27940000D03*
X77470000Y-45720000D03*
X85090000Y-30480000D03*
X77470000Y-43180000D03*
X85090000Y-33020000D03*
X77470000Y-40640000D03*
X85090000Y-35560000D03*
X77470000Y-38100000D03*
X85090000Y-38100000D03*
X77470000Y-35560000D03*
X85090000Y-40640000D03*
X77470000Y-33020000D03*
X85090000Y-43180000D03*
X77470000Y-30480000D03*
X85090000Y-45720000D03*
X77470000Y-27940000D03*
X85090000Y-48260000D03*
D13*
X77470000Y-25400000D03*
D17*
X38100000Y-66040000D03*
X35560000Y-66040000D03*
X38100000Y-63500000D03*
X35560000Y-63500000D03*
X38100000Y-60960000D03*
X35560000Y-60960000D03*
X38100000Y-58420000D03*
X35560000Y-58420000D03*
X38100000Y-55880000D03*
X35560000Y-55880000D03*
X38100000Y-53340000D03*
D18*
X35560000Y-53340000D03*
D19*
X97790000Y-54610000D03*
D20*
X102870000Y-54610000D03*
X100330000Y-54610000D03*
D19*
X92710000Y-67310000D03*
D20*
X92710000Y-62230000D03*
X92710000Y-64770000D03*
D19*
X68580000Y-62230000D03*
D20*
X68580000Y-67310000D03*
X68580000Y-64770000D03*
D14*
X73660000Y-52070000D03*
D12*
X73660000Y-62230000D03*
D14*
X68580000Y-45720000D03*
D12*
X68580000Y-55880000D03*
D17*
X90805000Y-76835000D03*
X90805000Y-74295000D03*
X93345000Y-76835000D03*
X93345000Y-74295000D03*
X95885000Y-76835000D03*
X95885000Y-74295000D03*
X98425000Y-76835000D03*
X98425000Y-74295000D03*
X100965000Y-76835000D03*
X100965000Y-74295000D03*
X103505000Y-76835000D03*
D18*
X103505000Y-74295000D03*
D17*
X96520000Y-40640000D03*
X96520000Y-38100000D03*
X96520000Y-35560000D03*
X96520000Y-33020000D03*
X96520000Y-30480000D03*
X96520000Y-27940000D03*
D18*
X96520000Y-25400000D03*
D17*
X93980000Y-40640000D03*
X91440000Y-40640000D03*
X93980000Y-38100000D03*
X91440000Y-38100000D03*
X93980000Y-35560000D03*
X91440000Y-35560000D03*
X93980000Y-33020000D03*
X91440000Y-33020000D03*
X93980000Y-30480000D03*
X91440000Y-30480000D03*
X93980000Y-27940000D03*
X91440000Y-27940000D03*
X93980000Y-25400000D03*
D18*
X91440000Y-25400000D03*
D17*
X71120000Y-40640000D03*
X68580000Y-40640000D03*
X71120000Y-38100000D03*
X68580000Y-38100000D03*
X71120000Y-35560000D03*
X68580000Y-35560000D03*
X71120000Y-33020000D03*
X68580000Y-33020000D03*
X71120000Y-30480000D03*
X68580000Y-30480000D03*
X71120000Y-27940000D03*
X68580000Y-27940000D03*
X71120000Y-25400000D03*
D18*
X68580000Y-25400000D03*
D21*
X62230000Y-25400000D03*
X44450000Y-25400000D03*
X62230000Y-66040000D03*
D22*
X44450000Y-66040000D03*
D14*
X101600000Y-59055000D03*
D12*
X101600000Y-69215000D03*
D14*
X83820000Y-53340000D03*
D12*
X93980000Y-53340000D03*
D14*
X91440000Y-48260000D03*
D12*
X101600000Y-48260000D03*
X83820000Y-67230000D03*
X83820000Y-62230000D03*
X90090000Y-21590000D03*
X85090000Y-21590000D03*
D23*
X109220000Y-46990000D03*
X109220000Y-44450000D03*
G04 #@! TA.AperFunction,ComponentPad*
G36*
G01*
X108374999Y-41040000D02*
X110065001Y-41040000D01*
G75*
G02*
X110315000Y-41289999I0J-249999D01*
G01*
X110315000Y-42530001D01*
G75*
G02*
X110065001Y-42780000I-249999J0D01*
G01*
X108374999Y-42780000D01*
G75*
G02*
X108125000Y-42530001I0J249999D01*
G01*
X108125000Y-41289999D01*
G75*
G02*
X108374999Y-41040000I249999J0D01*
G01*
G37*
G04 #@! TD.AperFunction*
X109220000Y-69850000D03*
G04 #@! TA.AperFunction,ComponentPad*
G36*
G01*
X108374999Y-66440000D02*
X110065001Y-66440000D01*
G75*
G02*
X110315000Y-66689999I0J-249999D01*
G01*
X110315000Y-67930001D01*
G75*
G02*
X110065001Y-68180000I-249999J0D01*
G01*
X108374999Y-68180000D01*
G75*
G02*
X108125000Y-67930001I0J249999D01*
G01*
X108125000Y-66689999D01*
G75*
G02*
X108374999Y-66440000I249999J0D01*
G01*
G37*
G04 #@! TD.AperFunction*
X109220000Y-60960000D03*
X109220000Y-58420000D03*
X109220000Y-55880000D03*
G04 #@! TA.AperFunction,ComponentPad*
G36*
G01*
X108374999Y-52470000D02*
X110065001Y-52470000D01*
G75*
G02*
X110315000Y-52719999I0J-249999D01*
G01*
X110315000Y-53960001D01*
G75*
G02*
X110065001Y-54210000I-249999J0D01*
G01*
X108374999Y-54210000D01*
G75*
G02*
X108125000Y-53960001I0J249999D01*
G01*
X108125000Y-52719999D01*
G75*
G02*
X108374999Y-52470000I249999J0D01*
G01*
G37*
G04 #@! TD.AperFunction*
D24*
X83820000Y-44450000D02*
X85090000Y-43180000D01*
X83820000Y-44450000D02*
X74930000Y-44450000D01*
X74930000Y-44450000D02*
X71120000Y-40640000D01*
X83914999Y-39275001D02*
X85090000Y-38100000D01*
X72295001Y-39275001D02*
X83914999Y-39275001D01*
X71120000Y-38100000D02*
X72295001Y-39275001D01*
X83725001Y-34384999D02*
X85090000Y-33020000D01*
X72295001Y-34384999D02*
X83725001Y-34384999D01*
X71120000Y-35560000D02*
X72295001Y-34384999D01*
D25*
X44450000Y-25400000D02*
X44450000Y-36830000D01*
X44450000Y-36830000D02*
X35560000Y-45720000D01*
X35560000Y-45720000D02*
X35560000Y-66040000D01*
D24*
X77470000Y-40640000D02*
X78645001Y-41815001D01*
X90264999Y-41815001D02*
X91440000Y-40640000D01*
X78645001Y-41815001D02*
X90264999Y-41815001D01*
X91440000Y-38100000D02*
X90170000Y-38100000D01*
X90170000Y-38100000D02*
X88900000Y-36830000D01*
X88900000Y-36830000D02*
X78740000Y-36830000D01*
X78740000Y-36830000D02*
X77470000Y-35560000D01*
X78834999Y-31844999D02*
X77470000Y-30480000D01*
X87724999Y-31844999D02*
X78834999Y-31844999D01*
X91440000Y-35560000D02*
X87724999Y-31844999D01*
D25*
X85090000Y-25400000D02*
X85090000Y-21590000D01*
X85090000Y-21590000D02*
X48260000Y-21590000D01*
X44450000Y-25400000D02*
X48260000Y-21590000D01*
X85090000Y-21590000D02*
X87630000Y-19050000D01*
X87630000Y-19050000D02*
X92710000Y-19050000D01*
X92710000Y-19050000D02*
X93980000Y-20320000D01*
X93980000Y-20320000D02*
X93980000Y-40640000D01*
D26*
X93980000Y-40640000D02*
X93980000Y-41910000D01*
X93980000Y-41910000D02*
X88900000Y-46990000D01*
X88900000Y-48260000D02*
X86360000Y-50800000D01*
X88900000Y-46990000D02*
X88900000Y-48260000D01*
X86360000Y-50800000D02*
X82550000Y-50800000D01*
X82550000Y-50800000D02*
X81280000Y-52070000D01*
X81280000Y-52070000D02*
X81280000Y-55245000D01*
X81280000Y-55245000D02*
X83820000Y-57785000D01*
X83820000Y-57785000D02*
X83820000Y-59055000D01*
D24*
X73660000Y-52070000D02*
X81280000Y-52070000D01*
D26*
X83820000Y-59055000D02*
X83820000Y-62230000D01*
X105410000Y-55880000D02*
X109220000Y-55880000D01*
D25*
X110315000Y-53340000D02*
X109220000Y-53340000D01*
X113030000Y-56055000D02*
X110315000Y-53340000D01*
X113030000Y-71120000D02*
X113030000Y-56055000D01*
X109220000Y-46990000D02*
X109220000Y-53340000D01*
D27*
X53975000Y-66040000D02*
X60325000Y-72390000D01*
X44450000Y-66040000D02*
X53975000Y-66040000D01*
X87630000Y-74295000D02*
X103505000Y-74295000D01*
X85725000Y-76200000D02*
X87630000Y-74295000D01*
X66675000Y-80645000D02*
X85725000Y-80645000D01*
X85725000Y-80645000D02*
X85725000Y-76200000D01*
X64770000Y-78740000D02*
X66675000Y-80645000D01*
X64770000Y-73025000D02*
X64770000Y-78740000D01*
X64135000Y-72390000D02*
X64770000Y-73025000D01*
X60325000Y-72390000D02*
X64135000Y-72390000D01*
D25*
X103505000Y-74295000D02*
X106680000Y-74295000D01*
X106680000Y-74295000D02*
X107950000Y-73025000D01*
X111125000Y-73025000D02*
X113030000Y-71120000D01*
X107950000Y-73025000D02*
X111125000Y-73025000D01*
D26*
X96520000Y-62230000D02*
X92710000Y-62230000D01*
X101600000Y-67310000D02*
X96520000Y-62230000D01*
X101600000Y-67310000D02*
X101600000Y-69215000D01*
D24*
X93980000Y-53340000D02*
X90170000Y-57150000D01*
X92710000Y-64770000D02*
X91440000Y-64770000D01*
X91440000Y-64770000D02*
X90170000Y-63500000D01*
X90170000Y-63500000D02*
X90170000Y-57150000D01*
X101600000Y-48260000D02*
X100330000Y-49530000D01*
X100330000Y-49530000D02*
X100330000Y-54610000D01*
D25*
X107950000Y-35560000D02*
X107950000Y-36830000D01*
X107950000Y-36830000D02*
X111760000Y-40640000D01*
X111315000Y-44450000D02*
X109220000Y-44450000D01*
X111760000Y-44005000D02*
X111315000Y-44450000D01*
X111760000Y-40640000D02*
X111760000Y-44005000D01*
D26*
X81280000Y-62865000D02*
X80010000Y-64135000D01*
X81280000Y-59055000D02*
X81280000Y-62865000D01*
X80010000Y-64135000D02*
X80010000Y-74295000D01*
X80010000Y-74295000D02*
X73660000Y-74295000D01*
X80010000Y-74295000D02*
X81280000Y-74295000D01*
D24*
X105410000Y-38100000D02*
X109220000Y-41910000D01*
X105410000Y-35560000D02*
X105410000Y-38100000D01*
X68580000Y-67310000D02*
X73660000Y-62230000D01*
X86360000Y-53340000D02*
X91440000Y-48260000D01*
X83820000Y-53340000D02*
X86360000Y-53340000D01*
X73660000Y-66675000D02*
X77470000Y-70485000D01*
X73660000Y-62230000D02*
X73660000Y-66675000D01*
X67204999Y-57255001D02*
X68580000Y-55880000D01*
X67204999Y-63394999D02*
X67204999Y-57255001D01*
X68580000Y-64770000D02*
X67204999Y-63394999D01*
X68580000Y-45720000D02*
X77470000Y-45720000D01*
D26*
X101600000Y-59055000D02*
X102235000Y-59055000D01*
X102235000Y-59055000D02*
X105410000Y-55880000D01*
M02*
