G04 #@! TF.GenerationSoftware,KiCad,Pcbnew,(5.1.10)-1*
G04 #@! TF.CreationDate,2021-09-17T19:57:58-07:00*
G04 #@! TF.ProjectId,PrinterExpansion,5072696e-7465-4724-9578-70616e73696f,rev?*
G04 #@! TF.SameCoordinates,Original*
G04 #@! TF.FileFunction,Legend,Bot*
G04 #@! TF.FilePolarity,Positive*
%FSLAX46Y46*%
G04 Gerber Fmt 4.6, Leading zero omitted, Abs format (unit mm)*
G04 Created by KiCad (PCBNEW (5.1.10)-1) date 2021-09-17 19:57:58*
%MOMM*%
%LPD*%
G01*
G04 APERTURE LIST*
%ADD10O,1.905000X2.000000*%
%ADD11R,1.905000X2.000000*%
%ADD12C,1.600000*%
%ADD13R,1.600000X1.600000*%
%ADD14O,1.600000X1.600000*%
%ADD15C,3.000000*%
%ADD16R,3.000000X3.000000*%
%ADD17O,1.700000X1.700000*%
%ADD18R,1.700000X1.700000*%
%ADD19R,1.500000X1.500000*%
%ADD20C,1.500000*%
%ADD21C,3.200000*%
%ADD22C,2.540000*%
%ADD23R,2.540000X2.540000*%
%ADD24O,2.190000X1.740000*%
G04 APERTURE END LIST*
%LPC*%
D10*
X83820000Y-59055000D03*
X81280000Y-59055000D03*
D11*
X78740000Y-59055000D03*
D12*
X77510000Y-64135000D03*
D13*
X80010000Y-64135000D03*
D14*
X77470000Y-70485000D03*
D12*
X67310000Y-70485000D03*
D15*
X60325000Y-77470000D03*
D16*
X60325000Y-72390000D03*
D17*
X73660000Y-76835000D03*
X73660000Y-74295000D03*
X76200000Y-76835000D03*
X76200000Y-74295000D03*
X78740000Y-76835000D03*
X78740000Y-74295000D03*
X81280000Y-76835000D03*
D18*
X81280000Y-74295000D03*
D10*
X110490000Y-35560000D03*
X107950000Y-35560000D03*
D11*
X105410000Y-35560000D03*
D14*
X85090000Y-25400000D03*
X77470000Y-48260000D03*
X85090000Y-27940000D03*
X77470000Y-45720000D03*
X85090000Y-30480000D03*
X77470000Y-43180000D03*
X85090000Y-33020000D03*
X77470000Y-40640000D03*
X85090000Y-35560000D03*
X77470000Y-38100000D03*
X85090000Y-38100000D03*
X77470000Y-35560000D03*
X85090000Y-40640000D03*
X77470000Y-33020000D03*
X85090000Y-43180000D03*
X77470000Y-30480000D03*
X85090000Y-45720000D03*
X77470000Y-27940000D03*
X85090000Y-48260000D03*
D13*
X77470000Y-25400000D03*
D17*
X38100000Y-66040000D03*
X35560000Y-66040000D03*
X38100000Y-63500000D03*
X35560000Y-63500000D03*
X38100000Y-60960000D03*
X35560000Y-60960000D03*
X38100000Y-58420000D03*
X35560000Y-58420000D03*
X38100000Y-55880000D03*
X35560000Y-55880000D03*
X38100000Y-53340000D03*
D18*
X35560000Y-53340000D03*
D19*
X97790000Y-54610000D03*
D20*
X102870000Y-54610000D03*
X100330000Y-54610000D03*
D19*
X92710000Y-67310000D03*
D20*
X92710000Y-62230000D03*
X92710000Y-64770000D03*
D19*
X68580000Y-62230000D03*
D20*
X68580000Y-67310000D03*
X68580000Y-64770000D03*
D14*
X73660000Y-52070000D03*
D12*
X73660000Y-62230000D03*
D14*
X68580000Y-45720000D03*
D12*
X68580000Y-55880000D03*
D17*
X90805000Y-76835000D03*
X90805000Y-74295000D03*
X93345000Y-76835000D03*
X93345000Y-74295000D03*
X95885000Y-76835000D03*
X95885000Y-74295000D03*
X98425000Y-76835000D03*
X98425000Y-74295000D03*
X100965000Y-76835000D03*
X100965000Y-74295000D03*
X103505000Y-76835000D03*
D18*
X103505000Y-74295000D03*
D21*
X110490000Y-77470000D03*
X110490000Y-24130000D03*
X38100000Y-77470000D03*
X38100000Y-24130000D03*
D17*
X96520000Y-40640000D03*
X96520000Y-38100000D03*
X96520000Y-35560000D03*
X96520000Y-33020000D03*
X96520000Y-30480000D03*
X96520000Y-27940000D03*
D18*
X96520000Y-25400000D03*
D17*
X93980000Y-40640000D03*
X91440000Y-40640000D03*
X93980000Y-38100000D03*
X91440000Y-38100000D03*
X93980000Y-35560000D03*
X91440000Y-35560000D03*
X93980000Y-33020000D03*
X91440000Y-33020000D03*
X93980000Y-30480000D03*
X91440000Y-30480000D03*
X93980000Y-27940000D03*
X91440000Y-27940000D03*
X93980000Y-25400000D03*
D18*
X91440000Y-25400000D03*
D17*
X71120000Y-40640000D03*
X68580000Y-40640000D03*
X71120000Y-38100000D03*
X68580000Y-38100000D03*
X71120000Y-35560000D03*
X68580000Y-35560000D03*
X71120000Y-33020000D03*
X68580000Y-33020000D03*
X71120000Y-30480000D03*
X68580000Y-30480000D03*
X71120000Y-27940000D03*
X68580000Y-27940000D03*
X71120000Y-25400000D03*
D18*
X68580000Y-25400000D03*
D22*
X62230000Y-25400000D03*
X44450000Y-25400000D03*
X62230000Y-66040000D03*
D23*
X44450000Y-66040000D03*
D14*
X101600000Y-59055000D03*
D12*
X101600000Y-69215000D03*
D14*
X83820000Y-53340000D03*
D12*
X93980000Y-53340000D03*
D14*
X91440000Y-48260000D03*
D12*
X101600000Y-48260000D03*
X83820000Y-67230000D03*
X83820000Y-62230000D03*
X90090000Y-21590000D03*
X85090000Y-21590000D03*
D24*
X109220000Y-46990000D03*
X109220000Y-44450000D03*
G36*
G01*
X108374999Y-41040000D02*
X110065001Y-41040000D01*
G75*
G02*
X110315000Y-41289999I0J-249999D01*
G01*
X110315000Y-42530001D01*
G75*
G02*
X110065001Y-42780000I-249999J0D01*
G01*
X108374999Y-42780000D01*
G75*
G02*
X108125000Y-42530001I0J249999D01*
G01*
X108125000Y-41289999D01*
G75*
G02*
X108374999Y-41040000I249999J0D01*
G01*
G37*
X109220000Y-69850000D03*
G36*
G01*
X108374999Y-66440000D02*
X110065001Y-66440000D01*
G75*
G02*
X110315000Y-66689999I0J-249999D01*
G01*
X110315000Y-67930001D01*
G75*
G02*
X110065001Y-68180000I-249999J0D01*
G01*
X108374999Y-68180000D01*
G75*
G02*
X108125000Y-67930001I0J249999D01*
G01*
X108125000Y-66689999D01*
G75*
G02*
X108374999Y-66440000I249999J0D01*
G01*
G37*
X109220000Y-60960000D03*
X109220000Y-58420000D03*
X109220000Y-55880000D03*
G36*
G01*
X108374999Y-52470000D02*
X110065001Y-52470000D01*
G75*
G02*
X110315000Y-52719999I0J-249999D01*
G01*
X110315000Y-53960001D01*
G75*
G02*
X110065001Y-54210000I-249999J0D01*
G01*
X108374999Y-54210000D01*
G75*
G02*
X108125000Y-53960001I0J249999D01*
G01*
X108125000Y-52719999D01*
G75*
G02*
X108374999Y-52470000I249999J0D01*
G01*
G37*
M02*
