G04 #@! TF.GenerationSoftware,KiCad,Pcbnew,(5.1.10)-1*
G04 #@! TF.CreationDate,2021-09-17T19:57:58-07:00*
G04 #@! TF.ProjectId,PrinterExpansion,5072696e-7465-4724-9578-70616e73696f,rev?*
G04 #@! TF.SameCoordinates,Original*
G04 #@! TF.FileFunction,Legend,Top*
G04 #@! TF.FilePolarity,Positive*
%FSLAX46Y46*%
G04 Gerber Fmt 4.6, Leading zero omitted, Abs format (unit mm)*
G04 Created by KiCad (PCBNEW (5.1.10)-1) date 2021-09-17 19:57:58*
%MOMM*%
%LPD*%
G01*
G04 APERTURE LIST*
%ADD10C,0.150000*%
%ADD11C,0.120000*%
%ADD12O,1.905000X2.000000*%
%ADD13R,1.905000X2.000000*%
%ADD14C,1.600000*%
%ADD15R,1.600000X1.600000*%
%ADD16O,1.600000X1.600000*%
%ADD17C,3.000000*%
%ADD18R,3.000000X3.000000*%
%ADD19O,1.700000X1.700000*%
%ADD20R,1.700000X1.700000*%
%ADD21R,1.500000X1.500000*%
%ADD22C,1.500000*%
%ADD23C,3.200000*%
%ADD24C,2.540000*%
%ADD25R,2.540000X2.540000*%
%ADD26O,2.190000X1.740000*%
G04 APERTURE END LIST*
D10*
X70739047Y-76906428D02*
X71500952Y-76906428D01*
X68373809Y-75017380D02*
X68992857Y-75017380D01*
X68659523Y-75398333D01*
X68802380Y-75398333D01*
X68897619Y-75445952D01*
X68945238Y-75493571D01*
X68992857Y-75588809D01*
X68992857Y-75826904D01*
X68945238Y-75922142D01*
X68897619Y-75969761D01*
X68802380Y-76017380D01*
X68516666Y-76017380D01*
X68421428Y-75969761D01*
X68373809Y-75922142D01*
X69421428Y-75922142D02*
X69469047Y-75969761D01*
X69421428Y-76017380D01*
X69373809Y-75969761D01*
X69421428Y-75922142D01*
X69421428Y-76017380D01*
X69802380Y-75017380D02*
X70421428Y-75017380D01*
X70088095Y-75398333D01*
X70230952Y-75398333D01*
X70326190Y-75445952D01*
X70373809Y-75493571D01*
X70421428Y-75588809D01*
X70421428Y-75826904D01*
X70373809Y-75922142D01*
X70326190Y-75969761D01*
X70230952Y-76017380D01*
X69945238Y-76017380D01*
X69850000Y-75969761D01*
X69802380Y-75922142D01*
X70707142Y-75017380D02*
X71040476Y-76017380D01*
X71373809Y-75017380D01*
X70739047Y-74366428D02*
X71500952Y-74366428D01*
X71120000Y-74747380D02*
X71120000Y-73985476D01*
X93146666Y-22312380D02*
X93337142Y-22312380D01*
X93432380Y-22360000D01*
X93527619Y-22455238D01*
X93575238Y-22645714D01*
X93575238Y-22979047D01*
X93527619Y-23169523D01*
X93432380Y-23264761D01*
X93337142Y-23312380D01*
X93146666Y-23312380D01*
X93051428Y-23264761D01*
X92956190Y-23169523D01*
X92908571Y-22979047D01*
X92908571Y-22645714D01*
X92956190Y-22455238D01*
X93051428Y-22360000D01*
X93146666Y-22312380D01*
X94432380Y-22645714D02*
X94432380Y-23312380D01*
X94003809Y-22645714D02*
X94003809Y-23169523D01*
X94051428Y-23264761D01*
X94146666Y-23312380D01*
X94289523Y-23312380D01*
X94384761Y-23264761D01*
X94432380Y-23217142D01*
X94765714Y-22645714D02*
X95146666Y-22645714D01*
X94908571Y-22312380D02*
X94908571Y-23169523D01*
X94956190Y-23264761D01*
X95051428Y-23312380D01*
X95146666Y-23312380D01*
X69397619Y-23312380D02*
X69397619Y-22312380D01*
X69873809Y-22645714D02*
X69873809Y-23312380D01*
X69873809Y-22740952D02*
X69921428Y-22693333D01*
X70016666Y-22645714D01*
X70159523Y-22645714D01*
X70254761Y-22693333D01*
X70302380Y-22788571D01*
X70302380Y-23312380D01*
X96781904Y-42680000D02*
X96686666Y-42632380D01*
X96543809Y-42632380D01*
X96400952Y-42680000D01*
X96305714Y-42775238D01*
X96258095Y-42870476D01*
X96210476Y-43060952D01*
X96210476Y-43203809D01*
X96258095Y-43394285D01*
X96305714Y-43489523D01*
X96400952Y-43584761D01*
X96543809Y-43632380D01*
X96639047Y-43632380D01*
X96781904Y-43584761D01*
X96829523Y-43537142D01*
X96829523Y-43203809D01*
X96639047Y-43203809D01*
X92694285Y-43251428D02*
X93456190Y-43251428D01*
X93075238Y-43632380D02*
X93075238Y-42870476D01*
X94408571Y-42632380D02*
X93932380Y-42632380D01*
X93884761Y-43108571D01*
X93932380Y-43060952D01*
X94027619Y-43013333D01*
X94265714Y-43013333D01*
X94360952Y-43060952D01*
X94408571Y-43108571D01*
X94456190Y-43203809D01*
X94456190Y-43441904D01*
X94408571Y-43537142D01*
X94360952Y-43584761D01*
X94265714Y-43632380D01*
X94027619Y-43632380D01*
X93932380Y-43584761D01*
X93884761Y-43537142D01*
X94741904Y-42632380D02*
X95075238Y-43632380D01*
X95408571Y-42632380D01*
X91154285Y-43584761D02*
X91297142Y-43632380D01*
X91535238Y-43632380D01*
X91630476Y-43584761D01*
X91678095Y-43537142D01*
X91725714Y-43441904D01*
X91725714Y-43346666D01*
X91678095Y-43251428D01*
X91630476Y-43203809D01*
X91535238Y-43156190D01*
X91344761Y-43108571D01*
X91249523Y-43060952D01*
X91201904Y-43013333D01*
X91154285Y-42918095D01*
X91154285Y-42822857D01*
X91201904Y-42727619D01*
X91249523Y-42680000D01*
X91344761Y-42632380D01*
X91582857Y-42632380D01*
X91725714Y-42680000D01*
X70834285Y-43584761D02*
X70977142Y-43632380D01*
X71215238Y-43632380D01*
X71310476Y-43584761D01*
X71358095Y-43537142D01*
X71405714Y-43441904D01*
X71405714Y-43346666D01*
X71358095Y-43251428D01*
X71310476Y-43203809D01*
X71215238Y-43156190D01*
X71024761Y-43108571D01*
X70929523Y-43060952D01*
X70881904Y-43013333D01*
X70834285Y-42918095D01*
X70834285Y-42822857D01*
X70881904Y-42727619D01*
X70929523Y-42680000D01*
X71024761Y-42632380D01*
X71262857Y-42632380D01*
X71405714Y-42680000D01*
X68841904Y-42680000D02*
X68746666Y-42632380D01*
X68603809Y-42632380D01*
X68460952Y-42680000D01*
X68365714Y-42775238D01*
X68318095Y-42870476D01*
X68270476Y-43060952D01*
X68270476Y-43203809D01*
X68318095Y-43394285D01*
X68365714Y-43489523D01*
X68460952Y-43584761D01*
X68603809Y-43632380D01*
X68699047Y-43632380D01*
X68841904Y-43584761D01*
X68889523Y-43537142D01*
X68889523Y-43203809D01*
X68699047Y-43203809D01*
X108156666Y-63952380D02*
X108156666Y-62952380D01*
X108537619Y-62952380D01*
X108632857Y-63000000D01*
X108680476Y-63047619D01*
X108728095Y-63142857D01*
X108728095Y-63285714D01*
X108680476Y-63380952D01*
X108632857Y-63428571D01*
X108537619Y-63476190D01*
X108156666Y-63476190D01*
X109061428Y-63285714D02*
X109251904Y-63952380D01*
X109442380Y-63476190D01*
X109632857Y-63952380D01*
X109823333Y-63285714D01*
X110204285Y-63952380D02*
X110204285Y-63285714D01*
X110204285Y-63476190D02*
X110251904Y-63380952D01*
X110299523Y-63333333D01*
X110394761Y-63285714D01*
X110490000Y-63285714D01*
X111156666Y-63428571D02*
X111299523Y-63476190D01*
X111347142Y-63523809D01*
X111394761Y-63619047D01*
X111394761Y-63761904D01*
X111347142Y-63857142D01*
X111299523Y-63904761D01*
X111204285Y-63952380D01*
X110823333Y-63952380D01*
X110823333Y-62952380D01*
X111156666Y-62952380D01*
X111251904Y-63000000D01*
X111299523Y-63047619D01*
X111347142Y-63142857D01*
X111347142Y-63238095D01*
X111299523Y-63333333D01*
X111251904Y-63380952D01*
X111156666Y-63428571D01*
X110823333Y-63428571D01*
X111680476Y-63285714D02*
X112061428Y-63285714D01*
X111823333Y-62952380D02*
X111823333Y-63809523D01*
X111870952Y-63904761D01*
X111966190Y-63952380D01*
X112061428Y-63952380D01*
X112394761Y-63285714D02*
X112394761Y-63952380D01*
X112394761Y-63380952D02*
X112442380Y-63333333D01*
X112537619Y-63285714D01*
X112680476Y-63285714D01*
X112775714Y-63333333D01*
X112823333Y-63428571D01*
X112823333Y-63952380D01*
X108323333Y-72842380D02*
X108323333Y-71842380D01*
X108704285Y-71842380D01*
X108799523Y-71890000D01*
X108847142Y-71937619D01*
X108894761Y-72032857D01*
X108894761Y-72175714D01*
X108847142Y-72270952D01*
X108799523Y-72318571D01*
X108704285Y-72366190D01*
X108323333Y-72366190D01*
X109275714Y-72794761D02*
X109418571Y-72842380D01*
X109656666Y-72842380D01*
X109751904Y-72794761D01*
X109799523Y-72747142D01*
X109847142Y-72651904D01*
X109847142Y-72556666D01*
X109799523Y-72461428D01*
X109751904Y-72413809D01*
X109656666Y-72366190D01*
X109466190Y-72318571D01*
X109370952Y-72270952D01*
X109323333Y-72223333D01*
X109275714Y-72128095D01*
X109275714Y-72032857D01*
X109323333Y-71937619D01*
X109370952Y-71890000D01*
X109466190Y-71842380D01*
X109704285Y-71842380D01*
X109847142Y-71890000D01*
X110037619Y-72937619D02*
X110799523Y-72937619D01*
X111228095Y-71842380D02*
X111418571Y-71842380D01*
X111513809Y-71890000D01*
X111609047Y-71985238D01*
X111656666Y-72175714D01*
X111656666Y-72509047D01*
X111609047Y-72699523D01*
X111513809Y-72794761D01*
X111418571Y-72842380D01*
X111228095Y-72842380D01*
X111132857Y-72794761D01*
X111037619Y-72699523D01*
X110990000Y-72509047D01*
X110990000Y-72175714D01*
X111037619Y-71985238D01*
X111132857Y-71890000D01*
X111228095Y-71842380D01*
X112085238Y-72842380D02*
X112085238Y-71842380D01*
X112656666Y-72842380D01*
X112656666Y-71842380D01*
X108823333Y-49887142D02*
X108775714Y-49934761D01*
X108632857Y-49982380D01*
X108537619Y-49982380D01*
X108394761Y-49934761D01*
X108299523Y-49839523D01*
X108251904Y-49744285D01*
X108204285Y-49553809D01*
X108204285Y-49410952D01*
X108251904Y-49220476D01*
X108299523Y-49125238D01*
X108394761Y-49030000D01*
X108537619Y-48982380D01*
X108632857Y-48982380D01*
X108775714Y-49030000D01*
X108823333Y-49077619D01*
X109680476Y-49982380D02*
X109680476Y-49458571D01*
X109632857Y-49363333D01*
X109537619Y-49315714D01*
X109347142Y-49315714D01*
X109251904Y-49363333D01*
X109680476Y-49934761D02*
X109585238Y-49982380D01*
X109347142Y-49982380D01*
X109251904Y-49934761D01*
X109204285Y-49839523D01*
X109204285Y-49744285D01*
X109251904Y-49649047D01*
X109347142Y-49601428D01*
X109585238Y-49601428D01*
X109680476Y-49553809D01*
X110109047Y-49934761D02*
X110204285Y-49982380D01*
X110394761Y-49982380D01*
X110490000Y-49934761D01*
X110537619Y-49839523D01*
X110537619Y-49791904D01*
X110490000Y-49696666D01*
X110394761Y-49649047D01*
X110251904Y-49649047D01*
X110156666Y-49601428D01*
X110109047Y-49506190D01*
X110109047Y-49458571D01*
X110156666Y-49363333D01*
X110251904Y-49315714D01*
X110394761Y-49315714D01*
X110490000Y-49363333D01*
X111347142Y-49934761D02*
X111251904Y-49982380D01*
X111061428Y-49982380D01*
X110966190Y-49934761D01*
X110918571Y-49839523D01*
X110918571Y-49458571D01*
X110966190Y-49363333D01*
X111061428Y-49315714D01*
X111251904Y-49315714D01*
X111347142Y-49363333D01*
X111394761Y-49458571D01*
X111394761Y-49553809D01*
X110918571Y-49649047D01*
X112299523Y-49982380D02*
X111823333Y-49982380D01*
X111823333Y-48982380D01*
X112490000Y-49315714D02*
X112870952Y-49315714D01*
X112632857Y-48982380D02*
X112632857Y-49839523D01*
X112680476Y-49934761D01*
X112775714Y-49982380D01*
X112870952Y-49982380D01*
X112649047Y-47061428D02*
X113410952Y-47061428D01*
X113030000Y-47442380D02*
X113030000Y-46680476D01*
X112744285Y-42314761D02*
X112887142Y-42362380D01*
X113125238Y-42362380D01*
X113220476Y-42314761D01*
X113268095Y-42267142D01*
X113315714Y-42171904D01*
X113315714Y-42076666D01*
X113268095Y-41981428D01*
X113220476Y-41933809D01*
X113125238Y-41886190D01*
X112934761Y-41838571D01*
X112839523Y-41790952D01*
X112791904Y-41743333D01*
X112744285Y-41648095D01*
X112744285Y-41552857D01*
X112791904Y-41457619D01*
X112839523Y-41410000D01*
X112934761Y-41362380D01*
X113172857Y-41362380D01*
X113315714Y-41410000D01*
X112649047Y-44521428D02*
X113410952Y-44521428D01*
X112966666Y-53411428D02*
X113728571Y-53411428D01*
X113347619Y-53792380D02*
X113347619Y-53030476D01*
X114728571Y-53792380D02*
X114157142Y-53792380D01*
X114442857Y-53792380D02*
X114442857Y-52792380D01*
X114347619Y-52935238D01*
X114252380Y-53030476D01*
X114157142Y-53078095D01*
X115109523Y-52887619D02*
X115157142Y-52840000D01*
X115252380Y-52792380D01*
X115490476Y-52792380D01*
X115585714Y-52840000D01*
X115633333Y-52887619D01*
X115680952Y-52982857D01*
X115680952Y-53078095D01*
X115633333Y-53220952D01*
X115061904Y-53792380D01*
X115680952Y-53792380D01*
X113538095Y-60460000D02*
X113442857Y-60412380D01*
X113300000Y-60412380D01*
X113157142Y-60460000D01*
X113061904Y-60555238D01*
X113014285Y-60650476D01*
X112966666Y-60840952D01*
X112966666Y-60983809D01*
X113014285Y-61174285D01*
X113061904Y-61269523D01*
X113157142Y-61364761D01*
X113300000Y-61412380D01*
X113395238Y-61412380D01*
X113538095Y-61364761D01*
X113585714Y-61317142D01*
X113585714Y-60983809D01*
X113395238Y-60983809D01*
X114014285Y-61412380D02*
X114014285Y-60412380D01*
X114585714Y-61412380D01*
X114585714Y-60412380D01*
X115061904Y-61412380D02*
X115061904Y-60412380D01*
X115300000Y-60412380D01*
X115442857Y-60460000D01*
X115538095Y-60555238D01*
X115585714Y-60650476D01*
X115633333Y-60840952D01*
X115633333Y-60983809D01*
X115585714Y-61174285D01*
X115538095Y-61269523D01*
X115442857Y-61364761D01*
X115300000Y-61412380D01*
X115061904Y-61412380D01*
X113657142Y-56332380D02*
X113180952Y-56332380D01*
X113180952Y-55332380D01*
X113990476Y-55808571D02*
X114323809Y-55808571D01*
X114466666Y-56332380D02*
X113990476Y-56332380D01*
X113990476Y-55332380D01*
X114466666Y-55332380D01*
X114895238Y-56332380D02*
X114895238Y-55332380D01*
X115133333Y-55332380D01*
X115276190Y-55380000D01*
X115371428Y-55475238D01*
X115419047Y-55570476D01*
X115466666Y-55760952D01*
X115466666Y-55903809D01*
X115419047Y-56094285D01*
X115371428Y-56189523D01*
X115276190Y-56284761D01*
X115133333Y-56332380D01*
X114895238Y-56332380D01*
X113466666Y-58348571D02*
X113609523Y-58396190D01*
X113657142Y-58443809D01*
X113704761Y-58539047D01*
X113704761Y-58681904D01*
X113657142Y-58777142D01*
X113609523Y-58824761D01*
X113514285Y-58872380D01*
X113133333Y-58872380D01*
X113133333Y-57872380D01*
X113466666Y-57872380D01*
X113561904Y-57920000D01*
X113609523Y-57967619D01*
X113657142Y-58062857D01*
X113657142Y-58158095D01*
X113609523Y-58253333D01*
X113561904Y-58300952D01*
X113466666Y-58348571D01*
X113133333Y-58348571D01*
X113990476Y-57872380D02*
X114561904Y-57872380D01*
X114276190Y-58872380D02*
X114276190Y-57872380D01*
X114895238Y-58872380D02*
X114895238Y-57872380D01*
X115466666Y-58872380D01*
X115466666Y-57872380D01*
X113585714Y-70207142D02*
X113538095Y-70254761D01*
X113395238Y-70302380D01*
X113300000Y-70302380D01*
X113157142Y-70254761D01*
X113061904Y-70159523D01*
X113014285Y-70064285D01*
X112966666Y-69873809D01*
X112966666Y-69730952D01*
X113014285Y-69540476D01*
X113061904Y-69445238D01*
X113157142Y-69350000D01*
X113300000Y-69302380D01*
X113395238Y-69302380D01*
X113538095Y-69350000D01*
X113585714Y-69397619D01*
X114014285Y-70302380D02*
X114014285Y-69302380D01*
X114395238Y-69302380D01*
X114490476Y-69350000D01*
X114538095Y-69397619D01*
X114585714Y-69492857D01*
X114585714Y-69635714D01*
X114538095Y-69730952D01*
X114490476Y-69778571D01*
X114395238Y-69826190D01*
X114014285Y-69826190D01*
X115014285Y-69302380D02*
X115014285Y-70111904D01*
X115061904Y-70207142D01*
X115109523Y-70254761D01*
X115204761Y-70302380D01*
X115395238Y-70302380D01*
X115490476Y-70254761D01*
X115538095Y-70207142D01*
X115585714Y-70111904D01*
X115585714Y-69302380D01*
X113038095Y-67762380D02*
X113038095Y-66762380D01*
X113419047Y-66762380D01*
X113514285Y-66810000D01*
X113561904Y-66857619D01*
X113609523Y-66952857D01*
X113609523Y-67095714D01*
X113561904Y-67190952D01*
X113514285Y-67238571D01*
X113419047Y-67286190D01*
X113038095Y-67286190D01*
X113990476Y-67714761D02*
X114133333Y-67762380D01*
X114371428Y-67762380D01*
X114466666Y-67714761D01*
X114514285Y-67667142D01*
X114561904Y-67571904D01*
X114561904Y-67476666D01*
X114514285Y-67381428D01*
X114466666Y-67333809D01*
X114371428Y-67286190D01*
X114180952Y-67238571D01*
X114085714Y-67190952D01*
X114038095Y-67143333D01*
X113990476Y-67048095D01*
X113990476Y-66952857D01*
X114038095Y-66857619D01*
X114085714Y-66810000D01*
X114180952Y-66762380D01*
X114419047Y-66762380D01*
X114561904Y-66810000D01*
X114990476Y-66762380D02*
X114990476Y-67571904D01*
X115038095Y-67667142D01*
X115085714Y-67714761D01*
X115180952Y-67762380D01*
X115371428Y-67762380D01*
X115466666Y-67714761D01*
X115514285Y-67667142D01*
X115561904Y-67571904D01*
X115561904Y-66762380D01*
X46784047Y-75834761D02*
X45641190Y-75834761D01*
X46212619Y-75834761D02*
X46212619Y-73834761D01*
X46022142Y-74120476D01*
X45831666Y-74310952D01*
X45641190Y-74406190D01*
X47545952Y-74025238D02*
X47641190Y-73930000D01*
X47831666Y-73834761D01*
X48307857Y-73834761D01*
X48498333Y-73930000D01*
X48593571Y-74025238D01*
X48688809Y-74215714D01*
X48688809Y-74406190D01*
X48593571Y-74691904D01*
X47450714Y-75834761D01*
X48688809Y-75834761D01*
X49260238Y-73834761D02*
X49926904Y-75834761D01*
X50593571Y-73834761D01*
X52784047Y-75834761D02*
X52784047Y-73834761D01*
X53736428Y-74501428D02*
X53736428Y-75834761D01*
X53736428Y-74691904D02*
X53831666Y-74596666D01*
X54022142Y-74501428D01*
X54307857Y-74501428D01*
X54498333Y-74596666D01*
X54593571Y-74787142D01*
X54593571Y-75834761D01*
X36639523Y-69302380D02*
X36163333Y-69302380D01*
X36115714Y-69778571D01*
X36163333Y-69730952D01*
X36258571Y-69683333D01*
X36496666Y-69683333D01*
X36591904Y-69730952D01*
X36639523Y-69778571D01*
X36687142Y-69873809D01*
X36687142Y-70111904D01*
X36639523Y-70207142D01*
X36591904Y-70254761D01*
X36496666Y-70302380D01*
X36258571Y-70302380D01*
X36163333Y-70254761D01*
X36115714Y-70207142D01*
X36972857Y-69302380D02*
X37306190Y-70302380D01*
X37639523Y-69302380D01*
X37719047Y-68651428D02*
X38480952Y-68651428D01*
X35179047Y-68651428D02*
X35940952Y-68651428D01*
X35560000Y-69032380D02*
X35560000Y-68270476D01*
X87010952Y-76017380D02*
X86439523Y-76017380D01*
X86725238Y-76017380D02*
X86725238Y-75017380D01*
X86630000Y-75160238D01*
X86534761Y-75255476D01*
X86439523Y-75303095D01*
X87391904Y-75112619D02*
X87439523Y-75065000D01*
X87534761Y-75017380D01*
X87772857Y-75017380D01*
X87868095Y-75065000D01*
X87915714Y-75112619D01*
X87963333Y-75207857D01*
X87963333Y-75303095D01*
X87915714Y-75445952D01*
X87344285Y-76017380D01*
X87963333Y-76017380D01*
X88249047Y-75017380D02*
X88582380Y-76017380D01*
X88915714Y-75017380D01*
X87884047Y-76906428D02*
X88645952Y-76906428D01*
X87884047Y-74366428D02*
X88645952Y-74366428D01*
X88265000Y-74747380D02*
X88265000Y-73985476D01*
X52578095Y-77612857D02*
X54101904Y-77612857D01*
X52578095Y-72532857D02*
X54101904Y-72532857D01*
X53340000Y-73294761D02*
X53340000Y-71770952D01*
D11*
X76160000Y-55785000D02*
X86400000Y-55785000D01*
X76160000Y-60426000D02*
X86400000Y-60426000D01*
X76160000Y-55785000D02*
X76160000Y-60426000D01*
X86400000Y-55785000D02*
X86400000Y-60426000D01*
X76160000Y-57295000D02*
X86400000Y-57295000D01*
X79430000Y-55785000D02*
X79430000Y-57295000D01*
X83131000Y-55785000D02*
X83131000Y-57295000D01*
X81380000Y-64135000D02*
G75*
G03*
X81380000Y-64135000I-2620000J0D01*
G01*
X78760000Y-66715000D02*
X78760000Y-61555000D01*
X78720000Y-66715000D02*
X78720000Y-61555000D01*
X78680000Y-66714000D02*
X78680000Y-61556000D01*
X78640000Y-66713000D02*
X78640000Y-61557000D01*
X78600000Y-66711000D02*
X78600000Y-61559000D01*
X78560000Y-66708000D02*
X78560000Y-61562000D01*
X78520000Y-66704000D02*
X78520000Y-65175000D01*
X78520000Y-63095000D02*
X78520000Y-61566000D01*
X78480000Y-66700000D02*
X78480000Y-65175000D01*
X78480000Y-63095000D02*
X78480000Y-61570000D01*
X78440000Y-66696000D02*
X78440000Y-65175000D01*
X78440000Y-63095000D02*
X78440000Y-61574000D01*
X78400000Y-66691000D02*
X78400000Y-65175000D01*
X78400000Y-63095000D02*
X78400000Y-61579000D01*
X78360000Y-66685000D02*
X78360000Y-65175000D01*
X78360000Y-63095000D02*
X78360000Y-61585000D01*
X78320000Y-66678000D02*
X78320000Y-65175000D01*
X78320000Y-63095000D02*
X78320000Y-61592000D01*
X78280000Y-66671000D02*
X78280000Y-65175000D01*
X78280000Y-63095000D02*
X78280000Y-61599000D01*
X78240000Y-66663000D02*
X78240000Y-65175000D01*
X78240000Y-63095000D02*
X78240000Y-61607000D01*
X78200000Y-66655000D02*
X78200000Y-65175000D01*
X78200000Y-63095000D02*
X78200000Y-61615000D01*
X78160000Y-66646000D02*
X78160000Y-65175000D01*
X78160000Y-63095000D02*
X78160000Y-61624000D01*
X78120000Y-66636000D02*
X78120000Y-65175000D01*
X78120000Y-63095000D02*
X78120000Y-61634000D01*
X78080000Y-66626000D02*
X78080000Y-65175000D01*
X78080000Y-63095000D02*
X78080000Y-61644000D01*
X78039000Y-66615000D02*
X78039000Y-65175000D01*
X78039000Y-63095000D02*
X78039000Y-61655000D01*
X77999000Y-66603000D02*
X77999000Y-65175000D01*
X77999000Y-63095000D02*
X77999000Y-61667000D01*
X77959000Y-66590000D02*
X77959000Y-65175000D01*
X77959000Y-63095000D02*
X77959000Y-61680000D01*
X77919000Y-66577000D02*
X77919000Y-65175000D01*
X77919000Y-63095000D02*
X77919000Y-61693000D01*
X77879000Y-66563000D02*
X77879000Y-65175000D01*
X77879000Y-63095000D02*
X77879000Y-61707000D01*
X77839000Y-66549000D02*
X77839000Y-65175000D01*
X77839000Y-63095000D02*
X77839000Y-61721000D01*
X77799000Y-66533000D02*
X77799000Y-65175000D01*
X77799000Y-63095000D02*
X77799000Y-61737000D01*
X77759000Y-66517000D02*
X77759000Y-65175000D01*
X77759000Y-63095000D02*
X77759000Y-61753000D01*
X77719000Y-66500000D02*
X77719000Y-65175000D01*
X77719000Y-63095000D02*
X77719000Y-61770000D01*
X77679000Y-66483000D02*
X77679000Y-65175000D01*
X77679000Y-63095000D02*
X77679000Y-61787000D01*
X77639000Y-66464000D02*
X77639000Y-65175000D01*
X77639000Y-63095000D02*
X77639000Y-61806000D01*
X77599000Y-66445000D02*
X77599000Y-65175000D01*
X77599000Y-63095000D02*
X77599000Y-61825000D01*
X77559000Y-66425000D02*
X77559000Y-65175000D01*
X77559000Y-63095000D02*
X77559000Y-61845000D01*
X77519000Y-66403000D02*
X77519000Y-65175000D01*
X77519000Y-63095000D02*
X77519000Y-61867000D01*
X77479000Y-66382000D02*
X77479000Y-65175000D01*
X77479000Y-63095000D02*
X77479000Y-61888000D01*
X77439000Y-66359000D02*
X77439000Y-65175000D01*
X77439000Y-63095000D02*
X77439000Y-61911000D01*
X77399000Y-66335000D02*
X77399000Y-65175000D01*
X77399000Y-63095000D02*
X77399000Y-61935000D01*
X77359000Y-66310000D02*
X77359000Y-65175000D01*
X77359000Y-63095000D02*
X77359000Y-61960000D01*
X77319000Y-66284000D02*
X77319000Y-65175000D01*
X77319000Y-63095000D02*
X77319000Y-61986000D01*
X77279000Y-66257000D02*
X77279000Y-65175000D01*
X77279000Y-63095000D02*
X77279000Y-62013000D01*
X77239000Y-66230000D02*
X77239000Y-65175000D01*
X77239000Y-63095000D02*
X77239000Y-62040000D01*
X77199000Y-66200000D02*
X77199000Y-65175000D01*
X77199000Y-63095000D02*
X77199000Y-62070000D01*
X77159000Y-66170000D02*
X77159000Y-65175000D01*
X77159000Y-63095000D02*
X77159000Y-62100000D01*
X77119000Y-66139000D02*
X77119000Y-65175000D01*
X77119000Y-63095000D02*
X77119000Y-62131000D01*
X77079000Y-66106000D02*
X77079000Y-65175000D01*
X77079000Y-63095000D02*
X77079000Y-62164000D01*
X77039000Y-66072000D02*
X77039000Y-65175000D01*
X77039000Y-63095000D02*
X77039000Y-62198000D01*
X76999000Y-66036000D02*
X76999000Y-65175000D01*
X76999000Y-63095000D02*
X76999000Y-62234000D01*
X76959000Y-65999000D02*
X76959000Y-65175000D01*
X76959000Y-63095000D02*
X76959000Y-62271000D01*
X76919000Y-65961000D02*
X76919000Y-65175000D01*
X76919000Y-63095000D02*
X76919000Y-62309000D01*
X76879000Y-65920000D02*
X76879000Y-65175000D01*
X76879000Y-63095000D02*
X76879000Y-62350000D01*
X76839000Y-65878000D02*
X76839000Y-65175000D01*
X76839000Y-63095000D02*
X76839000Y-62392000D01*
X76799000Y-65834000D02*
X76799000Y-65175000D01*
X76799000Y-63095000D02*
X76799000Y-62436000D01*
X76759000Y-65788000D02*
X76759000Y-65175000D01*
X76759000Y-63095000D02*
X76759000Y-62482000D01*
X76719000Y-65740000D02*
X76719000Y-65175000D01*
X76719000Y-63095000D02*
X76719000Y-62530000D01*
X76679000Y-65689000D02*
X76679000Y-65175000D01*
X76679000Y-63095000D02*
X76679000Y-62581000D01*
X76639000Y-65635000D02*
X76639000Y-65175000D01*
X76639000Y-63095000D02*
X76639000Y-62635000D01*
X76599000Y-65578000D02*
X76599000Y-65175000D01*
X76599000Y-63095000D02*
X76599000Y-62692000D01*
X76559000Y-65518000D02*
X76559000Y-65175000D01*
X76559000Y-63095000D02*
X76559000Y-62752000D01*
X76519000Y-65454000D02*
X76519000Y-65175000D01*
X76519000Y-63095000D02*
X76519000Y-62816000D01*
X76479000Y-65386000D02*
X76479000Y-65175000D01*
X76479000Y-63095000D02*
X76479000Y-62884000D01*
X76439000Y-65313000D02*
X76439000Y-62957000D01*
X76399000Y-65233000D02*
X76399000Y-63037000D01*
X76359000Y-65146000D02*
X76359000Y-63124000D01*
X76319000Y-65050000D02*
X76319000Y-63220000D01*
X76279000Y-64940000D02*
X76279000Y-63330000D01*
X76239000Y-64812000D02*
X76239000Y-63458000D01*
X76199000Y-64653000D02*
X76199000Y-63617000D01*
X76159000Y-64419000D02*
X76159000Y-63851000D01*
X81564775Y-65610000D02*
X81064775Y-65610000D01*
X81314775Y-65860000D02*
X81314775Y-65360000D01*
X69120000Y-69115000D02*
X69120000Y-71855000D01*
X69120000Y-71855000D02*
X75660000Y-71855000D01*
X75660000Y-71855000D02*
X75660000Y-69115000D01*
X75660000Y-69115000D02*
X69120000Y-69115000D01*
X68350000Y-70485000D02*
X69120000Y-70485000D01*
X76430000Y-70485000D02*
X75660000Y-70485000D01*
D10*
X55245000Y-69850000D02*
X65405000Y-69850000D01*
X55245000Y-80010000D02*
X55245000Y-69850000D01*
X65405000Y-80010000D02*
X55245000Y-80010000D01*
X65405000Y-69850000D02*
X65405000Y-80010000D01*
D11*
X72330000Y-72965000D02*
X72330000Y-78165000D01*
X80010000Y-72965000D02*
X72330000Y-72965000D01*
X82610000Y-78165000D02*
X72330000Y-78165000D01*
X80010000Y-72965000D02*
X80010000Y-75565000D01*
X80010000Y-75565000D02*
X82610000Y-75565000D01*
X82610000Y-75565000D02*
X82610000Y-78165000D01*
X81280000Y-72965000D02*
X82610000Y-72965000D01*
X82610000Y-72965000D02*
X82610000Y-74295000D01*
X102830000Y-32290000D02*
X113070000Y-32290000D01*
X102830000Y-36931000D02*
X113070000Y-36931000D01*
X102830000Y-32290000D02*
X102830000Y-36931000D01*
X113070000Y-32290000D02*
X113070000Y-36931000D01*
X102830000Y-33800000D02*
X113070000Y-33800000D01*
X106100000Y-32290000D02*
X106100000Y-33800000D01*
X109801000Y-32290000D02*
X109801000Y-33800000D01*
X86420000Y-24010000D02*
X76140000Y-24010000D01*
X86420000Y-49650000D02*
X86420000Y-24010000D01*
X76140000Y-49650000D02*
X86420000Y-49650000D01*
X76140000Y-24010000D02*
X76140000Y-49650000D01*
X83930000Y-24070000D02*
X82280000Y-24070000D01*
X83930000Y-49590000D02*
X83930000Y-24070000D01*
X78630000Y-49590000D02*
X83930000Y-49590000D01*
X78630000Y-24070000D02*
X78630000Y-49590000D01*
X80280000Y-24070000D02*
X78630000Y-24070000D01*
X82280000Y-24070000D02*
G75*
G02*
X80280000Y-24070000I-1000000J0D01*
G01*
X34230000Y-67370000D02*
X39430000Y-67370000D01*
X34230000Y-54610000D02*
X34230000Y-67370000D01*
X39430000Y-52010000D02*
X39430000Y-67370000D01*
X34230000Y-54610000D02*
X36830000Y-54610000D01*
X36830000Y-54610000D02*
X36830000Y-52010000D01*
X36830000Y-52010000D02*
X39430000Y-52010000D01*
X34230000Y-53340000D02*
X34230000Y-52010000D01*
X34230000Y-52010000D02*
X35560000Y-52010000D01*
X102654184Y-55732795D02*
G75*
G02*
X102130000Y-56460000I-2324184J1122795D01*
G01*
X102686400Y-53511193D02*
G75*
G03*
X100330000Y-52010000I-2356400J-1098807D01*
G01*
X97973600Y-53511193D02*
G75*
G02*
X100330000Y-52010000I2356400J-1098807D01*
G01*
X98005816Y-55732795D02*
G75*
G03*
X98530000Y-56460000I2324184J1122795D01*
G01*
X98530000Y-56460000D02*
X102130000Y-56460000D01*
X93832795Y-62445816D02*
G75*
G02*
X94560000Y-62970000I-1122795J-2324184D01*
G01*
X91611193Y-62413600D02*
G75*
G03*
X90110000Y-64770000I1098807J-2356400D01*
G01*
X91611193Y-67126400D02*
G75*
G02*
X90110000Y-64770000I1098807J2356400D01*
G01*
X93832795Y-67094184D02*
G75*
G03*
X94560000Y-66570000I-1122795J2324184D01*
G01*
X94560000Y-66570000D02*
X94560000Y-62970000D01*
X67457205Y-67094184D02*
G75*
G02*
X66730000Y-66570000I1122795J2324184D01*
G01*
X69678807Y-67126400D02*
G75*
G03*
X71180000Y-64770000I-1098807J2356400D01*
G01*
X69678807Y-62413600D02*
G75*
G02*
X71180000Y-64770000I-1098807J-2356400D01*
G01*
X67457205Y-62445816D02*
G75*
G03*
X66730000Y-62970000I1122795J-2324184D01*
G01*
X66730000Y-62970000D02*
X66730000Y-66570000D01*
X72290000Y-60420000D02*
X75030000Y-60420000D01*
X75030000Y-60420000D02*
X75030000Y-53880000D01*
X75030000Y-53880000D02*
X72290000Y-53880000D01*
X72290000Y-53880000D02*
X72290000Y-60420000D01*
X73660000Y-61190000D02*
X73660000Y-60420000D01*
X73660000Y-53110000D02*
X73660000Y-53880000D01*
X67210000Y-54070000D02*
X69950000Y-54070000D01*
X69950000Y-54070000D02*
X69950000Y-47530000D01*
X69950000Y-47530000D02*
X67210000Y-47530000D01*
X67210000Y-47530000D02*
X67210000Y-54070000D01*
X68580000Y-54840000D02*
X68580000Y-54070000D01*
X68580000Y-46760000D02*
X68580000Y-47530000D01*
X89475000Y-72965000D02*
X89475000Y-78165000D01*
X102235000Y-72965000D02*
X89475000Y-72965000D01*
X104835000Y-78165000D02*
X89475000Y-78165000D01*
X102235000Y-72965000D02*
X102235000Y-75565000D01*
X102235000Y-75565000D02*
X104835000Y-75565000D01*
X104835000Y-75565000D02*
X104835000Y-78165000D01*
X103505000Y-72965000D02*
X104835000Y-72965000D01*
X104835000Y-72965000D02*
X104835000Y-74295000D01*
X95190000Y-41970000D02*
X97850000Y-41970000D01*
X95190000Y-26670000D02*
X95190000Y-41970000D01*
X97850000Y-26670000D02*
X97850000Y-41970000D01*
X95190000Y-26670000D02*
X97850000Y-26670000D01*
X95190000Y-25400000D02*
X95190000Y-24070000D01*
X95190000Y-24070000D02*
X96520000Y-24070000D01*
X90110000Y-41970000D02*
X95310000Y-41970000D01*
X90110000Y-26670000D02*
X90110000Y-41970000D01*
X95310000Y-24070000D02*
X95310000Y-41970000D01*
X90110000Y-26670000D02*
X92710000Y-26670000D01*
X92710000Y-26670000D02*
X92710000Y-24070000D01*
X92710000Y-24070000D02*
X95310000Y-24070000D01*
X90110000Y-25400000D02*
X90110000Y-24070000D01*
X90110000Y-24070000D02*
X91440000Y-24070000D01*
X67250000Y-41970000D02*
X72450000Y-41970000D01*
X67250000Y-26670000D02*
X67250000Y-41970000D01*
X72450000Y-24070000D02*
X72450000Y-41970000D01*
X67250000Y-26670000D02*
X69850000Y-26670000D01*
X69850000Y-26670000D02*
X69850000Y-24070000D01*
X69850000Y-24070000D02*
X72450000Y-24070000D01*
X67250000Y-25400000D02*
X67250000Y-24070000D01*
X67250000Y-24070000D02*
X68580000Y-24070000D01*
X45430295Y-29391319D02*
X43830296Y-29391319D01*
X43830296Y-28591319D02*
X45430295Y-28591319D01*
X45430295Y-28591319D02*
X45430295Y-29391319D01*
X45110295Y-28591319D02*
X45110295Y-29391319D01*
X43081295Y-34097688D02*
X43081295Y-34131643D01*
X43081295Y-34181022D02*
X43081295Y-34225894D01*
X43132295Y-32740217D02*
X48032294Y-32740217D01*
X48082294Y-32790217D02*
X48082294Y-42690217D01*
X48032294Y-42740217D02*
X43132295Y-42740217D01*
X43082295Y-42690217D02*
X43082295Y-32790217D01*
X44457294Y-41691406D02*
X44426075Y-41684236D01*
X44457294Y-41691406D02*
X44452062Y-41715853D01*
X44457294Y-41691406D02*
X44432295Y-41679447D01*
X44400900Y-41703615D02*
X44432295Y-41679447D01*
X44432295Y-39600986D02*
X44432295Y-41679447D01*
X44932294Y-41679447D02*
X44932294Y-39600986D01*
X63235796Y-44072603D02*
X63235796Y-34372603D01*
X61735796Y-32872603D02*
X52035796Y-32872603D01*
X50535796Y-34372603D02*
X50535796Y-44072603D01*
X52035796Y-45572603D02*
X61735796Y-45572603D01*
X44150296Y-29391319D02*
X44150296Y-28591319D01*
X43830296Y-28591319D02*
X43830296Y-29391319D01*
X64065000Y-23845000D02*
X42615000Y-23845000D01*
X42615000Y-23845000D02*
X42615000Y-67595000D01*
X42615000Y-67595000D02*
X64065000Y-67595000D01*
X64065000Y-67595000D02*
X64065000Y-23845000D01*
X61008217Y-57008364D02*
X61008217Y-56558364D01*
X62758217Y-57008364D02*
X61008217Y-57008364D01*
X62758217Y-56558364D02*
X62758217Y-57008364D01*
X61008217Y-52758364D02*
X61008217Y-52308364D01*
X62758217Y-52308364D02*
X62758217Y-52758364D01*
X61008217Y-52308364D02*
X62758217Y-52308364D01*
X60633217Y-56458364D02*
X60633217Y-52858364D01*
X60733217Y-52758364D02*
X63033217Y-52758364D01*
X63133217Y-52858364D02*
X63133217Y-56458364D01*
X63033217Y-56558364D02*
X60733217Y-56558364D01*
X43796671Y-48779767D02*
X44087610Y-47129767D01*
X43796671Y-55639767D02*
X43796671Y-48779767D01*
X44087610Y-57289767D02*
X43796671Y-55639767D01*
X44876670Y-47129767D02*
X44876670Y-57289767D01*
X53516670Y-47207330D02*
X53439106Y-47129767D01*
X53439106Y-47129767D02*
X44087610Y-47129767D01*
X53516670Y-57212203D02*
X53516670Y-47207330D01*
X53439106Y-57289767D02*
X53516670Y-57212203D01*
X53439106Y-57289767D02*
X44087610Y-57289767D01*
X45454149Y-57290767D02*
X45615687Y-57290767D01*
X58146670Y-49229767D02*
X58146670Y-48389767D01*
X58146670Y-48389767D02*
X53516670Y-48389767D01*
X58146670Y-49229767D02*
X53516670Y-49229767D01*
X58146670Y-50929767D02*
X58146670Y-50089767D01*
X58146670Y-50089767D02*
X53516670Y-50089767D01*
X58146670Y-50929767D02*
X53516670Y-50929767D01*
X58146670Y-52629767D02*
X58146670Y-51789767D01*
X58146670Y-51789767D02*
X53516670Y-51789767D01*
X58146670Y-52629767D02*
X53516670Y-52629767D01*
X58146670Y-54329767D02*
X58146670Y-53489767D01*
X58146670Y-53489767D02*
X53516670Y-53489767D01*
X58146670Y-54329767D02*
X53516670Y-54329767D01*
X58146670Y-56029767D02*
X58146670Y-55189767D01*
X58146670Y-55189767D02*
X53516670Y-55189767D01*
X58146670Y-56029767D02*
X53516670Y-56029767D01*
X60733217Y-53628642D02*
X63033217Y-53628642D01*
X61244696Y-52757364D02*
X61150144Y-52757364D01*
X57407418Y-63393334D02*
G75*
G03*
X57407418Y-63393334I-4000000J0D01*
G01*
X57905206Y-28010693D02*
G75*
G03*
X57905206Y-28010693I-4000000J0D01*
G01*
X62135796Y-39222603D02*
G75*
G03*
X62135796Y-39222603I-5250000J0D01*
G01*
X46683999Y-60960000D02*
G75*
G03*
X46683999Y-60960000I-1598999J0D01*
G01*
X63194000Y-30480000D02*
G75*
G03*
X63194000Y-30480000I-1599000J0D01*
G01*
X52979594Y-56366821D02*
G75*
G03*
X52979594Y-56366821I-375000J0D01*
G01*
X63810000Y-26980000D02*
X60650000Y-26980000D01*
X63810000Y-26980000D02*
X63810000Y-23865000D01*
X60650000Y-26980000D02*
X60650000Y-23865000D01*
X46030000Y-26980000D02*
X42870000Y-26980000D01*
X46030000Y-26980000D02*
X46030000Y-23820000D01*
X42870000Y-26980000D02*
X42870000Y-23865000D01*
X63810000Y-67590000D02*
X63810000Y-64460000D01*
X60650000Y-64460000D02*
X63810000Y-64460000D01*
X60650000Y-67590000D02*
X60650000Y-64460000D01*
X46025000Y-67590000D02*
X46030000Y-64460000D01*
X42870000Y-67590000D02*
X42870000Y-66290000D01*
X45720000Y-64460000D02*
X46030000Y-64460000D01*
X43082295Y-32790217D02*
G75*
G02*
X43132295Y-32740217I50000J0D01*
G01*
X48082294Y-42690217D02*
G75*
G02*
X48032294Y-42740217I-50000J0D01*
G01*
X43132295Y-42740217D02*
G75*
G02*
X43082295Y-42690217I0J50000D01*
G01*
X48032294Y-32740217D02*
G75*
G02*
X48082294Y-32790217I0J-50000D01*
G01*
X44912527Y-41715853D02*
G75*
G02*
X44963690Y-41703615I-230233J1075636D01*
G01*
X51849531Y-36252817D02*
G75*
G02*
X51883617Y-36386989I-52908J-84857D01*
G01*
X59721409Y-44224783D02*
G75*
G02*
X59855582Y-44258868I49316J-86994D01*
G01*
X53916011Y-44258869D02*
G75*
G02*
X54050183Y-44224782I84857J-52908D01*
G01*
X51883618Y-42058217D02*
G75*
G02*
X51849531Y-42192389I-86995J-49315D01*
G01*
X53916011Y-44258868D02*
G75*
G02*
X51849531Y-42192389I-1272855J793624D01*
G01*
X59855582Y-34186338D02*
G75*
G02*
X61922062Y-36252817I1272855J-793624D01*
G01*
X51883617Y-42058216D02*
G75*
G02*
X51883617Y-36386989I5002179J2835613D01*
G01*
X59721410Y-44224782D02*
G75*
G02*
X54050183Y-44224782I-2835614J5002179D01*
G01*
X61922062Y-42192389D02*
G75*
G02*
X59855582Y-44258868I-793625J-1272855D01*
G01*
X61887975Y-36386989D02*
G75*
G02*
X61922062Y-36252817I86995J49315D01*
G01*
X63235796Y-44072603D02*
G75*
G02*
X61735796Y-45572603I-1500000J0D01*
G01*
X50535796Y-34372603D02*
G75*
G02*
X52035796Y-32872603I1500000J0D01*
G01*
X52035796Y-45572603D02*
G75*
G02*
X50535796Y-44072603I0J1500000D01*
G01*
X61922062Y-42192389D02*
G75*
G02*
X61887976Y-42058217I52908J84857D01*
G01*
X51849531Y-36252817D02*
G75*
G02*
X53916011Y-34186338I793625J1272855D01*
G01*
X61735796Y-32872603D02*
G75*
G02*
X63235796Y-34372603I0J-1500000D01*
G01*
X54050183Y-34220424D02*
G75*
G02*
X59721410Y-34220424I2835613J-5002179D01*
G01*
X59855582Y-34186337D02*
G75*
G02*
X59721410Y-34220424I-84857J52908D01*
G01*
X61887976Y-36386989D02*
G75*
G02*
X61887976Y-42058217I-5002180J-2835614D01*
G01*
X54050184Y-34220423D02*
G75*
G02*
X53916011Y-34186338I-49316J86994D01*
G01*
X60733217Y-56558364D02*
G75*
G02*
X60633217Y-56458364I0J100000D01*
G01*
X60633217Y-52858364D02*
G75*
G02*
X60733217Y-52758364I100000J0D01*
G01*
X63033217Y-52758364D02*
G75*
G02*
X63133217Y-52858364I0J-100000D01*
G01*
X63133217Y-56458364D02*
G75*
G02*
X63033217Y-56558364I-100000J0D01*
G01*
X100230000Y-67405000D02*
X102970000Y-67405000D01*
X102970000Y-67405000D02*
X102970000Y-60865000D01*
X102970000Y-60865000D02*
X100230000Y-60865000D01*
X100230000Y-60865000D02*
X100230000Y-67405000D01*
X101600000Y-68175000D02*
X101600000Y-67405000D01*
X101600000Y-60095000D02*
X101600000Y-60865000D01*
X92170000Y-54710000D02*
X92170000Y-51970000D01*
X92170000Y-51970000D02*
X85630000Y-51970000D01*
X85630000Y-51970000D02*
X85630000Y-54710000D01*
X85630000Y-54710000D02*
X92170000Y-54710000D01*
X92940000Y-53340000D02*
X92170000Y-53340000D01*
X84860000Y-53340000D02*
X85630000Y-53340000D01*
X99790000Y-49630000D02*
X99790000Y-46890000D01*
X99790000Y-46890000D02*
X93250000Y-46890000D01*
X93250000Y-46890000D02*
X93250000Y-49630000D01*
X93250000Y-49630000D02*
X99790000Y-49630000D01*
X100560000Y-48260000D02*
X99790000Y-48260000D01*
X92480000Y-48260000D02*
X93250000Y-48260000D01*
X82765000Y-67200000D02*
X82450000Y-67200000D01*
X85190000Y-67200000D02*
X84875000Y-67200000D01*
X82765000Y-62260000D02*
X82450000Y-62260000D01*
X85190000Y-62260000D02*
X84875000Y-62260000D01*
X82450000Y-62260000D02*
X82450000Y-67200000D01*
X85190000Y-62260000D02*
X85190000Y-67200000D01*
X90060000Y-22645000D02*
X90060000Y-22960000D01*
X90060000Y-20220000D02*
X90060000Y-20535000D01*
X85120000Y-22645000D02*
X85120000Y-22960000D01*
X85120000Y-20220000D02*
X85120000Y-20535000D01*
X85120000Y-22960000D02*
X90060000Y-22960000D01*
X85120000Y-20220000D02*
X90060000Y-20220000D01*
X112250000Y-40530000D02*
X106230000Y-40530000D01*
X106230000Y-40530000D02*
X106230000Y-48370000D01*
X106230000Y-48370000D02*
X112250000Y-48370000D01*
X112250000Y-48370000D02*
X112250000Y-40530000D01*
X111220000Y-40240000D02*
X107220000Y-40240000D01*
X106230000Y-41910000D02*
X107230000Y-41910000D01*
X107230000Y-41910000D02*
X107230000Y-46990000D01*
X107230000Y-46990000D02*
X106230000Y-46990000D01*
X107230000Y-41910000D02*
X107760000Y-42160000D01*
X107760000Y-42160000D02*
X107760000Y-46740000D01*
X107760000Y-46740000D02*
X107230000Y-46990000D01*
X106230000Y-42160000D02*
X107230000Y-42160000D01*
X106230000Y-46740000D02*
X107230000Y-46740000D01*
X112250000Y-41110000D02*
X111650000Y-41110000D01*
X111650000Y-41110000D02*
X111650000Y-42710000D01*
X111650000Y-42710000D02*
X112250000Y-42710000D01*
X112250000Y-43650000D02*
X111650000Y-43650000D01*
X111650000Y-43650000D02*
X111650000Y-45250000D01*
X111650000Y-45250000D02*
X112250000Y-45250000D01*
X112250000Y-46190000D02*
X111650000Y-46190000D01*
X111650000Y-46190000D02*
X111650000Y-47790000D01*
X111650000Y-47790000D02*
X112250000Y-47790000D01*
X112250000Y-65930000D02*
X106230000Y-65930000D01*
X106230000Y-65930000D02*
X106230000Y-71230000D01*
X106230000Y-71230000D02*
X112250000Y-71230000D01*
X112250000Y-71230000D02*
X112250000Y-65930000D01*
X111220000Y-65640000D02*
X107220000Y-65640000D01*
X106230000Y-67310000D02*
X107230000Y-67310000D01*
X107230000Y-67310000D02*
X107230000Y-69850000D01*
X107230000Y-69850000D02*
X106230000Y-69850000D01*
X107230000Y-67310000D02*
X107760000Y-67560000D01*
X107760000Y-67560000D02*
X107760000Y-69600000D01*
X107760000Y-69600000D02*
X107230000Y-69850000D01*
X106230000Y-67560000D02*
X107230000Y-67560000D01*
X106230000Y-69600000D02*
X107230000Y-69600000D01*
X112250000Y-66510000D02*
X111650000Y-66510000D01*
X111650000Y-66510000D02*
X111650000Y-68110000D01*
X111650000Y-68110000D02*
X112250000Y-68110000D01*
X112250000Y-69050000D02*
X111650000Y-69050000D01*
X111650000Y-69050000D02*
X111650000Y-70650000D01*
X111650000Y-70650000D02*
X112250000Y-70650000D01*
X111650000Y-61760000D02*
X112250000Y-61760000D01*
X111650000Y-60160000D02*
X111650000Y-61760000D01*
X112250000Y-60160000D02*
X111650000Y-60160000D01*
X111650000Y-59220000D02*
X112250000Y-59220000D01*
X111650000Y-57620000D02*
X111650000Y-59220000D01*
X112250000Y-57620000D02*
X111650000Y-57620000D01*
X111650000Y-56680000D02*
X112250000Y-56680000D01*
X111650000Y-55080000D02*
X111650000Y-56680000D01*
X112250000Y-55080000D02*
X111650000Y-55080000D01*
X111650000Y-54140000D02*
X112250000Y-54140000D01*
X111650000Y-52540000D02*
X111650000Y-54140000D01*
X112250000Y-52540000D02*
X111650000Y-52540000D01*
X106230000Y-60710000D02*
X107230000Y-60710000D01*
X106230000Y-53590000D02*
X107230000Y-53590000D01*
X107760000Y-60710000D02*
X107230000Y-60960000D01*
X107760000Y-53590000D02*
X107760000Y-60710000D01*
X107230000Y-53340000D02*
X107760000Y-53590000D01*
X107230000Y-60960000D02*
X106230000Y-60960000D01*
X107230000Y-53340000D02*
X107230000Y-60960000D01*
X106230000Y-53340000D02*
X107230000Y-53340000D01*
X111220000Y-51670000D02*
X107220000Y-51670000D01*
X112250000Y-62340000D02*
X112250000Y-51960000D01*
X106230000Y-62340000D02*
X112250000Y-62340000D01*
X106230000Y-51960000D02*
X106230000Y-62340000D01*
X112250000Y-51960000D02*
X106230000Y-51960000D01*
D10*
X80518095Y-54237380D02*
X80518095Y-55046904D01*
X80565714Y-55142142D01*
X80613333Y-55189761D01*
X80708571Y-55237380D01*
X80899047Y-55237380D01*
X80994285Y-55189761D01*
X81041904Y-55142142D01*
X81089523Y-55046904D01*
X81089523Y-54237380D01*
X81470476Y-54237380D02*
X82089523Y-54237380D01*
X81756190Y-54618333D01*
X81899047Y-54618333D01*
X81994285Y-54665952D01*
X82041904Y-54713571D01*
X82089523Y-54808809D01*
X82089523Y-55046904D01*
X82041904Y-55142142D01*
X81994285Y-55189761D01*
X81899047Y-55237380D01*
X81613333Y-55237380D01*
X81518095Y-55189761D01*
X81470476Y-55142142D01*
X78593333Y-68242142D02*
X78545714Y-68289761D01*
X78402857Y-68337380D01*
X78307619Y-68337380D01*
X78164761Y-68289761D01*
X78069523Y-68194523D01*
X78021904Y-68099285D01*
X77974285Y-67908809D01*
X77974285Y-67765952D01*
X78021904Y-67575476D01*
X78069523Y-67480238D01*
X78164761Y-67385000D01*
X78307619Y-67337380D01*
X78402857Y-67337380D01*
X78545714Y-67385000D01*
X78593333Y-67432619D01*
X78926666Y-67337380D02*
X79545714Y-67337380D01*
X79212380Y-67718333D01*
X79355238Y-67718333D01*
X79450476Y-67765952D01*
X79498095Y-67813571D01*
X79545714Y-67908809D01*
X79545714Y-68146904D01*
X79498095Y-68242142D01*
X79450476Y-68289761D01*
X79355238Y-68337380D01*
X79069523Y-68337380D01*
X78974285Y-68289761D01*
X78926666Y-68242142D01*
X72223333Y-68567380D02*
X71890000Y-68091190D01*
X71651904Y-68567380D02*
X71651904Y-67567380D01*
X72032857Y-67567380D01*
X72128095Y-67615000D01*
X72175714Y-67662619D01*
X72223333Y-67757857D01*
X72223333Y-67900714D01*
X72175714Y-67995952D01*
X72128095Y-68043571D01*
X72032857Y-68091190D01*
X71651904Y-68091190D01*
X72556666Y-67567380D02*
X73223333Y-67567380D01*
X72794761Y-68567380D01*
X55967380Y-75263333D02*
X56681666Y-75263333D01*
X56824523Y-75310952D01*
X56919761Y-75406190D01*
X56967380Y-75549047D01*
X56967380Y-75644285D01*
X55967380Y-74358571D02*
X55967380Y-74549047D01*
X56015000Y-74644285D01*
X56062619Y-74691904D01*
X56205476Y-74787142D01*
X56395952Y-74834761D01*
X56776904Y-74834761D01*
X56872142Y-74787142D01*
X56919761Y-74739523D01*
X56967380Y-74644285D01*
X56967380Y-74453809D01*
X56919761Y-74358571D01*
X56872142Y-74310952D01*
X56776904Y-74263333D01*
X56538809Y-74263333D01*
X56443571Y-74310952D01*
X56395952Y-74358571D01*
X56348333Y-74453809D01*
X56348333Y-74644285D01*
X56395952Y-74739523D01*
X56443571Y-74787142D01*
X56538809Y-74834761D01*
X83062380Y-76374523D02*
X83776666Y-76374523D01*
X83919523Y-76422142D01*
X84014761Y-76517380D01*
X84062380Y-76660238D01*
X84062380Y-76755476D01*
X84062380Y-75374523D02*
X84062380Y-75945952D01*
X84062380Y-75660238D02*
X83062380Y-75660238D01*
X83205238Y-75755476D01*
X83300476Y-75850714D01*
X83348095Y-75945952D01*
X83062380Y-74755476D02*
X83062380Y-74660238D01*
X83110000Y-74565000D01*
X83157619Y-74517380D01*
X83252857Y-74469761D01*
X83443333Y-74422142D01*
X83681428Y-74422142D01*
X83871904Y-74469761D01*
X83967142Y-74517380D01*
X84014761Y-74565000D01*
X84062380Y-74660238D01*
X84062380Y-74755476D01*
X84014761Y-74850714D01*
X83967142Y-74898333D01*
X83871904Y-74945952D01*
X83681428Y-74993571D01*
X83443333Y-74993571D01*
X83252857Y-74945952D01*
X83157619Y-74898333D01*
X83110000Y-74850714D01*
X83062380Y-74755476D01*
X107854761Y-31837619D02*
X107759523Y-31790000D01*
X107664285Y-31694761D01*
X107521428Y-31551904D01*
X107426190Y-31504285D01*
X107330952Y-31504285D01*
X107378571Y-31742380D02*
X107283333Y-31694761D01*
X107188095Y-31599523D01*
X107140476Y-31409047D01*
X107140476Y-31075714D01*
X107188095Y-30885238D01*
X107283333Y-30790000D01*
X107378571Y-30742380D01*
X107569047Y-30742380D01*
X107664285Y-30790000D01*
X107759523Y-30885238D01*
X107807142Y-31075714D01*
X107807142Y-31409047D01*
X107759523Y-31599523D01*
X107664285Y-31694761D01*
X107569047Y-31742380D01*
X107378571Y-31742380D01*
X108140476Y-30742380D02*
X108759523Y-30742380D01*
X108426190Y-31123333D01*
X108569047Y-31123333D01*
X108664285Y-31170952D01*
X108711904Y-31218571D01*
X108759523Y-31313809D01*
X108759523Y-31551904D01*
X108711904Y-31647142D01*
X108664285Y-31694761D01*
X108569047Y-31742380D01*
X108283333Y-31742380D01*
X108188095Y-31694761D01*
X108140476Y-31647142D01*
X80518095Y-22522380D02*
X80518095Y-23331904D01*
X80565714Y-23427142D01*
X80613333Y-23474761D01*
X80708571Y-23522380D01*
X80899047Y-23522380D01*
X80994285Y-23474761D01*
X81041904Y-23427142D01*
X81089523Y-23331904D01*
X81089523Y-22522380D01*
X82089523Y-23522380D02*
X81518095Y-23522380D01*
X81803809Y-23522380D02*
X81803809Y-22522380D01*
X81708571Y-22665238D01*
X81613333Y-22760476D01*
X81518095Y-22808095D01*
X36496666Y-50462380D02*
X36496666Y-51176666D01*
X36449047Y-51319523D01*
X36353809Y-51414761D01*
X36210952Y-51462380D01*
X36115714Y-51462380D01*
X37020476Y-51462380D02*
X37210952Y-51462380D01*
X37306190Y-51414761D01*
X37353809Y-51367142D01*
X37449047Y-51224285D01*
X37496666Y-51033809D01*
X37496666Y-50652857D01*
X37449047Y-50557619D01*
X37401428Y-50510000D01*
X37306190Y-50462380D01*
X37115714Y-50462380D01*
X37020476Y-50510000D01*
X36972857Y-50557619D01*
X36925238Y-50652857D01*
X36925238Y-50890952D01*
X36972857Y-50986190D01*
X37020476Y-51033809D01*
X37115714Y-51081428D01*
X37306190Y-51081428D01*
X37401428Y-51033809D01*
X37449047Y-50986190D01*
X37496666Y-50890952D01*
X100234761Y-51597619D02*
X100139523Y-51550000D01*
X100044285Y-51454761D01*
X99901428Y-51311904D01*
X99806190Y-51264285D01*
X99710952Y-51264285D01*
X99758571Y-51502380D02*
X99663333Y-51454761D01*
X99568095Y-51359523D01*
X99520476Y-51169047D01*
X99520476Y-50835714D01*
X99568095Y-50645238D01*
X99663333Y-50550000D01*
X99758571Y-50502380D01*
X99949047Y-50502380D01*
X100044285Y-50550000D01*
X100139523Y-50645238D01*
X100187142Y-50835714D01*
X100187142Y-51169047D01*
X100139523Y-51359523D01*
X100044285Y-51454761D01*
X99949047Y-51502380D01*
X99758571Y-51502380D01*
X100568095Y-50597619D02*
X100615714Y-50550000D01*
X100710952Y-50502380D01*
X100949047Y-50502380D01*
X101044285Y-50550000D01*
X101091904Y-50597619D01*
X101139523Y-50692857D01*
X101139523Y-50788095D01*
X101091904Y-50930952D01*
X100520476Y-51502380D01*
X101139523Y-51502380D01*
X89697619Y-64865238D02*
X89650000Y-64960476D01*
X89554761Y-65055714D01*
X89411904Y-65198571D01*
X89364285Y-65293809D01*
X89364285Y-65389047D01*
X89602380Y-65341428D02*
X89554761Y-65436666D01*
X89459523Y-65531904D01*
X89269047Y-65579523D01*
X88935714Y-65579523D01*
X88745238Y-65531904D01*
X88650000Y-65436666D01*
X88602380Y-65341428D01*
X88602380Y-65150952D01*
X88650000Y-65055714D01*
X88745238Y-64960476D01*
X88935714Y-64912857D01*
X89269047Y-64912857D01*
X89459523Y-64960476D01*
X89554761Y-65055714D01*
X89602380Y-65150952D01*
X89602380Y-65341428D01*
X89602380Y-63960476D02*
X89602380Y-64531904D01*
X89602380Y-64246190D02*
X88602380Y-64246190D01*
X88745238Y-64341428D01*
X88840476Y-64436666D01*
X88888095Y-64531904D01*
X72687619Y-64865238D02*
X72640000Y-64960476D01*
X72544761Y-65055714D01*
X72401904Y-65198571D01*
X72354285Y-65293809D01*
X72354285Y-65389047D01*
X72592380Y-65341428D02*
X72544761Y-65436666D01*
X72449523Y-65531904D01*
X72259047Y-65579523D01*
X71925714Y-65579523D01*
X71735238Y-65531904D01*
X71640000Y-65436666D01*
X71592380Y-65341428D01*
X71592380Y-65150952D01*
X71640000Y-65055714D01*
X71735238Y-64960476D01*
X71925714Y-64912857D01*
X72259047Y-64912857D01*
X72449523Y-64960476D01*
X72544761Y-65055714D01*
X72592380Y-65150952D01*
X72592380Y-65341428D01*
X71925714Y-64055714D02*
X72592380Y-64055714D01*
X71544761Y-64293809D02*
X72259047Y-64531904D01*
X72259047Y-63912857D01*
X71742380Y-57316666D02*
X71266190Y-57650000D01*
X71742380Y-57888095D02*
X70742380Y-57888095D01*
X70742380Y-57507142D01*
X70790000Y-57411904D01*
X70837619Y-57364285D01*
X70932857Y-57316666D01*
X71075714Y-57316666D01*
X71170952Y-57364285D01*
X71218571Y-57411904D01*
X71266190Y-57507142D01*
X71266190Y-57888095D01*
X70742380Y-56459523D02*
X70742380Y-56650000D01*
X70790000Y-56745238D01*
X70837619Y-56792857D01*
X70980476Y-56888095D01*
X71170952Y-56935714D01*
X71551904Y-56935714D01*
X71647142Y-56888095D01*
X71694761Y-56840476D01*
X71742380Y-56745238D01*
X71742380Y-56554761D01*
X71694761Y-56459523D01*
X71647142Y-56411904D01*
X71551904Y-56364285D01*
X71313809Y-56364285D01*
X71218571Y-56411904D01*
X71170952Y-56459523D01*
X71123333Y-56554761D01*
X71123333Y-56745238D01*
X71170952Y-56840476D01*
X71218571Y-56888095D01*
X71313809Y-56935714D01*
X66662380Y-50966666D02*
X66186190Y-51300000D01*
X66662380Y-51538095D02*
X65662380Y-51538095D01*
X65662380Y-51157142D01*
X65710000Y-51061904D01*
X65757619Y-51014285D01*
X65852857Y-50966666D01*
X65995714Y-50966666D01*
X66090952Y-51014285D01*
X66138571Y-51061904D01*
X66186190Y-51157142D01*
X66186190Y-51538095D01*
X65662380Y-50061904D02*
X65662380Y-50538095D01*
X66138571Y-50585714D01*
X66090952Y-50538095D01*
X66043333Y-50442857D01*
X66043333Y-50204761D01*
X66090952Y-50109523D01*
X66138571Y-50061904D01*
X66233809Y-50014285D01*
X66471904Y-50014285D01*
X66567142Y-50061904D01*
X66614761Y-50109523D01*
X66662380Y-50204761D01*
X66662380Y-50442857D01*
X66614761Y-50538095D01*
X66567142Y-50585714D01*
X105287380Y-75898333D02*
X106001666Y-75898333D01*
X106144523Y-75945952D01*
X106239761Y-76041190D01*
X106287380Y-76184047D01*
X106287380Y-76279285D01*
X105715952Y-75279285D02*
X105668333Y-75374523D01*
X105620714Y-75422142D01*
X105525476Y-75469761D01*
X105477857Y-75469761D01*
X105382619Y-75422142D01*
X105335000Y-75374523D01*
X105287380Y-75279285D01*
X105287380Y-75088809D01*
X105335000Y-74993571D01*
X105382619Y-74945952D01*
X105477857Y-74898333D01*
X105525476Y-74898333D01*
X105620714Y-74945952D01*
X105668333Y-74993571D01*
X105715952Y-75088809D01*
X105715952Y-75279285D01*
X105763571Y-75374523D01*
X105811190Y-75422142D01*
X105906428Y-75469761D01*
X106096904Y-75469761D01*
X106192142Y-75422142D01*
X106239761Y-75374523D01*
X106287380Y-75279285D01*
X106287380Y-75088809D01*
X106239761Y-74993571D01*
X106192142Y-74945952D01*
X106096904Y-74898333D01*
X105906428Y-74898333D01*
X105811190Y-74945952D01*
X105763571Y-74993571D01*
X105715952Y-75088809D01*
X40092380Y-45211904D02*
X40901904Y-45211904D01*
X40997142Y-45164285D01*
X41044761Y-45116666D01*
X41092380Y-45021428D01*
X41092380Y-44830952D01*
X41044761Y-44735714D01*
X40997142Y-44688095D01*
X40901904Y-44640476D01*
X40092380Y-44640476D01*
X40187619Y-44211904D02*
X40140000Y-44164285D01*
X40092380Y-44069047D01*
X40092380Y-43830952D01*
X40140000Y-43735714D01*
X40187619Y-43688095D01*
X40282857Y-43640476D01*
X40378095Y-43640476D01*
X40520952Y-43688095D01*
X41092380Y-44259523D01*
X41092380Y-43640476D01*
X99682380Y-64301666D02*
X99206190Y-64635000D01*
X99682380Y-64873095D02*
X98682380Y-64873095D01*
X98682380Y-64492142D01*
X98730000Y-64396904D01*
X98777619Y-64349285D01*
X98872857Y-64301666D01*
X99015714Y-64301666D01*
X99110952Y-64349285D01*
X99158571Y-64396904D01*
X99206190Y-64492142D01*
X99206190Y-64873095D01*
X98682380Y-63968333D02*
X98682380Y-63349285D01*
X99063333Y-63682619D01*
X99063333Y-63539761D01*
X99110952Y-63444523D01*
X99158571Y-63396904D01*
X99253809Y-63349285D01*
X99491904Y-63349285D01*
X99587142Y-63396904D01*
X99634761Y-63444523D01*
X99682380Y-63539761D01*
X99682380Y-63825476D01*
X99634761Y-63920714D01*
X99587142Y-63968333D01*
X88733333Y-56162380D02*
X88400000Y-55686190D01*
X88161904Y-56162380D02*
X88161904Y-55162380D01*
X88542857Y-55162380D01*
X88638095Y-55210000D01*
X88685714Y-55257619D01*
X88733333Y-55352857D01*
X88733333Y-55495714D01*
X88685714Y-55590952D01*
X88638095Y-55638571D01*
X88542857Y-55686190D01*
X88161904Y-55686190D01*
X89114285Y-55257619D02*
X89161904Y-55210000D01*
X89257142Y-55162380D01*
X89495238Y-55162380D01*
X89590476Y-55210000D01*
X89638095Y-55257619D01*
X89685714Y-55352857D01*
X89685714Y-55448095D01*
X89638095Y-55590952D01*
X89066666Y-56162380D01*
X89685714Y-56162380D01*
X96353333Y-51082380D02*
X96020000Y-50606190D01*
X95781904Y-51082380D02*
X95781904Y-50082380D01*
X96162857Y-50082380D01*
X96258095Y-50130000D01*
X96305714Y-50177619D01*
X96353333Y-50272857D01*
X96353333Y-50415714D01*
X96305714Y-50510952D01*
X96258095Y-50558571D01*
X96162857Y-50606190D01*
X95781904Y-50606190D01*
X97305714Y-51082380D02*
X96734285Y-51082380D01*
X97020000Y-51082380D02*
X97020000Y-50082380D01*
X96924761Y-50225238D01*
X96829523Y-50320476D01*
X96734285Y-50368095D01*
X86677142Y-64896666D02*
X86724761Y-64944285D01*
X86772380Y-65087142D01*
X86772380Y-65182380D01*
X86724761Y-65325238D01*
X86629523Y-65420476D01*
X86534285Y-65468095D01*
X86343809Y-65515714D01*
X86200952Y-65515714D01*
X86010476Y-65468095D01*
X85915238Y-65420476D01*
X85820000Y-65325238D01*
X85772380Y-65182380D01*
X85772380Y-65087142D01*
X85820000Y-64944285D01*
X85867619Y-64896666D01*
X85867619Y-64515714D02*
X85820000Y-64468095D01*
X85772380Y-64372857D01*
X85772380Y-64134761D01*
X85820000Y-64039523D01*
X85867619Y-63991904D01*
X85962857Y-63944285D01*
X86058095Y-63944285D01*
X86200952Y-63991904D01*
X86772380Y-64563333D01*
X86772380Y-63944285D01*
X87423333Y-19447142D02*
X87375714Y-19494761D01*
X87232857Y-19542380D01*
X87137619Y-19542380D01*
X86994761Y-19494761D01*
X86899523Y-19399523D01*
X86851904Y-19304285D01*
X86804285Y-19113809D01*
X86804285Y-18970952D01*
X86851904Y-18780476D01*
X86899523Y-18685238D01*
X86994761Y-18590000D01*
X87137619Y-18542380D01*
X87232857Y-18542380D01*
X87375714Y-18590000D01*
X87423333Y-18637619D01*
X88375714Y-19542380D02*
X87804285Y-19542380D01*
X88090000Y-19542380D02*
X88090000Y-18542380D01*
X87994761Y-18685238D01*
X87899523Y-18780476D01*
X87804285Y-18828095D01*
X106346666Y-48982380D02*
X106346666Y-49696666D01*
X106299047Y-49839523D01*
X106203809Y-49934761D01*
X106060952Y-49982380D01*
X105965714Y-49982380D01*
X106727619Y-48982380D02*
X107394285Y-48982380D01*
X106965714Y-49982380D01*
X106346666Y-71842380D02*
X106346666Y-72556666D01*
X106299047Y-72699523D01*
X106203809Y-72794761D01*
X106060952Y-72842380D01*
X105965714Y-72842380D01*
X107299047Y-71842380D02*
X106822857Y-71842380D01*
X106775238Y-72318571D01*
X106822857Y-72270952D01*
X106918095Y-72223333D01*
X107156190Y-72223333D01*
X107251428Y-72270952D01*
X107299047Y-72318571D01*
X107346666Y-72413809D01*
X107346666Y-72651904D01*
X107299047Y-72747142D01*
X107251428Y-72794761D01*
X107156190Y-72842380D01*
X106918095Y-72842380D01*
X106822857Y-72794761D01*
X106775238Y-72747142D01*
X106346666Y-62952380D02*
X106346666Y-63666666D01*
X106299047Y-63809523D01*
X106203809Y-63904761D01*
X106060952Y-63952380D01*
X105965714Y-63952380D01*
X107251428Y-63285714D02*
X107251428Y-63952380D01*
X107013333Y-62904761D02*
X106775238Y-63619047D01*
X107394285Y-63619047D01*
%LPC*%
D12*
X83820000Y-59055000D03*
X81280000Y-59055000D03*
D13*
X78740000Y-59055000D03*
D14*
X77510000Y-64135000D03*
D15*
X80010000Y-64135000D03*
D16*
X77470000Y-70485000D03*
D14*
X67310000Y-70485000D03*
D17*
X60325000Y-77470000D03*
D18*
X60325000Y-72390000D03*
D19*
X73660000Y-76835000D03*
X73660000Y-74295000D03*
X76200000Y-76835000D03*
X76200000Y-74295000D03*
X78740000Y-76835000D03*
X78740000Y-74295000D03*
X81280000Y-76835000D03*
D20*
X81280000Y-74295000D03*
D12*
X110490000Y-35560000D03*
X107950000Y-35560000D03*
D13*
X105410000Y-35560000D03*
D16*
X85090000Y-25400000D03*
X77470000Y-48260000D03*
X85090000Y-27940000D03*
X77470000Y-45720000D03*
X85090000Y-30480000D03*
X77470000Y-43180000D03*
X85090000Y-33020000D03*
X77470000Y-40640000D03*
X85090000Y-35560000D03*
X77470000Y-38100000D03*
X85090000Y-38100000D03*
X77470000Y-35560000D03*
X85090000Y-40640000D03*
X77470000Y-33020000D03*
X85090000Y-43180000D03*
X77470000Y-30480000D03*
X85090000Y-45720000D03*
X77470000Y-27940000D03*
X85090000Y-48260000D03*
D15*
X77470000Y-25400000D03*
D19*
X38100000Y-66040000D03*
X35560000Y-66040000D03*
X38100000Y-63500000D03*
X35560000Y-63500000D03*
X38100000Y-60960000D03*
X35560000Y-60960000D03*
X38100000Y-58420000D03*
X35560000Y-58420000D03*
X38100000Y-55880000D03*
X35560000Y-55880000D03*
X38100000Y-53340000D03*
D20*
X35560000Y-53340000D03*
D21*
X97790000Y-54610000D03*
D22*
X102870000Y-54610000D03*
X100330000Y-54610000D03*
D21*
X92710000Y-67310000D03*
D22*
X92710000Y-62230000D03*
X92710000Y-64770000D03*
D21*
X68580000Y-62230000D03*
D22*
X68580000Y-67310000D03*
X68580000Y-64770000D03*
D16*
X73660000Y-52070000D03*
D14*
X73660000Y-62230000D03*
D16*
X68580000Y-45720000D03*
D14*
X68580000Y-55880000D03*
D19*
X90805000Y-76835000D03*
X90805000Y-74295000D03*
X93345000Y-76835000D03*
X93345000Y-74295000D03*
X95885000Y-76835000D03*
X95885000Y-74295000D03*
X98425000Y-76835000D03*
X98425000Y-74295000D03*
X100965000Y-76835000D03*
X100965000Y-74295000D03*
X103505000Y-76835000D03*
D20*
X103505000Y-74295000D03*
D23*
X110490000Y-77470000D03*
X110490000Y-24130000D03*
X38100000Y-77470000D03*
X38100000Y-24130000D03*
D19*
X96520000Y-40640000D03*
X96520000Y-38100000D03*
X96520000Y-35560000D03*
X96520000Y-33020000D03*
X96520000Y-30480000D03*
X96520000Y-27940000D03*
D20*
X96520000Y-25400000D03*
D19*
X93980000Y-40640000D03*
X91440000Y-40640000D03*
X93980000Y-38100000D03*
X91440000Y-38100000D03*
X93980000Y-35560000D03*
X91440000Y-35560000D03*
X93980000Y-33020000D03*
X91440000Y-33020000D03*
X93980000Y-30480000D03*
X91440000Y-30480000D03*
X93980000Y-27940000D03*
X91440000Y-27940000D03*
X93980000Y-25400000D03*
D20*
X91440000Y-25400000D03*
D19*
X71120000Y-40640000D03*
X68580000Y-40640000D03*
X71120000Y-38100000D03*
X68580000Y-38100000D03*
X71120000Y-35560000D03*
X68580000Y-35560000D03*
X71120000Y-33020000D03*
X68580000Y-33020000D03*
X71120000Y-30480000D03*
X68580000Y-30480000D03*
X71120000Y-27940000D03*
X68580000Y-27940000D03*
X71120000Y-25400000D03*
D20*
X68580000Y-25400000D03*
D24*
X62230000Y-25400000D03*
X44450000Y-25400000D03*
X62230000Y-66040000D03*
D25*
X44450000Y-66040000D03*
D16*
X101600000Y-59055000D03*
D14*
X101600000Y-69215000D03*
D16*
X83820000Y-53340000D03*
D14*
X93980000Y-53340000D03*
D16*
X91440000Y-48260000D03*
D14*
X101600000Y-48260000D03*
X83820000Y-67230000D03*
X83820000Y-62230000D03*
X90090000Y-21590000D03*
X85090000Y-21590000D03*
D26*
X109220000Y-46990000D03*
X109220000Y-44450000D03*
G36*
G01*
X108374999Y-41040000D02*
X110065001Y-41040000D01*
G75*
G02*
X110315000Y-41289999I0J-249999D01*
G01*
X110315000Y-42530001D01*
G75*
G02*
X110065001Y-42780000I-249999J0D01*
G01*
X108374999Y-42780000D01*
G75*
G02*
X108125000Y-42530001I0J249999D01*
G01*
X108125000Y-41289999D01*
G75*
G02*
X108374999Y-41040000I249999J0D01*
G01*
G37*
X109220000Y-69850000D03*
G36*
G01*
X108374999Y-66440000D02*
X110065001Y-66440000D01*
G75*
G02*
X110315000Y-66689999I0J-249999D01*
G01*
X110315000Y-67930001D01*
G75*
G02*
X110065001Y-68180000I-249999J0D01*
G01*
X108374999Y-68180000D01*
G75*
G02*
X108125000Y-67930001I0J249999D01*
G01*
X108125000Y-66689999D01*
G75*
G02*
X108374999Y-66440000I249999J0D01*
G01*
G37*
X109220000Y-60960000D03*
X109220000Y-58420000D03*
X109220000Y-55880000D03*
G36*
G01*
X108374999Y-52470000D02*
X110065001Y-52470000D01*
G75*
G02*
X110315000Y-52719999I0J-249999D01*
G01*
X110315000Y-53960001D01*
G75*
G02*
X110065001Y-54210000I-249999J0D01*
G01*
X108374999Y-54210000D01*
G75*
G02*
X108125000Y-53960001I0J249999D01*
G01*
X108125000Y-52719999D01*
G75*
G02*
X108374999Y-52470000I249999J0D01*
G01*
G37*
M02*
