%FSLAX45Y45*%
G04 Gerber Fmt 4.5, Leading zero omitted, Abs format (unit mm)*
G04 Created by KiCad (PCBNEW (5.1.10)-1) date 2021-09-17 19:58:28*
%MOMM*%
%LPD*%
G01*
G04 APERTURE LIST*
%TA.AperFunction,Profile*%
%ADD10C,0.100000*%
%TD*%
%ADD11C,0.200000*%
%ADD12C,0.300000*%
G04 APERTURE END LIST*
D10*
X11684000Y-1778000D02*
X11684000Y-8255000D01*
X3175000Y-1778000D02*
X11684000Y-1778000D01*
X3175000Y-8255000D02*
X3175000Y-1778000D01*
X11684000Y-8255000D02*
X3175000Y-8255000D01*
D11*
X6691000Y-7008500D02*
X6771000Y-7088500D01*
X6771000Y-7008500D02*
X6691000Y-7088500D01*
X6818000Y-4532000D02*
X6898000Y-4612000D01*
X6898000Y-4532000D02*
X6818000Y-4612000D01*
X6818000Y-5548000D02*
X6898000Y-5628000D01*
X6898000Y-5548000D02*
X6818000Y-5628000D01*
X6818000Y-6183000D02*
X6898000Y-6263000D01*
X6898000Y-6183000D02*
X6818000Y-6263000D01*
X6818000Y-6437000D02*
X6898000Y-6517000D01*
X6898000Y-6437000D02*
X6818000Y-6517000D01*
X6818000Y-6691000D02*
X6898000Y-6771000D01*
X6898000Y-6691000D02*
X6818000Y-6771000D01*
X7326000Y-5167000D02*
X7406000Y-5247000D01*
X7406000Y-5167000D02*
X7326000Y-5247000D01*
X7326000Y-6183000D02*
X7406000Y-6263000D01*
X7406000Y-6183000D02*
X7326000Y-6263000D01*
X7707000Y-2500000D02*
X7787000Y-2580000D01*
X7787000Y-2500000D02*
X7707000Y-2580000D01*
X7707000Y-2754000D02*
X7787000Y-2834000D01*
X7787000Y-2754000D02*
X7707000Y-2834000D01*
X7707000Y-3008000D02*
X7787000Y-3088000D01*
X7787000Y-3008000D02*
X7707000Y-3088000D01*
X7707000Y-3262000D02*
X7787000Y-3342000D01*
X7787000Y-3262000D02*
X7707000Y-3342000D01*
X7707000Y-3516000D02*
X7787000Y-3596000D01*
X7787000Y-3516000D02*
X7707000Y-3596000D01*
X7707000Y-3770000D02*
X7787000Y-3850000D01*
X7787000Y-3770000D02*
X7707000Y-3850000D01*
X7707000Y-4024000D02*
X7787000Y-4104000D01*
X7787000Y-4024000D02*
X7707000Y-4104000D01*
X7707000Y-4278000D02*
X7787000Y-4358000D01*
X7787000Y-4278000D02*
X7707000Y-4358000D01*
X7707000Y-4532000D02*
X7787000Y-4612000D01*
X7787000Y-4532000D02*
X7707000Y-4612000D01*
X7707000Y-4786000D02*
X7787000Y-4866000D01*
X7787000Y-4786000D02*
X7707000Y-4866000D01*
X7707000Y-7008500D02*
X7787000Y-7088500D01*
X7787000Y-7008500D02*
X7707000Y-7088500D01*
X7711000Y-6373500D02*
X7791000Y-6453500D01*
X7791000Y-6373500D02*
X7711000Y-6453500D01*
X7961000Y-6373500D02*
X8041000Y-6453500D01*
X8041000Y-6373500D02*
X7961000Y-6453500D01*
X8342000Y-5294000D02*
X8422000Y-5374000D01*
X8422000Y-5294000D02*
X8342000Y-5374000D01*
X8342000Y-6183000D02*
X8422000Y-6263000D01*
X8422000Y-6183000D02*
X8342000Y-6263000D01*
X8342000Y-6683000D02*
X8422000Y-6763000D01*
X8422000Y-6683000D02*
X8342000Y-6763000D01*
X8469000Y-2119000D02*
X8549000Y-2199000D01*
X8549000Y-2119000D02*
X8469000Y-2199000D01*
X8469000Y-2500000D02*
X8549000Y-2580000D01*
X8549000Y-2500000D02*
X8469000Y-2580000D01*
X8469000Y-2754000D02*
X8549000Y-2834000D01*
X8549000Y-2754000D02*
X8469000Y-2834000D01*
X8469000Y-3008000D02*
X8549000Y-3088000D01*
X8549000Y-3008000D02*
X8469000Y-3088000D01*
X8469000Y-3262000D02*
X8549000Y-3342000D01*
X8549000Y-3262000D02*
X8469000Y-3342000D01*
X8469000Y-3516000D02*
X8549000Y-3596000D01*
X8549000Y-3516000D02*
X8469000Y-3596000D01*
X8469000Y-3770000D02*
X8549000Y-3850000D01*
X8549000Y-3770000D02*
X8469000Y-3850000D01*
X8469000Y-4024000D02*
X8549000Y-4104000D01*
X8549000Y-4024000D02*
X8469000Y-4104000D01*
X8469000Y-4278000D02*
X8549000Y-4358000D01*
X8549000Y-4278000D02*
X8469000Y-4358000D01*
X8469000Y-4532000D02*
X8549000Y-4612000D01*
X8549000Y-4532000D02*
X8469000Y-4612000D01*
X8469000Y-4786000D02*
X8549000Y-4866000D01*
X8549000Y-4786000D02*
X8469000Y-4866000D01*
X8969000Y-2119000D02*
X9049000Y-2199000D01*
X9049000Y-2119000D02*
X8969000Y-2199000D01*
X9104000Y-4786000D02*
X9184000Y-4866000D01*
X9184000Y-4786000D02*
X9104000Y-4866000D01*
X9231000Y-6183000D02*
X9311000Y-6263000D01*
X9311000Y-6183000D02*
X9231000Y-6263000D01*
X9231000Y-6437000D02*
X9311000Y-6517000D01*
X9311000Y-6437000D02*
X9231000Y-6517000D01*
X9231000Y-6691000D02*
X9311000Y-6771000D01*
X9311000Y-6691000D02*
X9231000Y-6771000D01*
X9358000Y-5294000D02*
X9438000Y-5374000D01*
X9438000Y-5294000D02*
X9358000Y-5374000D01*
X9739000Y-5421000D02*
X9819000Y-5501000D01*
X9819000Y-5421000D02*
X9739000Y-5501000D01*
X9993000Y-5421000D02*
X10073000Y-5501000D01*
X10073000Y-5421000D02*
X9993000Y-5501000D01*
X10120000Y-4786000D02*
X10200000Y-4866000D01*
X10200000Y-4786000D02*
X10120000Y-4866000D01*
X10120000Y-5865500D02*
X10200000Y-5945500D01*
X10200000Y-5865500D02*
X10120000Y-5945500D01*
X10120000Y-6881500D02*
X10200000Y-6961500D01*
X10200000Y-6881500D02*
X10120000Y-6961500D01*
X10247000Y-5421000D02*
X10327000Y-5501000D01*
X10327000Y-5421000D02*
X10247000Y-5501000D01*
X3606000Y-5334000D02*
G75*
G03*
X3606000Y-5334000I-50000J0D01*
G01*
X3606000Y-5588000D02*
G75*
G03*
X3606000Y-5588000I-50000J0D01*
G01*
X3606000Y-5842000D02*
G75*
G03*
X3606000Y-5842000I-50000J0D01*
G01*
X3606000Y-6096000D02*
G75*
G03*
X3606000Y-6096000I-50000J0D01*
G01*
X3606000Y-6350000D02*
G75*
G03*
X3606000Y-6350000I-50000J0D01*
G01*
X3606000Y-6604000D02*
G75*
G03*
X3606000Y-6604000I-50000J0D01*
G01*
X3860000Y-5334000D02*
G75*
G03*
X3860000Y-5334000I-50000J0D01*
G01*
X3860000Y-5588000D02*
G75*
G03*
X3860000Y-5588000I-50000J0D01*
G01*
X3860000Y-5842000D02*
G75*
G03*
X3860000Y-5842000I-50000J0D01*
G01*
X3860000Y-6096000D02*
G75*
G03*
X3860000Y-6096000I-50000J0D01*
G01*
X3860000Y-6350000D02*
G75*
G03*
X3860000Y-6350000I-50000J0D01*
G01*
X3860000Y-6604000D02*
G75*
G03*
X3860000Y-6604000I-50000J0D01*
G01*
X4495000Y-2540000D02*
G75*
G03*
X4495000Y-2540000I-50000J0D01*
G01*
X4495000Y-6604000D02*
G75*
G03*
X4495000Y-6604000I-50000J0D01*
G01*
X6082500Y-7239000D02*
G75*
G03*
X6082500Y-7239000I-50000J0D01*
G01*
X6082500Y-7747000D02*
G75*
G03*
X6082500Y-7747000I-50000J0D01*
G01*
X6273000Y-2540000D02*
G75*
G03*
X6273000Y-2540000I-50000J0D01*
G01*
X6273000Y-6604000D02*
G75*
G03*
X6273000Y-6604000I-50000J0D01*
G01*
X6908000Y-2540000D02*
G75*
G03*
X6908000Y-2540000I-50000J0D01*
G01*
X6908000Y-2794000D02*
G75*
G03*
X6908000Y-2794000I-50000J0D01*
G01*
X6908000Y-3048000D02*
G75*
G03*
X6908000Y-3048000I-50000J0D01*
G01*
X6908000Y-3302000D02*
G75*
G03*
X6908000Y-3302000I-50000J0D01*
G01*
X6908000Y-3556000D02*
G75*
G03*
X6908000Y-3556000I-50000J0D01*
G01*
X6908000Y-3810000D02*
G75*
G03*
X6908000Y-3810000I-50000J0D01*
G01*
X6908000Y-4064000D02*
G75*
G03*
X6908000Y-4064000I-50000J0D01*
G01*
X7162000Y-2540000D02*
G75*
G03*
X7162000Y-2540000I-50000J0D01*
G01*
X7162000Y-2794000D02*
G75*
G03*
X7162000Y-2794000I-50000J0D01*
G01*
X7162000Y-3048000D02*
G75*
G03*
X7162000Y-3048000I-50000J0D01*
G01*
X7162000Y-3302000D02*
G75*
G03*
X7162000Y-3302000I-50000J0D01*
G01*
X7162000Y-3556000D02*
G75*
G03*
X7162000Y-3556000I-50000J0D01*
G01*
X7162000Y-3810000D02*
G75*
G03*
X7162000Y-3810000I-50000J0D01*
G01*
X7162000Y-4064000D02*
G75*
G03*
X7162000Y-4064000I-50000J0D01*
G01*
X7416000Y-7429500D02*
G75*
G03*
X7416000Y-7429500I-50000J0D01*
G01*
X7416000Y-7683500D02*
G75*
G03*
X7416000Y-7683500I-50000J0D01*
G01*
X7670000Y-7429500D02*
G75*
G03*
X7670000Y-7429500I-50000J0D01*
G01*
X7670000Y-7683500D02*
G75*
G03*
X7670000Y-7683500I-50000J0D01*
G01*
X7924000Y-7429500D02*
G75*
G03*
X7924000Y-7429500I-50000J0D01*
G01*
X7924000Y-7683500D02*
G75*
G03*
X7924000Y-7683500I-50000J0D01*
G01*
X8178000Y-7429500D02*
G75*
G03*
X8178000Y-7429500I-50000J0D01*
G01*
X8178000Y-7683500D02*
G75*
G03*
X8178000Y-7683500I-50000J0D01*
G01*
X9130500Y-7429500D02*
G75*
G03*
X9130500Y-7429500I-50000J0D01*
G01*
X9130500Y-7683500D02*
G75*
G03*
X9130500Y-7683500I-50000J0D01*
G01*
X9194000Y-2540000D02*
G75*
G03*
X9194000Y-2540000I-50000J0D01*
G01*
X9194000Y-2794000D02*
G75*
G03*
X9194000Y-2794000I-50000J0D01*
G01*
X9194000Y-3048000D02*
G75*
G03*
X9194000Y-3048000I-50000J0D01*
G01*
X9194000Y-3302000D02*
G75*
G03*
X9194000Y-3302000I-50000J0D01*
G01*
X9194000Y-3556000D02*
G75*
G03*
X9194000Y-3556000I-50000J0D01*
G01*
X9194000Y-3810000D02*
G75*
G03*
X9194000Y-3810000I-50000J0D01*
G01*
X9194000Y-4064000D02*
G75*
G03*
X9194000Y-4064000I-50000J0D01*
G01*
X9384500Y-7429500D02*
G75*
G03*
X9384500Y-7429500I-50000J0D01*
G01*
X9384500Y-7683500D02*
G75*
G03*
X9384500Y-7683500I-50000J0D01*
G01*
X9448000Y-2540000D02*
G75*
G03*
X9448000Y-2540000I-50000J0D01*
G01*
X9448000Y-2794000D02*
G75*
G03*
X9448000Y-2794000I-50000J0D01*
G01*
X9448000Y-3048000D02*
G75*
G03*
X9448000Y-3048000I-50000J0D01*
G01*
X9448000Y-3302000D02*
G75*
G03*
X9448000Y-3302000I-50000J0D01*
G01*
X9448000Y-3556000D02*
G75*
G03*
X9448000Y-3556000I-50000J0D01*
G01*
X9448000Y-3810000D02*
G75*
G03*
X9448000Y-3810000I-50000J0D01*
G01*
X9448000Y-4064000D02*
G75*
G03*
X9448000Y-4064000I-50000J0D01*
G01*
X9638500Y-7429500D02*
G75*
G03*
X9638500Y-7429500I-50000J0D01*
G01*
X9638500Y-7683500D02*
G75*
G03*
X9638500Y-7683500I-50000J0D01*
G01*
X9702000Y-2540000D02*
G75*
G03*
X9702000Y-2540000I-50000J0D01*
G01*
X9702000Y-2794000D02*
G75*
G03*
X9702000Y-2794000I-50000J0D01*
G01*
X9702000Y-3048000D02*
G75*
G03*
X9702000Y-3048000I-50000J0D01*
G01*
X9702000Y-3302000D02*
G75*
G03*
X9702000Y-3302000I-50000J0D01*
G01*
X9702000Y-3556000D02*
G75*
G03*
X9702000Y-3556000I-50000J0D01*
G01*
X9702000Y-3810000D02*
G75*
G03*
X9702000Y-3810000I-50000J0D01*
G01*
X9702000Y-4064000D02*
G75*
G03*
X9702000Y-4064000I-50000J0D01*
G01*
X9892500Y-7429500D02*
G75*
G03*
X9892500Y-7429500I-50000J0D01*
G01*
X9892500Y-7683500D02*
G75*
G03*
X9892500Y-7683500I-50000J0D01*
G01*
X10146500Y-7429500D02*
G75*
G03*
X10146500Y-7429500I-50000J0D01*
G01*
X10146500Y-7683500D02*
G75*
G03*
X10146500Y-7683500I-50000J0D01*
G01*
X10400500Y-7429500D02*
G75*
G03*
X10400500Y-7429500I-50000J0D01*
G01*
X10400500Y-7683500D02*
G75*
G03*
X10400500Y-7683500I-50000J0D01*
G01*
X7874000Y-5850500D02*
X7874000Y-5960500D01*
X7819000Y-5905500D02*
X7929000Y-5905500D01*
X8128000Y-5850500D02*
X8128000Y-5960500D01*
X8073000Y-5905500D02*
X8183000Y-5905500D01*
X8382000Y-5850500D02*
X8382000Y-5960500D01*
X8327000Y-5905500D02*
X8437000Y-5905500D01*
X10541000Y-3501000D02*
X10541000Y-3611000D01*
X10486000Y-3556000D02*
X10596000Y-3556000D01*
X10795000Y-3501000D02*
X10795000Y-3611000D01*
X10740000Y-3556000D02*
X10850000Y-3556000D01*
X11049000Y-3501000D02*
X11049000Y-3611000D01*
X10994000Y-3556000D02*
X11104000Y-3556000D01*
X10964073Y-4233073D02*
X10964073Y-4148927D01*
X10879927Y-4148927D01*
X10879927Y-4233073D01*
X10964073Y-4233073D01*
X10964073Y-4487073D02*
X10964073Y-4402927D01*
X10879927Y-4402927D01*
X10879927Y-4487073D01*
X10964073Y-4487073D01*
X10964073Y-4741073D02*
X10964073Y-4656927D01*
X10879927Y-4656927D01*
X10879927Y-4741073D01*
X10964073Y-4741073D01*
X10964073Y-5376073D02*
X10964073Y-5291927D01*
X10879927Y-5291927D01*
X10879927Y-5376073D01*
X10964073Y-5376073D01*
X10964073Y-5630073D02*
X10964073Y-5545927D01*
X10879927Y-5545927D01*
X10879927Y-5630073D01*
X10964073Y-5630073D01*
X10964073Y-5884073D02*
X10964073Y-5799927D01*
X10879927Y-5799927D01*
X10879927Y-5884073D01*
X10964073Y-5884073D01*
X10964073Y-6138073D02*
X10964073Y-6053927D01*
X10879927Y-6053927D01*
X10879927Y-6138073D01*
X10964073Y-6138073D01*
X10964073Y-6773073D02*
X10964073Y-6688927D01*
X10879927Y-6688927D01*
X10879927Y-6773073D01*
X10964073Y-6773073D01*
X10964073Y-7027073D02*
X10964073Y-6942927D01*
X10879927Y-6942927D01*
X10879927Y-7027073D01*
X10964073Y-7027073D01*
D12*
X3456428Y-8725714D02*
X3456428Y-8425714D01*
X3527857Y-8425714D01*
X3570714Y-8440000D01*
X3599286Y-8468572D01*
X3613571Y-8497143D01*
X3627857Y-8554286D01*
X3627857Y-8597143D01*
X3613571Y-8654286D01*
X3599286Y-8682857D01*
X3570714Y-8711429D01*
X3527857Y-8725714D01*
X3456428Y-8725714D01*
X3756428Y-8725714D02*
X3756428Y-8525714D01*
X3756428Y-8582857D02*
X3770714Y-8554286D01*
X3785000Y-8540000D01*
X3813571Y-8525714D01*
X3842143Y-8525714D01*
X3942143Y-8725714D02*
X3942143Y-8525714D01*
X3942143Y-8425714D02*
X3927857Y-8440000D01*
X3942143Y-8454286D01*
X3956428Y-8440000D01*
X3942143Y-8425714D01*
X3942143Y-8454286D01*
X4127857Y-8725714D02*
X4099286Y-8711429D01*
X4085000Y-8682857D01*
X4085000Y-8425714D01*
X4285000Y-8725714D02*
X4256428Y-8711429D01*
X4242143Y-8682857D01*
X4242143Y-8425714D01*
X4627857Y-8725714D02*
X4627857Y-8425714D01*
X4727857Y-8640000D01*
X4827857Y-8425714D01*
X4827857Y-8725714D01*
X5099286Y-8725714D02*
X5099286Y-8568572D01*
X5085000Y-8540000D01*
X5056428Y-8525714D01*
X4999286Y-8525714D01*
X4970714Y-8540000D01*
X5099286Y-8711429D02*
X5070714Y-8725714D01*
X4999286Y-8725714D01*
X4970714Y-8711429D01*
X4956428Y-8682857D01*
X4956428Y-8654286D01*
X4970714Y-8625714D01*
X4999286Y-8611429D01*
X5070714Y-8611429D01*
X5099286Y-8597143D01*
X5242143Y-8525714D02*
X5242143Y-8825714D01*
X5242143Y-8540000D02*
X5270714Y-8525714D01*
X5327857Y-8525714D01*
X5356428Y-8540000D01*
X5370714Y-8554286D01*
X5385000Y-8582857D01*
X5385000Y-8668572D01*
X5370714Y-8697143D01*
X5356428Y-8711429D01*
X5327857Y-8725714D01*
X5270714Y-8725714D01*
X5242143Y-8711429D01*
X5513571Y-8697143D02*
X5527857Y-8711429D01*
X5513571Y-8725714D01*
X5499286Y-8711429D01*
X5513571Y-8697143D01*
X5513571Y-8725714D01*
X5513571Y-8540000D02*
X5527857Y-8554286D01*
X5513571Y-8568572D01*
X5499286Y-8554286D01*
X5513571Y-8540000D01*
X5513571Y-8568572D01*
X3090000Y-9180000D02*
X3170000Y-9260000D01*
X3170000Y-9180000D02*
X3090000Y-9260000D01*
X3513571Y-9055714D02*
X3542143Y-9055714D01*
X3570714Y-9070000D01*
X3585000Y-9084286D01*
X3599286Y-9112857D01*
X3613571Y-9170000D01*
X3613571Y-9241429D01*
X3599286Y-9298572D01*
X3585000Y-9327143D01*
X3570714Y-9341429D01*
X3542143Y-9355714D01*
X3513571Y-9355714D01*
X3485000Y-9341429D01*
X3470714Y-9327143D01*
X3456428Y-9298572D01*
X3442143Y-9241429D01*
X3442143Y-9170000D01*
X3456428Y-9112857D01*
X3470714Y-9084286D01*
X3485000Y-9070000D01*
X3513571Y-9055714D01*
X3742143Y-9327143D02*
X3756428Y-9341429D01*
X3742143Y-9355714D01*
X3727857Y-9341429D01*
X3742143Y-9327143D01*
X3742143Y-9355714D01*
X3927857Y-9184286D02*
X3899286Y-9170000D01*
X3885000Y-9155714D01*
X3870714Y-9127143D01*
X3870714Y-9112857D01*
X3885000Y-9084286D01*
X3899286Y-9070000D01*
X3927857Y-9055714D01*
X3985000Y-9055714D01*
X4013571Y-9070000D01*
X4027857Y-9084286D01*
X4042143Y-9112857D01*
X4042143Y-9127143D01*
X4027857Y-9155714D01*
X4013571Y-9170000D01*
X3985000Y-9184286D01*
X3927857Y-9184286D01*
X3899286Y-9198572D01*
X3885000Y-9212857D01*
X3870714Y-9241429D01*
X3870714Y-9298572D01*
X3885000Y-9327143D01*
X3899286Y-9341429D01*
X3927857Y-9355714D01*
X3985000Y-9355714D01*
X4013571Y-9341429D01*
X4027857Y-9327143D01*
X4042143Y-9298572D01*
X4042143Y-9241429D01*
X4027857Y-9212857D01*
X4013571Y-9198572D01*
X3985000Y-9184286D01*
X4227857Y-9055714D02*
X4256428Y-9055714D01*
X4285000Y-9070000D01*
X4299286Y-9084286D01*
X4313571Y-9112857D01*
X4327857Y-9170000D01*
X4327857Y-9241429D01*
X4313571Y-9298572D01*
X4299286Y-9327143D01*
X4285000Y-9341429D01*
X4256428Y-9355714D01*
X4227857Y-9355714D01*
X4199286Y-9341429D01*
X4185000Y-9327143D01*
X4170714Y-9298572D01*
X4156428Y-9241429D01*
X4156428Y-9170000D01*
X4170714Y-9112857D01*
X4185000Y-9084286D01*
X4199286Y-9070000D01*
X4227857Y-9055714D01*
X4513571Y-9055714D02*
X4542143Y-9055714D01*
X4570714Y-9070000D01*
X4585000Y-9084286D01*
X4599286Y-9112857D01*
X4613571Y-9170000D01*
X4613571Y-9241429D01*
X4599286Y-9298572D01*
X4585000Y-9327143D01*
X4570714Y-9341429D01*
X4542143Y-9355714D01*
X4513571Y-9355714D01*
X4485000Y-9341429D01*
X4470714Y-9327143D01*
X4456428Y-9298572D01*
X4442143Y-9241429D01*
X4442143Y-9170000D01*
X4456428Y-9112857D01*
X4470714Y-9084286D01*
X4485000Y-9070000D01*
X4513571Y-9055714D01*
X4742143Y-9355714D02*
X4742143Y-9155714D01*
X4742143Y-9184286D02*
X4756428Y-9170000D01*
X4785000Y-9155714D01*
X4827857Y-9155714D01*
X4856428Y-9170000D01*
X4870714Y-9198572D01*
X4870714Y-9355714D01*
X4870714Y-9198572D02*
X4885000Y-9170000D01*
X4913571Y-9155714D01*
X4956428Y-9155714D01*
X4985000Y-9170000D01*
X4999286Y-9198572D01*
X4999286Y-9355714D01*
X5142143Y-9355714D02*
X5142143Y-9155714D01*
X5142143Y-9184286D02*
X5156428Y-9170000D01*
X5185000Y-9155714D01*
X5227857Y-9155714D01*
X5256428Y-9170000D01*
X5270714Y-9198572D01*
X5270714Y-9355714D01*
X5270714Y-9198572D02*
X5285000Y-9170000D01*
X5313571Y-9155714D01*
X5356428Y-9155714D01*
X5385000Y-9170000D01*
X5399286Y-9198572D01*
X5399286Y-9355714D01*
X5985000Y-9041429D02*
X5727857Y-9427143D01*
X6370714Y-9055714D02*
X6399286Y-9055714D01*
X6427857Y-9070000D01*
X6442143Y-9084286D01*
X6456428Y-9112857D01*
X6470714Y-9170000D01*
X6470714Y-9241429D01*
X6456428Y-9298572D01*
X6442143Y-9327143D01*
X6427857Y-9341429D01*
X6399286Y-9355714D01*
X6370714Y-9355714D01*
X6342143Y-9341429D01*
X6327857Y-9327143D01*
X6313571Y-9298572D01*
X6299286Y-9241429D01*
X6299286Y-9170000D01*
X6313571Y-9112857D01*
X6327857Y-9084286D01*
X6342143Y-9070000D01*
X6370714Y-9055714D01*
X6599286Y-9327143D02*
X6613571Y-9341429D01*
X6599286Y-9355714D01*
X6585000Y-9341429D01*
X6599286Y-9327143D01*
X6599286Y-9355714D01*
X6799286Y-9055714D02*
X6827857Y-9055714D01*
X6856428Y-9070000D01*
X6870714Y-9084286D01*
X6885000Y-9112857D01*
X6899286Y-9170000D01*
X6899286Y-9241429D01*
X6885000Y-9298572D01*
X6870714Y-9327143D01*
X6856428Y-9341429D01*
X6827857Y-9355714D01*
X6799286Y-9355714D01*
X6770714Y-9341429D01*
X6756428Y-9327143D01*
X6742143Y-9298572D01*
X6727857Y-9241429D01*
X6727857Y-9170000D01*
X6742143Y-9112857D01*
X6756428Y-9084286D01*
X6770714Y-9070000D01*
X6799286Y-9055714D01*
X6999286Y-9055714D02*
X7185000Y-9055714D01*
X7085000Y-9170000D01*
X7127857Y-9170000D01*
X7156428Y-9184286D01*
X7170714Y-9198572D01*
X7185000Y-9227143D01*
X7185000Y-9298572D01*
X7170714Y-9327143D01*
X7156428Y-9341429D01*
X7127857Y-9355714D01*
X7042143Y-9355714D01*
X7013571Y-9341429D01*
X6999286Y-9327143D01*
X7470714Y-9355714D02*
X7299286Y-9355714D01*
X7385000Y-9355714D02*
X7385000Y-9055714D01*
X7356428Y-9098572D01*
X7327857Y-9127143D01*
X7299286Y-9141429D01*
X7742143Y-9055714D02*
X7599286Y-9055714D01*
X7585000Y-9198572D01*
X7599286Y-9184286D01*
X7627857Y-9170000D01*
X7699286Y-9170000D01*
X7727857Y-9184286D01*
X7742143Y-9198572D01*
X7756428Y-9227143D01*
X7756428Y-9298572D01*
X7742143Y-9327143D01*
X7727857Y-9341429D01*
X7699286Y-9355714D01*
X7627857Y-9355714D01*
X7599286Y-9341429D01*
X7585000Y-9327143D01*
X7870714Y-9055714D02*
X7870714Y-9112857D01*
X7985000Y-9055714D02*
X7985000Y-9112857D01*
X8427857Y-9470000D02*
X8413571Y-9455714D01*
X8385000Y-9412857D01*
X8370714Y-9384286D01*
X8356428Y-9341429D01*
X8342143Y-9270000D01*
X8342143Y-9212857D01*
X8356428Y-9141429D01*
X8370714Y-9098572D01*
X8385000Y-9070000D01*
X8413571Y-9027143D01*
X8427857Y-9012857D01*
X8670714Y-9155714D02*
X8670714Y-9355714D01*
X8599286Y-9041429D02*
X8527857Y-9255714D01*
X8713571Y-9255714D01*
X8799286Y-9055714D02*
X8999286Y-9055714D01*
X8870714Y-9355714D01*
X9342143Y-9355714D02*
X9342143Y-9055714D01*
X9470714Y-9355714D02*
X9470714Y-9198572D01*
X9456428Y-9170000D01*
X9427857Y-9155714D01*
X9385000Y-9155714D01*
X9356428Y-9170000D01*
X9342143Y-9184286D01*
X9656428Y-9355714D02*
X9627857Y-9341429D01*
X9613571Y-9327143D01*
X9599286Y-9298572D01*
X9599286Y-9212857D01*
X9613571Y-9184286D01*
X9627857Y-9170000D01*
X9656428Y-9155714D01*
X9699286Y-9155714D01*
X9727857Y-9170000D01*
X9742143Y-9184286D01*
X9756428Y-9212857D01*
X9756428Y-9298572D01*
X9742143Y-9327143D01*
X9727857Y-9341429D01*
X9699286Y-9355714D01*
X9656428Y-9355714D01*
X9927857Y-9355714D02*
X9899286Y-9341429D01*
X9885000Y-9312857D01*
X9885000Y-9055714D01*
X10156428Y-9341429D02*
X10127857Y-9355714D01*
X10070714Y-9355714D01*
X10042143Y-9341429D01*
X10027857Y-9312857D01*
X10027857Y-9198572D01*
X10042143Y-9170000D01*
X10070714Y-9155714D01*
X10127857Y-9155714D01*
X10156428Y-9170000D01*
X10170714Y-9198572D01*
X10170714Y-9227143D01*
X10027857Y-9255714D01*
X10285000Y-9341429D02*
X10313571Y-9355714D01*
X10370714Y-9355714D01*
X10399286Y-9341429D01*
X10413571Y-9312857D01*
X10413571Y-9298572D01*
X10399286Y-9270000D01*
X10370714Y-9255714D01*
X10327857Y-9255714D01*
X10299286Y-9241429D01*
X10285000Y-9212857D01*
X10285000Y-9198572D01*
X10299286Y-9170000D01*
X10327857Y-9155714D01*
X10370714Y-9155714D01*
X10399286Y-9170000D01*
X10513571Y-9470000D02*
X10527857Y-9455714D01*
X10556428Y-9412857D01*
X10570714Y-9384286D01*
X10585000Y-9341429D01*
X10599286Y-9270000D01*
X10599286Y-9212857D01*
X10585000Y-9141429D01*
X10570714Y-9098572D01*
X10556428Y-9070000D01*
X10527857Y-9027143D01*
X10513571Y-9012857D01*
X3170000Y-9616000D02*
G75*
G03*
X3170000Y-9616000I-50000J0D01*
G01*
X3613571Y-9751714D02*
X3442143Y-9751714D01*
X3527857Y-9751714D02*
X3527857Y-9451714D01*
X3499286Y-9494572D01*
X3470714Y-9523143D01*
X3442143Y-9537429D01*
X3742143Y-9723143D02*
X3756428Y-9737429D01*
X3742143Y-9751714D01*
X3727857Y-9737429D01*
X3742143Y-9723143D01*
X3742143Y-9751714D01*
X3942143Y-9451714D02*
X3970714Y-9451714D01*
X3999286Y-9466000D01*
X4013571Y-9480286D01*
X4027857Y-9508857D01*
X4042143Y-9566000D01*
X4042143Y-9637429D01*
X4027857Y-9694572D01*
X4013571Y-9723143D01*
X3999286Y-9737429D01*
X3970714Y-9751714D01*
X3942143Y-9751714D01*
X3913571Y-9737429D01*
X3899286Y-9723143D01*
X3885000Y-9694572D01*
X3870714Y-9637429D01*
X3870714Y-9566000D01*
X3885000Y-9508857D01*
X3899286Y-9480286D01*
X3913571Y-9466000D01*
X3942143Y-9451714D01*
X4227857Y-9451714D02*
X4256428Y-9451714D01*
X4285000Y-9466000D01*
X4299286Y-9480286D01*
X4313571Y-9508857D01*
X4327857Y-9566000D01*
X4327857Y-9637429D01*
X4313571Y-9694572D01*
X4299286Y-9723143D01*
X4285000Y-9737429D01*
X4256428Y-9751714D01*
X4227857Y-9751714D01*
X4199286Y-9737429D01*
X4185000Y-9723143D01*
X4170714Y-9694572D01*
X4156428Y-9637429D01*
X4156428Y-9566000D01*
X4170714Y-9508857D01*
X4185000Y-9480286D01*
X4199286Y-9466000D01*
X4227857Y-9451714D01*
X4513571Y-9451714D02*
X4542143Y-9451714D01*
X4570714Y-9466000D01*
X4585000Y-9480286D01*
X4599286Y-9508857D01*
X4613571Y-9566000D01*
X4613571Y-9637429D01*
X4599286Y-9694572D01*
X4585000Y-9723143D01*
X4570714Y-9737429D01*
X4542143Y-9751714D01*
X4513571Y-9751714D01*
X4485000Y-9737429D01*
X4470714Y-9723143D01*
X4456428Y-9694572D01*
X4442143Y-9637429D01*
X4442143Y-9566000D01*
X4456428Y-9508857D01*
X4470714Y-9480286D01*
X4485000Y-9466000D01*
X4513571Y-9451714D01*
X4742143Y-9751714D02*
X4742143Y-9551714D01*
X4742143Y-9580286D02*
X4756428Y-9566000D01*
X4785000Y-9551714D01*
X4827857Y-9551714D01*
X4856428Y-9566000D01*
X4870714Y-9594572D01*
X4870714Y-9751714D01*
X4870714Y-9594572D02*
X4885000Y-9566000D01*
X4913571Y-9551714D01*
X4956428Y-9551714D01*
X4985000Y-9566000D01*
X4999286Y-9594572D01*
X4999286Y-9751714D01*
X5142143Y-9751714D02*
X5142143Y-9551714D01*
X5142143Y-9580286D02*
X5156428Y-9566000D01*
X5185000Y-9551714D01*
X5227857Y-9551714D01*
X5256428Y-9566000D01*
X5270714Y-9594572D01*
X5270714Y-9751714D01*
X5270714Y-9594572D02*
X5285000Y-9566000D01*
X5313571Y-9551714D01*
X5356428Y-9551714D01*
X5385000Y-9566000D01*
X5399286Y-9594572D01*
X5399286Y-9751714D01*
X5985000Y-9437429D02*
X5727857Y-9823143D01*
X6370714Y-9451714D02*
X6399286Y-9451714D01*
X6427857Y-9466000D01*
X6442143Y-9480286D01*
X6456428Y-9508857D01*
X6470714Y-9566000D01*
X6470714Y-9637429D01*
X6456428Y-9694572D01*
X6442143Y-9723143D01*
X6427857Y-9737429D01*
X6399286Y-9751714D01*
X6370714Y-9751714D01*
X6342143Y-9737429D01*
X6327857Y-9723143D01*
X6313571Y-9694572D01*
X6299286Y-9637429D01*
X6299286Y-9566000D01*
X6313571Y-9508857D01*
X6327857Y-9480286D01*
X6342143Y-9466000D01*
X6370714Y-9451714D01*
X6599286Y-9723143D02*
X6613571Y-9737429D01*
X6599286Y-9751714D01*
X6585000Y-9737429D01*
X6599286Y-9723143D01*
X6599286Y-9751714D01*
X6799286Y-9451714D02*
X6827857Y-9451714D01*
X6856428Y-9466000D01*
X6870714Y-9480286D01*
X6885000Y-9508857D01*
X6899286Y-9566000D01*
X6899286Y-9637429D01*
X6885000Y-9694572D01*
X6870714Y-9723143D01*
X6856428Y-9737429D01*
X6827857Y-9751714D01*
X6799286Y-9751714D01*
X6770714Y-9737429D01*
X6756428Y-9723143D01*
X6742143Y-9694572D01*
X6727857Y-9637429D01*
X6727857Y-9566000D01*
X6742143Y-9508857D01*
X6756428Y-9480286D01*
X6770714Y-9466000D01*
X6799286Y-9451714D01*
X6999286Y-9451714D02*
X7185000Y-9451714D01*
X7085000Y-9566000D01*
X7127857Y-9566000D01*
X7156428Y-9580286D01*
X7170714Y-9594572D01*
X7185000Y-9623143D01*
X7185000Y-9694572D01*
X7170714Y-9723143D01*
X7156428Y-9737429D01*
X7127857Y-9751714D01*
X7042143Y-9751714D01*
X7013571Y-9737429D01*
X6999286Y-9723143D01*
X7327857Y-9751714D02*
X7385000Y-9751714D01*
X7413571Y-9737429D01*
X7427857Y-9723143D01*
X7456428Y-9680286D01*
X7470714Y-9623143D01*
X7470714Y-9508857D01*
X7456428Y-9480286D01*
X7442143Y-9466000D01*
X7413571Y-9451714D01*
X7356428Y-9451714D01*
X7327857Y-9466000D01*
X7313571Y-9480286D01*
X7299286Y-9508857D01*
X7299286Y-9580286D01*
X7313571Y-9608857D01*
X7327857Y-9623143D01*
X7356428Y-9637429D01*
X7413571Y-9637429D01*
X7442143Y-9623143D01*
X7456428Y-9608857D01*
X7470714Y-9580286D01*
X7727857Y-9551714D02*
X7727857Y-9751714D01*
X7656428Y-9437429D02*
X7585000Y-9651714D01*
X7770714Y-9651714D01*
X7870714Y-9451714D02*
X7870714Y-9508857D01*
X7985000Y-9451714D02*
X7985000Y-9508857D01*
X8427857Y-9866000D02*
X8413571Y-9851714D01*
X8385000Y-9808857D01*
X8370714Y-9780286D01*
X8356428Y-9737429D01*
X8342143Y-9666000D01*
X8342143Y-9608857D01*
X8356428Y-9537429D01*
X8370714Y-9494572D01*
X8385000Y-9466000D01*
X8413571Y-9423143D01*
X8427857Y-9408857D01*
X8513571Y-9451714D02*
X8713571Y-9451714D01*
X8585000Y-9751714D01*
X8799286Y-9451714D02*
X8985000Y-9451714D01*
X8885000Y-9566000D01*
X8927857Y-9566000D01*
X8956428Y-9580286D01*
X8970714Y-9594572D01*
X8985000Y-9623143D01*
X8985000Y-9694572D01*
X8970714Y-9723143D01*
X8956428Y-9737429D01*
X8927857Y-9751714D01*
X8842143Y-9751714D01*
X8813571Y-9737429D01*
X8799286Y-9723143D01*
X9342143Y-9751714D02*
X9342143Y-9451714D01*
X9470714Y-9751714D02*
X9470714Y-9594572D01*
X9456428Y-9566000D01*
X9427857Y-9551714D01*
X9385000Y-9551714D01*
X9356428Y-9566000D01*
X9342143Y-9580286D01*
X9656428Y-9751714D02*
X9627857Y-9737429D01*
X9613571Y-9723143D01*
X9599286Y-9694572D01*
X9599286Y-9608857D01*
X9613571Y-9580286D01*
X9627857Y-9566000D01*
X9656428Y-9551714D01*
X9699286Y-9551714D01*
X9727857Y-9566000D01*
X9742143Y-9580286D01*
X9756428Y-9608857D01*
X9756428Y-9694572D01*
X9742143Y-9723143D01*
X9727857Y-9737429D01*
X9699286Y-9751714D01*
X9656428Y-9751714D01*
X9927857Y-9751714D02*
X9899286Y-9737429D01*
X9885000Y-9708857D01*
X9885000Y-9451714D01*
X10156428Y-9737429D02*
X10127857Y-9751714D01*
X10070714Y-9751714D01*
X10042143Y-9737429D01*
X10027857Y-9708857D01*
X10027857Y-9594572D01*
X10042143Y-9566000D01*
X10070714Y-9551714D01*
X10127857Y-9551714D01*
X10156428Y-9566000D01*
X10170714Y-9594572D01*
X10170714Y-9623143D01*
X10027857Y-9651714D01*
X10285000Y-9737429D02*
X10313571Y-9751714D01*
X10370714Y-9751714D01*
X10399286Y-9737429D01*
X10413571Y-9708857D01*
X10413571Y-9694572D01*
X10399286Y-9666000D01*
X10370714Y-9651714D01*
X10327857Y-9651714D01*
X10299286Y-9637429D01*
X10285000Y-9608857D01*
X10285000Y-9594572D01*
X10299286Y-9566000D01*
X10327857Y-9551714D01*
X10370714Y-9551714D01*
X10399286Y-9566000D01*
X10513571Y-9866000D02*
X10527857Y-9851714D01*
X10556428Y-9808857D01*
X10570714Y-9780286D01*
X10585000Y-9737429D01*
X10599286Y-9666000D01*
X10599286Y-9608857D01*
X10585000Y-9537429D01*
X10570714Y-9494572D01*
X10556428Y-9466000D01*
X10527857Y-9423143D01*
X10513571Y-9408857D01*
X3115000Y-9957000D02*
X3115000Y-10067000D01*
X3060000Y-10012000D02*
X3170000Y-10012000D01*
X3613571Y-10147714D02*
X3442143Y-10147714D01*
X3527857Y-10147714D02*
X3527857Y-9847714D01*
X3499286Y-9890572D01*
X3470714Y-9919143D01*
X3442143Y-9933429D01*
X3742143Y-10119143D02*
X3756428Y-10133429D01*
X3742143Y-10147714D01*
X3727857Y-10133429D01*
X3742143Y-10119143D01*
X3742143Y-10147714D01*
X4042143Y-10147714D02*
X3870714Y-10147714D01*
X3956428Y-10147714D02*
X3956428Y-9847714D01*
X3927857Y-9890572D01*
X3899286Y-9919143D01*
X3870714Y-9933429D01*
X4227857Y-9847714D02*
X4256428Y-9847714D01*
X4285000Y-9862000D01*
X4299286Y-9876286D01*
X4313571Y-9904857D01*
X4327857Y-9962000D01*
X4327857Y-10033429D01*
X4313571Y-10090572D01*
X4299286Y-10119143D01*
X4285000Y-10133429D01*
X4256428Y-10147714D01*
X4227857Y-10147714D01*
X4199286Y-10133429D01*
X4185000Y-10119143D01*
X4170714Y-10090572D01*
X4156428Y-10033429D01*
X4156428Y-9962000D01*
X4170714Y-9904857D01*
X4185000Y-9876286D01*
X4199286Y-9862000D01*
X4227857Y-9847714D01*
X4513571Y-9847714D02*
X4542143Y-9847714D01*
X4570714Y-9862000D01*
X4585000Y-9876286D01*
X4599286Y-9904857D01*
X4613571Y-9962000D01*
X4613571Y-10033429D01*
X4599286Y-10090572D01*
X4585000Y-10119143D01*
X4570714Y-10133429D01*
X4542143Y-10147714D01*
X4513571Y-10147714D01*
X4485000Y-10133429D01*
X4470714Y-10119143D01*
X4456428Y-10090572D01*
X4442143Y-10033429D01*
X4442143Y-9962000D01*
X4456428Y-9904857D01*
X4470714Y-9876286D01*
X4485000Y-9862000D01*
X4513571Y-9847714D01*
X4742143Y-10147714D02*
X4742143Y-9947714D01*
X4742143Y-9976286D02*
X4756428Y-9962000D01*
X4785000Y-9947714D01*
X4827857Y-9947714D01*
X4856428Y-9962000D01*
X4870714Y-9990572D01*
X4870714Y-10147714D01*
X4870714Y-9990572D02*
X4885000Y-9962000D01*
X4913571Y-9947714D01*
X4956428Y-9947714D01*
X4985000Y-9962000D01*
X4999286Y-9990572D01*
X4999286Y-10147714D01*
X5142143Y-10147714D02*
X5142143Y-9947714D01*
X5142143Y-9976286D02*
X5156428Y-9962000D01*
X5185000Y-9947714D01*
X5227857Y-9947714D01*
X5256428Y-9962000D01*
X5270714Y-9990572D01*
X5270714Y-10147714D01*
X5270714Y-9990572D02*
X5285000Y-9962000D01*
X5313571Y-9947714D01*
X5356428Y-9947714D01*
X5385000Y-9962000D01*
X5399286Y-9990572D01*
X5399286Y-10147714D01*
X5985000Y-9833429D02*
X5727857Y-10219143D01*
X6370714Y-9847714D02*
X6399286Y-9847714D01*
X6427857Y-9862000D01*
X6442143Y-9876286D01*
X6456428Y-9904857D01*
X6470714Y-9962000D01*
X6470714Y-10033429D01*
X6456428Y-10090572D01*
X6442143Y-10119143D01*
X6427857Y-10133429D01*
X6399286Y-10147714D01*
X6370714Y-10147714D01*
X6342143Y-10133429D01*
X6327857Y-10119143D01*
X6313571Y-10090572D01*
X6299286Y-10033429D01*
X6299286Y-9962000D01*
X6313571Y-9904857D01*
X6327857Y-9876286D01*
X6342143Y-9862000D01*
X6370714Y-9847714D01*
X6599286Y-10119143D02*
X6613571Y-10133429D01*
X6599286Y-10147714D01*
X6585000Y-10133429D01*
X6599286Y-10119143D01*
X6599286Y-10147714D01*
X6799286Y-9847714D02*
X6827857Y-9847714D01*
X6856428Y-9862000D01*
X6870714Y-9876286D01*
X6885000Y-9904857D01*
X6899286Y-9962000D01*
X6899286Y-10033429D01*
X6885000Y-10090572D01*
X6870714Y-10119143D01*
X6856428Y-10133429D01*
X6827857Y-10147714D01*
X6799286Y-10147714D01*
X6770714Y-10133429D01*
X6756428Y-10119143D01*
X6742143Y-10090572D01*
X6727857Y-10033429D01*
X6727857Y-9962000D01*
X6742143Y-9904857D01*
X6756428Y-9876286D01*
X6770714Y-9862000D01*
X6799286Y-9847714D01*
X7156428Y-9947714D02*
X7156428Y-10147714D01*
X7085000Y-9833429D02*
X7013571Y-10047714D01*
X7199286Y-10047714D01*
X7285000Y-9847714D02*
X7470714Y-9847714D01*
X7370714Y-9962000D01*
X7413571Y-9962000D01*
X7442143Y-9976286D01*
X7456428Y-9990572D01*
X7470714Y-10019143D01*
X7470714Y-10090572D01*
X7456428Y-10119143D01*
X7442143Y-10133429D01*
X7413571Y-10147714D01*
X7327857Y-10147714D01*
X7299286Y-10133429D01*
X7285000Y-10119143D01*
X7570714Y-9847714D02*
X7756428Y-9847714D01*
X7656428Y-9962000D01*
X7699286Y-9962000D01*
X7727857Y-9976286D01*
X7742143Y-9990572D01*
X7756428Y-10019143D01*
X7756428Y-10090572D01*
X7742143Y-10119143D01*
X7727857Y-10133429D01*
X7699286Y-10147714D01*
X7613571Y-10147714D01*
X7585000Y-10133429D01*
X7570714Y-10119143D01*
X7870714Y-9847714D02*
X7870714Y-9904857D01*
X7985000Y-9847714D02*
X7985000Y-9904857D01*
X8427857Y-10262000D02*
X8413571Y-10247714D01*
X8385000Y-10204857D01*
X8370714Y-10176286D01*
X8356428Y-10133429D01*
X8342143Y-10062000D01*
X8342143Y-10004857D01*
X8356428Y-9933429D01*
X8370714Y-9890572D01*
X8385000Y-9862000D01*
X8413571Y-9819143D01*
X8427857Y-9804857D01*
X8670714Y-9847714D02*
X8613571Y-9847714D01*
X8585000Y-9862000D01*
X8570714Y-9876286D01*
X8542143Y-9919143D01*
X8527857Y-9976286D01*
X8527857Y-10090572D01*
X8542143Y-10119143D01*
X8556428Y-10133429D01*
X8585000Y-10147714D01*
X8642143Y-10147714D01*
X8670714Y-10133429D01*
X8685000Y-10119143D01*
X8699286Y-10090572D01*
X8699286Y-10019143D01*
X8685000Y-9990572D01*
X8670714Y-9976286D01*
X8642143Y-9962000D01*
X8585000Y-9962000D01*
X8556428Y-9976286D01*
X8542143Y-9990572D01*
X8527857Y-10019143D01*
X9056428Y-10147714D02*
X9056428Y-9847714D01*
X9185000Y-10147714D02*
X9185000Y-9990572D01*
X9170714Y-9962000D01*
X9142143Y-9947714D01*
X9099286Y-9947714D01*
X9070714Y-9962000D01*
X9056428Y-9976286D01*
X9370714Y-10147714D02*
X9342143Y-10133429D01*
X9327857Y-10119143D01*
X9313571Y-10090572D01*
X9313571Y-10004857D01*
X9327857Y-9976286D01*
X9342143Y-9962000D01*
X9370714Y-9947714D01*
X9413571Y-9947714D01*
X9442143Y-9962000D01*
X9456428Y-9976286D01*
X9470714Y-10004857D01*
X9470714Y-10090572D01*
X9456428Y-10119143D01*
X9442143Y-10133429D01*
X9413571Y-10147714D01*
X9370714Y-10147714D01*
X9642143Y-10147714D02*
X9613571Y-10133429D01*
X9599286Y-10104857D01*
X9599286Y-9847714D01*
X9870714Y-10133429D02*
X9842143Y-10147714D01*
X9785000Y-10147714D01*
X9756428Y-10133429D01*
X9742143Y-10104857D01*
X9742143Y-9990572D01*
X9756428Y-9962000D01*
X9785000Y-9947714D01*
X9842143Y-9947714D01*
X9870714Y-9962000D01*
X9885000Y-9990572D01*
X9885000Y-10019143D01*
X9742143Y-10047714D01*
X9999286Y-10133429D02*
X10027857Y-10147714D01*
X10085000Y-10147714D01*
X10113571Y-10133429D01*
X10127857Y-10104857D01*
X10127857Y-10090572D01*
X10113571Y-10062000D01*
X10085000Y-10047714D01*
X10042143Y-10047714D01*
X10013571Y-10033429D01*
X9999286Y-10004857D01*
X9999286Y-9990572D01*
X10013571Y-9962000D01*
X10042143Y-9947714D01*
X10085000Y-9947714D01*
X10113571Y-9962000D01*
X10227857Y-10262000D02*
X10242143Y-10247714D01*
X10270714Y-10204857D01*
X10285000Y-10176286D01*
X10299286Y-10133429D01*
X10313571Y-10062000D01*
X10313571Y-10004857D01*
X10299286Y-9933429D01*
X10285000Y-9890572D01*
X10270714Y-9862000D01*
X10242143Y-9819143D01*
X10227857Y-9804857D01*
X3152573Y-10450073D02*
X3152573Y-10365927D01*
X3068427Y-10365927D01*
X3068427Y-10450073D01*
X3152573Y-10450073D01*
X3613571Y-10543714D02*
X3442143Y-10543714D01*
X3527857Y-10543714D02*
X3527857Y-10243714D01*
X3499286Y-10286572D01*
X3470714Y-10315143D01*
X3442143Y-10329429D01*
X3742143Y-10515143D02*
X3756428Y-10529429D01*
X3742143Y-10543714D01*
X3727857Y-10529429D01*
X3742143Y-10515143D01*
X3742143Y-10543714D01*
X4042143Y-10543714D02*
X3870714Y-10543714D01*
X3956428Y-10543714D02*
X3956428Y-10243714D01*
X3927857Y-10286572D01*
X3899286Y-10315143D01*
X3870714Y-10329429D01*
X4185000Y-10543714D02*
X4242143Y-10543714D01*
X4270714Y-10529429D01*
X4285000Y-10515143D01*
X4313571Y-10472286D01*
X4327857Y-10415143D01*
X4327857Y-10300857D01*
X4313571Y-10272286D01*
X4299286Y-10258000D01*
X4270714Y-10243714D01*
X4213571Y-10243714D01*
X4185000Y-10258000D01*
X4170714Y-10272286D01*
X4156428Y-10300857D01*
X4156428Y-10372286D01*
X4170714Y-10400857D01*
X4185000Y-10415143D01*
X4213571Y-10429429D01*
X4270714Y-10429429D01*
X4299286Y-10415143D01*
X4313571Y-10400857D01*
X4327857Y-10372286D01*
X4513571Y-10243714D02*
X4542143Y-10243714D01*
X4570714Y-10258000D01*
X4585000Y-10272286D01*
X4599286Y-10300857D01*
X4613571Y-10358000D01*
X4613571Y-10429429D01*
X4599286Y-10486572D01*
X4585000Y-10515143D01*
X4570714Y-10529429D01*
X4542143Y-10543714D01*
X4513571Y-10543714D01*
X4485000Y-10529429D01*
X4470714Y-10515143D01*
X4456428Y-10486572D01*
X4442143Y-10429429D01*
X4442143Y-10358000D01*
X4456428Y-10300857D01*
X4470714Y-10272286D01*
X4485000Y-10258000D01*
X4513571Y-10243714D01*
X4742143Y-10543714D02*
X4742143Y-10343714D01*
X4742143Y-10372286D02*
X4756428Y-10358000D01*
X4785000Y-10343714D01*
X4827857Y-10343714D01*
X4856428Y-10358000D01*
X4870714Y-10386572D01*
X4870714Y-10543714D01*
X4870714Y-10386572D02*
X4885000Y-10358000D01*
X4913571Y-10343714D01*
X4956428Y-10343714D01*
X4985000Y-10358000D01*
X4999286Y-10386572D01*
X4999286Y-10543714D01*
X5142143Y-10543714D02*
X5142143Y-10343714D01*
X5142143Y-10372286D02*
X5156428Y-10358000D01*
X5185000Y-10343714D01*
X5227857Y-10343714D01*
X5256428Y-10358000D01*
X5270714Y-10386572D01*
X5270714Y-10543714D01*
X5270714Y-10386572D02*
X5285000Y-10358000D01*
X5313571Y-10343714D01*
X5356428Y-10343714D01*
X5385000Y-10358000D01*
X5399286Y-10386572D01*
X5399286Y-10543714D01*
X5985000Y-10229429D02*
X5727857Y-10615143D01*
X6370714Y-10243714D02*
X6399286Y-10243714D01*
X6427857Y-10258000D01*
X6442143Y-10272286D01*
X6456428Y-10300857D01*
X6470714Y-10358000D01*
X6470714Y-10429429D01*
X6456428Y-10486572D01*
X6442143Y-10515143D01*
X6427857Y-10529429D01*
X6399286Y-10543714D01*
X6370714Y-10543714D01*
X6342143Y-10529429D01*
X6327857Y-10515143D01*
X6313571Y-10486572D01*
X6299286Y-10429429D01*
X6299286Y-10358000D01*
X6313571Y-10300857D01*
X6327857Y-10272286D01*
X6342143Y-10258000D01*
X6370714Y-10243714D01*
X6599286Y-10515143D02*
X6613571Y-10529429D01*
X6599286Y-10543714D01*
X6585000Y-10529429D01*
X6599286Y-10515143D01*
X6599286Y-10543714D01*
X6799286Y-10243714D02*
X6827857Y-10243714D01*
X6856428Y-10258000D01*
X6870714Y-10272286D01*
X6885000Y-10300857D01*
X6899286Y-10358000D01*
X6899286Y-10429429D01*
X6885000Y-10486572D01*
X6870714Y-10515143D01*
X6856428Y-10529429D01*
X6827857Y-10543714D01*
X6799286Y-10543714D01*
X6770714Y-10529429D01*
X6756428Y-10515143D01*
X6742143Y-10486572D01*
X6727857Y-10429429D01*
X6727857Y-10358000D01*
X6742143Y-10300857D01*
X6756428Y-10272286D01*
X6770714Y-10258000D01*
X6799286Y-10243714D01*
X7156428Y-10343714D02*
X7156428Y-10543714D01*
X7085000Y-10229429D02*
X7013571Y-10443714D01*
X7199286Y-10443714D01*
X7442143Y-10243714D02*
X7385000Y-10243714D01*
X7356428Y-10258000D01*
X7342143Y-10272286D01*
X7313571Y-10315143D01*
X7299286Y-10372286D01*
X7299286Y-10486572D01*
X7313571Y-10515143D01*
X7327857Y-10529429D01*
X7356428Y-10543714D01*
X7413571Y-10543714D01*
X7442143Y-10529429D01*
X7456428Y-10515143D01*
X7470714Y-10486572D01*
X7470714Y-10415143D01*
X7456428Y-10386572D01*
X7442143Y-10372286D01*
X7413571Y-10358000D01*
X7356428Y-10358000D01*
X7327857Y-10372286D01*
X7313571Y-10386572D01*
X7299286Y-10415143D01*
X7613571Y-10543714D02*
X7670714Y-10543714D01*
X7699286Y-10529429D01*
X7713571Y-10515143D01*
X7742143Y-10472286D01*
X7756428Y-10415143D01*
X7756428Y-10300857D01*
X7742143Y-10272286D01*
X7727857Y-10258000D01*
X7699286Y-10243714D01*
X7642143Y-10243714D01*
X7613571Y-10258000D01*
X7599286Y-10272286D01*
X7585000Y-10300857D01*
X7585000Y-10372286D01*
X7599286Y-10400857D01*
X7613571Y-10415143D01*
X7642143Y-10429429D01*
X7699286Y-10429429D01*
X7727857Y-10415143D01*
X7742143Y-10400857D01*
X7756428Y-10372286D01*
X7870714Y-10243714D02*
X7870714Y-10300857D01*
X7985000Y-10243714D02*
X7985000Y-10300857D01*
X8427857Y-10658000D02*
X8413571Y-10643714D01*
X8385000Y-10600857D01*
X8370714Y-10572286D01*
X8356428Y-10529429D01*
X8342143Y-10458000D01*
X8342143Y-10400857D01*
X8356428Y-10329429D01*
X8370714Y-10286572D01*
X8385000Y-10258000D01*
X8413571Y-10215143D01*
X8427857Y-10200857D01*
X8556428Y-10543714D02*
X8613571Y-10543714D01*
X8642143Y-10529429D01*
X8656428Y-10515143D01*
X8685000Y-10472286D01*
X8699286Y-10415143D01*
X8699286Y-10300857D01*
X8685000Y-10272286D01*
X8670714Y-10258000D01*
X8642143Y-10243714D01*
X8585000Y-10243714D01*
X8556428Y-10258000D01*
X8542143Y-10272286D01*
X8527857Y-10300857D01*
X8527857Y-10372286D01*
X8542143Y-10400857D01*
X8556428Y-10415143D01*
X8585000Y-10429429D01*
X8642143Y-10429429D01*
X8670714Y-10415143D01*
X8685000Y-10400857D01*
X8699286Y-10372286D01*
X9056428Y-10543714D02*
X9056428Y-10243714D01*
X9185000Y-10543714D02*
X9185000Y-10386572D01*
X9170714Y-10358000D01*
X9142143Y-10343714D01*
X9099286Y-10343714D01*
X9070714Y-10358000D01*
X9056428Y-10372286D01*
X9370714Y-10543714D02*
X9342143Y-10529429D01*
X9327857Y-10515143D01*
X9313571Y-10486572D01*
X9313571Y-10400857D01*
X9327857Y-10372286D01*
X9342143Y-10358000D01*
X9370714Y-10343714D01*
X9413571Y-10343714D01*
X9442143Y-10358000D01*
X9456428Y-10372286D01*
X9470714Y-10400857D01*
X9470714Y-10486572D01*
X9456428Y-10515143D01*
X9442143Y-10529429D01*
X9413571Y-10543714D01*
X9370714Y-10543714D01*
X9642143Y-10543714D02*
X9613571Y-10529429D01*
X9599286Y-10500857D01*
X9599286Y-10243714D01*
X9870714Y-10529429D02*
X9842143Y-10543714D01*
X9785000Y-10543714D01*
X9756428Y-10529429D01*
X9742143Y-10500857D01*
X9742143Y-10386572D01*
X9756428Y-10358000D01*
X9785000Y-10343714D01*
X9842143Y-10343714D01*
X9870714Y-10358000D01*
X9885000Y-10386572D01*
X9885000Y-10415143D01*
X9742143Y-10443714D01*
X9999286Y-10529429D02*
X10027857Y-10543714D01*
X10085000Y-10543714D01*
X10113571Y-10529429D01*
X10127857Y-10500857D01*
X10127857Y-10486572D01*
X10113571Y-10458000D01*
X10085000Y-10443714D01*
X10042143Y-10443714D01*
X10013571Y-10429429D01*
X9999286Y-10400857D01*
X9999286Y-10386572D01*
X10013571Y-10358000D01*
X10042143Y-10343714D01*
X10085000Y-10343714D01*
X10113571Y-10358000D01*
X10227857Y-10658000D02*
X10242143Y-10643714D01*
X10270714Y-10600857D01*
X10285000Y-10572286D01*
X10299286Y-10529429D01*
X10313571Y-10458000D01*
X10313571Y-10400857D01*
X10299286Y-10329429D01*
X10285000Y-10286572D01*
X10270714Y-10258000D01*
X10242143Y-10215143D01*
X10227857Y-10200857D01*
M02*
