%FSLAX45Y45*%
G04 Gerber Fmt 4.5, Leading zero omitted, Abs format (unit mm)*
G04 Created by KiCad (PCBNEW (5.1.10)-1) date 2021-09-17 19:58:28*
%MOMM*%
%LPD*%
G01*
G04 APERTURE LIST*
%TA.AperFunction,Profile*%
%ADD10C,0.100000*%
%TD*%
%ADD11C,0.200000*%
%ADD12C,0.300000*%
G04 APERTURE END LIST*
D10*
X11684000Y-1778000D02*
X11684000Y-8255000D01*
X3175000Y-1778000D02*
X11684000Y-1778000D01*
X3175000Y-8255000D02*
X3175000Y-1778000D01*
X11684000Y-8255000D02*
X3175000Y-8255000D01*
D11*
X3650000Y-2253000D02*
X3970000Y-2573000D01*
X3970000Y-2253000D02*
X3650000Y-2573000D01*
X3650000Y-7587000D02*
X3970000Y-7907000D01*
X3970000Y-7587000D02*
X3650000Y-7907000D01*
X10889000Y-2253000D02*
X11209000Y-2573000D01*
X11209000Y-2253000D02*
X10889000Y-2573000D01*
X10889000Y-7587000D02*
X11209000Y-7907000D01*
X11209000Y-7587000D02*
X10889000Y-7907000D01*
D12*
X3456428Y-8725714D02*
X3456428Y-8425714D01*
X3527857Y-8425714D01*
X3570714Y-8440000D01*
X3599286Y-8468572D01*
X3613571Y-8497143D01*
X3627857Y-8554286D01*
X3627857Y-8597143D01*
X3613571Y-8654286D01*
X3599286Y-8682857D01*
X3570714Y-8711429D01*
X3527857Y-8725714D01*
X3456428Y-8725714D01*
X3756428Y-8725714D02*
X3756428Y-8525714D01*
X3756428Y-8582857D02*
X3770714Y-8554286D01*
X3785000Y-8540000D01*
X3813571Y-8525714D01*
X3842143Y-8525714D01*
X3942143Y-8725714D02*
X3942143Y-8525714D01*
X3942143Y-8425714D02*
X3927857Y-8440000D01*
X3942143Y-8454286D01*
X3956428Y-8440000D01*
X3942143Y-8425714D01*
X3942143Y-8454286D01*
X4127857Y-8725714D02*
X4099286Y-8711429D01*
X4085000Y-8682857D01*
X4085000Y-8425714D01*
X4285000Y-8725714D02*
X4256428Y-8711429D01*
X4242143Y-8682857D01*
X4242143Y-8425714D01*
X4627857Y-8725714D02*
X4627857Y-8425714D01*
X4727857Y-8640000D01*
X4827857Y-8425714D01*
X4827857Y-8725714D01*
X5099286Y-8725714D02*
X5099286Y-8568572D01*
X5085000Y-8540000D01*
X5056428Y-8525714D01*
X4999286Y-8525714D01*
X4970714Y-8540000D01*
X5099286Y-8711429D02*
X5070714Y-8725714D01*
X4999286Y-8725714D01*
X4970714Y-8711429D01*
X4956428Y-8682857D01*
X4956428Y-8654286D01*
X4970714Y-8625714D01*
X4999286Y-8611429D01*
X5070714Y-8611429D01*
X5099286Y-8597143D01*
X5242143Y-8525714D02*
X5242143Y-8825714D01*
X5242143Y-8540000D02*
X5270714Y-8525714D01*
X5327857Y-8525714D01*
X5356428Y-8540000D01*
X5370714Y-8554286D01*
X5385000Y-8582857D01*
X5385000Y-8668572D01*
X5370714Y-8697143D01*
X5356428Y-8711429D01*
X5327857Y-8725714D01*
X5270714Y-8725714D01*
X5242143Y-8711429D01*
X5513571Y-8697143D02*
X5527857Y-8711429D01*
X5513571Y-8725714D01*
X5499286Y-8711429D01*
X5513571Y-8697143D01*
X5513571Y-8725714D01*
X5513571Y-8540000D02*
X5527857Y-8554286D01*
X5513571Y-8568572D01*
X5499286Y-8554286D01*
X5513571Y-8540000D01*
X5513571Y-8568572D01*
X2850000Y-9060000D02*
X3170000Y-9380000D01*
X3170000Y-9060000D02*
X2850000Y-9380000D01*
X3427857Y-9055714D02*
X3613571Y-9055714D01*
X3513571Y-9170000D01*
X3556428Y-9170000D01*
X3585000Y-9184286D01*
X3599286Y-9198572D01*
X3613571Y-9227143D01*
X3613571Y-9298572D01*
X3599286Y-9327143D01*
X3585000Y-9341429D01*
X3556428Y-9355714D01*
X3470714Y-9355714D01*
X3442143Y-9341429D01*
X3427857Y-9327143D01*
X3742143Y-9327143D02*
X3756428Y-9341429D01*
X3742143Y-9355714D01*
X3727857Y-9341429D01*
X3742143Y-9327143D01*
X3742143Y-9355714D01*
X3870714Y-9084286D02*
X3885000Y-9070000D01*
X3913571Y-9055714D01*
X3985000Y-9055714D01*
X4013571Y-9070000D01*
X4027857Y-9084286D01*
X4042143Y-9112857D01*
X4042143Y-9141429D01*
X4027857Y-9184286D01*
X3856428Y-9355714D01*
X4042143Y-9355714D01*
X4227857Y-9055714D02*
X4256428Y-9055714D01*
X4285000Y-9070000D01*
X4299286Y-9084286D01*
X4313571Y-9112857D01*
X4327857Y-9170000D01*
X4327857Y-9241429D01*
X4313571Y-9298572D01*
X4299286Y-9327143D01*
X4285000Y-9341429D01*
X4256428Y-9355714D01*
X4227857Y-9355714D01*
X4199286Y-9341429D01*
X4185000Y-9327143D01*
X4170714Y-9298572D01*
X4156428Y-9241429D01*
X4156428Y-9170000D01*
X4170714Y-9112857D01*
X4185000Y-9084286D01*
X4199286Y-9070000D01*
X4227857Y-9055714D01*
X4513571Y-9055714D02*
X4542143Y-9055714D01*
X4570714Y-9070000D01*
X4585000Y-9084286D01*
X4599286Y-9112857D01*
X4613571Y-9170000D01*
X4613571Y-9241429D01*
X4599286Y-9298572D01*
X4585000Y-9327143D01*
X4570714Y-9341429D01*
X4542143Y-9355714D01*
X4513571Y-9355714D01*
X4485000Y-9341429D01*
X4470714Y-9327143D01*
X4456428Y-9298572D01*
X4442143Y-9241429D01*
X4442143Y-9170000D01*
X4456428Y-9112857D01*
X4470714Y-9084286D01*
X4485000Y-9070000D01*
X4513571Y-9055714D01*
X4742143Y-9355714D02*
X4742143Y-9155714D01*
X4742143Y-9184286D02*
X4756428Y-9170000D01*
X4785000Y-9155714D01*
X4827857Y-9155714D01*
X4856428Y-9170000D01*
X4870714Y-9198572D01*
X4870714Y-9355714D01*
X4870714Y-9198572D02*
X4885000Y-9170000D01*
X4913571Y-9155714D01*
X4956428Y-9155714D01*
X4985000Y-9170000D01*
X4999286Y-9198572D01*
X4999286Y-9355714D01*
X5142143Y-9355714D02*
X5142143Y-9155714D01*
X5142143Y-9184286D02*
X5156428Y-9170000D01*
X5185000Y-9155714D01*
X5227857Y-9155714D01*
X5256428Y-9170000D01*
X5270714Y-9198572D01*
X5270714Y-9355714D01*
X5270714Y-9198572D02*
X5285000Y-9170000D01*
X5313571Y-9155714D01*
X5356428Y-9155714D01*
X5385000Y-9170000D01*
X5399286Y-9198572D01*
X5399286Y-9355714D01*
X5985000Y-9041429D02*
X5727857Y-9427143D01*
X6370714Y-9055714D02*
X6399286Y-9055714D01*
X6427857Y-9070000D01*
X6442143Y-9084286D01*
X6456428Y-9112857D01*
X6470714Y-9170000D01*
X6470714Y-9241429D01*
X6456428Y-9298572D01*
X6442143Y-9327143D01*
X6427857Y-9341429D01*
X6399286Y-9355714D01*
X6370714Y-9355714D01*
X6342143Y-9341429D01*
X6327857Y-9327143D01*
X6313571Y-9298572D01*
X6299286Y-9241429D01*
X6299286Y-9170000D01*
X6313571Y-9112857D01*
X6327857Y-9084286D01*
X6342143Y-9070000D01*
X6370714Y-9055714D01*
X6599286Y-9327143D02*
X6613571Y-9341429D01*
X6599286Y-9355714D01*
X6585000Y-9341429D01*
X6599286Y-9327143D01*
X6599286Y-9355714D01*
X6899286Y-9355714D02*
X6727857Y-9355714D01*
X6813571Y-9355714D02*
X6813571Y-9055714D01*
X6785000Y-9098572D01*
X6756428Y-9127143D01*
X6727857Y-9141429D01*
X7013571Y-9084286D02*
X7027857Y-9070000D01*
X7056428Y-9055714D01*
X7127857Y-9055714D01*
X7156428Y-9070000D01*
X7170714Y-9084286D01*
X7185000Y-9112857D01*
X7185000Y-9141429D01*
X7170714Y-9184286D01*
X6999286Y-9355714D01*
X7185000Y-9355714D01*
X7442143Y-9055714D02*
X7385000Y-9055714D01*
X7356428Y-9070000D01*
X7342143Y-9084286D01*
X7313571Y-9127143D01*
X7299286Y-9184286D01*
X7299286Y-9298572D01*
X7313571Y-9327143D01*
X7327857Y-9341429D01*
X7356428Y-9355714D01*
X7413571Y-9355714D01*
X7442143Y-9341429D01*
X7456428Y-9327143D01*
X7470714Y-9298572D01*
X7470714Y-9227143D01*
X7456428Y-9198572D01*
X7442143Y-9184286D01*
X7413571Y-9170000D01*
X7356428Y-9170000D01*
X7327857Y-9184286D01*
X7313571Y-9198572D01*
X7299286Y-9227143D01*
X7656428Y-9055714D02*
X7685000Y-9055714D01*
X7713571Y-9070000D01*
X7727857Y-9084286D01*
X7742143Y-9112857D01*
X7756428Y-9170000D01*
X7756428Y-9241429D01*
X7742143Y-9298572D01*
X7727857Y-9327143D01*
X7713571Y-9341429D01*
X7685000Y-9355714D01*
X7656428Y-9355714D01*
X7627857Y-9341429D01*
X7613571Y-9327143D01*
X7599286Y-9298572D01*
X7585000Y-9241429D01*
X7585000Y-9170000D01*
X7599286Y-9112857D01*
X7613571Y-9084286D01*
X7627857Y-9070000D01*
X7656428Y-9055714D01*
X7870714Y-9055714D02*
X7870714Y-9112857D01*
X7985000Y-9055714D02*
X7985000Y-9112857D01*
X8427857Y-9470000D02*
X8413571Y-9455714D01*
X8385000Y-9412857D01*
X8370714Y-9384286D01*
X8356428Y-9341429D01*
X8342143Y-9270000D01*
X8342143Y-9212857D01*
X8356428Y-9141429D01*
X8370714Y-9098572D01*
X8385000Y-9070000D01*
X8413571Y-9027143D01*
X8427857Y-9012857D01*
X8670714Y-9155714D02*
X8670714Y-9355714D01*
X8599286Y-9041429D02*
X8527857Y-9255714D01*
X8713571Y-9255714D01*
X9056428Y-9355714D02*
X9056428Y-9055714D01*
X9185000Y-9355714D02*
X9185000Y-9198572D01*
X9170714Y-9170000D01*
X9142143Y-9155714D01*
X9099286Y-9155714D01*
X9070714Y-9170000D01*
X9056428Y-9184286D01*
X9370714Y-9355714D02*
X9342143Y-9341429D01*
X9327857Y-9327143D01*
X9313571Y-9298572D01*
X9313571Y-9212857D01*
X9327857Y-9184286D01*
X9342143Y-9170000D01*
X9370714Y-9155714D01*
X9413571Y-9155714D01*
X9442143Y-9170000D01*
X9456428Y-9184286D01*
X9470714Y-9212857D01*
X9470714Y-9298572D01*
X9456428Y-9327143D01*
X9442143Y-9341429D01*
X9413571Y-9355714D01*
X9370714Y-9355714D01*
X9642143Y-9355714D02*
X9613571Y-9341429D01*
X9599286Y-9312857D01*
X9599286Y-9055714D01*
X9870714Y-9341429D02*
X9842143Y-9355714D01*
X9785000Y-9355714D01*
X9756428Y-9341429D01*
X9742143Y-9312857D01*
X9742143Y-9198572D01*
X9756428Y-9170000D01*
X9785000Y-9155714D01*
X9842143Y-9155714D01*
X9870714Y-9170000D01*
X9885000Y-9198572D01*
X9885000Y-9227143D01*
X9742143Y-9255714D01*
X9999286Y-9341429D02*
X10027857Y-9355714D01*
X10085000Y-9355714D01*
X10113571Y-9341429D01*
X10127857Y-9312857D01*
X10127857Y-9298572D01*
X10113571Y-9270000D01*
X10085000Y-9255714D01*
X10042143Y-9255714D01*
X10013571Y-9241429D01*
X9999286Y-9212857D01*
X9999286Y-9198572D01*
X10013571Y-9170000D01*
X10042143Y-9155714D01*
X10085000Y-9155714D01*
X10113571Y-9170000D01*
X10227857Y-9470000D02*
X10242143Y-9455714D01*
X10270714Y-9412857D01*
X10285000Y-9384286D01*
X10299286Y-9341429D01*
X10313571Y-9270000D01*
X10313571Y-9212857D01*
X10299286Y-9141429D01*
X10285000Y-9098572D01*
X10270714Y-9070000D01*
X10242143Y-9027143D01*
X10227857Y-9012857D01*
X10770714Y-9470000D02*
X10756428Y-9455714D01*
X10727857Y-9412857D01*
X10713571Y-9384286D01*
X10699286Y-9341429D01*
X10685000Y-9270000D01*
X10685000Y-9212857D01*
X10699286Y-9141429D01*
X10713571Y-9098572D01*
X10727857Y-9070000D01*
X10756428Y-9027143D01*
X10770714Y-9012857D01*
X10885000Y-9155714D02*
X10885000Y-9355714D01*
X10885000Y-9184286D02*
X10899286Y-9170000D01*
X10927857Y-9155714D01*
X10970714Y-9155714D01*
X10999286Y-9170000D01*
X11013571Y-9198572D01*
X11013571Y-9355714D01*
X11199286Y-9355714D02*
X11170714Y-9341429D01*
X11156428Y-9327143D01*
X11142143Y-9298572D01*
X11142143Y-9212857D01*
X11156428Y-9184286D01*
X11170714Y-9170000D01*
X11199286Y-9155714D01*
X11242143Y-9155714D01*
X11270714Y-9170000D01*
X11285000Y-9184286D01*
X11299286Y-9212857D01*
X11299286Y-9298572D01*
X11285000Y-9327143D01*
X11270714Y-9341429D01*
X11242143Y-9355714D01*
X11199286Y-9355714D01*
X11385000Y-9155714D02*
X11499286Y-9155714D01*
X11427857Y-9055714D02*
X11427857Y-9312857D01*
X11442143Y-9341429D01*
X11470714Y-9355714D01*
X11499286Y-9355714D01*
X11827857Y-9155714D02*
X11827857Y-9455714D01*
X11827857Y-9170000D02*
X11856428Y-9155714D01*
X11913571Y-9155714D01*
X11942143Y-9170000D01*
X11956428Y-9184286D01*
X11970714Y-9212857D01*
X11970714Y-9298572D01*
X11956428Y-9327143D01*
X11942143Y-9341429D01*
X11913571Y-9355714D01*
X11856428Y-9355714D01*
X11827857Y-9341429D01*
X12142143Y-9355714D02*
X12113571Y-9341429D01*
X12099286Y-9312857D01*
X12099286Y-9055714D01*
X12385000Y-9355714D02*
X12385000Y-9198572D01*
X12370714Y-9170000D01*
X12342143Y-9155714D01*
X12285000Y-9155714D01*
X12256428Y-9170000D01*
X12385000Y-9341429D02*
X12356428Y-9355714D01*
X12285000Y-9355714D01*
X12256428Y-9341429D01*
X12242143Y-9312857D01*
X12242143Y-9284286D01*
X12256428Y-9255714D01*
X12285000Y-9241429D01*
X12356428Y-9241429D01*
X12385000Y-9227143D01*
X12485000Y-9155714D02*
X12599286Y-9155714D01*
X12527857Y-9055714D02*
X12527857Y-9312857D01*
X12542143Y-9341429D01*
X12570714Y-9355714D01*
X12599286Y-9355714D01*
X12813571Y-9341429D02*
X12785000Y-9355714D01*
X12727857Y-9355714D01*
X12699286Y-9341429D01*
X12685000Y-9312857D01*
X12685000Y-9198572D01*
X12699286Y-9170000D01*
X12727857Y-9155714D01*
X12785000Y-9155714D01*
X12813571Y-9170000D01*
X12827857Y-9198572D01*
X12827857Y-9227143D01*
X12685000Y-9255714D01*
X13085000Y-9355714D02*
X13085000Y-9055714D01*
X13085000Y-9341429D02*
X13056428Y-9355714D01*
X12999286Y-9355714D01*
X12970714Y-9341429D01*
X12956428Y-9327143D01*
X12942143Y-9298572D01*
X12942143Y-9212857D01*
X12956428Y-9184286D01*
X12970714Y-9170000D01*
X12999286Y-9155714D01*
X13056428Y-9155714D01*
X13085000Y-9170000D01*
X13199286Y-9470000D02*
X13213571Y-9455714D01*
X13242143Y-9412857D01*
X13256428Y-9384286D01*
X13270714Y-9341429D01*
X13285000Y-9270000D01*
X13285000Y-9212857D01*
X13270714Y-9141429D01*
X13256428Y-9098572D01*
X13242143Y-9070000D01*
X13213571Y-9027143D01*
X13199286Y-9012857D01*
M02*
