M48
; DRILL file {KiCad (5.1.10)-1} date 09/17/21 19:58:25
; FORMAT={-:-/ absolute / metric / decimal}
; #@! TF.CreationDate,2021-09-17T19:58:25-07:00
; #@! TF.GenerationSoftware,Kicad,Pcbnew,(5.1.10)-1
; #@! TF.FileFunction,Plated,1,2,PTH
FMAT,2
METRIC
T1C0.800
T2C1.000
T3C1.100
T4C1.190
%
G90
G05
T1
X67.31Y-70.485
X68.58Y-45.72
X68.58Y-55.88
X68.58Y-62.23
X68.58Y-64.77
X68.58Y-67.31
X73.66Y-52.07
X73.66Y-62.23
X77.47Y-25.4
X77.47Y-27.94
X77.47Y-30.48
X77.47Y-33.02
X77.47Y-35.56
X77.47Y-38.1
X77.47Y-40.64
X77.47Y-43.18
X77.47Y-45.72
X77.47Y-48.26
X77.47Y-70.485
X77.51Y-64.135
X80.01Y-64.135
X83.82Y-53.34
X83.82Y-62.23
X83.82Y-67.23
X85.09Y-21.59
X85.09Y-25.4
X85.09Y-27.94
X85.09Y-30.48
X85.09Y-33.02
X85.09Y-35.56
X85.09Y-38.1
X85.09Y-40.64
X85.09Y-43.18
X85.09Y-45.72
X85.09Y-48.26
X90.09Y-21.59
X91.44Y-48.26
X92.71Y-62.23
X92.71Y-64.77
X92.71Y-67.31
X93.98Y-53.34
X97.79Y-54.61
X100.33Y-54.61
X101.6Y-48.26
X101.6Y-59.055
X101.6Y-69.215
X102.87Y-54.61
T2
X35.56Y-53.34
X35.56Y-55.88
X35.56Y-58.42
X35.56Y-60.96
X35.56Y-63.5
X35.56Y-66.04
X38.1Y-53.34
X38.1Y-55.88
X38.1Y-58.42
X38.1Y-60.96
X38.1Y-63.5
X38.1Y-66.04
X44.45Y-25.4
X44.45Y-66.04
X60.325Y-72.39
X60.325Y-77.47
X62.23Y-25.4
X62.23Y-66.04
X68.58Y-25.4
X68.58Y-27.94
X68.58Y-30.48
X68.58Y-33.02
X68.58Y-35.56
X68.58Y-38.1
X68.58Y-40.64
X71.12Y-25.4
X71.12Y-27.94
X71.12Y-30.48
X71.12Y-33.02
X71.12Y-35.56
X71.12Y-38.1
X71.12Y-40.64
X73.66Y-74.295
X73.66Y-76.835
X76.2Y-74.295
X76.2Y-76.835
X78.74Y-74.295
X78.74Y-76.835
X81.28Y-74.295
X81.28Y-76.835
X90.805Y-74.295
X90.805Y-76.835
X91.44Y-25.4
X91.44Y-27.94
X91.44Y-30.48
X91.44Y-33.02
X91.44Y-35.56
X91.44Y-38.1
X91.44Y-40.64
X93.345Y-74.295
X93.345Y-76.835
X93.98Y-25.4
X93.98Y-27.94
X93.98Y-30.48
X93.98Y-33.02
X93.98Y-35.56
X93.98Y-38.1
X93.98Y-40.64
X95.885Y-74.295
X95.885Y-76.835
X96.52Y-25.4
X96.52Y-27.94
X96.52Y-30.48
X96.52Y-33.02
X96.52Y-35.56
X96.52Y-38.1
X96.52Y-40.64
X98.425Y-74.295
X98.425Y-76.835
X100.965Y-74.295
X100.965Y-76.835
X103.505Y-74.295
X103.505Y-76.835
T3
X78.74Y-59.055
X81.28Y-59.055
X83.82Y-59.055
X105.41Y-35.56
X107.95Y-35.56
X110.49Y-35.56
T4
X109.22Y-41.91
X109.22Y-44.45
X109.22Y-46.99
X109.22Y-53.34
X109.22Y-55.88
X109.22Y-58.42
X109.22Y-60.96
X109.22Y-67.31
X109.22Y-69.85
T0
M30
